<svg width="251" height="323" viewBox="0 0 251 323" fill="none" xmlns="http://www.w3.org/2000/svg">
<path d="M136.467 322.23C192.275 322.23 237.517 316.275 237.517 308.93C237.517 301.584 192.275 295.63 136.467 295.63C80.6586 295.63 35.417 301.584 35.417 308.93C35.417 316.275 80.6586 322.23 136.467 322.23Z" fill="#EBEBEB"/>
<path d="M182.403 177.164C178.906 184.461 176.646 192.554 177.443 200.601C178.24 208.648 182.449 216.61 189.483 220.595C196.516 224.58 206.374 223.69 211.697 217.624C211.426 224.015 217.972 229.23 224.363 229.145C230.755 229.06 236.48 224.804 240.179 219.597C247.274 209.615 248.141 196.098 244.473 184.414C240.806 172.731 233.068 162.703 224.224 154.238" fill="#BF632D"/>
<path d="M224.224 154.23C224.224 154.23 226.166 155.933 229.338 159.353C231.266 161.43 233.087 163.605 234.793 165.868C237.067 168.861 239.091 172.036 240.844 175.361C241.861 177.295 242.763 179.287 243.544 181.327C244.409 183.535 245.105 185.806 245.626 188.121C246.185 190.6 246.544 193.12 246.701 195.657C246.848 198.35 246.75 201.051 246.407 203.727C245.714 209.505 243.609 215.025 240.279 219.798C238.499 222.313 236.282 224.489 233.733 226.22C231.111 228.039 228.043 229.109 224.858 229.315C221.47 229.45 218.154 228.303 215.573 226.104C214.309 225.055 213.271 223.76 212.525 222.297C211.79 220.849 211.439 219.238 211.503 217.616L211.844 217.755C210.105 219.685 207.922 221.161 205.484 222.057C203.138 222.9 200.654 223.288 198.164 223.202C193.465 223.027 188.989 221.158 185.56 217.941C182.528 215.081 180.232 211.533 178.867 207.596C178.245 205.837 177.789 204.023 177.505 202.18C177.258 200.489 177.144 198.781 177.164 197.073C177.289 191.974 178.311 186.938 180.182 182.194C180.817 180.468 181.558 178.783 182.403 177.149L182.263 177.481L181.838 178.449C181.466 179.308 180.917 180.569 180.29 182.24C178.478 186.986 177.499 192.009 177.397 197.088C177.384 198.782 177.505 200.474 177.76 202.149C178.044 203.971 178.503 205.761 179.13 207.495C180.49 211.377 182.767 214.873 185.769 217.685C189.139 220.837 193.537 222.662 198.148 222.823C200.59 222.907 203.024 222.524 205.321 221.693C207.695 220.82 209.82 219.38 211.511 217.5L211.882 217.082V217.631C211.828 219.187 212.169 220.731 212.873 222.119C213.6 223.533 214.605 224.786 215.829 225.802C218.337 227.921 221.547 229.025 224.827 228.897C227.941 228.692 230.942 227.647 233.509 225.872C236.017 224.169 238.2 222.03 239.954 219.558C243.254 214.836 245.342 209.376 246.036 203.657C246.383 201.008 246.487 198.333 246.345 195.665C246.056 190.785 245.011 185.98 243.25 181.42C242.479 179.388 241.588 177.403 240.581 175.477C238.866 172.162 236.883 168.993 234.654 165.999C232.673 163.353 230.824 161.186 229.238 159.461C227.651 157.735 226.413 156.436 225.547 155.592C225.129 155.159 224.773 154.818 224.564 154.602L224.224 154.23Z" fill="#263238"/>
<g opacity="0.4">
<path d="M245.819 189.923C245.819 192.833 243.753 198.009 243.096 200.826C242.532 203.701 240.967 206.284 238.678 208.114C236.356 209.816 232.952 210.265 230.499 208.718C230.136 211.364 229.408 214.049 227.714 216.115C226.019 218.181 223.18 219.465 220.618 218.73C218.669 218.173 217.198 216.587 215.976 214.97C212.921 210.954 210.705 206.365 209.461 201.475C208.618 204.981 207.403 208.439 205.174 211.31C202.946 214.18 199.565 216.246 195.959 216.239C192.845 216.124 189.903 214.784 187.773 212.509C185.669 210.246 184.062 207.568 183.053 204.648C179.8 195.999 179.62 186.495 182.542 177.729L181.885 178.325C178.705 185.289 176.693 192.98 177.451 200.601C178.225 208.648 182.457 216.61 189.491 220.595C196.524 224.58 206.381 223.69 211.705 217.624C211.434 224.015 217.98 229.23 224.371 229.145C230.762 229.06 236.488 224.804 240.186 219.597C246.183 211.171 247.715 200.183 245.819 189.923Z" fill="white"/>
</g>
<path d="M144.629 61.6516C184.09 60.6302 207.356 87.1852 218.552 104.571C227.837 119.009 232.248 144.458 231.598 164.15C230.654 192.833 223.087 222.181 201.499 241.525C179.911 260.868 149.828 269.975 120.743 268.002C91.6579 266.029 63.772 253.301 41.9988 234.189C27.5452 221.523 16.8211 202.412 8.28664 185.32C2.971 174.681 -0.951899 161.287 5.62495 155.399C11.4048 150.246 25.1698 150.602 30.6711 145.201C30.6711 145.201 37.6349 126.399 42.7184 113.748C52.6069 89.2975 70.728 73.5131 90.7758 65.6364C110.824 57.7596 123.01 61.52 144.605 61.6516" fill="#BF632D"/>
<path d="M149.952 7.50475C146.401 3.63601 142.083 0.502341 137.518 0.633878C131.135 0.827315 125.44 7.74461 123.776 16.1088C122.27 24.4764 123.851 33.1062 128.225 40.3967C125.362 37.3018 122.453 34.1603 119.087 32.2105C115.721 30.2607 111.775 29.6184 108.417 31.5915C105.059 33.5646 102.552 38.5552 103.233 43.4763C103.713 46.9581 105.609 49.7436 107.551 52.1035C109.493 54.4635 111.621 56.7073 112.874 59.841C114.128 62.9747 114.213 67.2845 112.271 69.6599L159.616 70.0545C167.377 49.5424 163.121 22.0125 149.952 7.50475Z" fill="#BF632D"/>
<path d="M180.407 155.592C180.863 153.124 181.482 150.408 183.215 148.497C184.138 147.541 185.255 146.794 186.491 146.307C187.727 145.82 189.053 145.604 190.38 145.673C191.566 145.699 192.731 145.98 193.799 146.495C194.867 147.01 195.812 147.748 196.57 148.659C197.994 150.595 198.766 152.934 198.775 155.337C198.891 157.813 202.768 157.828 202.644 155.337C202.404 150.338 200.323 145.278 195.518 143.034C190.442 140.674 183.633 141.804 180.043 146.284C178.253 148.723 177.096 151.567 176.677 154.563C176.554 155.056 176.625 155.578 176.876 156.02C177.126 156.462 177.537 156.791 178.024 156.939C178.518 157.072 179.045 157.006 179.491 156.754C179.937 156.502 180.266 156.085 180.407 155.592Z" fill="#263238"/>
<path d="M107.829 155.592C108.286 153.124 108.905 150.408 110.638 148.497C111.564 147.542 112.682 146.797 113.919 146.31C115.156 145.823 116.483 145.605 117.811 145.673C118.996 145.698 120.162 145.978 121.23 146.493C122.298 147.009 123.243 147.747 124.001 148.659C125.424 150.597 126.198 152.934 126.214 155.337C126.33 157.813 130.199 157.828 130.082 155.337C129.843 150.338 127.761 145.278 122.949 143.034C117.88 140.674 111.071 141.804 107.474 146.284C105.687 148.724 104.53 151.568 104.108 154.563C103.987 155.057 104.06 155.579 104.312 156.02C104.564 156.462 104.975 156.791 105.462 156.939C105.955 157.072 106.481 157.005 106.926 156.753C107.371 156.501 107.698 156.084 107.837 155.592H107.829Z" fill="#263238"/>
<g opacity="0.2">
<path d="M110.971 176.754C118.479 176.754 124.565 173.508 124.565 169.504C124.565 165.5 118.479 162.254 110.971 162.254C103.463 162.254 97.376 165.5 97.376 169.504C97.376 173.508 103.463 176.754 110.971 176.754Z" fill="white"/>
</g>
<g opacity="0.2">
<path d="M201.352 176.754C208.86 176.754 214.947 173.508 214.947 169.504C214.947 165.5 208.86 162.254 201.352 162.254C193.844 162.254 187.757 165.5 187.757 169.504C187.757 173.508 193.844 176.754 201.352 176.754Z" fill="white"/>
</g>
<path d="M174.379 168.313C172.39 164.886 169.943 161.747 167.106 158.981C164.011 156.056 159.368 154.091 155.306 154.339H155.453C149.72 153.48 138.934 164.305 135.498 169.481C132.163 174.503 143.452 182.155 157.163 184.693H157.604C160.548 184.685 163.456 184.051 166.137 182.833C168.817 181.615 171.207 179.841 173.149 177.629C177.396 172.893 175.888 170.742 174.379 168.313Z" fill="#FF9A6C"/>
<path d="M176.453 171.578C176.439 171.748 176.41 171.916 176.368 172.081C176.329 172.259 176.29 172.46 176.236 172.692C176.182 172.924 176.082 173.21 175.996 173.512C175.427 175.238 174.56 176.851 173.435 178.278C171.769 180.411 169.621 182.119 167.168 183.261C164.134 184.611 160.8 185.145 157.496 184.809C154.206 184.494 150.993 183.623 147.995 182.232C145.564 181.115 143.219 179.822 140.977 178.364C139.065 177.118 137.557 176.042 136.52 175.307L135.336 174.433C135.193 174.339 135.061 174.23 134.941 174.108C135.097 174.18 135.245 174.268 135.382 174.371L136.613 175.145C137.673 175.849 139.205 176.878 141.131 178.093C143.378 179.518 145.721 180.787 148.142 181.892C151.101 183.245 154.265 184.097 157.504 184.414C160.741 184.739 164.007 184.228 166.99 182.929C169.399 181.82 171.518 180.167 173.18 178.1C174.309 176.71 175.198 175.141 175.811 173.458C175.919 173.164 176.012 172.901 176.089 172.684C176.167 172.468 176.213 172.259 176.259 172.088C176.301 171.911 176.366 171.739 176.453 171.578Z" fill="#263238"/>
<g opacity="0.3">
<path d="M155.508 179.052C148.343 178.039 141.58 175.075 134.949 171.733C135.39 176.553 145.372 182.519 157.187 184.701H158.355C163.305 184.689 168.055 182.746 171.594 179.284C172.758 178.205 173.796 176.998 174.689 175.687C168.94 179.045 162.03 179.965 155.508 179.052Z" fill="black"/>
</g>
<path d="M171.826 29.0303C172.066 29.0303 172.6 31.4444 172.716 35.4834C172.716 36.497 172.716 37.6035 172.646 38.7873C172.576 39.9711 172.453 41.2323 172.298 42.5632C171.901 45.4448 171.277 48.2906 170.433 51.0744C169.56 53.8444 168.474 56.5426 167.183 59.1446C166.557 60.3284 165.976 61.4658 165.334 62.4562C164.692 63.4466 164.112 64.3983 163.531 65.2262C161.21 68.5147 159.338 70.2092 159.152 70.0544C158.966 69.8997 160.351 67.8492 162.332 64.4525C162.827 63.6014 163.361 62.6729 163.88 61.636C164.398 60.5992 164.947 59.5082 165.512 58.3399C166.66 55.7779 167.662 53.1533 168.514 50.4786C169.313 47.787 169.954 45.051 170.433 42.2846C170.627 41.0079 170.843 39.7932 170.952 38.6403C171.06 37.4874 171.184 36.4274 171.261 35.4447C171.571 31.5218 171.516 29.0613 171.826 29.0303Z" fill="#BF632D"/>
<path d="M21.2162 135.181C16.0863 134.337 12.7592 133.726 9.47073 137.765C7.44352 140.241 7.35066 141.51 7.41256 144.729C7.60164 147.93 8.16516 151.098 9.0916 154.168C7.17271 153.139 0.858929 155.46 1.03689 161.852C1.10653 164.01 1.50114 167.717 5.20739 179.021C7.0489 184.638 6.91737 177.566 10.0201 182.588L10.3683 177.241C14.6394 163.314 27.3907 152.954 39.8713 145.464C35.8013 141.069 27.1276 136.117 21.2162 135.181Z" fill="#BF632D"/>
<g opacity="0.4">
<path d="M108.077 61.1641C102.148 61.8976 96.3397 63.401 90.7993 65.6363C70.7515 73.5285 52.6303 89.2975 42.7419 113.748C40.3819 119.574 37.6429 126.708 35.368 132.712L33.1396 140.814C45.0012 104.997 73.4906 76.2444 108.077 61.1641Z" fill="white"/>
</g>
<g opacity="0.4">
<path d="M104.974 41.9519C105.389 39.4114 106.456 37.0218 108.069 35.0161C109.683 33.0105 111.789 31.4574 114.182 30.5082C112.192 30.2079 110.16 30.5925 108.418 31.5992C105.052 33.5722 102.553 38.5629 103.233 43.4839C103.699 46.229 104.872 48.8053 106.638 50.9583C105.139 48.2099 104.556 45.0546 104.974 41.9519Z" fill="white"/>
</g>
<g opacity="0.4">
<path d="M127.026 38.2303C127.327 38.8106 127.637 39.3832 127.97 39.9325C128.496 36.1257 127.196 32.2802 126.662 28.4424C125.91 23.2234 126.564 17.8983 128.555 13.0158C130.546 8.13332 133.803 3.86993 137.99 0.664856C137.835 0.664856 137.672 0.664856 137.518 0.664856C131.134 0.858293 125.44 7.77559 123.776 16.1398C122.846 21.1569 123.057 26.3191 124.395 31.2433L127.026 38.2303Z" fill="white"/>
</g>
<g opacity="0.4">
<path d="M21.2162 135.181C16.0863 134.337 12.7592 133.726 9.47074 137.765C7.44352 140.241 7.35067 141.51 7.41257 144.729C7.60164 147.93 8.16516 151.098 9.0916 154.168C7.17271 153.139 0.858929 155.46 1.03689 161.852C1.10653 164.01 1.50114 167.717 5.20739 179.021C5.37927 179.594 5.60196 180.151 5.87281 180.685C4.93736 178.276 4.33348 175.751 4.07772 173.179C3.81464 169.759 2.07371 162.749 5.2925 159.979C7.89229 157.743 12.705 158.842 16.4964 162.749C13.262 158.404 11.0676 153.374 10.082 148.048C9.46771 145.3 9.90965 142.422 11.32 139.986C13.1538 137.177 16.1327 135.97 19.483 136.171C24.3422 136.45 30.3155 138.361 33.1397 140.156C29.2168 137.734 24.729 135.761 21.2162 135.181Z" fill="white"/>
</g>
<path d="M7.17254 183.184C7.13407 183.136 7.10039 183.084 7.07195 183.029L6.80113 182.557C6.57675 182.139 6.24404 181.513 5.85717 180.692C4.74788 178.361 3.83429 175.941 3.12584 173.458C2.70801 171.91 2.14318 170.185 1.57834 168.328C0.940682 166.347 0.555922 164.293 0.433199 162.215C0.292283 159.85 1.07451 157.523 2.61517 155.724C3.48922 154.803 4.63221 154.183 5.88038 153.952C6.52456 153.818 7.18897 153.814 7.83468 153.94C8.4804 154.066 9.09443 154.32 9.64079 154.687L9.33129 154.911C8.97537 153.812 8.55754 152.59 8.27126 151.422C7.4768 148.818 7.1776 146.088 7.38918 143.375C7.61182 140.815 8.66624 138.399 10.3913 136.496C11.2125 135.614 12.2712 134.988 13.4399 134.693C14.523 134.413 15.6414 134.293 16.7593 134.337C18.7555 134.433 20.7327 134.771 22.6475 135.343C25.4115 136.123 28.0775 137.216 30.5939 138.601C31.4759 139.096 32.1414 139.514 32.5979 139.8L33.1085 140.125L33.271 140.249L33.0853 140.164L32.5592 139.869C32.0949 139.606 31.4063 139.212 30.5165 138.74C27.9877 137.423 25.3232 136.385 22.5701 135.645C20.6832 135.102 18.7369 134.793 16.7747 134.724C15.6901 134.682 14.6053 134.802 13.5559 135.08C12.4487 135.362 11.4482 135.962 10.6776 136.805C9.02024 138.654 8.01222 140.993 7.80701 143.467C7.60735 146.132 7.90381 148.811 8.68134 151.367C9.00631 152.559 9.37771 153.735 9.73364 154.834L9.92707 155.414L9.43188 155.058C8.92909 154.722 8.36398 154.49 7.76993 154.375C7.17588 154.261 6.56494 154.267 5.97323 154.393C4.79178 154.597 3.70696 155.174 2.87824 156.041C1.40826 157.757 0.657157 159.974 0.781383 162.231C0.88772 164.278 1.25433 166.304 1.87237 168.258C2.40625 170.108 2.96335 171.825 3.3657 173.411C4.04823 175.888 4.91731 178.309 5.96549 180.654C6.33689 181.482 6.64639 182.116 6.84756 182.542L7.07968 183.037C7.17253 183.122 7.17254 183.176 7.17254 183.184Z" fill="#263238"/>
<path d="M36.1259 131.103C36.0026 131.749 35.808 132.38 35.5456 132.983C35.0814 134.26 34.5243 135.769 33.9207 137.432C32.6827 140.899 32.2727 143.893 32.1256 143.862C32.1146 143.203 32.1847 142.546 32.3346 141.904C32.6 140.338 33.0013 138.798 33.5339 137.301C34.1606 135.544 34.8028 134.005 35.2748 132.883C35.4988 132.263 35.7839 131.666 36.1259 131.103Z" fill="#263238"/>
<g opacity="0.3">
<path d="M89.4373 172.483L42.9429 161.836C35.484 164.97 28.4119 169.52 23.6611 176.066C18.9103 182.612 16.767 191.355 19.3823 199.007C21.9975 206.66 29.9362 212.556 37.9522 211.542C33.5109 216.138 34.9191 224.394 39.7628 228.564C44.6064 232.735 51.7017 233.377 57.9304 231.938C69.8461 229.222 79.4947 219.682 84.5473 208.517C89.5998 197.351 90.42 184.708 89.4373 172.483Z" fill="black"/>
</g>
<path d="M42.9429 157.619C35.484 160.714 28.4119 165.303 23.6611 171.841C18.9103 178.379 16.7748 187.138 19.3823 194.79C21.9898 202.442 29.9362 208.338 37.9522 207.325C33.5109 211.921 34.9191 220.177 39.7628 224.347C44.6065 228.518 51.7017 229.152 57.9304 227.721C69.8616 224.974 79.487 215.441 84.5086 204.276C89.5302 193.111 90.4123 180.468 89.4296 168.266" fill="#BF632D"/>
<path d="M89.4373 168.266C89.4373 168.266 89.7546 170.827 89.8552 175.493C89.9016 177.814 89.8552 180.677 89.6076 184.004C89.3194 187.751 88.7216 191.467 87.8202 195.115C87.2993 197.236 86.6507 199.324 85.8781 201.367C84.1665 205.98 81.7494 210.3 78.7132 214.172C77.0367 216.284 75.1693 218.237 73.1345 220.007C68.7783 223.868 63.5378 226.598 57.8762 227.953C54.8765 228.649 51.7762 228.801 48.7228 228.402C45.5525 228.018 42.5462 226.78 40.0259 224.819C37.4046 222.67 35.6891 219.611 35.2209 216.254C34.9757 214.628 35.0626 212.97 35.4762 211.379C35.8839 209.812 36.6825 208.375 37.7975 207.201L37.9677 207.534C35.396 207.816 32.7942 207.471 30.385 206.528C28.084 205.597 25.9827 204.234 24.195 202.512C20.7929 199.266 18.6865 194.893 18.2681 190.21C17.8991 186.062 18.5388 181.886 20.1328 178.038C20.832 176.31 21.6948 174.651 22.7094 173.087C23.6344 171.662 24.6692 170.311 25.8044 169.048C29.2843 165.318 33.3937 162.23 37.9445 159.925C39.5661 159.048 41.2407 158.273 42.9584 157.604L42.6334 157.766L41.6662 158.2C40.8306 158.594 39.5771 159.175 38.0141 160.018C33.5061 162.356 29.4377 165.458 25.9901 169.187C24.8584 170.448 23.8238 171.793 22.8951 173.21C21.8985 174.763 21.0537 176.409 20.3727 178.124C18.8097 181.927 18.1886 186.052 18.5621 190.148C18.9866 194.743 21.062 199.028 24.4039 202.21C26.1722 203.896 28.2471 205.228 30.5165 206.133C32.8741 207.056 35.4203 207.393 37.9367 207.116L38.4861 207.054L38.107 207.449C37.0316 208.573 36.2595 209.952 35.8631 211.457C35.4694 212.996 35.3879 214.598 35.6232 216.169C36.079 219.421 37.7351 222.385 40.2657 224.479C42.7349 226.392 45.6761 227.6 48.7769 227.976C51.7812 228.37 54.832 228.221 57.7834 227.535C63.3858 226.196 68.5728 223.499 72.8869 219.682C74.9089 217.931 76.766 215.999 78.4347 213.909C79.9949 211.927 81.3947 209.824 82.6206 207.619C83.7727 205.563 84.7635 203.421 85.5841 201.212C86.357 199.189 87.0106 197.122 87.5417 195.022C88.4567 191.391 89.0726 187.69 89.3832 183.958C89.6617 180.661 89.7236 177.814 89.7004 175.485C89.6772 173.156 89.5921 171.353 89.5302 170.123L89.4528 168.73C89.4373 168.429 89.4373 168.266 89.4373 168.266Z" fill="#263238"/>
<g opacity="0.4">
<path d="M81.8626 209.29C79.9514 211.48 74.953 213.933 72.5776 215.627C70.2476 217.408 67.358 218.297 64.4301 218.134C61.544 217.848 58.7276 215.945 57.9151 213.159C55.8956 214.892 53.5589 216.416 50.9514 216.834C48.3439 217.252 45.3417 216.331 43.9103 214.08C42.827 212.362 42.7806 210.211 42.9354 208.176C43.3177 203.144 44.7126 198.241 47.0362 193.761C44.0805 195.827 40.8463 197.63 37.2948 198.264C33.7433 198.899 29.8281 198.226 27.1355 195.827C24.8864 193.671 23.5771 190.716 23.4911 187.602C23.4263 184.513 24.0033 181.443 25.1856 178.588C28.5017 169.964 34.6808 162.741 42.6878 158.13H41.798C34.7801 161.225 28.1877 165.628 23.6845 171.825C18.9337 178.371 16.7905 187.122 19.4057 194.775C22.021 202.427 29.9596 208.323 37.9756 207.309C33.5343 211.906 34.9426 220.161 39.7862 224.332C44.6299 228.502 51.7251 229.137 57.9538 227.705C68.028 225.4 76.4618 218.212 81.8626 209.29Z" fill="white"/>
</g>
<g opacity="0.3">
<path d="M176.623 247.196C170.015 258.88 153.411 263.507 141.696 256.922C131.947 265.55 115.025 264.056 106.924 253.866C105.168 255.359 103.061 256.38 100.801 256.831C98.5404 257.282 96.2025 257.149 94.0083 256.444C91.814 255.738 89.836 254.485 88.2616 252.802C86.6872 251.119 85.5685 249.061 85.0115 246.825C78.1358 250.155 70.3311 251.045 62.8823 249.347C80.4464 259.855 100.308 266.586 120.782 268.002C149.766 269.975 179.796 260.884 201.383 241.656C193.977 246.209 185.263 248.159 176.623 247.196Z" fill="black"/>
</g>
<path d="M124.48 295.099H110.971V257.758C115.087 260.651 118.306 262.06 124.612 262.516L124.48 295.099Z" fill="#FF9A6C"/>
<path d="M133.727 289.977C130.471 286.969 126.397 284.993 122.02 284.297L112.286 284.94C109.346 285.868 106.359 286.812 103.813 288.537C101.268 290.263 99.171 292.909 98.8383 295.965C98.5056 299.022 100.386 302.395 103.396 303.076C106.761 303.85 109.911 301.304 112.34 298.859C112.341 300.372 112.669 301.866 113.301 303.24C113.932 304.614 114.853 305.836 116 306.821C118.321 308.694 121.904 309.142 124.457 307.541C127.01 305.939 128.024 300.871 126.368 298.356C127.182 299.035 128.134 299.529 129.157 299.804C130.18 300.079 131.251 300.129 132.295 299.95C134.222 299.532 136.071 298.186 136.535 296.267C137.092 293.961 135.498 291.64 133.727 289.977Z" fill="#FF9A6C"/>
<path d="M124.612 284.676C124.478 284.809 124.324 284.918 124.155 285.001C123.718 285.263 123.26 285.488 122.786 285.675C121.225 286.295 119.567 286.636 117.888 286.68C116.211 286.733 114.534 286.541 112.913 286.108C112.234 285.965 111.579 285.722 110.971 285.388C113.224 285.976 115.544 286.275 117.873 286.278C119.514 286.227 121.138 285.932 122.693 285.404C123.885 284.963 124.573 284.584 124.612 284.676Z" fill="#FFBF9D"/>
<path d="M124.48 275.6C123.872 275.891 123.226 276.097 122.561 276.211C119.387 276.92 116.102 276.975 112.905 276.374C112.238 276.285 111.587 276.102 110.971 275.832C111.636 275.875 112.298 275.963 112.952 276.095C116.126 276.532 119.349 276.477 122.507 275.933C123.157 275.78 123.816 275.669 124.48 275.6Z" fill="#FFBF9D"/>
<path d="M124.48 265.975C123.872 266.265 123.226 266.471 122.561 266.586C119.388 267.305 116.101 267.36 112.905 266.749C112.238 266.659 111.587 266.477 110.971 266.207C111.636 266.249 112.298 266.337 112.952 266.47C114.536 266.69 116.134 266.788 117.733 266.764C119.334 266.737 120.93 266.585 122.507 266.308C123.157 266.155 123.816 266.043 124.48 265.975Z" fill="#FFBF9D"/>
<path d="M123.095 294.101C124.037 294.408 124.861 294.999 125.453 295.793C126.046 296.587 126.379 297.544 126.407 298.534C126.065 297.661 125.638 296.824 125.13 296.035C124.516 295.326 123.835 294.678 123.095 294.101Z" fill="#FFBF9D"/>
<path d="M114.723 292.948C113.928 293.792 113.281 294.765 112.812 295.826C112.461 296.928 112.304 298.083 112.348 299.238C112.302 299.238 112.139 298.875 112.077 298.217C112.004 297.355 112.126 296.488 112.433 295.679C112.739 294.872 113.22 294.143 113.841 293.544C114.29 293.087 114.661 292.909 114.723 292.948Z" fill="#FFBF9D"/>
<path d="M126.415 302.024C124.273 301.362 122.041 301.035 119.799 301.057C117.563 301.213 115.363 301.709 113.276 302.527C113.818 302.133 114.419 301.828 115.056 301.621C118.102 300.459 121.446 300.328 124.573 301.25C125.224 301.41 125.845 301.671 126.415 302.024Z" fill="#FFBF9D"/>
<path d="M134.315 290.928C134.315 290.998 133.711 291.006 132.767 291.199C131.55 291.466 130.393 291.957 129.355 292.646C128.323 293.344 127.433 294.231 126.732 295.261C126.19 296.035 125.958 296.608 125.889 296.585C125.985 296.057 126.188 295.554 126.484 295.107C127.148 293.99 128.052 293.036 129.131 292.313C130.208 291.592 131.431 291.117 132.713 290.921C133.241 290.805 133.788 290.808 134.315 290.928Z" fill="#FFBF9D"/>
<path d="M111.745 295.702C110.692 294.271 109.435 293.002 108.015 291.934C105.578 290.263 103.179 289.713 103.233 289.574C103.764 289.604 104.286 289.719 104.781 289.915C106.009 290.308 107.173 290.876 108.239 291.601C109.303 292.335 110.23 293.248 110.979 294.302C111.319 294.716 111.579 295.192 111.745 295.702Z" fill="#FFBF9D"/>
<path d="M166.603 254.214H153.093V292.708H166.603V254.214Z" fill="#FF9A6C"/>
<path d="M175.85 287.586C172.594 284.578 168.52 282.602 164.143 281.907L154.409 282.549C151.469 283.477 148.482 284.421 145.898 286.147C143.314 287.872 141.255 290.518 140.923 293.582C140.59 296.646 142.47 300.005 145.48 300.685C148.846 301.459 151.995 298.914 154.425 296.469C154.425 297.981 154.752 299.476 155.384 300.85C156.015 302.224 156.937 303.445 158.084 304.43C160.444 306.311 163.988 306.752 166.542 305.15C169.095 303.548 170.109 298.488 168.445 295.966C169.26 296.646 170.212 297.14 171.237 297.415C172.262 297.691 173.334 297.74 174.38 297.56C176.306 297.142 178.155 295.795 178.62 293.876C179.215 291.532 177.622 289.219 175.85 287.586Z" fill="#FF9A6C"/>
<path d="M166.734 282.255C166.601 282.387 166.446 282.497 166.278 282.58C165.84 282.841 165.382 283.066 164.908 283.253C163.348 283.873 161.69 284.214 160.011 284.259C158.333 284.316 156.656 284.123 155.035 283.686C154.356 283.543 153.702 283.3 153.093 282.967C155.347 283.554 157.666 283.853 159.995 283.856C161.636 283.805 163.261 283.511 164.816 282.982C166.007 282.572 166.696 282.193 166.734 282.255Z" fill="#FFBF9D"/>
<path d="M166.603 273.209C165.994 273.5 165.349 273.706 164.684 273.821C161.511 274.54 158.223 274.595 155.028 273.983C154.361 273.894 153.71 273.712 153.093 273.442C153.759 273.484 154.421 273.572 155.074 273.705C158.249 274.141 161.472 274.086 164.63 273.542C165.28 273.389 165.939 273.278 166.603 273.209Z" fill="#FFBF9D"/>
<path d="M166.603 263.584C165.996 263.879 165.35 264.085 164.684 264.195C161.511 264.914 158.223 264.97 155.028 264.358C154.361 264.269 153.71 264.086 153.093 263.816C153.758 263.863 154.42 263.951 155.074 264.079C156.658 264.299 158.257 264.397 159.856 264.373C161.457 264.347 163.053 264.194 164.63 263.917C165.28 263.764 165.939 263.653 166.603 263.584Z" fill="#FFBF9D"/>
<path d="M165.218 291.71C166.159 292.017 166.983 292.608 167.576 293.402C168.169 294.196 168.502 295.153 168.529 296.143C167.963 294.332 166.794 292.767 165.218 291.71Z" fill="#FFBF9D"/>
<path d="M156.807 290.565C155.961 291.365 155.307 292.347 154.896 293.437C154.484 294.526 154.326 295.695 154.432 296.855C154.249 296.543 154.156 296.187 154.161 295.826C154.088 294.964 154.21 294.097 154.517 293.288C154.823 292.481 155.304 291.752 155.925 291.153C156.413 290.704 156.784 290.526 156.807 290.565Z" fill="#FFBF9D"/>
<path d="M168.537 299.633C164.242 298.163 159.553 298.346 155.384 300.144C155.922 299.742 156.523 299.433 157.163 299.231C160.21 298.068 163.553 297.938 166.681 298.859C167.337 299.017 167.963 299.279 168.537 299.633Z" fill="#FFBF9D"/>
<path d="M176.437 288.545C176.437 288.615 175.834 288.623 174.89 288.816C173.672 289.086 172.516 289.579 171.478 290.271C170.446 290.966 169.556 291.851 168.855 292.878C168.599 293.335 168.317 293.777 168.011 294.201C168.109 293.674 168.312 293.171 168.607 292.724C169.27 291.607 170.174 290.653 171.253 289.93C172.331 289.209 173.554 288.734 174.836 288.538C175.364 288.422 175.911 288.425 176.437 288.545Z" fill="#FFBF9D"/>
<path d="M153.867 293.311C152.812 291.882 151.556 290.613 150.138 289.543C147.7 287.88 145.302 287.323 145.356 287.183C145.887 287.213 146.409 287.328 146.903 287.524C148.131 287.917 149.296 288.485 150.362 289.211C151.424 289.946 152.351 290.86 153.101 291.911C153.438 292.328 153.698 292.803 153.867 293.311Z" fill="#FFBF9D"/>
<path d="M170.526 247.096C165.806 246.036 160.854 245.587 156.157 246.709C151.461 247.831 147.012 250.701 144.807 254.996L146.354 258.501C150.856 259.795 155.612 259.931 160.18 258.895C164.749 257.859 168.981 255.684 172.484 252.574C173.311 251.8 174.147 250.879 174.031 249.773C173.915 248.194 172.073 247.436 170.526 247.096Z" fill="#BF632D"/>
<g opacity="0.4">
<path d="M161.38 163.57C160.1 161.231 158.379 159.163 156.312 157.48C155.998 157.25 155.632 157.103 155.247 157.052C154.862 157 154.47 157.047 154.107 157.186C148.99 159.22 144.64 162.805 141.665 167.438C141.239 168.096 140.853 168.986 141.309 169.613C141.617 169.946 142.024 170.171 142.47 170.255L152.466 173.203C154.788 173.899 157.241 174.603 159.716 173.806C160.914 173.428 161.914 172.594 162.502 171.485C163.663 169.156 163.051 166.703 161.38 163.57Z" fill="white"/>
</g>
<path d="M172.894 225.098C172.876 225.268 172.835 225.435 172.77 225.593C172.62 226.06 172.436 226.515 172.22 226.955C171.408 228.571 170.279 230.007 168.901 231.179C165.545 233.896 161.25 235.176 156.954 234.739C155.24 234.581 153.587 234.025 152.126 233.114C151.886 232.967 151.67 232.789 151.445 232.626C151.221 232.464 151.035 232.263 150.842 232.085H151.136C149.016 234.357 146.377 236.083 143.445 237.114C141.084 237.957 138.584 238.343 136.079 238.251C134.408 238.222 132.749 237.962 131.15 237.478C130.718 237.346 130.294 237.189 129.881 237.006C129.73 236.956 129.585 236.891 129.448 236.812C129.448 236.774 130.067 237.013 131.189 237.331C132.786 237.764 134.432 237.993 136.087 238.012C137.231 238.018 138.374 237.938 139.506 237.772C140.818 237.534 142.106 237.177 143.352 236.704C146.216 235.673 148.792 233.973 150.865 231.744L150.997 231.605L151.159 231.737C151.345 231.907 151.53 232.085 151.732 232.247C151.933 232.41 152.15 232.58 152.382 232.719C153.791 233.582 155.379 234.112 157.024 234.267C158.571 234.449 160.138 234.388 161.667 234.089C164.264 233.635 166.704 232.533 168.762 230.885C170.134 229.754 171.276 228.369 172.128 226.808C172.414 226.243 172.623 225.802 172.739 225.492C172.784 225.359 172.836 225.227 172.894 225.098Z" fill="#263238"/>
<path d="M231.66 159.701C231.67 159.77 231.67 159.84 231.66 159.91C231.66 160.072 231.66 160.273 231.66 160.521C231.66 161.093 231.66 161.875 231.706 162.842C231.753 163.809 231.706 165.125 231.706 166.564C231.706 168.003 231.582 169.659 231.505 171.485C231.428 173.311 231.234 175.307 231.049 177.443C230.863 179.578 230.515 181.853 230.182 184.252C230.035 185.451 229.795 186.666 229.548 187.904C229.3 189.142 229.06 190.411 228.774 191.703C228.132 194.256 227.567 196.918 226.716 199.58C225.865 202.241 225.021 204.826 224.147 207.317C223.659 208.54 223.172 209.739 222.708 210.907C222.243 212.076 221.679 213.228 221.16 214.304C219.372 218.199 217.304 221.959 214.97 225.554C214.018 227.102 213.013 228.433 212.192 229.632C211.372 230.831 210.537 231.767 209.918 232.572L208.37 234.352L207.96 234.808L207.813 234.955C207.813 234.955 207.852 234.886 207.929 234.777L208.308 234.298L209.794 232.479C210.397 231.659 211.163 230.669 212.007 229.5C212.85 228.332 213.802 226.97 214.73 225.407C217.006 221.797 219.033 218.036 220.796 214.149C221.276 213.043 221.833 211.936 222.29 210.76L223.713 207.178C224.58 204.702 225.532 202.156 226.267 199.479C227.118 196.825 227.683 194.171 228.325 191.633C228.58 190.349 228.836 189.088 229.099 187.85C229.362 186.612 229.586 185.405 229.741 184.205C230.081 181.822 230.468 179.563 230.639 177.427C230.809 175.292 231.095 173.311 231.141 171.485C231.188 169.659 231.327 168.026 231.405 166.572C231.482 165.117 231.405 163.887 231.405 162.858C231.405 161.828 231.405 161.078 231.443 160.536C231.443 160.289 231.443 160.088 231.443 159.925C231.499 159.836 231.573 159.76 231.66 159.701Z" fill="#263238"/>
<path d="M52.6073 88.5471C52.3674 89.6304 49.3266 89.8857 45.806 89.1197C42.2855 88.3537 39.6161 86.8449 39.8714 85.7539C40.1267 84.6629 43.1521 84.4153 46.6726 85.1813C50.1932 85.9473 52.8239 87.4561 52.6073 88.5471Z" fill="#BF632D"/>
<path d="M55.0988 83.7266C54.0697 84.1367 52.5145 82.6975 51.6324 80.5001C50.7504 78.3026 50.8587 76.1826 51.911 75.7648C52.9633 75.3469 54.4953 76.8016 55.3774 78.999C56.2594 81.1965 56.1356 83.3088 55.0988 83.7266Z" fill="#BF632D"/>
<path d="M244.937 149.224C245.502 150.184 244.163 152.018 241.943 153.333C239.722 154.648 237.47 154.927 236.906 153.967C236.341 153.008 237.679 151.174 239.892 149.859C242.105 148.543 244.365 148.265 244.937 149.224Z" fill="#BF632D"/>
<path d="M250.408 159.809C250.23 160.908 247.553 161.357 244.435 160.885C241.316 160.413 238.918 159.082 239.096 157.983C239.274 156.884 241.951 156.436 245.077 156.908C248.203 157.38 250.586 158.71 250.408 159.809Z" fill="#BF632D"/>
</svg>
