<svg width="341" height="240" viewBox="0 0 341 240" fill="none" xmlns="http://www.w3.org/2000/svg">
<path d="M170.31 239.536C264.37 239.536 340.62 231.571 340.62 221.746C340.62 211.92 264.37 203.956 170.31 203.956C76.2504 203.956 0 211.92 0 221.746C0 231.571 76.2504 239.536 170.31 239.536Z" fill="#EBEBEB"/>
<path d="M330.91 187.166C330.974 186.531 330.85 185.893 330.555 185.328C330.26 184.763 329.807 184.296 329.25 183.986C329.784 183.659 330.2 183.171 330.438 182.592C330.675 182.013 330.722 181.373 330.57 180.766C329.97 178.766 327.5 178.986 327.5 178.986C327.98 178.581 328.3 178.018 328.403 177.399C328.506 176.779 328.384 176.144 328.06 175.606C327.2 173.846 324.56 174.776 324.56 174.776C325.06 174.245 325.365 173.561 325.427 172.835C325.489 172.109 325.303 171.383 324.9 170.776C324.33 169.776 322.51 169.926 322.39 169.776C318.31 164.406 309.63 153.556 288.31 158.826C272.07 162.826 266.98 178.496 267.66 192.136C267.66 192.346 266.55 192.456 266.55 193.926C266.517 194.284 266.59 194.644 266.758 194.962C266.927 195.28 267.185 195.542 267.5 195.716C267.163 196.014 266.936 196.416 266.857 196.859C266.777 197.302 266.848 197.759 267.06 198.156C267.264 198.586 267.607 198.934 268.033 199.145C268.46 199.355 268.945 199.415 269.41 199.316C269.12 199.856 267.74 200.726 268.51 202.706C268.738 203.262 269.148 203.724 269.673 204.017C270.198 204.309 270.807 204.415 271.4 204.316C271.095 204.739 270.923 205.245 270.907 205.767C270.891 206.289 271.031 206.804 271.31 207.246C271.57 207.676 273.39 207.796 273.69 207.986C256.17 216.986 228.84 216.786 223.3 218.986C205.18 226.146 226.5 243.636 242.15 238.196C243.15 237.846 241.53 235.976 240.48 236.076C222.86 237.686 214.62 224.876 225.21 221.906C232.08 219.986 258.97 220.316 275.1 211.146C276.42 210.396 277.26 212.256 277.61 212.606C285.94 220.986 303.45 223.426 314.53 217.246C328.69 209.356 329.96 196.726 329.6 189.796C330.038 189.518 330.391 189.127 330.622 188.663C330.853 188.2 330.952 187.682 330.91 187.166Z" fill="#455A64"/>
<path d="M321.91 179.376C317.81 187.376 309.15 192.376 300.91 195.256C292.196 198.344 282.837 199.157 273.72 197.616C273.04 197.506 272.72 198.556 273.43 198.666C283.043 200.303 292.918 199.379 302.06 195.986C310.21 192.926 318.7 187.916 322.79 179.926C323.16 179.306 322.22 178.756 321.91 179.376Z" fill="#263238"/>
<path d="M324.7 188.836C318.795 195.395 311.426 200.469 303.192 203.647C294.958 206.825 286.091 208.017 277.31 207.126C276.61 207.056 276.62 208.126 277.31 208.216C286.234 209.104 295.242 207.882 303.606 204.648C311.97 201.413 319.456 196.257 325.46 189.596C325.93 189.086 325.17 188.316 324.7 188.836Z" fill="#263238"/>
<path d="M322.59 169.696C317.52 160.996 307.42 158.126 297.86 158.016C297.765 158.012 297.67 158.037 297.588 158.087C297.507 158.136 297.441 158.209 297.4 158.296C296.912 157.997 296.392 157.752 295.85 157.566C295.19 157.346 294.85 158.386 295.56 158.616C297.008 159.083 298.238 160.058 299.023 161.361C299.808 162.664 300.095 164.207 299.83 165.706C299.83 165.706 299.83 165.766 299.83 165.796C299.047 165.64 298.256 165.53 297.46 165.466C297.47 165.423 297.47 165.378 297.46 165.336C297.399 163.745 296.869 162.208 295.937 160.918C295.004 159.628 293.711 158.643 292.22 158.086C292.155 158.054 292.083 158.039 292.011 158.042C291.939 158.045 291.869 158.066 291.807 158.103C291.744 158.139 291.692 158.19 291.654 158.252C291.617 158.314 291.595 158.383 291.59 158.456H291.46C291.398 158.388 291.319 158.336 291.232 158.307C291.145 158.277 291.051 158.27 290.96 158.286C280.18 160.106 274.44 168.496 271.43 178.236L271.33 178.056C271.257 177.931 271.138 177.84 270.998 177.804C270.858 177.767 270.71 177.788 270.585 177.861C270.461 177.933 270.37 178.053 270.333 178.193C270.297 178.332 270.317 178.481 270.39 178.606C270.62 179.016 270.87 179.426 271.12 179.826V179.886C273.728 184.198 276.956 188.103 280.7 191.476C280.761 191.58 280.851 191.663 280.96 191.716C281.75 192.416 282.56 193.106 283.4 193.766C282.4 193.766 281.4 193.766 280.4 193.766C280.397 193.679 280.372 193.594 280.329 193.519C280.285 193.444 280.224 193.381 280.15 193.336C275.54 190.22 271.876 185.895 269.56 180.836C269.27 180.206 268.33 180.756 268.62 181.386C270.881 186.323 274.39 190.587 278.8 193.756C275.987 193.525 273.203 193.016 270.49 192.236C270.421 192.216 270.349 192.211 270.278 192.22C270.207 192.229 270.139 192.251 270.077 192.287C270.014 192.322 269.96 192.369 269.916 192.426C269.872 192.482 269.839 192.547 269.82 192.616C269.801 192.684 269.796 192.756 269.805 192.827C269.814 192.898 269.836 192.967 269.872 193.029C269.907 193.091 269.954 193.146 270.01 193.19C270.067 193.234 270.131 193.266 270.2 193.286C289.94 198.946 310.03 190.026 321.77 173.746C322.18 173.186 321.23 172.636 320.83 173.206L320.68 173.396C318.997 169.363 316.101 165.954 312.394 163.641C308.687 161.328 304.352 160.225 299.99 160.486C299.902 160.486 299.816 160.51 299.74 160.556C299.395 160.039 298.985 159.569 298.52 159.156C307.7 159.386 317.29 162.236 321.96 170.816C321.996 170.88 322.044 170.938 322.1 170.986C322.05 171.306 321.99 171.616 321.93 171.936C321.8 172.616 322.85 172.936 322.98 172.226L323.31 170.386C323.333 170.288 323.33 170.185 323.301 170.089C323.273 169.993 323.219 169.905 323.147 169.836C323.074 169.766 322.985 169.717 322.887 169.692C322.789 169.667 322.687 169.669 322.59 169.696ZM272.18 179.566C274.82 170.386 279.74 162.356 289.18 159.846C281.37 164.786 274.18 173.206 274.18 182.646C273.48 181.646 272.82 180.616 272.18 179.566ZM275.31 184.156C274.57 174.616 281.57 166.076 289.31 161.026C285.569 164.195 282.57 168.148 280.524 172.604C278.478 177.061 277.435 181.912 277.47 186.816C276.76 185.956 276.04 185.066 275.31 184.156ZM280.55 189.976C279.86 189.326 279.19 188.646 278.55 187.976C278.592 187.895 278.613 187.806 278.61 187.716C278.415 182.202 279.632 176.731 282.145 171.82C284.659 166.909 288.385 162.722 292.97 159.656L293.22 159.796C289.005 163.573 285.683 168.24 283.495 173.46C281.307 178.68 280.308 184.322 280.57 189.976H280.55ZM286.42 193.656C286.42 193.146 286.42 192.656 286.37 192.116C286.37 191.426 285.26 191.416 285.28 192.116L285.34 193.736H284.72C284.718 193.648 284.696 193.562 284.656 193.485C284.616 193.407 284.56 193.339 284.49 193.286C283.49 192.546 282.6 191.766 281.7 190.966C281.269 185.26 282.163 179.531 284.312 174.228C286.461 168.925 289.808 164.191 294.09 160.396C294.501 160.772 294.867 161.195 295.18 161.656C295.136 161.683 295.095 161.716 295.06 161.756C288.415 169.694 284.942 179.81 285.31 190.156C285.31 190.856 286.42 190.856 286.39 190.156C286.043 180.16 289.377 170.385 295.76 162.686C296.034 163.266 296.222 163.882 296.32 164.516C296.251 164.529 296.186 164.558 296.129 164.6C296.072 164.641 296.025 164.694 295.99 164.756C290.459 173.253 287.812 183.306 288.44 193.426C287.78 193.516 287.11 193.596 286.44 193.656H286.42ZM304.85 168.756C305.543 169.137 306.211 169.561 306.85 170.026C305.064 173.732 302.483 177 299.29 179.596C299.214 179.605 299.143 179.636 299.083 179.683C299.023 179.731 298.977 179.794 298.95 179.866C296.241 181.991 293.158 183.592 289.86 184.586C289.93 184.036 290.01 183.476 290.1 182.926C296.459 179.979 301.651 174.991 304.85 168.756ZM301.97 171.456C301.865 169.842 301.287 168.294 300.31 167.006C301.544 167.297 302.743 167.716 303.89 168.256C303.313 169.352 302.672 170.414 301.97 171.436V171.456ZM308.63 171.856C309.403 173.535 309.741 175.381 309.611 177.225C309.482 179.069 308.89 180.851 307.89 182.406C307.29 182.053 306.738 181.622 306.25 181.126C307.279 179.939 307.91 178.46 308.056 176.896C308.201 175.332 307.853 173.762 307.06 172.406C307.024 172.333 306.968 172.271 306.9 172.226C307.18 171.736 307.44 171.226 307.69 170.726C308.01 170.996 308.3 171.276 308.59 171.556C308.578 171.651 308.591 171.748 308.63 171.836V171.856ZM305.54 180.286C304.79 179.242 304.297 178.036 304.1 176.766C304.084 176.658 304.031 176.559 303.95 176.486C304.798 175.462 305.577 174.383 306.28 173.256C306.861 174.367 307.1 175.625 306.968 176.872C306.837 178.119 306.34 179.3 305.54 180.266V180.286ZM293.31 179.686C293.338 179.739 293.371 179.79 293.41 179.836C292.441 180.473 291.44 181.061 290.41 181.596C290.62 180.506 290.89 179.446 291.18 178.376C291.629 178.335 292.079 178.441 292.463 178.677C292.847 178.913 293.144 179.267 293.31 179.686ZM291.44 177.286C291.9 175.779 292.434 174.289 293.04 172.816C294.052 173.002 294.99 173.47 295.745 174.168C296.501 174.865 297.044 175.762 297.31 176.756C297.308 176.779 297.308 176.802 297.31 176.826C296.339 177.713 295.306 178.532 294.22 179.276C293.992 178.705 293.603 178.214 293.101 177.86C292.598 177.507 292.004 177.307 291.39 177.286H291.44ZM298.24 175.976C297.868 174.929 297.235 173.996 296.4 173.264C295.565 172.533 294.556 172.027 293.47 171.796C293.76 171.136 294.08 170.476 294.4 169.796C295.615 170.048 296.726 170.659 297.589 171.551C298.453 172.443 299.028 173.573 299.24 174.796C298.9 175.236 298.55 175.629 298.19 175.976H298.24ZM289.57 193.246C289.48 191.766 289.48 190.296 289.57 188.836C290.549 190.454 292.063 191.678 293.85 192.296C292.425 192.691 290.98 193.008 289.52 193.246H289.57ZM295.25 191.876C295.235 191.781 295.191 191.693 295.125 191.624C295.059 191.554 294.974 191.506 294.88 191.486C293.792 191.229 292.779 190.718 291.926 189.995C291.073 189.272 290.403 188.357 289.97 187.326C289.944 187.256 289.899 187.194 289.841 187.147C289.783 187.099 289.714 187.068 289.64 187.056C289.64 186.586 289.71 186.106 289.76 185.636C289.861 185.671 289.97 185.671 290.07 185.636C291.754 185.138 293.387 184.485 294.95 183.686C294.975 185.076 295.355 186.436 296.056 187.637C296.756 188.838 297.753 189.839 298.95 190.546C297.69 191.046 296.46 191.486 295.2 191.876H295.25ZM300.25 190.026C300.202 189.974 300.144 189.934 300.08 189.906C298.812 189.3 297.753 188.329 297.04 187.117C296.327 185.906 295.993 184.509 296.08 183.106C297.142 182.506 298.165 181.838 299.14 181.106C299.434 182.633 300.153 184.047 301.215 185.184C302.276 186.322 303.637 187.137 305.14 187.536C303.529 188.459 301.866 189.29 300.16 190.026H300.25ZM306.37 186.806C306.301 186.716 306.201 186.656 306.09 186.636C304.547 186.375 303.129 185.623 302.048 184.492C300.966 183.36 300.28 181.909 300.09 180.356C300.53 180.006 300.95 179.636 301.36 179.256C302.69 182.256 304.47 185.256 307.85 185.816C307.31 186.156 306.79 186.486 306.31 186.806H306.37ZM308.9 185.106C308.859 185.023 308.796 184.953 308.719 184.902C308.642 184.851 308.553 184.821 308.46 184.816C305.06 184.536 303.46 181.256 302.21 178.466C302.55 178.126 302.89 177.766 303.21 177.406C303.544 179.087 304.356 180.636 305.551 181.866C306.745 183.095 308.269 183.953 309.94 184.336L308.9 185.106ZM312.31 177.446C312.481 178.49 312.433 179.558 312.168 180.583C311.903 181.607 311.427 182.565 310.77 183.396C310.146 183.292 309.535 183.118 308.95 182.876C309.809 181.517 310.386 180 310.647 178.415C310.908 176.829 310.848 175.207 310.47 173.646C311.229 174.704 311.899 175.825 312.47 176.996C312.396 177.046 312.335 177.113 312.292 177.191C312.248 177.269 312.224 177.356 312.22 177.446H312.31ZM312.8 182.046C313.17 181.172 313.39 180.242 313.45 179.296C313.67 179.826 313.88 180.356 314.09 180.906C313.58 181.296 313.15 181.666 312.71 182.046H312.8ZM314.93 180.046C313.31 175.866 311.39 172.046 307.72 169.216C305.708 167.693 303.409 166.595 300.96 165.986C301.121 165.076 301.121 164.145 300.96 163.236C304.71 163.839 308.212 165.492 311.061 168.003C313.911 170.515 315.991 173.781 317.06 177.426C317.097 177.532 317.163 177.625 317.25 177.696C316.39 178.526 315.63 179.326 314.84 180.096L314.93 180.046ZM319.93 174.196C319.93 174.196 319.93 174.256 319.99 174.286C319.33 175.146 318.66 175.996 317.99 176.806C316.812 172.964 314.566 169.538 311.513 166.926C308.46 164.314 304.727 162.625 300.75 162.056C300.711 162.046 300.67 162.046 300.63 162.056C300.557 161.851 300.474 161.651 300.38 161.456C304.56 161.28 308.689 162.42 312.187 164.714C315.685 167.009 318.376 170.342 319.88 174.246L319.93 174.196ZM300.93 172.896C300.68 173.216 300.44 173.526 300.18 173.826C299.824 172.603 299.15 171.497 298.228 170.619C297.306 169.741 296.169 169.122 294.93 168.826C295.35 168.026 295.8 167.226 296.28 166.446C297.07 166.459 297.858 166.522 298.64 166.636C299.485 167.435 300.126 168.425 300.51 169.523C300.895 170.62 301.011 171.794 300.85 172.946L300.93 172.896Z" fill="#263238"/>
<path d="M324.62 194.966C324.595 194.913 324.561 194.866 324.52 194.826C324.78 194.326 324.1 193.706 323.67 194.186C318.454 200.059 311.901 204.592 304.566 207.403C297.23 210.214 289.326 211.219 281.52 210.336C280.82 210.256 280.83 211.336 281.52 211.416C281.9 211.416 282.29 211.496 282.68 211.526C282.839 214.06 283.988 216.431 285.88 218.126C286.4 218.596 287.17 217.836 286.65 217.366C284.977 215.895 283.947 213.827 283.78 211.606C284.73 211.666 285.69 211.706 286.64 211.706C287.263 214.738 288.685 217.548 290.76 219.846C291.22 220.366 291.99 219.596 291.52 219.076C289.649 216.99 288.353 214.454 287.76 211.716C288.37 211.716 288.99 211.716 289.6 211.656C290.129 214.966 291.756 218.002 294.22 220.276C294.73 220.756 295.5 219.986 294.99 219.506C292.716 217.417 291.203 214.63 290.69 211.586L291.69 211.506C292.636 214.944 294.419 218.095 296.88 220.676C297.36 221.186 298.13 220.416 297.65 219.906C295.359 217.505 293.69 214.58 292.79 211.386C293.5 211.306 294.21 211.216 294.91 211.106C294.882 211.204 294.882 211.307 294.91 211.406C296.56 215.206 299.358 218.394 302.91 220.526C303.51 220.886 304.05 219.946 303.46 219.586C300.12 217.548 297.493 214.526 295.94 210.936C296.59 210.826 297.24 210.696 297.88 210.546C297.888 210.662 297.938 210.772 298.02 210.856C299.867 212.854 302.116 214.44 304.618 215.51C307.12 216.58 309.819 217.11 312.54 217.066C312.684 217.066 312.821 217.009 312.922 216.907C313.023 216.806 313.08 216.669 313.08 216.526C313.08 216.382 313.023 216.245 312.922 216.144C312.821 216.042 312.684 215.986 312.54 215.986C310.008 216.028 307.495 215.544 305.161 214.562C302.826 213.581 300.721 212.124 298.98 210.286C299.98 210.056 300.89 209.786 301.83 209.496C305.442 212.651 309.955 214.589 314.73 215.036C314.745 215.145 314.792 215.247 314.864 215.33C314.936 215.414 315.03 215.474 315.136 215.505C315.242 215.536 315.354 215.535 315.46 215.503C315.565 215.471 315.659 215.41 315.73 215.326C317.038 213.389 317.884 211.179 318.203 208.864C318.522 206.55 318.305 204.193 317.57 201.976C317.543 201.886 317.491 201.805 317.421 201.743C317.35 201.681 317.263 201.64 317.17 201.626C317.8 201.146 318.42 200.626 319.03 200.146C320.298 202.218 320.921 204.621 320.817 207.049C320.714 209.476 319.89 211.818 318.45 213.776C318.05 214.356 318.99 214.896 319.39 214.326C320.948 212.173 321.825 209.603 321.909 206.948C321.993 204.292 321.279 201.672 319.86 199.426C320.53 198.846 321.18 198.246 321.86 197.636C322.816 199.318 323.424 201.176 323.647 203.098C323.871 205.021 323.705 206.969 323.16 208.826C323.159 208.944 323.196 209.059 323.266 209.154C323.337 209.249 323.436 209.318 323.55 209.351C323.663 209.384 323.785 209.379 323.895 209.336C324.005 209.294 324.098 209.216 324.16 209.116C324.759 207.074 324.931 204.931 324.666 202.82C324.401 200.71 323.705 198.676 322.62 196.846C323 196.466 323.37 196.076 323.74 195.686C325.218 198.618 325.845 201.905 325.55 205.176C325.55 205.876 326.55 205.866 326.64 205.176C326.945 201.65 326.245 198.11 324.62 194.966ZM308.7 212.466C306.657 211.64 304.752 210.507 303.05 209.106C305.295 208.343 307.484 207.424 309.6 206.356C309.912 208.436 309.599 210.563 308.7 212.466ZM309.7 212.846C310.694 210.687 311.018 208.28 310.63 205.936V205.846C311.46 205.406 312.28 204.926 313.08 204.436C313.645 207.492 313.337 210.646 312.19 213.536C311.352 213.349 310.524 213.119 309.71 212.846H309.7ZM315.18 214.186C315.135 214.12 315.076 214.065 315.007 214.025C314.937 213.985 314.86 213.961 314.78 213.956C314.26 213.906 313.78 213.826 313.22 213.746C314.406 210.677 314.704 207.336 314.08 204.106C314.064 204.018 314.027 203.935 313.97 203.866C314.83 203.316 315.69 202.726 316.52 202.116C316.511 202.165 316.511 202.216 316.52 202.266C317.187 204.228 317.414 206.314 317.184 208.374C316.954 210.434 316.273 212.418 315.19 214.186H315.18Z" fill="#263238"/>
<path d="M301.4 200.906C292.12 205.226 281.82 204.426 271.91 203.536C271.21 203.476 271.22 204.536 271.91 204.616C282.06 205.536 292.47 206.266 301.91 201.836C302.58 201.546 302.03 200.606 301.4 200.906Z" fill="#263238"/>
<path d="M271.7 195.236L267.58 194.776C266.88 194.706 266.89 195.776 267.58 195.866L271.7 196.326C272.39 196.406 272.39 195.316 271.7 195.236Z" fill="#263238"/>
<path d="M327.4 178.976C323.638 187.468 316.699 194.148 308.07 197.586C307.43 197.846 307.71 198.896 308.36 198.636C317.271 195.128 324.451 188.267 328.36 179.526C328.62 178.886 327.68 178.336 327.4 178.976Z" fill="#263238"/>
<path d="M323.96 173.936C317.487 182.373 309.044 189.096 299.37 193.516C298.74 193.806 299.29 194.736 299.92 194.446C309.769 189.932 318.355 183.063 324.92 174.446C325.31 173.926 324.38 173.386 323.96 173.936Z" fill="#263238"/>
<path d="M297.55 194.186C297.418 194.203 297.297 194.269 297.21 194.369C297.122 194.469 297.074 194.598 297.074 194.731C297.074 194.864 297.122 194.992 297.21 195.092C297.297 195.193 297.418 195.258 297.55 195.276C297.682 195.258 297.803 195.193 297.89 195.092C297.978 194.992 298.026 194.864 298.026 194.731C298.026 194.598 297.978 194.469 297.89 194.369C297.803 194.269 297.682 194.203 297.55 194.186Z" fill="#263238"/>
<path d="M298.58 198.466C289.23 201.548 279.2 201.933 269.64 199.576C269.501 199.537 269.352 199.556 269.227 199.627C269.101 199.698 269.009 199.816 268.97 199.956C268.932 200.095 268.95 200.244 269.022 200.369C269.093 200.495 269.211 200.587 269.35 200.626C279.1 203.033 289.329 202.648 298.87 199.516C299.53 199.296 299.25 198.256 298.58 198.466Z" fill="#263238"/>
<path d="M304.061 199.846C303.917 199.846 303.78 199.902 303.679 200.004C303.577 200.105 303.521 200.242 303.521 200.386C303.521 200.529 303.577 200.666 303.679 200.767C303.78 200.869 303.917 200.926 304.061 200.926C304.204 200.926 304.341 200.869 304.442 200.767C304.544 200.666 304.601 200.529 304.601 200.386C304.601 200.242 304.544 200.105 304.442 200.004C304.341 199.902 304.204 199.846 304.061 199.846Z" fill="#263238"/>
<path d="M328.66 190.456C328.853 190.101 329.02 189.734 329.16 189.356C329.4 188.696 328.35 188.416 328.11 189.066C327.564 190.571 326.565 191.871 325.25 192.786C324.68 193.186 325.25 194.126 325.8 193.726L326.13 193.476C327.154 195.686 327.562 198.132 327.31 200.556C327.24 201.246 328.31 201.236 328.4 200.556C328.675 197.871 328.197 195.164 327.02 192.736C327.388 192.388 327.723 192.006 328.02 191.596C328.31 192.47 328.492 193.377 328.56 194.296C328.62 194.986 329.7 194.996 329.65 194.296C329.529 192.971 329.194 191.674 328.66 190.456Z" fill="#263238"/>
<path d="M279.54 210.096L276.75 209.686C276.661 209.671 276.569 209.68 276.484 209.709C276.398 209.739 276.322 209.789 276.26 209.856C276.077 209.336 275.777 208.864 275.383 208.478C274.99 208.091 274.513 207.8 273.99 207.626C273.32 207.406 273.04 208.456 273.7 208.676C274.154 208.829 274.554 209.11 274.854 209.484C275.153 209.857 275.339 210.309 275.39 210.786C275.46 211.476 276.54 211.476 276.48 210.786L279.27 211.196C279.94 211.246 280.23 210.206 279.54 210.096Z" fill="#263238"/>
<path d="M188.7 161.086C192.4 166.396 200.99 196.446 203.49 197.956C205.99 199.466 216.04 203.476 217.79 205.726C219.54 207.976 221.3 211.496 219.55 212.496C217.8 213.496 188.45 212.756 183.43 212.496C178.41 212.236 156.63 197.706 154.09 193.936C151.55 190.166 120.23 160.836 122.99 153.306C125.75 145.776 173.65 139.516 188.7 161.086Z" fill="#BF632D"/>
<path opacity="0.1" d="M188.7 161.086C192.4 166.396 200.99 196.446 203.49 197.956C205.99 199.466 216.04 203.476 217.79 205.726C219.54 207.976 221.3 211.496 219.55 212.496C217.8 213.496 188.45 212.756 183.43 212.496C178.41 212.236 156.63 197.706 154.09 193.936C151.55 190.166 120.23 160.836 122.99 153.306C125.75 145.776 173.65 139.516 188.7 161.086Z" fill="black"/>
<path opacity="0.1" d="M197.37 183.316C190.28 186.736 182.96 190.316 182.96 190.316L167.62 204.396C161.3 200.276 155.35 195.796 154.09 193.936C151.55 190.166 120.22 160.826 122.99 153.296C125.76 145.766 173.65 139.506 188.69 161.076C190.73 163.996 194.22 174.326 197.37 183.316Z" fill="black"/>
<path d="M213.31 208.476C212.63 207.905 211.877 207.427 211.07 207.056C210.226 206.691 209.357 206.387 208.47 206.146C208.457 206.141 208.442 206.139 208.428 206.141C208.414 206.143 208.4 206.149 208.388 206.157C208.377 206.166 208.367 206.177 208.361 206.189C208.354 206.202 208.351 206.216 208.351 206.231C208.351 206.245 208.354 206.259 208.361 206.272C208.367 206.285 208.377 206.296 208.388 206.304C208.4 206.312 208.414 206.318 208.428 206.32C208.442 206.322 208.457 206.32 208.47 206.316C210.073 206.941 211.515 207.918 212.69 209.176C213.88 210.265 214.892 211.534 215.69 212.936C215.77 213.086 215.99 212.936 215.96 212.836C215.57 211.135 214.64 209.605 213.31 208.476Z" fill="#263238"/>
<path d="M217.69 206.946C217.007 206.381 216.254 205.908 215.45 205.536C214.606 205.171 213.737 204.867 212.85 204.626C212.839 204.62 212.826 204.616 212.813 204.616C212.799 204.616 212.786 204.618 212.774 204.624C212.762 204.629 212.751 204.637 212.743 204.647C212.734 204.656 212.728 204.668 212.724 204.681C212.72 204.693 212.719 204.707 212.721 204.72C212.723 204.733 212.728 204.745 212.735 204.756C212.743 204.767 212.752 204.776 212.763 204.783C212.775 204.79 212.787 204.794 212.8 204.796C214.401 205.416 215.84 206.391 217.01 207.646C218.202 208.737 219.215 210.009 220.01 211.416C220.09 211.566 220.31 211.416 220.28 211.306C219.906 209.612 218.998 208.084 217.69 206.946Z" fill="#263238"/>
<path d="M140.08 177.576C134.94 172.376 129.08 167.936 123.79 162.926C120.67 160.177 117.905 157.05 115.56 153.616C115.49 153.506 115.32 153.616 115.39 153.716C117.271 156.758 119.366 159.662 121.66 162.406C124.054 165.17 126.608 167.792 129.31 170.256C134.54 175.136 140.17 179.656 144.83 185.116C147.501 188.091 149.767 191.407 151.57 194.976C151.57 195.086 151.8 194.976 151.76 194.896C149.31 188.216 145.06 182.606 140.08 177.576Z" fill="#263238"/>
<path d="M164.78 202.326C161.22 200.476 158.7 197.476 156.1 194.506C154.84 193.056 153.62 191.556 152.31 190.156C150.64 188.386 148.92 186.696 147.4 184.796C147.32 184.696 147.16 184.796 147.24 184.906C150.04 188.406 152.17 192.376 155.19 195.716C157.799 198.67 161.048 200.989 164.69 202.496C164.711 202.5 164.734 202.498 164.753 202.488C164.773 202.479 164.789 202.464 164.799 202.445C164.809 202.425 164.813 202.403 164.81 202.382C164.806 202.36 164.796 202.341 164.78 202.326Z" fill="#263238"/>
<path d="M107.5 113.066C112.01 123.996 95.5002 154.186 89.6902 159.456C83.8802 164.726 65.6202 177.756 64.3602 180.276C63.1002 182.796 64.9402 198.936 66.4502 200.686C67.9602 202.436 73.8801 203.766 75.5102 205.306C76.9202 206.646 79.3202 209.716 77.4402 211.586C75.5602 213.456 51.5801 212.586 49.3201 211.586C47.0601 210.586 33.5102 178.016 33.5102 171.996C33.5102 165.976 28.0902 112.546 47.0602 104.266C66.0302 95.9856 100.98 97.2656 107.5 113.066Z" fill="#BF632D"/>
<path opacity="0.1" d="M107.5 113.066C112.01 123.996 95.5002 154.186 89.6902 159.456C83.8802 164.726 65.6202 177.756 64.3602 180.276C63.1002 182.796 64.9402 198.936 66.4502 200.686C67.9602 202.436 73.8801 203.766 75.5102 205.306C76.9202 206.646 79.3202 209.716 77.4402 211.586C75.5602 213.456 51.5801 212.586 49.3201 211.586C47.0601 210.586 33.5102 178.016 33.5102 171.996C33.5102 165.976 28.0902 112.546 47.0602 104.266C66.0302 95.9856 100.98 97.2656 107.5 113.066Z" fill="black"/>
<path d="M100.77 141.096C99.568 143.608 98.2328 146.055 96.7702 148.426C96.0602 149.576 95.3302 150.696 94.5702 151.816C93.8102 152.936 92.8702 154.036 91.9802 155.136C90.0937 157.307 88.0624 159.348 85.9002 161.246C84.7902 162.306 83.6502 163.336 82.5702 164.416C81.4902 165.496 80.2802 166.826 79.0302 167.886C78.9302 167.966 79.0802 168.096 79.1702 168.016C80.4902 166.896 82.0002 165.946 83.4002 164.936C84.8002 163.926 85.9902 162.996 87.2702 162.006C89.6162 160.302 91.7542 158.328 93.6402 156.126C97.1602 151.696 98.9102 146.336 100.9 141.126C100.97 141.076 100.82 141.016 100.77 141.096Z" fill="#263238"/>
<path d="M118.38 110.946C110.84 120.366 105.53 131.416 101.84 142.856C101.33 144.456 100.84 146.066 100.36 147.686C99.8802 149.306 99.5602 151.146 98.9702 152.816C98.9702 152.936 99.1202 152.986 99.1602 152.866C99.6602 151.376 100.38 149.976 100.99 148.536C101.6 147.096 102.12 145.776 102.68 144.396C103.82 141.629 104.954 138.856 106.08 136.076C108.32 130.536 110.66 125.016 113.38 119.686C114.937 116.719 116.663 113.844 118.55 111.076C118.62 110.976 118.45 110.846 118.38 110.946Z" fill="#263238"/>
<path d="M71.1002 208.476C70.4199 207.905 69.6666 207.427 68.8602 207.056C68.0161 206.691 67.1472 206.387 66.2602 206.146C66.2466 206.141 66.2322 206.139 66.2179 206.141C66.2037 206.143 66.1902 206.149 66.1785 206.157C66.1668 206.166 66.1572 206.177 66.1507 206.189C66.1441 206.202 66.1406 206.216 66.1406 206.231C66.1406 206.245 66.1441 206.259 66.1507 206.272C66.1572 206.285 66.1668 206.296 66.1785 206.304C66.1902 206.312 66.2037 206.318 66.2179 206.32C66.2322 206.322 66.2466 206.32 66.2602 206.316C67.8633 206.941 69.3054 207.918 70.4802 209.176C71.6666 210.268 72.6784 211.536 73.4802 212.936C73.5502 213.086 73.7802 212.936 73.7402 212.836C73.3591 211.133 72.432 209.602 71.1002 208.476Z" fill="#263238"/>
<path d="M75.4901 206.946C74.807 206.381 74.0542 205.908 73.2501 205.536C72.406 205.171 71.5372 204.867 70.6501 204.626C70.5301 204.626 70.4901 204.756 70.6001 204.796C72.2032 205.416 73.6457 206.39 74.8201 207.646C76.0096 208.739 77.0217 210.011 77.8201 211.416C77.9001 211.566 78.1201 211.416 78.0901 211.306C77.713 209.611 76.8016 208.083 75.4901 206.946Z" fill="#263238"/>
<path opacity="0.1" d="M89.6902 159.456C83.9202 164.756 65.6102 177.756 64.3602 180.286C63.1102 182.816 64.9402 198.936 66.4502 200.686C67.9602 202.436 73.8902 203.766 75.5102 205.316C76.5902 206.316 78.2502 208.376 78.1202 210.126C72.9701 209.346 67.7901 208.196 66.0102 206.566C57.5902 198.856 48.0102 191.296 46.4502 191.296C45.4502 191.296 42.4502 191.426 39.7202 191.566C36.4002 183.206 33.5102 174.766 33.5102 172.006C33.5102 166.006 28.0902 112.556 47.0602 104.276C66.0302 95.9955 100.98 97.2755 107.5 113.066C112.02 123.996 95.4602 154.176 89.6902 159.456Z" fill="black"/>
<path d="M210.85 98.7556C210.85 98.7556 186.67 36.0756 175.92 30.8756C165.17 25.6756 151.75 94.6656 158.19 104.826C164.63 114.986 191.03 121.066 192.95 120.696C194.87 120.326 211.62 107.286 210.85 98.7556Z" fill="#BF632D"/>
<g opacity="0.1">
<path d="M210.85 98.7556C210.85 98.7556 186.67 36.0756 175.92 30.8756C165.17 25.6756 151.75 94.6656 158.19 104.826C164.63 114.986 191.03 121.066 192.95 120.696C194.87 120.326 211.62 107.286 210.85 98.7556Z" fill="black"/>
</g>
<path opacity="0.1" d="M192.95 120.756C191.04 121.116 164.64 115.046 158.19 104.886C155.48 100.606 156.29 85.8856 158.94 70.7056C166.03 70.2856 185.36 69.1556 186.62 69.7056C187.55 70.1356 197.78 79.0955 205.77 86.1855C208.86 93.6455 210.85 98.7856 210.85 98.7856C211.63 107.286 194.87 120.346 192.95 120.756Z" fill="black"/>
<path d="M48.5204 57.6856C50.8104 54.5356 45.8704 49.0956 39.9804 48.8556C34.0904 48.6156 22.2004 59.4856 23.5704 61.1656C24.9404 62.8456 44.0104 63.9056 48.5204 57.6856Z" fill="#BF632D"/>
<path d="M192.2 175.936C186.85 175.136 165.31 208.756 154.31 212.826C143.31 216.896 79.6902 212.046 70.0602 205.666C60.4302 199.286 39.3002 170.466 33.6502 162.256C28.0002 154.046 6.07019 140.756 2.31019 128.976C-1.44981 117.196 6.75019 84.0456 13.0702 74.9156C19.3902 65.7856 40.9802 51.0356 55.2102 54.6456C69.4402 58.2556 115.21 94.6456 125.12 89.9456C134.64 85.4256 163.24 67.1956 181.57 74.7956C199.9 82.3956 220.1 105.626 220.81 119.586C221.52 133.546 217.46 143.586 218.59 144.516C219.95 145.666 242.79 154.156 246.11 155.736C248.91 157.056 240.68 170.456 229.75 175.096C220.8 178.916 198.91 176.946 192.2 175.936Z" fill="#BF632D"/>
<path d="M2.31007 128.976C6.07007 140.756 27.9601 154.056 33.6101 162.256C39.2601 170.456 60.3801 199.256 70.0101 205.666C79.6401 212.076 143.21 216.886 154.26 212.826C165.31 208.766 186.85 175.146 192.2 175.936C198.91 176.936 220.79 178.936 229.78 175.096C240.71 170.446 248.94 157.096 246.14 155.736C242.81 154.156 219.97 145.666 218.62 144.516C217.49 143.516 221.55 133.516 220.84 119.586C220.65 115.746 218.66 111.176 215.95 105.926C212.42 104.356 210.28 109.696 210.84 114.556C211.4 119.416 213.22 123.396 213.43 131.126C213.64 138.856 210.87 149.436 206.31 152.126C196.61 157.916 185.31 144.946 179.72 146.536C174.13 148.126 167.24 154.336 167.11 157.756C166.98 161.176 169.48 168.116 169.3 168.596C169.12 169.076 160.07 179.936 156.1 182.776C152.13 185.616 145 187.846 145 187.846C148.366 187.757 151.704 187.205 154.92 186.206C154.08 186.636 140.21 195.666 134.44 195.876C128.49 196.096 91.1101 198.156 79.2401 195.946C67.3701 193.736 46.7101 152.566 29.3101 147.356C11.9101 142.146 10.4401 124.296 10.6901 117.516C10.9401 110.736 27.5101 96.1756 26.6601 85.7556C26.0601 78.3456 18.8301 75.7556 12.6601 75.6956C6.37007 85.7556 -1.28993 117.506 2.31007 128.976Z" fill="white"/>
<path d="M2.31042 128.976C3.57042 132.706 6.07042 135.856 8.67042 138.746C11.3516 141.604 14.1858 144.314 17.1604 146.866L26.0704 154.516C27.5404 155.816 29.0004 157.126 30.3904 158.516C31.8039 159.877 33.0678 161.385 34.1604 163.016C38.6738 169.416 43.3404 175.696 48.1604 181.856C52.9503 188.078 58.0536 194.052 63.4504 199.756C64.8204 201.156 66.2204 202.516 67.7104 203.756C68.4503 204.391 69.2248 204.985 70.0304 205.536C70.8497 206.056 71.7253 206.482 72.6404 206.806C76.348 208.051 80.1504 208.994 84.0104 209.626C91.7104 211.006 99.5004 211.916 107.29 212.626C115.08 213.336 122.91 213.826 130.73 214.036C134.64 214.136 138.56 214.166 142.47 214.036C144.47 213.976 146.37 213.876 148.32 213.696C150.253 213.562 152.167 213.226 154.03 212.696C155.822 211.969 157.484 210.956 158.95 209.696C160.472 208.46 161.928 207.145 163.31 205.756C166.07 202.996 168.67 200.066 171.23 197.106C173.79 194.146 176.28 191.106 178.81 188.106C181.34 185.106 183.87 182.106 186.65 179.326C187.341 178.621 188.069 177.953 188.83 177.326C189.586 176.64 190.465 176.104 191.42 175.746C191.696 175.663 191.985 175.635 192.27 175.666L192.99 175.766L194.45 175.956L197.36 176.266C201.25 176.646 205.15 176.906 209.06 177.006C212.963 177.128 216.87 177.024 220.76 176.696C224.63 176.316 228.53 175.696 231.89 173.696C235.278 171.774 238.32 169.3 240.89 166.376C242.158 164.935 243.303 163.389 244.31 161.756C244.824 160.943 245.279 160.094 245.67 159.216C246.084 158.401 246.293 157.499 246.28 156.586C246.21 156.166 246.07 156.106 245.54 155.876L244.19 155.316L241.47 154.226L236 152.086L225.08 147.756C223.26 147.026 221.44 146.296 219.64 145.476L218.97 145.156C218.68 145.03 218.42 144.842 218.21 144.606C218.059 144.316 217.99 143.991 218.01 143.666C218.01 143.396 218.01 143.146 218.07 142.896C218.19 141.896 218.39 140.896 218.57 139.966C219.37 136.147 219.938 132.283 220.27 128.396C220.43 126.456 220.504 124.512 220.49 122.566C220.49 121.566 220.49 120.566 220.41 119.646C220.355 118.695 220.215 117.751 219.99 116.826C218.93 113.089 217.44 109.489 215.55 106.096L215.77 106.306C215.495 106.172 215.196 106.094 214.89 106.077C214.585 106.06 214.279 106.103 213.99 106.206C213.409 106.478 212.922 106.916 212.59 107.466C211.873 108.662 211.436 110.006 211.31 111.396C211.159 112.806 211.213 114.231 211.47 115.626C211.7 117.046 212.02 118.466 212.35 119.886C213.872 125.608 214.27 131.572 213.52 137.446C213.112 140.384 212.357 143.264 211.27 146.026C210.72 147.434 210.012 148.776 209.16 150.026C208.72 150.652 208.214 151.228 207.65 151.746C207.072 152.262 206.422 152.694 205.72 153.026C204.338 153.69 202.833 154.061 201.3 154.116C199.791 154.151 198.284 153.963 196.83 153.556C194.006 152.676 191.283 151.496 188.71 150.036C187.42 149.356 186.13 148.666 184.83 148.036C183.585 147.391 182.227 146.99 180.83 146.856C180.493 146.836 180.155 146.873 179.83 146.966C179.49 147.056 179.15 147.166 178.83 147.286C178.164 147.536 177.512 147.827 176.88 148.156C174.325 149.476 172.012 151.22 170.04 153.316C169.049 154.315 168.255 155.492 167.7 156.786C167.594 157.089 167.53 157.405 167.51 157.726C167.486 158.075 167.486 158.426 167.51 158.776C167.575 159.487 167.679 160.195 167.82 160.896C168.09 162.306 168.46 163.716 168.82 165.126L169.4 167.246C169.51 167.622 169.59 168.007 169.64 168.396V168.516C169.645 168.575 169.645 168.636 169.64 168.696L169.54 168.866C169.482 168.959 169.419 169.049 169.35 169.136L169.01 169.576C168.09 170.726 167.14 171.846 166.19 172.956C164.27 175.166 162.31 177.346 160.26 179.446C159.231 180.499 158.15 181.5 157.02 182.446C155.872 183.378 154.629 184.186 153.31 184.856C150.676 186.169 147.944 187.279 145.14 188.176L145.02 187.446C146.696 187.4 148.366 187.243 150.02 186.976C151.665 186.727 153.287 186.346 154.87 185.836L157.87 184.836L155.17 186.486C150.906 189.18 146.492 191.631 141.95 193.826C140.8 194.356 139.63 194.826 138.43 195.276C137.222 195.736 135.958 196.032 134.67 196.156L127.12 196.486C117.05 196.906 106.97 197.246 96.8904 197.206C91.8904 197.206 86.8004 197.076 81.7704 196.536C81.1404 196.446 80.5104 196.376 79.8804 196.266C79.2388 196.176 78.6085 196.019 78.0004 195.796C76.8099 195.309 75.6926 194.659 74.6804 193.866C72.685 192.301 70.8312 190.565 69.1404 188.676C65.7204 184.956 62.6104 180.976 59.5004 177.016C56.3904 173.056 53.3104 169.076 50.0904 165.196C46.9244 161.3 43.4964 157.625 39.8304 154.196C37.9771 152.489 35.9684 150.959 33.8304 149.626C32.7628 148.973 31.6422 148.411 30.4804 147.946C29.3304 147.506 28.0804 147.196 26.9204 146.686C22.1624 144.812 18.1313 141.461 15.4204 137.126C12.784 132.758 11.1926 127.84 10.7704 122.756C10.6404 121.506 10.5804 120.236 10.5704 118.976C10.5538 118.341 10.5772 117.707 10.6404 117.076C10.7269 116.438 10.8915 115.813 11.1304 115.216C12.1607 112.907 13.4346 110.714 14.9304 108.676C17.8004 104.526 20.9304 100.536 23.3704 96.1555C24.6701 94.0053 25.6598 91.6824 26.3104 89.2556C27.0046 86.8156 26.7386 84.2025 25.5671 81.9525C24.3956 79.7024 22.4074 77.9861 20.0104 77.1555C17.6529 76.2307 15.1429 75.7559 12.6104 75.7556H12.6704C10.4343 79.7533 8.63718 83.9812 7.31042 88.3655C5.92042 92.7455 4.76042 97.1955 3.79042 101.686C2.82112 106.174 2.10995 110.715 1.66042 115.286C1.44744 117.572 1.35398 119.869 1.38042 122.166C1.3891 124.467 1.70181 126.756 2.31042 128.976ZM2.31042 128.976C1.69702 126.757 1.38423 124.467 1.38042 122.166C1.34201 119.869 1.42881 117.572 1.64042 115.286C2.07496 110.709 2.77615 106.161 3.74042 101.666C4.74042 97.1756 5.84042 92.6655 7.22042 88.3355C8.52161 83.9179 10.3022 79.6559 12.5304 75.6255C15.0666 75.6403 17.5785 76.1216 19.9404 77.0456C22.3398 77.9454 24.342 79.6676 25.5904 81.9055C26.7289 84.2064 27.0022 86.8399 26.3604 89.3256C25.7428 91.7855 24.7728 94.1432 23.4804 96.3256C20.9904 100.726 17.9104 104.736 15.0604 108.886C13.5731 110.908 12.3122 113.088 11.3004 115.386C11.0673 115.96 10.9061 116.561 10.8204 117.176C10.765 117.797 10.7449 118.422 10.7604 119.046C10.7604 120.296 10.8404 121.556 10.9704 122.796C11.3882 127.817 12.9626 132.674 15.5704 136.986C18.2517 141.256 22.2341 144.551 26.9304 146.386C28.0904 146.886 29.3004 147.176 30.4904 147.646C31.6754 148.106 32.8167 148.671 33.9004 149.336C36.0422 150.675 38.0513 152.215 39.9004 153.936C43.6238 157.354 47.1023 161.03 50.3104 164.936C53.5404 168.806 56.6404 172.786 59.7504 176.746C62.8604 180.706 65.9904 184.656 69.4004 188.346C71.0736 190.206 72.9074 191.916 74.8804 193.456C75.8574 194.216 76.9341 194.838 78.0804 195.306C79.2651 195.669 80.4855 195.904 81.7204 196.006C86.7204 196.536 91.7204 196.606 96.7804 196.636C106.85 196.636 116.92 196.296 126.98 195.846L134.52 195.506C135.743 195.38 136.944 195.09 138.09 194.646C139.268 194.229 140.423 193.752 141.55 193.216C146.076 191.007 150.476 188.55 154.73 185.856L155.01 186.516C153.379 187.048 151.707 187.446 150.01 187.706C148.333 187.979 146.639 188.143 144.94 188.196L142.49 188.256L144.82 187.466C150.3 185.596 155.82 183.466 159.66 178.916C161.66 176.836 163.66 174.666 165.54 172.456C166.49 171.346 167.43 170.236 168.33 169.096L168.66 168.676L168.79 168.496V168.436C168.79 168.436 168.79 168.436 168.79 168.486C168.742 168.148 168.671 167.814 168.58 167.486L168 165.386C167.61 163.966 167.24 162.546 167 161.096C166.86 160.366 166.74 159.636 166.67 158.886C166.645 158.503 166.645 158.118 166.67 157.736C166.687 157.329 166.768 156.927 166.91 156.546C167.492 155.136 168.341 153.852 169.41 152.766C171.448 150.593 173.839 148.781 176.48 147.406C177.146 147.063 177.83 146.76 178.53 146.496C178.89 146.366 179.24 146.246 179.61 146.146C180.003 146.032 180.412 145.981 180.82 145.996C182.342 146.121 183.824 146.546 185.18 147.246C186.53 147.866 187.82 148.556 189.12 149.246C191.635 150.67 194.298 151.816 197.06 152.666C199.763 153.53 202.69 153.356 205.27 152.176C206.526 151.576 207.592 150.642 208.35 149.476C209.156 148.301 209.827 147.04 210.35 145.716C211.398 143.027 212.126 140.224 212.52 137.366C213.272 131.611 212.895 125.766 211.41 120.156C211.09 118.736 210.76 117.296 210.53 115.836C210.26 114.354 210.21 112.841 210.38 111.346C210.524 109.813 211.012 108.332 211.81 107.016C212.246 106.307 212.888 105.748 213.65 105.416C214.051 105.268 214.477 105.203 214.903 105.224C215.329 105.244 215.746 105.35 216.13 105.536L216.28 105.596L216.35 105.736C218.265 109.217 219.772 112.908 220.84 116.736C221.081 117.719 221.225 118.724 221.27 119.736C221.27 120.736 221.34 121.736 221.35 122.736C221.35 124.736 221.27 126.702 221.11 128.636C220.763 132.553 220.182 136.447 219.37 140.296C219.18 141.296 218.99 142.216 218.87 143.156C218.84 143.384 218.823 143.615 218.82 143.846C218.808 144.011 218.829 144.178 218.88 144.336C219.021 144.44 219.172 144.531 219.33 144.606L219.97 144.916C221.74 145.726 223.56 146.456 225.37 147.186L236.31 151.376L241.78 153.526L244.51 154.626L245.87 155.196C246.137 155.3 246.389 155.438 246.62 155.606C246.854 155.84 247.002 156.147 247.04 156.476C247.079 157.517 246.848 158.55 246.37 159.476C245.964 160.385 245.493 161.264 244.96 162.106C241.739 167.122 237.364 171.295 232.2 174.276C230.463 175.251 228.594 175.968 226.65 176.406C224.724 176.841 222.769 177.138 220.8 177.296C216.883 177.624 212.949 177.717 209.02 177.576C205.1 177.462 201.187 177.209 197.28 176.816L194.35 176.486L192.89 176.296L192.16 176.196C191.958 176.177 191.755 176.197 191.56 176.256C190.682 176.597 189.872 177.095 189.17 177.726C188.43 178.336 187.72 179.006 187.03 179.726C184.27 182.486 181.74 185.476 179.2 188.456C176.66 191.436 174.2 194.456 171.59 197.406C168.98 200.356 166.41 203.296 163.59 206.066C162.205 207.474 160.746 208.81 159.22 210.066C157.71 211.362 155.997 212.403 154.15 213.146C152.25 213.68 150.3 214.015 148.33 214.146C146.33 214.326 144.41 214.416 142.45 214.476C138.53 214.586 134.61 214.546 130.69 214.476C122.86 214.246 115.03 213.726 107.23 213.006C99.4304 212.286 91.6404 211.336 83.9304 209.936C80.0556 209.29 76.2397 208.33 72.5204 207.066C71.5887 206.736 70.6965 206.303 69.8604 205.776C69.0504 205.216 68.2694 204.615 67.5204 203.976C66.0304 202.696 64.6304 201.326 63.2604 199.926C57.8204 194.266 52.8904 188.166 48.0504 182.006C43.2104 175.846 38.5604 169.536 34.0504 163.116C32.9621 161.491 31.7051 159.986 30.3004 158.626C28.9104 157.246 27.4604 155.926 25.9904 154.626L17.1004 146.946C14.148 144.37 11.3372 141.636 8.68042 138.756C6.08042 135.866 3.59042 132.756 2.31042 128.976Z" fill="#DBDBDB"/>
<path d="M239.19 164.176C243.33 164.516 249.14 158.786 248.19 156.776C247.24 154.766 230.74 152.536 229.59 153.976C228.44 155.416 234.69 163.816 239.19 164.176Z" fill="#263238"/>
<path d="M209.5 141.186C209.5 141.006 209.08 141.276 209.03 141.466C207.66 145.986 205.34 150.936 200.79 151.056C200.65 151.056 200.59 151.296 200.74 151.326C205.92 152.286 208.94 145.686 209.5 141.186Z" fill="#263238"/>
<path d="M207.08 135.166C200.08 132.166 194.64 146.446 201.14 149.166C207.64 151.886 212.96 137.656 207.08 135.166Z" fill="#263238"/>
<path d="M207.89 114.136C207.89 114.136 199.52 109.906 193.01 121.026L207.89 114.136Z" fill="#263238"/>
<path d="M181.31 88.6956C181.31 88.6956 139.98 35.6956 128.18 33.8856C116.38 32.0756 123.56 101.936 132.68 109.796C141.8 117.656 168.82 115.796 170.55 114.896C172.28 113.996 184.55 96.6256 181.31 88.6956Z" fill="#BF632D"/>
<path d="M174.71 103.096C177.92 97.2856 135.77 42.0056 127.34 41.4156C118.91 40.8256 127.67 100.416 132 105.866C136.33 111.316 161.4 115.456 163.72 112.956C170.66 105.456 174.71 103.096 174.71 103.096Z" fill="#F7A9A0"/>
<path d="M186.88 89.7555C186.06 88.226 184.813 86.9682 183.29 86.1356C182.03 85.3656 180.7 84.7456 179.38 84.1356C177.68 82.1356 175.96 80.1356 174.21 78.1956C171.98 75.6856 169.72 73.1955 167.4 70.7555C165.08 68.3155 162.68 65.9756 160.4 63.4756C160.31 63.3856 160.18 63.5255 160.26 63.6255C162.42 66.1655 164.42 68.8556 166.51 71.4456C168.6 74.0356 170.58 76.4456 172.67 78.8556C174.76 81.2656 176.97 83.7656 179.14 86.2056C181.03 88.3256 182.97 90.3356 184.14 92.9755C184.168 93.0303 184.214 93.0735 184.27 93.0975C184.327 93.1215 184.39 93.1249 184.449 93.1069C184.507 93.089 184.558 93.0509 184.591 92.9994C184.624 92.948 184.638 92.8864 184.63 92.8256C184.15 90.1156 182.42 87.8256 180.71 85.7656C180.57 85.5856 180.42 85.4156 180.27 85.2356C181.04 85.7556 181.81 86.2355 182.61 86.7155C184.18 87.447 185.552 88.5444 186.61 89.9156C186.632 89.9514 186.666 89.9773 186.706 89.9876C186.747 89.9979 186.79 89.9918 186.825 89.9705C186.861 89.9493 186.887 89.9148 186.897 89.8744C186.908 89.8341 186.902 89.7914 186.88 89.7555Z" fill="#263238"/>
<path d="M135.22 113.016C131.75 110.846 130.02 106.536 128.87 102.816C128.22 100.676 127.61 98.5356 127.02 96.3756C126.43 94.2156 125.72 91.9256 125.3 89.6656C125.3 89.5556 125.09 89.5856 125.11 89.6656C125.46 92.0356 125.64 94.4355 126.04 96.8055C126.421 99.2097 126.939 101.59 127.59 103.936C127.78 104.586 128 105.236 128.24 105.866C128.094 107.068 128.203 108.288 128.56 109.446C129.141 111.04 130.131 112.454 131.43 113.546C131.446 113.555 131.464 113.559 131.481 113.557C131.499 113.555 131.516 113.547 131.529 113.534C131.541 113.521 131.549 113.505 131.551 113.487C131.554 113.469 131.55 113.451 131.54 113.436C130.492 112.183 129.725 110.72 129.29 109.146C129.103 108.531 128.949 107.907 128.83 107.276C129.254 108.213 129.774 109.104 130.38 109.936C131.554 111.505 133.139 112.72 134.96 113.446C135.015 113.462 135.074 113.459 135.127 113.438C135.181 113.417 135.226 113.38 135.255 113.33C135.285 113.281 135.298 113.224 135.291 113.167C135.285 113.11 135.26 113.057 135.22 113.016Z" fill="#263238"/>
<path d="M149.18 172.756C152.88 178.066 161.47 208.126 163.97 209.626C166.47 211.126 176.51 215.146 178.27 217.406C180.03 219.666 181.78 223.176 180.03 224.176C178.28 225.176 148.93 224.426 143.91 224.176C138.89 223.926 117.11 209.376 114.57 205.616C112.03 201.856 80.7104 172.506 83.4704 164.986C86.2304 157.466 134.13 151.156 149.18 172.756Z" fill="#BF632D"/>
<path d="M173.78 220.116C173.1 219.548 172.346 219.074 171.54 218.706C170.7 218.332 169.83 218.028 168.94 217.796C168.82 217.796 168.78 217.926 168.94 217.966C170.544 218.586 171.986 219.56 173.16 220.816C174.35 221.909 175.362 223.181 176.16 224.586C176.24 224.726 176.46 224.586 176.43 224.476C176.04 222.775 175.11 221.245 173.78 220.116Z" fill="#263238"/>
<path d="M178.17 218.596C177.488 218.028 176.735 217.551 175.93 217.176C175.086 216.811 174.217 216.507 173.33 216.266C173.319 216.26 173.306 216.256 173.293 216.256C173.279 216.256 173.266 216.258 173.254 216.264C173.242 216.269 173.231 216.277 173.223 216.287C173.214 216.296 173.208 216.308 173.204 216.321C173.2 216.333 173.199 216.347 173.201 216.36C173.203 216.373 173.208 216.385 173.215 216.396C173.223 216.407 173.232 216.416 173.243 216.423C173.255 216.43 173.267 216.434 173.28 216.436C174.879 217.064 176.317 218.041 177.49 219.296C178.68 220.385 179.692 221.654 180.49 223.056C180.57 223.206 180.79 223.056 180.76 222.956C180.386 221.262 179.478 219.734 178.17 218.596Z" fill="#263238"/>
<path d="M100.56 189.216C95.4201 184.016 89.5601 179.576 84.2701 174.576C81.1492 171.821 78.3815 168.691 76.0301 165.256C75.9701 165.156 75.8001 165.256 75.8701 165.366C77.7507 168.405 79.846 171.305 82.1401 174.046C84.5342 176.813 87.0922 179.434 89.8001 181.896C95.0301 186.756 100.66 191.306 105.31 196.756C107.981 199.731 110.247 203.047 112.05 206.616C112.1 206.726 112.28 206.616 112.23 206.536C109.75 199.866 105.54 194.246 100.56 189.216Z" fill="#263238"/>
<path d="M160.18 198.906C159.28 195.986 158.34 193.079 157.36 190.186C155.47 184.556 153.21 179.066 151.43 173.406C150.36 170.215 149.652 166.914 149.32 163.566C149.32 163.436 149.1 163.436 149.11 163.566C149.363 169.389 150.458 175.146 152.36 180.656C154.247 186.469 156.32 192.219 158.58 197.906C159.89 201.196 161.32 204.446 162.58 207.746C162.63 207.866 162.81 207.816 162.77 207.696C161.87 204.756 161.08 201.826 160.18 198.906Z" fill="#263238"/>
<path d="M151.37 161.946C151.47 159.946 151.66 157.946 151.95 156.006C151.951 155.98 151.943 155.955 151.928 155.935C151.913 155.914 151.891 155.9 151.866 155.894C151.841 155.888 151.815 155.891 151.792 155.902C151.769 155.914 151.751 155.932 151.74 155.956C150.556 159.792 150.364 163.865 151.18 167.796C151.188 167.825 151.206 167.851 151.23 167.87C151.255 167.888 151.285 167.899 151.315 167.899C151.346 167.899 151.376 167.888 151.4 167.87C151.425 167.851 151.442 167.825 151.45 167.796C151.37 165.816 151.31 163.896 151.37 161.946Z" fill="#263238"/>
<path d="M125.31 213.976C121.75 212.116 119.23 209.116 116.63 206.146C115.37 204.696 114.15 203.206 112.83 201.806C111.17 200.026 109.45 198.336 107.93 196.436C107.85 196.336 107.69 196.436 107.77 196.546C110.57 200.046 112.7 204.026 115.77 207.366C118.38 210.317 121.629 212.633 125.27 214.136C125.31 214.186 125.36 214.026 125.31 213.976Z" fill="#263238"/>
<path d="M74.9103 125.016C79.4203 135.956 62.9103 166.136 57.1003 171.406C51.2903 176.676 33.0303 189.756 31.7703 192.236C30.5103 194.716 32.3503 210.886 33.8603 212.646C35.3703 214.406 41.3003 215.716 42.9203 217.266C44.3303 218.596 46.7303 221.666 44.8503 223.546C42.9703 225.426 18.9903 224.546 16.7303 223.546C14.4703 222.546 0.920306 189.966 0.920306 183.946C0.920306 177.926 -4.49969 124.496 14.4703 116.226C33.4403 107.956 68.3903 109.216 74.9103 125.016Z" fill="#BF632D"/>
<path d="M68.1804 153.056C66.9761 155.567 65.6409 158.014 64.1804 160.386C63.4704 161.526 62.7404 162.656 61.9804 163.776C61.2204 164.896 60.2804 165.996 59.4004 167.096C57.5053 169.262 55.4709 171.303 53.3104 173.206C52.2104 174.256 51.0604 175.286 49.9804 176.366C48.9004 177.446 47.6904 178.776 46.4404 179.836C46.3404 179.916 46.4404 180.046 46.5804 179.966C47.9004 178.856 49.4104 177.906 50.8104 176.886C52.2104 175.866 53.4004 174.946 54.6804 173.956C57.0288 172.254 59.1671 170.281 61.0504 168.076C64.5704 163.646 66.3204 158.286 68.3104 153.076C68.3804 153.026 68.2304 152.966 68.1804 153.056Z" fill="#263238"/>
<path d="M85.7904 122.906C78.2504 132.326 72.9404 143.376 69.2604 154.816C68.7404 156.416 68.2604 158.016 67.7704 159.636C67.2804 161.256 66.9704 163.096 66.3804 164.776C66.3804 164.896 66.5304 164.946 66.5704 164.826C67.0704 163.326 67.7904 161.926 68.4004 160.486C69.0104 159.046 69.5304 157.726 70.1004 156.346L73.4904 148.036C75.7304 142.486 78.0704 136.966 80.8004 131.636C82.3497 128.667 84.0727 125.792 85.9604 123.026C86.0304 122.926 85.8704 122.806 85.7904 122.906Z" fill="#263238"/>
<path d="M42.9001 218.906C42.2198 218.335 41.4665 217.857 40.6601 217.486C39.816 217.121 38.9471 216.817 38.0601 216.576C37.9401 216.576 37.9001 216.706 38.0601 216.746C39.6632 217.371 41.1054 218.348 42.2801 219.606C43.4699 220.695 44.4821 221.964 45.2801 223.366C45.3601 223.516 45.5801 223.366 45.5501 223.266C45.1595 221.565 44.2301 220.035 42.9001 218.906Z" fill="#263238"/>
<path d="M290.47 38.5153C289.805 44.8932 287.38 50.9606 283.466 56.0404C279.553 61.1203 274.305 65.0126 268.308 67.283C262.31 69.5535 255.8 70.1126 249.504 68.8982C243.208 67.6837 237.372 64.7434 232.65 60.4053L215.31 62.9453L223.97 47.9453C221.983 43.0729 221.134 37.8115 221.486 32.5614C221.838 27.3112 223.383 22.2105 226.003 17.6471C228.623 13.0837 232.248 9.17768 236.605 6.22608C240.961 3.27448 245.933 1.355 251.142 0.613591C256.351 -0.127816 261.661 0.328362 266.668 1.94745C271.675 3.56654 276.246 6.30591 280.035 9.95726C283.824 13.6086 286.73 18.0758 288.533 23.0192C290.336 27.9626 290.988 33.2521 290.44 38.4853L290.47 38.5153Z" fill="white"/>
<path d="M290.47 38.5153C289.802 44.8963 287.379 50.9675 283.47 56.0553C282.505 57.3248 281.46 58.5307 280.34 59.6653C279.189 60.7705 277.97 61.8025 276.69 62.7553C271.544 66.6273 265.43 69.0045 259.02 69.6253C257.421 69.7753 255.813 69.8054 254.21 69.7153C252.603 69.6814 251.001 69.5175 249.42 69.2253C243.04 68.0472 237.115 65.1141 232.31 60.7553L232.72 60.8853L215.43 63.5353L214.17 63.7353L214.81 62.6253L223.42 47.6253V48.2253C220.894 42.0364 220.193 35.2537 221.401 28.6791C222.608 22.1046 225.672 16.0132 230.232 11.1253C234.792 6.23747 240.656 2.75754 247.131 1.09707C253.606 -0.563414 260.421 -0.334992 266.77 1.75531C271.772 3.45566 276.33 6.25407 280.11 9.94532C283.883 13.6151 286.776 18.0924 288.57 23.0408C290.365 27.9892 291.014 33.2799 290.47 38.5153ZM290.47 38.5153C291.024 33.303 290.374 28.0329 288.569 23.1116C286.765 18.1903 283.854 13.7492 280.062 10.1307C276.269 6.51225 271.696 3.81306 266.696 2.24131C261.695 0.669549 256.401 0.267205 251.22 1.06531C246.084 1.84239 241.195 3.78913 236.93 6.75531C232.701 9.7265 229.169 13.5824 226.58 18.0553C224.026 22.5403 222.522 27.5456 222.18 32.6953C221.864 37.8343 222.697 42.979 224.62 47.7553L224.75 48.0653L224.58 48.3553L215.87 63.2853L215.25 62.3753L232.58 59.9453H232.82L232.99 60.1053C237.613 64.4353 243.351 67.3924 249.56 68.6453C251.106 68.9551 252.674 69.1456 254.25 69.2153C259.006 69.5606 263.781 68.8785 268.25 67.2153C271.239 66.1331 274.052 64.6168 276.6 62.7153C277.879 61.7723 279.098 60.7504 280.25 59.6553C281.378 58.537 282.431 57.3443 283.4 56.0853C287.333 50.9936 289.78 44.9123 290.47 38.5153Z" fill="#263238"/>
<path d="M268.96 27.5053C268.332 30.6988 266.8 33.645 264.547 35.9937C262.294 38.3425 259.414 39.9951 256.25 40.7553L255.45 44.9953C255.286 45.8587 254.831 46.64 254.162 47.2093C253.492 47.7787 252.648 48.1019 251.77 48.1253C251.377 48.1423 250.985 48.0679 250.626 47.9079C250.267 47.7479 249.95 47.5067 249.7 47.2032C249.45 46.8998 249.273 46.5424 249.185 46.1593C249.096 45.7762 249.098 45.3777 249.19 44.9953L250.36 38.2353C250.36 38.1753 250.42 38.1753 250.42 38.1153V37.9953C250.594 37.1357 251.051 36.3592 251.718 35.7899C252.385 35.2207 253.224 34.8916 254.1 34.8553C256.146 34.7848 258.108 34.0256 259.669 32.7007C261.23 31.3758 262.298 29.5628 262.7 27.5553C262.889 26.6699 262.875 25.7533 262.659 24.8741C262.443 23.9949 262.031 23.1759 261.454 22.4784C260.877 21.781 260.149 21.2232 259.326 20.8469C258.503 20.4705 257.605 20.2854 256.7 20.3053C255.342 20.3365 254.009 20.6802 252.806 21.3098C251.602 21.9393 250.56 22.8377 249.76 23.9353C248.59 25.4053 246.63 25.9353 245.28 25.0353C243.93 24.1353 243.75 22.2753 244.85 20.7353C246.363 18.6984 248.32 17.0323 250.572 15.8629C252.824 14.6935 255.313 14.0515 257.85 13.9853C265.31 13.9353 270.31 20.0153 268.96 27.5053ZM254.16 52.5553L253.98 53.7153C253.814 54.5965 253.351 55.3943 252.669 55.9764C251.987 56.5585 251.126 56.8898 250.23 56.9153C249.833 56.925 249.438 56.8431 249.078 56.676C248.717 56.5089 248.4 56.2611 248.15 55.9517C247.901 55.6423 247.726 55.2797 247.639 54.8919C247.553 54.5041 247.556 54.1015 247.65 53.7153L247.84 52.5553C248.006 51.6768 248.467 50.8815 249.148 50.3012C249.828 49.721 250.686 49.3908 251.58 49.3653C251.976 49.356 252.369 49.4378 252.729 49.6043C253.088 49.7709 253.405 50.0177 253.654 50.3259C253.903 50.634 254.079 50.9953 254.166 51.3818C254.254 51.7683 254.252 52.1698 254.16 52.5553Z" fill="#BF632D"/>
</svg>
