<svg width="108" height="15" viewBox="0 0 108 15" fill="none" xmlns="http://www.w3.org/2000/svg">
<path d="M1.88 14.22C1.64 14.22 1.38667 14.2 1.12 14.16C0.866667 14.12 0.586667 14.0667 0.28 14L0.48 11.26C0.666667 11.3133 0.86 11.34 1.06 11.34C1.60667 11.34 2.03333 11.12 2.34 10.68C2.64667 10.2267 2.86667 9.58 3 8.74C3.13333 7.9 3.22 6.88 3.26 5.68L3.46 -9.53674e-07H14.22V14H11.02V1.9L11.76 2.64H5.58L6.24 1.86L6.12 5.56C6.08 6.93333 5.98667 8.15333 5.84 9.22C5.69333 10.2867 5.46667 11.1933 5.16 11.94C4.85333 12.6867 4.43333 13.2533 3.9 13.64C3.36667 14.0267 2.69333 14.22 1.88 14.22ZM24.1166 14V11.9L23.9166 11.44V7.68C23.9166 7.01333 23.7099 6.49333 23.2966 6.12C22.8966 5.74667 22.2766 5.56 21.4366 5.56C20.8632 5.56 20.2966 5.65333 19.7366 5.84C19.1899 6.01333 18.7232 6.25333 18.3366 6.56L17.2166 4.38C17.8032 3.96667 18.5099 3.64667 19.3366 3.42C20.1632 3.19333 21.0032 3.08 21.8566 3.08C23.4966 3.08 24.7699 3.46667 25.6766 4.24C26.5832 5.01333 27.0366 6.22 27.0366 7.86V14H24.1166ZM20.8366 14.16C19.9966 14.16 19.2766 14.02 18.6766 13.74C18.0766 13.4467 17.6166 13.0533 17.2966 12.56C16.9766 12.0667 16.8166 11.5133 16.8166 10.9C16.8166 10.26 16.9699 9.7 17.2766 9.22C17.5966 8.74 18.0966 8.36667 18.7766 8.1C19.4566 7.82 20.3432 7.68 21.4366 7.68H24.2966V9.5H21.7766C21.0432 9.5 20.5366 9.62 20.2566 9.86C19.9899 10.1 19.8566 10.4 19.8566 10.76C19.8566 11.16 20.0099 11.48 20.3166 11.72C20.6366 11.9467 21.0699 12.06 21.6166 12.06C22.1366 12.06 22.6032 11.94 23.0166 11.7C23.4299 11.4467 23.7299 11.08 23.9166 10.6L24.3966 12.04C24.1699 12.7333 23.7566 13.26 23.1566 13.62C22.5566 13.98 21.7832 14.16 20.8366 14.16ZM29.9469 14V3.24H40.6469V14H37.5269V5.1L38.2269 5.8H32.3469L33.0469 5.1V14H29.9469ZM43.8383 14V3.24H46.9383V9.64L52.1783 3.24H55.0383V14H51.9383V7.6L46.7183 14H43.8383ZM65.0175 9.88C64.5775 10.12 64.0908 10.3133 63.5575 10.46C63.0242 10.6067 62.4375 10.68 61.7975 10.68C60.3842 10.68 59.2975 10.36 58.5375 9.72C57.7775 9.06667 57.3975 8.03333 57.3975 6.62V3.24H60.5175V6.42C60.5175 7.08667 60.6908 7.56667 61.0375 7.86C61.3842 8.14 61.8708 8.28 62.4975 8.28C62.9508 8.28 63.3842 8.22667 63.7975 8.12C64.2242 8.01333 64.6308 7.86 65.0175 7.66V9.88ZM64.7975 14V3.24H67.9175V14H64.7975ZM78.7333 14L75.1333 8.9L77.6733 7.4L82.4133 14H78.7333ZM71.1133 14V3.24H74.2333V14H71.1133ZM73.3133 9.92V7.42H77.0733V9.92H73.3133ZM77.9733 8.98L75.0533 8.66L78.8333 3.24H82.1533L77.9733 8.98ZM84.1453 14V3.24H87.2453V9.64L92.4853 3.24H95.3453V14H92.2453V7.6L87.0253 14H84.1453ZM101.745 11.62V2.38H104.325V11.62H101.745ZM98.2845 8.22V5.78H107.805V8.22H98.2845Z" fill="#341A1B"/>
</svg>
