<svg width="750" height="500" viewBox="0 0 750 500" fill="none" xmlns="http://www.w3.org/2000/svg">
<path d="M634.264 170.548C634.256 113.435 588.467 50.852 531.479 47.072C530.478 47.006 529.467 46.947 528.445 46.898C446.747 42.943 440.522 146.428 366.605 158.099C292.687 169.77 236.239 110.849 147.792 149.292C68.3547 183.817 46.8387 377.824 280.238 385.604C466.977 391.829 634.289 340.947 634.264 170.548Z" fill="#E8E4DD"/>
<path d="M81.1722 219.552C81.1722 227.207 74.9662 233.413 67.3112 233.413C59.6562 233.413 53.4502 227.207 53.4502 219.552C53.4502 211.897 59.6562 205.691 67.3112 205.691C74.9662 205.691 81.1722 211.896 81.1722 219.552Z" fill="#E8E4DD"/>
<path d="M350.764 126.291C353.274 132.376 350.376 139.344 344.291 141.854C338.206 144.364 331.239 141.466 328.728 135.381C326.218 129.296 329.116 122.328 335.201 119.818C341.286 117.308 348.254 120.206 350.764 126.291Z" fill="#DDD8CE"/>
<path d="M532.15 377.257C535.531 371.61 533.695 364.291 528.049 360.909C522.402 357.527 515.082 359.363 511.701 365.01C508.319 370.657 510.155 377.976 515.802 381.358C521.448 384.74 528.768 382.904 532.15 377.257Z" fill="#DDD8CE"/>
<path d="M631.405 89.249C631.405 93.216 628.189 96.432 624.221 96.432C620.254 96.432 617.037 93.216 617.037 89.249C617.037 85.282 620.253 82.066 624.221 82.066C628.189 82.065 631.405 85.281 631.405 89.249Z" fill="#E8E4DD"/>
<path d="M315.686 118.429C317.199 122.097 315.452 126.296 311.784 127.809C308.116 129.322 303.917 127.575 302.404 123.907C300.891 120.24 302.638 116.04 306.305 114.527C309.973 113.015 314.173 114.762 315.686 118.429Z" fill="#E8E4DD"/>
<path d="M86.0325 186.027C86.3815 190.453 82.7155 194.119 78.2895 193.77C74.8075 193.495 71.9865 190.674 71.7125 187.193C71.3635 182.767 75.0295 179.1 79.4565 179.45C82.9375 179.724 85.7585 182.545 86.0325 186.027Z" fill="#E8E4DD"/>
<path d="M558.761 353.039C559.557 356.926 557.051 360.722 553.164 361.517C549.277 362.313 545.481 359.807 544.686 355.921C543.89 352.034 546.396 348.238 550.283 347.442C554.169 346.647 557.965 349.152 558.761 353.039Z" fill="#E8E4DD"/>
<path d="M284.183 429.291C390.081 429.291 475.93 423.772 475.93 416.964C475.93 410.156 390.081 404.637 284.183 404.637C178.284 404.637 92.4355 410.156 92.4355 416.964C92.4355 423.772 178.284 429.291 284.183 429.291Z" fill="#DDD8CE"/>
<path d="M504.746 187.417L481.644 314.492C480.625 320.085 476.075 324.122 470.783 324.122H123.503C118.211 324.122 113.661 320.085 112.642 314.492L89.5395 187.417C88.2025 180.053 93.4365 173.206 100.401 173.206H493.885C500.849 173.206 506.083 180.053 504.746 187.417Z" fill="#6E3E45"/>
<path d="M497.049 184.897H100.485C99.8624 184.897 99.3574 184.392 99.3574 183.769C99.3574 183.146 99.8624 182.641 100.485 182.641H497.049C497.672 182.641 498.177 183.146 498.177 183.769C498.177 184.392 497.672 184.897 497.049 184.897Z" fill="#341A1B"/>
<path d="M461.09 335.387H116.179C110.296 335.387 105.527 330.618 105.527 324.735V314.601C105.527 308.718 110.296 303.949 116.179 303.949H461.09C466.973 303.949 471.742 308.718 471.742 314.601V324.735C471.742 330.618 466.973 335.387 461.09 335.387Z" fill="#341A1B"/>
<path d="M359.86 305.281C359.86 305.281 407.309 296.663 415.195 271.621C423.081 246.579 442.057 240.807 442.057 240.807L425.22 305.281H359.86Z" fill="#341A1B"/>
<path d="M219.176 305.281C219.176 305.281 171.727 296.663 163.841 271.621C155.955 246.579 136.979 240.807 136.979 240.807L153.816 305.281H219.176Z" fill="#341A1B"/>
<path d="M386.916 239.55C386.916 239.55 355.181 234.286 347.649 232.182C340.118 230.078 340.103 236.824 342.509 248.375C344.915 259.926 347.175 268.243 345.656 275.801C344.137 283.359 331.421 304.486 337.855 308.301C344.29 312.115 365.742 304.882 381.336 310.288C396.93 315.694 421.465 318.039 424.328 313.158C427.191 308.277 414.996 279.851 418.618 271.215C422.239 262.58 430.481 242.715 427.781 237.604C425.082 232.493 398.634 241.549 386.916 239.55Z" fill="#97635F"/>
<path d="M384.915 275.01C384.915 277.18 383.156 278.939 380.986 278.939C378.816 278.939 377.057 277.18 377.057 275.01C377.057 272.84 378.816 271.081 380.986 271.081C383.156 271.081 384.915 272.84 384.915 275.01Z" fill="#6E3E45"/>
<path d="M192.479 229.404C192.479 229.404 161.062 236.321 153.289 237.169C145.516 238.017 148.011 244.285 154.54 254.112C161.069 263.939 166.261 270.82 167.662 278.4C169.063 285.981 165.117 310.322 172.508 311.469C179.899 312.616 197.123 297.923 213.609 297.142C230.095 296.361 253.742 289.412 254.585 283.816C255.427 278.22 233.534 256.369 233.685 247.006C233.835 237.643 234.097 216.138 229.69 212.398C225.282 208.658 204.1 226.901 192.479 229.404Z" fill="#97635F"/>
<path d="M203.809 263.064C204.616 265.078 203.637 267.365 201.623 268.172C199.609 268.979 197.322 268 196.515 265.986C195.708 263.972 196.686 261.685 198.701 260.877C200.715 260.071 203.002 261.049 203.809 263.064Z" fill="#6E3E45"/>
<path d="M465.726 366.825H111.543C108.22 366.825 105.527 364.132 105.527 360.809V341.403C105.527 338.08 108.22 335.387 111.543 335.387H465.726C469.048 335.387 471.742 338.08 471.742 341.403V360.809C471.742 364.131 469.048 366.825 465.726 366.825Z" fill="#6E3E45"/>
<path d="M73.6176 227.395H128.367C131.37 227.395 133.995 229.422 134.754 232.328L163.613 342.837C164.705 347.02 161.549 351.106 157.226 351.106H104.589C101.629 351.106 99.0306 349.136 98.2326 346.286L67.2616 235.777C66.0816 231.568 69.2456 227.395 73.6176 227.395Z" fill="#97635F"/>
<path d="M149.656 342.655H108.911C107.151 342.655 105.59 341.471 105.115 339.776L77.391 240.852C77.055 239.654 77.294 238.398 78.046 237.406C78.798 236.414 79.943 235.846 81.188 235.846H123.823C125.616 235.846 127.185 237.058 127.638 238.792L153.471 337.716C153.782 338.906 153.529 340.148 152.777 341.122C152.025 342.096 150.887 342.655 149.656 342.655ZM81.188 238.102C80.656 238.102 80.166 238.345 79.844 238.77C79.522 239.194 79.42 239.732 79.564 240.245L107.288 339.168C107.491 339.893 108.159 340.399 108.912 340.399H149.657C150.184 340.399 150.67 340.16 150.992 339.743C151.314 339.326 151.422 338.795 151.289 338.286L125.455 239.362C125.261 238.62 124.59 238.102 123.823 238.102H81.188Z" fill="#6E3E45"/>
<path d="M120.824 287.412C121.685 292.223 119.648 296.612 116.275 297.215C112.902 297.818 109.471 294.407 108.61 289.596C107.75 284.785 109.786 280.396 113.159 279.793C116.532 279.19 119.963 282.601 120.824 287.412Z" fill="#6E3E45"/>
<path d="M505.439 227.395H450.69C447.687 227.395 445.062 229.422 444.303 232.328L415.444 342.837C414.352 347.02 417.508 351.106 421.831 351.106H474.468C477.428 351.106 480.026 349.136 480.824 346.286L511.795 235.777C512.976 231.568 509.811 227.395 505.439 227.395Z" fill="#97635F"/>
<path d="M470.146 342.655H429.401C428.17 342.655 427.033 342.096 426.281 341.122C425.529 340.148 425.275 338.907 425.587 337.716L451.42 238.792C451.873 237.057 453.442 235.846 455.235 235.846H497.871C499.115 235.846 500.261 236.415 501.012 237.406C501.764 238.398 502.003 239.654 501.667 240.852L473.943 339.776C473.468 341.471 471.907 342.655 470.146 342.655ZM455.234 238.102C454.467 238.102 453.796 238.62 453.602 239.362L427.769 338.286C427.636 338.796 427.744 339.327 428.066 339.743C428.388 340.16 428.875 340.399 429.401 340.399H470.146C470.899 340.399 471.567 339.893 471.77 339.168L499.494 240.245C499.638 239.732 499.536 239.195 499.214 238.77C498.892 238.346 498.402 238.102 497.87 238.102H455.234Z" fill="#6E3E45"/>
<path d="M458.234 287.412C457.373 292.223 459.41 296.612 462.783 297.215C466.156 297.818 469.587 294.407 470.448 289.596C471.309 284.785 469.272 280.396 465.899 279.793C462.526 279.19 459.094 282.601 458.234 287.412Z" fill="#6E3E45"/>
<path d="M463.042 360.992H114.229C113.606 360.992 113.101 360.487 113.101 359.864C113.101 359.241 113.606 358.736 114.229 358.736H463.042C463.665 358.736 464.17 359.241 464.17 359.864C464.17 360.487 463.665 360.992 463.042 360.992Z" fill="#341A1B"/>
<path d="M180.609 366.824C180.609 366.824 176.887 378.73 167.034 378.73H148.272C147.492 378.73 147.054 378.73 147.054 378.73H128.292C118.439 378.73 114.717 366.824 114.717 366.824H180.609Z" fill="#341A1B"/>
<path d="M142.673 413.173L160.11 378.729H131.532L121.51 413.173H142.673Z" fill="#341A1B"/>
<path d="M394.763 366.824C394.763 366.824 398.485 378.73 408.338 378.73H427.1C427.88 378.73 428.318 378.73 428.318 378.73H447.08C456.933 378.73 460.655 366.824 460.655 366.824H394.763Z" fill="#341A1B"/>
<path d="M453.862 413.173L443.84 378.729H415.262L432.7 413.173H453.862Z" fill="#341A1B"/>
<path d="M288.636 299.97C288.013 299.97 287.508 299.465 287.508 298.842V183.769C287.508 183.146 288.013 182.641 288.636 182.641C289.259 182.641 289.764 183.146 289.764 183.769V298.842C289.764 299.465 289.259 299.97 288.636 299.97Z" fill="#341A1B"/>
<path d="M170.05 125.605C170.02 126.395 169.95 126.885 169.95 126.885C170.16 131.685 156.4 142.195 149.07 137.725C148.68 137.495 148.32 137.215 147.97 136.895C141.02 130.475 147.55 113.585 159.72 113.995C169.48 114.315 170.16 122.415 170.05 125.605Z" fill="#341A1B"/>
<path d="M170.049 125.605C170.019 126.395 169.949 126.885 169.949 126.885C170.159 131.685 156.399 142.195 149.069 137.725C152.199 134.535 161.849 125.435 170.049 125.605Z" fill="#FE812D"/>
<path d="M161.762 128.549C161.762 128.549 149.156 121.138 152.805 117.329C156.137 113.851 161.644 120.585 161.762 128.549Z" stroke="#FE812D" stroke-miterlimit="10"/>
<path d="M162.202 128.517C162.202 128.517 173.371 119.078 169.129 115.942C165.256 113.079 160.969 120.648 162.202 128.517Z" stroke="#FE812D" stroke-miterlimit="10"/>
<path d="M352.443 294.341L330.777 296.788C330.777 296.788 323.776 290.065 311.499 281.861C301.166 274.952 285.479 269.94 280.633 251.133C280.633 251.133 269.429 278.035 246.677 295.512C223.928 312.986 208.823 282.605 208.823 282.605C208.823 282.605 243.828 226.212 264.353 216.088C264.737 215.897 265.139 215.744 265.555 215.625C267.554 215.037 269.919 215.223 272.564 216.038C298.767 224.13 352.443 294.341 352.443 294.341Z" fill="#FE812D"/>
<path d="M272.564 216.038C269.619 223.257 268.435 230.548 268.435 230.548C263.875 223.87 265.16 219.645 265.555 215.625C267.554 215.037 269.919 215.222 272.564 216.038Z" fill="#EBB088"/>
<path d="M240.542 294.939C240.381 294.939 240.221 294.875 240.101 294.749C239.871 294.506 239.882 294.122 240.125 293.892C240.465 293.571 274.212 261.53 280.053 242.813C280.129 242.569 280.351 242.399 280.607 242.388C280.865 242.384 281.098 242.529 281.194 242.766C281.274 242.964 289.368 262.674 301.41 270.044C313.661 277.542 331.226 291.889 331.402 292.033C331.661 292.245 331.7 292.627 331.487 292.886C331.275 293.145 330.893 293.183 330.634 292.971C330.458 292.828 312.957 278.533 300.777 271.078C290.199 264.604 282.83 249.472 280.695 244.678C277.773 252.544 270.419 263.145 258.806 276.223C249.617 286.572 241.043 294.692 240.958 294.773C240.841 294.884 240.692 294.939 240.542 294.939Z" fill="#BF632D"/>
<path d="M327.399 293.56C327.098 293.56 326.836 293.336 326.798 293.029C326.757 292.697 326.992 292.394 327.324 292.352L348.553 289.704C348.888 289.661 349.188 289.899 349.23 290.231C349.271 290.563 349.036 290.866 348.703 290.908L327.474 293.556C327.449 293.558 327.424 293.56 327.399 293.56Z" fill="#9F6F42"/>
<path d="M364.607 257.056C364.607 257.056 364.835 267.121 370.222 273.38C375.608 279.639 382.914 284.759 384.813 288.268C386.711 291.777 389.318 297.321 387.283 299.828C385.248 302.335 380.465 302.689 383.071 307.077C385.676 311.464 389.989 308.926 393.113 307.627C396.236 306.328 396.396 303.087 397.188 297.239C397.98 291.39 397.775 288.846 395 284.956C392.909 282.025 392.322 276.225 393.384 271.143C394.446 266.061 382.785 240.511 364.607 257.056Z" fill="#E8E4DD"/>
<path d="M347.117 242.88C339.445 251.302 327.472 251.032 326.099 250.391C324.726 249.75 317.579 251.097 314.021 251.844C310.465 252.593 307.612 249.323 307.947 247.239C308.283 245.159 314.205 246.08 319.652 244.007C325.094 241.933 324.152 236.714 324.152 236.714C321.765 238.609 314.456 238.444 308.877 239.151C303.298 239.858 301.717 236.012 298.911 231.493C298.343 230.579 297.873 229.559 297.512 228.504C296.074 224.351 296.291 219.725 298.705 219.466C299.377 219.395 300.412 219.353 301.663 219.318C305.388 219.211 311.008 219.141 314.579 218.394C315.178 218.27 315.722 218.124 316.189 217.958C318.907 216.985 320.704 214.762 322.869 213.323C324.028 212.55 325.288 212.01 326.855 212.002C331.341 211.989 336.089 214.705 336.089 214.705C336.089 214.705 345.388 220.647 348.779 224.265C352.171 227.887 354.789 234.458 347.117 242.88Z" fill="white"/>
<path d="M317.643 228.294C312.082 226.731 313.386 221.331 314.577 218.394C315.176 218.27 315.72 218.124 316.187 217.958C318.905 216.985 320.702 214.762 322.867 213.323C326.874 216.443 324.405 230.198 317.643 228.294Z" fill="#E8E4DD"/>
<path d="M336.906 254.905C336.906 254.905 328.546 257.594 331.335 269.957C334.124 282.32 332.292 280.879 330.729 286.456C329.423 291.115 324.145 291.443 323.469 296.578C322.496 303.968 334.207 302.854 338.038 299.379C341.869 295.903 339.973 285.335 341.249 281.594C342.526 277.853 349.971 268.891 347.881 262.72C345.792 256.549 336.906 254.905 336.906 254.905Z" fill="#E8E4DD"/>
<path d="M301.663 219.319C302.064 221.613 301.92 225.533 297.512 228.505C296.074 224.352 296.291 219.726 298.705 219.467C299.378 219.396 300.412 219.354 301.663 219.319Z" fill="#341A1B"/>
<path d="M407.467 273.33C404.24 275.572 400.16 277.452 395.285 278.802C385.198 281.597 371.714 282.097 355.353 278.73C349.214 277.466 344.286 274.818 340.35 271.563C328.725 261.961 325.743 247.098 325.743 247.098L350.511 234.069C350.511 234.069 353.973 235.954 360.844 237.076C363.325 237.484 366.256 237.793 369.628 237.875C379.456 238.121 389.927 236.656 398.567 238.703C401.097 239.301 403.472 240.202 405.626 241.531C415.288 247.502 417.374 266.453 407.467 273.33Z" fill="white"/>
<path d="M379.89 256.823C379.89 256.823 379.506 266.883 384.502 273.458C389.498 280.033 396.479 285.587 398.161 289.205C399.843 292.823 402.108 298.516 399.924 300.894C397.74 303.272 392.945 303.335 395.279 307.873C397.613 312.41 402.072 310.139 405.269 309.033C408.466 307.927 408.822 304.701 409.968 298.912C411.114 293.122 411.064 290.57 408.531 286.519C406.622 283.466 406.388 277.641 407.758 272.634C409.126 267.625 399.04 241.414 379.89 256.823Z" fill="white"/>
<path d="M400.542 242.967C396.713 249.271 392.783 242.619 387.27 249.038C381.757 255.456 375.498 258.488 374.253 252.716C373.011 246.946 368.13 244.56 362.792 243.591C359.491 242.99 359.985 239.589 360.844 237.078C363.325 237.486 366.256 237.795 369.628 237.877C379.456 238.123 389.927 236.658 398.567 238.705C400.462 240.207 401.311 241.704 400.542 242.967Z" fill="#E8E4DD"/>
<path d="M395.285 278.802C385.198 281.597 371.714 282.097 355.353 278.73C349.214 277.466 344.286 274.818 340.35 271.563C341.521 270.124 343.612 268.461 347.029 266.554C347.029 266.554 352.01 265.918 360.426 271.751C368.843 277.585 374.09 277.207 382.958 276.036C390.536 275.035 394.502 275.505 395.285 278.802Z" fill="#E8E4DD"/>
<path d="M435.56 223.858C436.095 230.214 433.709 234.928 430.598 238.312C425.718 243.626 419.049 245.675 419.049 245.675C419.049 245.675 419.885 247.566 423.421 246.606C423.421 246.606 415.032 254.364 409.631 250.402C404.228 246.438 403.473 241.617 403.473 241.617C403.473 241.617 417.131 233.327 415.73 227.559C415.73 227.559 417.247 227.938 417.782 229.938C417.782 229.938 418.212 229.349 418.732 228.333C420.447 224.971 423.127 216.954 414.333 210.292C414.333 210.292 434.185 207.538 435.56 223.858Z" fill="white"/>
<path d="M435.56 223.858C436.095 230.214 433.709 234.928 430.598 238.312C429.284 237.294 428.614 235.324 428.948 232.829C429.643 227.649 425.586 228.931 421.125 229.224C420.095 229.294 419.318 228.93 418.732 228.333C420.447 224.971 423.127 216.954 414.333 210.292C414.333 210.292 434.185 207.538 435.56 223.858Z" fill="#E8E4DD"/>
<path d="M329.577 212.291C329.577 212.291 327.002 214.913 329.426 219.821C331.85 224.729 328.642 237.785 334.847 242.673C341.052 247.56 347.717 246.469 351.377 243.998C357.18 240.079 353.493 222.039 349.94 220.774C346.386 219.508 337.378 210.522 329.577 212.291Z" fill="#341A1B"/>
<path d="M322.367 242.299C322.367 242.299 313.805 240.336 308.441 242.892C303.077 245.448 303.222 250.938 305.243 252.714C307.264 254.49 307.579 246.176 310.259 246.219C312.939 246.262 319.597 245.691 322.367 242.299Z" fill="#FB705F"/>
<path d="M318.798 222.613C318.106 223.788 317.01 224.427 316.35 224.039C315.69 223.651 315.715 222.384 316.407 221.209C317.099 220.034 318.195 219.396 318.855 219.783C319.515 220.17 319.489 221.437 318.798 222.613Z" fill="#341A1B"/>
<path d="M341.703 257.29C341.703 257.29 333.343 259.979 336.132 272.342C338.921 284.705 337.089 283.264 335.526 288.841C334.22 293.5 328.942 293.828 328.266 298.963C327.293 306.353 339.003 305.239 342.834 301.764C346.665 298.289 344.769 287.72 346.045 283.979C347.322 280.238 354.767 271.276 352.677 265.105C350.588 258.934 341.703 257.29 341.703 257.29Z" fill="white"/>
<path d="M388.894 296.549L405.566 298.532C405.566 298.532 410.481 291.998 415.118 285.838C419.133 280.505 423.649 266.184 428.188 265.909C431.051 265.736 430.185 278.819 428.691 284.224C427.196 289.63 426.376 303.65 423.79 311.095C421.204 318.541 409.793 313.158 405.85 313.246C401.907 313.333 385.838 311.27 385.838 311.27L388.894 296.549Z" fill="#EBB088"/>
<path d="M406.787 292.589C406.787 292.589 418.263 294.222 425.827 302.329C425.827 302.329 434.326 272.495 429.679 264.88C425.033 257.265 414.023 274.905 406.787 292.589Z" fill="#FB532C"/>
<path d="M422.062 298.991C422.062 298.991 420.602 309.569 416.312 315.498C416.312 315.498 419.722 317.721 423.075 315.696C423.075 315.696 430.639 292.25 431.739 282.367C432.839 272.484 432.974 265.401 429.314 264.352L422.062 298.991Z" fill="#FB532C"/>
<path d="M422.821 299.032C422.76 299.032 422.698 299.023 422.637 299.003C422.318 298.901 422.141 298.56 422.243 298.241C427.284 282.391 428.483 265.504 428.495 265.335C428.518 265.001 428.806 264.752 429.141 264.772C429.475 264.795 429.727 265.084 429.704 265.418C429.692 265.588 428.483 282.621 423.398 298.608C423.316 298.867 423.078 299.032 422.821 299.032Z" fill="#A62413"/>
<path d="M397.876 296.655L392.712 313.203C376.013 314.347 354.911 310.83 318.606 311.193C288.625 311.49 280.728 305.645 274.458 306.691C261.747 308.809 231.295 331.848 206.403 328.095C181.511 324.343 169.094 299.824 169.094 299.824C172.216 286.719 216.359 276.789 216.359 276.789C216.359 276.789 259.951 272.859 272.238 273.132C272.905 273.145 273.48 273.174 273.951 273.214C274.833 273.291 276.702 273.571 279.361 274.016C304.203 278.175 397.876 296.655 397.876 296.655Z" fill="#FE812D"/>
<path d="M387.753 313.222C387.702 313.222 387.651 313.215 387.6 313.202C387.276 313.118 387.081 312.787 387.165 312.463L391.397 296.159C391.481 295.835 391.814 295.641 392.136 295.724C392.46 295.808 392.655 296.139 392.571 296.463L388.339 312.767C388.268 313.04 388.022 313.222 387.753 313.222Z" fill="#9F6F42"/>
<path d="M214.636 321.669C206.567 321.669 200.165 318.9 195.814 316.167C189.466 312.181 186.091 307.538 185.95 307.342C185.755 307.07 185.817 306.692 186.088 306.496C186.36 306.301 186.739 306.363 186.934 306.634C186.967 306.68 190.338 311.307 196.498 315.165C202.158 318.71 211.413 322.316 223.36 319.367C237.715 315.823 250.663 309.369 260.118 304.657C266.182 301.635 270.563 299.451 272.946 299.235C275.364 299.017 279.782 299.843 285.898 300.988C294.983 302.689 307.424 305.017 321.427 305.429C344.544 306.11 387.949 308.531 388.385 308.555C388.719 308.574 388.975 308.86 388.956 309.194C388.937 309.528 388.654 309.788 388.317 309.765C387.881 309.741 344.493 307.321 321.392 306.641C307.294 306.226 294.799 303.887 285.675 302.179C279.881 301.094 275.305 300.237 273.055 300.442C270.899 300.637 266.379 302.89 260.658 305.742C251.153 310.48 238.136 316.968 223.65 320.544C220.455 321.333 217.444 321.669 214.636 321.669Z" fill="#BF632D"/>
<path d="M279.362 274.017C276.658 279.459 273.001 290.525 273.001 290.525C270.366 283.667 271.579 276.114 272.238 273.133C272.905 273.146 273.48 273.175 273.951 273.215C274.834 273.292 276.703 273.572 279.362 274.017Z" fill="#EBB088"/>
<path d="M193.62 205.857L163.799 199.218C163.799 199.218 164.867 192.099 166.516 184.007C166.326 183.957 166.136 183.903 165.944 183.85C164.002 191.89 161.945 198.805 161.945 198.805L133.708 201.194C133.708 201.194 125.905 180.738 138.651 173.937C146.063 169.983 142.365 164.508 144.444 152.723C146.488 141.146 154.803 134.971 155.093 134.758C155.093 134.758 155.094 134.755 155.096 134.756C164.441 124.932 177.389 127.103 181.205 129.193C181.205 129.193 189.001 129.333 197.06 140.593C198.843 143.083 199.527 146.713 199.508 150.857C200.303 154.548 200.665 159.475 199.198 164.913C196.081 176.466 189.106 183.35 194.808 189.519C200.511 195.688 193.62 205.857 193.62 205.857Z" fill="#341A1B"/>
<path d="M294.425 210.833C283.531 210.656 258.233 208.845 245.182 205.552C232.134 202.256 208.685 212.197 201.313 210.287C193.944 208.375 186.313 185.004 186.313 185.004C186.313 185.004 193.441 180.237 208.439 181.537C215.689 182.165 225.243 182.287 234.657 182.597C241.001 182.804 247.283 183.099 252.753 183.688C255.959 184.035 258.884 184.482 261.382 185.076C274.462 188.184 300.163 190.671 303.068 195.7C305.973 200.725 306.62 211.028 294.425 210.833Z" fill="#C0905F"/>
<path d="M291.501 210.939C291.312 210.907 291.142 210.786 291.054 210.6C286.625 201.23 292.222 191.727 292.463 191.327C292.635 191.04 293.007 190.948 293.294 191.12C293.581 191.292 293.674 191.665 293.502 191.952C293.447 192.044 288.003 201.309 292.15 210.082C292.293 210.385 292.164 210.746 291.861 210.889C291.744 210.944 291.619 210.959 291.501 210.939Z" fill="#9F6F42"/>
<path d="M303.785 198.023C303.747 198.016 303.709 198.006 303.671 197.992C303.592 197.962 295.725 194.997 291.795 194.736C291.457 194.716 291.208 194.425 291.23 194.091C291.252 193.757 291.541 193.504 291.875 193.526C295.988 193.799 303.772 196.734 304.101 196.858C304.414 196.977 304.572 197.327 304.453 197.64C304.348 197.916 304.065 198.071 303.785 198.023Z" fill="#9F6F42"/>
<path d="M290.06 201.189C289.777 201.141 289.559 200.896 289.556 200.598C289.552 200.263 289.821 199.989 290.156 199.985C296.016 199.921 301.858 201.367 302.104 201.429C302.429 201.51 302.626 201.84 302.545 202.164C302.464 202.488 302.138 202.689 301.81 202.605C301.752 202.591 295.869 201.135 290.17 201.197C290.132 201.198 290.096 201.195 290.06 201.189Z" fill="#9F6F42"/>
<path d="M290.925 208.053C290.682 208.012 290.479 207.823 290.431 207.567C290.369 207.238 290.586 206.921 290.915 206.859C296.802 205.754 301.981 205.848 302.033 205.849C302.368 205.856 302.633 206.133 302.626 206.468C302.619 206.803 302.342 207.068 302.007 207.062C301.956 207.061 296.896 206.971 291.138 208.051C291.066 208.065 290.994 208.065 290.925 208.053Z" fill="#9F6F42"/>
<path d="M323.121 197.792C323.121 197.792 330.203 199.362 332.217 201.017C334.231 202.672 339.123 205.411 339.133 206.96C339.142 208.509 327.082 202.767 327.082 202.767L323.121 197.792Z" fill="#FF7D5B"/>
<path d="M299.727 205.43C299.727 205.43 304.486 209.243 308.843 210.297C313.2 211.35 319.851 215.636 323.441 214.055C327.031 212.474 321.754 210.961 319.943 210.038C318.132 209.115 315.907 207.014 316.548 206.14C317.189 205.265 320.537 205.101 324.841 205.833C329.145 206.565 337.805 209.879 340.159 209.05C342.514 208.221 336.781 205.77 333.897 203.926C331.013 202.082 329.261 200.443 323.595 197.97C319.807 196.317 303.069 195.699 303.069 195.699C303.069 195.699 298.066 198.014 299.727 205.43Z" fill="#EBB088"/>
<path d="M252.753 183.687C250.821 185.07 247.746 186.555 243.531 186.419C238.469 186.254 235.86 184.083 234.657 182.597C241.001 182.804 247.283 183.098 252.753 183.687Z" fill="#9F6F42"/>
<path d="M219.643 268.824C208.577 277.29 189.323 324.359 180.486 315.221C159.294 293.3 148.733 266.009 144.925 248.567C144.448 246.39 143.784 244.073 143 241.674C141.843 238.141 140.426 234.424 138.967 230.69C133.483 216.655 127.39 202.393 132.281 196.829C136.672 191.835 142.05 190.929 146.093 188.35C148.598 186.751 151.381 185.641 154.305 185.09L171.316 181.891C171.316 181.891 183.701 179.794 187.093 180.853C190.485 181.912 194.905 190.214 202.568 196.569C210.231 202.924 214.082 210.622 212.475 221.064C211.077 230.147 210.783 226.988 214.612 239.773C219.301 255.436 238.179 254.641 219.643 268.824Z" fill="#C0905F"/>
<path d="M166.52 210.362L171.017 220.328C171.017 220.328 186.288 214.343 196.694 211.31L191.72 202.321C191.72 202.321 176.507 206.141 166.52 210.362Z" fill="#9F6F42"/>
<path d="M181.435 213.897C176.482 213.897 169.934 209.326 161.971 200.309C156.01 193.559 151.441 186.768 150.94 186.016C150.758 185.743 150.693 185.414 150.757 185.092C150.821 184.769 151.008 184.491 151.282 184.309C151.555 184.127 151.883 184.061 152.206 184.126C152.529 184.19 152.807 184.377 152.989 184.65C157.953 192.1 172.74 211.434 181.427 211.434C181.477 211.434 181.527 211.433 181.577 211.432C183.667 211.378 185.005 210.78 185.55 209.652C187.309 206.015 182.058 196.796 178.335 191.839C177.927 191.296 178.038 190.523 178.58 190.115C178.842 189.918 179.166 189.834 179.493 189.881C179.819 189.927 180.107 190.098 180.305 190.361C181.383 191.795 190.751 204.556 187.768 210.724C186.789 212.748 184.727 213.814 181.639 213.893C181.571 213.897 181.502 213.897 181.435 213.897Z" fill="white"/>
<path d="M186.975 315.256C186.819 315.256 186.664 315.197 186.545 315.077C169.133 297.587 158.484 275.12 152.617 259.352C146.263 242.276 143.989 229.146 143.967 229.016C143.911 228.686 144.133 228.373 144.463 228.317C144.795 228.264 145.106 228.483 145.163 228.813C145.185 228.943 147.445 241.981 153.763 258.956C159.588 274.603 170.153 296.893 187.404 314.223C187.64 314.46 187.639 314.844 187.402 315.08C187.285 315.197 187.13 315.256 186.975 315.256Z" fill="#9F6F42"/>
<path d="M188.286 284.182C188.21 284.182 188.132 284.168 188.057 284.137C187.747 284.011 187.598 283.657 187.724 283.347C192.599 271.38 199.698 263.154 204.796 258.361C210.33 253.157 214.652 250.82 214.834 250.723C215.129 250.565 215.496 250.676 215.654 250.972C215.812 251.267 215.701 251.634 215.406 251.792C215.363 251.815 211.016 254.17 205.593 259.276C200.594 263.983 193.631 272.059 188.847 283.805C188.752 284.039 188.525 284.182 188.286 284.182Z" fill="#9F6F42"/>
<path d="M185.803 264.489C185.63 264.489 185.458 264.415 185.339 264.273C185.124 264.016 185.157 263.634 185.413 263.419C185.872 263.033 196.782 253.951 207.928 251.734C208.256 251.669 208.576 251.882 208.641 252.21C208.706 252.539 208.493 252.858 208.165 252.923C197.321 255.08 186.303 264.255 186.193 264.347C186.079 264.443 185.941 264.489 185.803 264.489Z" fill="#9F6F42"/>
<path d="M206.7 201.638C206.548 201.638 206.396 201.581 206.278 201.467C205.883 201.084 196.575 192.031 193.492 186.903C193.319 186.616 193.412 186.243 193.699 186.071C193.986 185.898 194.359 185.991 194.531 186.278C197.533 191.272 207.026 200.504 207.122 200.597C207.362 200.83 207.368 201.214 207.135 201.454C207.016 201.576 206.858 201.638 206.7 201.638Z" fill="#9F6F42"/>
<path d="M194.013 173.24C194.013 173.24 192.209 183.504 187.534 187.916C182.859 192.327 174.138 190.871 174.138 190.871L177.407 176.125L194.013 173.24Z" fill="#341A1B"/>
<path d="M160.594 172.618C160.594 172.618 148.289 164.534 151.876 149.787C155.463 135.04 165.93 126.759 180.689 132.163C180.689 132.163 176.144 175.209 160.594 172.618Z" fill="#341A1B"/>
<path d="M198.197 147.72C198.197 147.72 198.59 160.627 196.122 162.314C193.654 164.001 191.727 158.771 191.727 158.771C191.727 158.771 195.719 147.683 198.197 147.72Z" fill="#341A1B"/>
<path d="M191.165 163.129C191.165 163.129 195.227 160.045 196.199 164.25C197.171 168.455 194.06 175.835 189.446 173.486L191.165 163.129Z" fill="#FF7D5B"/>
<path d="M178.699 180.823L176.366 191.303C176.366 191.303 167.876 200.717 153.826 186.082C157.727 183.29 160.273 174.976 159.905 170.676C159.905 170.676 160.93 171.76 162.731 173.095C163.099 173.369 163.495 173.658 163.918 173.958C167.654 176.605 173.391 180.066 178.699 180.823Z" fill="#EBB088"/>
<path d="M178.699 180.823L177.607 185.728C173.347 183.732 166.03 179.537 162.731 173.093C163.099 173.367 163.495 173.656 163.918 173.956C167.654 176.605 173.391 180.066 178.699 180.823Z" fill="#341A1B"/>
<path d="M194.384 163.832C194.14 164.916 193.904 165.936 193.673 166.899C191.947 174.119 190.562 177.976 188.422 179.39C177.587 186.537 160.467 171.316 159.917 170.824C159.907 170.816 159.903 170.81 159.903 170.81C159.905 169.954 159.924 169.111 159.954 168.278C160.217 161.225 161.541 154.915 163.561 149.09C164.634 142.713 169.696 137.677 176.108 136.835C182.751 135.965 187.661 139.895 190.746 141.651C195.402 144.307 197.109 151.466 195.086 160.677C194.843 161.783 194.611 162.835 194.384 163.832Z" fill="#EBB088"/>
<path d="M182.859 149.169C182.859 149.169 184.646 149.757 183.631 151.288C182.616 152.82 179.362 150.158 176.052 152.66C176.052 152.66 175.831 148.393 182.859 149.169Z" fill="#341A1B"/>
<path d="M191.138 151.012C191.138 151.012 189.271 150.786 189.539 152.604C189.808 154.421 193.885 153.392 195.82 157.062C195.82 157.062 197.831 153.292 191.138 151.012Z" fill="#341A1B"/>
<path d="M179.363 162.1C179.173 162.952 177.264 163.253 175.098 162.77C172.932 162.288 171.33 161.206 171.52 160.353C171.71 159.501 173.619 159.2 175.785 159.683C177.951 160.166 179.552 161.248 179.363 162.1Z" fill="#FF7D5B"/>
<path d="M184.575 170.06C181.598 169.397 179.455 166.701 179.424 166.662C179.256 166.447 179.295 166.137 179.51 165.969C179.725 165.801 180.035 165.84 180.202 166.054C180.364 166.261 184.216 171.085 188.504 168.427C188.736 168.283 189.04 168.355 189.183 168.586C189.327 168.818 189.255 169.122 189.024 169.265C187.449 170.242 185.926 170.361 184.575 170.06Z" fill="#341A1B"/>
<path d="M175.719 165.616C172.114 163.936 170.548 159.635 172.228 156.03C173.908 152.425 178.209 150.859 181.814 152.539C185.419 154.219 186.985 158.52 185.305 162.125C183.625 165.731 179.324 167.296 175.719 165.616ZM181.37 153.494C178.291 152.059 174.618 153.396 173.183 156.475C171.748 159.554 173.085 163.226 176.164 164.662C179.243 166.097 182.915 164.76 184.35 161.681C185.786 158.602 184.449 154.929 181.37 153.494Z" fill="white"/>
<path d="M172.385 157.008C172.321 157 172.257 156.98 172.197 156.947C168.431 154.885 164.68 155.985 164.642 155.996C164.364 156.08 164.07 155.923 163.986 155.645C163.901 155.367 164.059 155.073 164.337 154.988C164.507 154.937 168.553 153.751 172.703 156.023C172.958 156.163 173.052 156.483 172.912 156.738C172.805 156.933 172.593 157.034 172.385 157.008Z" fill="white"/>
<path d="M191.51 168.553C187.905 166.872 186.339 162.572 188.019 158.967C189.699 155.362 194 153.796 197.605 155.476C201.21 157.156 202.776 161.457 201.096 165.062C199.416 168.667 195.115 170.233 191.51 168.553ZM197.161 156.431C194.082 154.996 190.41 156.333 188.974 159.412C187.539 162.491 188.876 166.163 191.955 167.599C195.034 169.034 198.707 167.697 200.142 164.618C201.577 161.538 200.24 157.866 197.161 156.431Z" fill="white"/>
<path d="M186.494 163.45C185.892 163.316 185.106 163.027 184.389 162.408C184.183 162.23 184.16 161.918 184.338 161.712C184.516 161.506 184.828 161.483 185.034 161.661C185.691 162.229 186.427 162.445 186.913 162.527L186.338 157.625C186.306 157.354 186.5 157.109 186.771 157.077C187.042 157.045 187.287 157.239 187.319 157.51L187.964 163.013C187.98 163.15 187.938 163.288 187.848 163.393C187.758 163.498 187.628 163.56 187.49 163.564C187.456 163.566 187.056 163.575 186.494 163.45Z" fill="#341A1B"/>
<path d="M185.184 159.053C185.108 159.006 185.043 158.938 184.998 158.854C184.861 158.597 184.959 158.278 185.215 158.142C185.292 158.101 187.119 157.158 188.838 158.684C189.055 158.877 189.075 159.21 188.882 159.427C188.689 159.644 188.357 159.665 188.139 159.471C186.961 158.425 185.723 159.065 185.711 159.071C185.538 159.162 185.338 159.148 185.184 159.053Z" fill="white"/>
<g opacity="0.8">
<path d="M194.384 163.832C194.14 164.916 193.904 165.936 193.673 166.899C191.701 166.381 190.297 165.376 190.476 164.573C190.654 163.771 192.369 163.457 194.384 163.832Z" fill="#FF7D5B"/>
</g>
<path d="M181.306 159.161C181.045 160.332 180.303 161.163 179.648 161.017C178.993 160.871 178.673 159.804 178.934 158.633C179.195 157.462 179.937 156.631 180.592 156.777C181.247 156.923 181.566 157.99 181.306 159.161Z" fill="#341A1B"/>
<path d="M192.889 161.74C192.628 162.911 191.886 163.741 191.231 163.596C190.576 163.45 190.256 162.383 190.517 161.212C190.778 160.041 191.52 159.21 192.175 159.356C192.83 159.502 193.15 160.569 192.889 161.74Z" fill="#341A1B"/>
<path d="M164.784 166.922C164.699 167.041 162.365 170.268 159.917 170.823C159.915 170.822 159.915 170.824 159.913 170.824C159.907 170.815 159.904 170.81 159.904 170.81C159.904 169.955 159.923 169.109 159.954 168.277C160.04 168.282 162.362 168.391 164.784 166.922Z" fill="#341A1B"/>
<path d="M164.449 158.314C164.449 158.314 161.168 150.984 156.638 155.161C152.905 158.604 155.813 170.63 162.418 167.943L164.449 158.314Z" fill="#EBB088"/>
<path d="M162.071 165.978C161.828 165.924 161.66 165.695 161.688 165.442C162.227 160.567 158.61 158.02 158.456 157.914C158.232 157.76 158.174 157.453 158.328 157.228C158.482 157.004 158.788 156.945 159.013 157.099C159.187 157.218 163.275 160.072 162.67 165.55C162.64 165.821 162.396 166.016 162.125 165.986C162.107 165.985 162.089 165.982 162.071 165.978Z" fill="#341A1B"/>
<path d="M158.226 162.058C158.086 162.027 157.961 161.935 157.892 161.797C157.77 161.553 157.869 161.257 158.112 161.135C158.339 161.022 160.368 160.045 161.734 160.738C161.977 160.861 162.074 161.158 161.951 161.401C161.827 161.644 161.53 161.741 161.288 161.618C160.505 161.221 159.015 161.788 158.555 162.018C158.449 162.07 158.333 162.081 158.226 162.058Z" fill="#341A1B"/>
<path d="M190.764 135.158C194.992 137.439 198.166 141.322 199.372 145.972C200.128 148.886 200.664 152.696 196.699 151.925C185.883 149.821 180.854 138.084 180.854 138.084C180.854 138.084 177.984 148.366 169.506 146.478C161.028 144.591 161.763 138.148 166.894 134.841C171.077 132.146 181.382 130.097 190.764 135.158Z" fill="#341A1B"/>
<path d="M169.93 145.304C169.93 145.304 164.68 150.188 166.027 155.948C167.373 161.708 166.004 167.311 163.964 170.206C163.964 170.206 163.854 163.32 162.005 158.669C160.487 154.85 160.251 151.76 161.842 147.593C162.934 144.732 165.272 142.076 169.93 145.304Z" fill="#341A1B"/>
<path d="M186.907 273.79L271.799 274.025C274.073 274.031 275.922 272.192 275.927 269.918L275.934 267.18C275.935 266.777 275.609 266.45 275.207 266.449L186.927 266.205C186.524 266.204 186.197 266.53 186.196 266.933L186.181 273.06C186.178 273.462 186.504 273.789 186.907 273.79Z" fill="#DDD8CE"/>
<path d="M210.631 273.856L272.827 274.028C274.297 274.032 275.634 273.182 276.25 271.852L293.345 234.906C294.491 232.429 292.679 229.6 289.941 229.593L227.745 229.421C226.275 229.417 224.938 230.267 224.322 231.597L207.227 268.543C206.08 271.02 207.893 273.849 210.631 273.856Z" fill="white"/>
<path d="M248.208 251.719C248.201 254.69 250.612 257.106 253.595 257.114C256.578 257.122 259.001 254.72 259.009 251.749C259.017 248.777 256.605 246.362 253.622 246.354C250.639 246.345 248.215 248.747 248.208 251.719Z" fill="#DDD8CE"/>
<path d="M170.724 270.731C166.917 270.731 163.153 269.016 160.669 265.752C152.571 255.114 136.182 250.257 124.215 246.711C120.165 245.511 116.667 244.474 113.724 243.292C111.172 242.267 104.393 239.545 102.107 232.378C100.63 227.746 101.584 222.793 104.726 218.788C111.768 209.811 130.507 196.43 134.192 193.839C139.895 189.829 147.771 191.201 151.781 196.904C155.792 202.608 154.42 210.483 148.716 214.493C145.087 217.047 140.446 220.502 136.147 223.926C150.306 228.252 169.032 235.05 180.761 250.458C184.984 256.006 183.91 263.927 178.362 268.151C176.077 269.891 173.39 270.731 170.724 270.731Z" fill="#C0905F"/>
<path d="M166.365 250.704C170.152 248.229 175.108 248.507 178.758 251.18C182.247 253.735 187.231 257.742 190.515 261.917C195.649 268.445 197.343 278.161 195.103 279.204C192.862 280.247 192.563 270.646 189.136 268.316C189.136 268.316 195.161 280.321 193.221 282.502C191.126 284.857 189.373 273.929 185.932 270.931C185.932 270.931 191.096 282.59 189.41 283.286C186.812 284.358 186.209 277.235 182.585 274.525C182.585 274.525 186.741 282.223 184.942 283.578C183.143 284.933 179.1 273.235 174.184 271.234C169.269 269.233 164.868 268.205 162.98 263.762C161.599 260.509 161.091 254.151 166.365 250.704Z" fill="#EBB088"/>
<path d="M175.967 249.977C175.967 249.977 188.516 254.898 189.552 259.198C190.588 263.498 190.395 265.37 190.395 265.37L175.967 249.977Z" fill="#EBB088"/>
<path d="M121.215 226.476C121.027 226.476 120.846 226.369 120.761 226.187C120.645 225.936 120.753 225.639 121.003 225.523C121.22 225.422 126.418 223.059 135.029 223.542C135.305 223.558 135.516 223.794 135.5 224.069C135.484 224.345 135.245 224.556 134.973 224.54C126.606 224.068 121.476 226.405 121.425 226.429C121.357 226.461 121.285 226.476 121.215 226.476Z" fill="#9F6F42"/>
<path d="M133.189 224.481C133.077 224.481 132.964 224.444 132.871 224.367C130.572 222.471 125.763 221.396 125.715 221.385C125.445 221.326 125.275 221.059 125.334 220.789C125.393 220.519 125.661 220.348 125.93 220.408C126.137 220.453 131.025 221.547 133.508 223.595C133.721 223.771 133.751 224.086 133.576 224.299C133.476 224.419 133.333 224.481 133.189 224.481Z" fill="#9F6F42"/>
<path d="M138.221 221.982C138.045 221.982 137.875 221.889 137.783 221.724C137.649 221.482 137.736 221.178 137.978 221.044C142.568 218.5 147.92 214.452 151.946 210.48C152.143 210.286 152.459 210.288 152.653 210.485C152.847 210.682 152.845 210.998 152.648 211.192C148.562 215.224 143.127 219.334 138.463 221.919C138.386 221.962 138.303 221.982 138.221 221.982Z" fill="#9F6F42"/>
<path d="M180.118 249.909C179.988 249.909 179.858 249.858 179.76 249.758C165.743 235.349 144.008 227.493 143.79 227.415C143.53 227.322 143.394 227.036 143.487 226.776C143.58 226.516 143.865 226.38 144.126 226.473C144.346 226.551 166.295 234.482 180.477 249.06C180.67 249.258 180.665 249.574 180.467 249.767C180.37 249.862 180.244 249.909 180.118 249.909Z" fill="#9F6F42"/>
<path d="M583.49 463.892C655.614 463.892 714.082 458.321 714.082 451.448C714.082 444.575 655.614 439.004 583.49 439.004C511.367 439.004 452.898 444.575 452.898 451.448C452.898 458.321 511.367 463.892 583.49 463.892Z" fill="#DDD8CE"/>
<path d="M512.214 426.513C514.205 428.501 516.366 430.401 518.711 432.197C530.435 441.198 546.639 447.651 568.167 449.805C678.256 460.822 714.63 409.18 723.523 329.724C727.483 294.314 718.212 270.951 706.713 255.924C705.51 254.355 704.285 252.876 703.047 251.485C702.348 250.7 701.631 249.931 700.898 249.183C686.05 234.019 664.621 226.882 643.56 230.348C627.007 233.073 611.969 241.913 599.766 259.585C580.251 287.842 598.714 312.136 542.939 313.761C500.246 315.006 473.195 387.588 512.214 426.513Z" fill="#C0905F"/>
<path d="M680.754 254.939C680.754 254.939 693.772 282.791 678.741 333.922C663.71 385.053 643.801 381.024 630.94 381.024C608.471 381.024 562.968 359.858 554.076 343.185C545.184 326.512 561.963 325.516 593.385 323.05C624.806 320.584 648.253 243.907 680.754 254.939Z" fill="#9F6F42"/>
<path d="M652.523 402.545C652.276 402.545 652.028 402.454 651.834 402.27C630.694 382.17 611.168 377.533 610.973 377.489C610.435 377.366 610.098 376.83 610.221 376.292C610.344 375.754 610.88 375.417 611.419 375.54C611.625 375.587 616.553 376.735 624.202 380.434C631.231 383.834 641.97 390.131 653.212 400.821C653.612 401.201 653.628 401.834 653.248 402.235C653.051 402.441 652.787 402.545 652.523 402.545Z" fill="#9F6F42"/>
<path d="M648.811 390.03C648.619 390.03 648.425 389.975 648.254 389.86C648.122 389.771 637.705 382.891 622.038 381.18C621.489 381.12 621.093 380.626 621.153 380.077C621.213 379.528 621.71 379.134 622.255 379.192C638.461 380.961 648.933 387.906 649.371 388.201C649.829 388.51 649.951 389.131 649.642 389.589C649.448 389.875 649.132 390.03 648.811 390.03Z" fill="#9F6F42"/>
<path d="M682.758 312.671C682.716 312.671 682.674 312.668 682.632 312.663C682.084 312.594 681.695 312.094 681.764 311.546C683.179 300.276 688.029 291.674 691.849 286.441C695.994 280.764 699.767 277.783 699.925 277.658C700.36 277.317 700.989 277.394 701.329 277.829C701.669 278.264 701.593 278.893 701.158 279.233C700.978 279.374 686.346 291.096 683.748 311.794C683.685 312.301 683.255 312.671 682.758 312.671Z" fill="#9F6F42"/>
<path d="M512.214 426.513C514.205 428.501 516.366 430.401 518.711 432.197C532.26 440.334 548.788 445.684 566.996 447.776C572.645 448.426 578.344 448.747 584.048 448.747C599.773 448.747 615.528 446.297 630.384 441.485C669.025 428.968 696.906 402.191 708.892 366.085C715.463 346.289 718.689 327.039 718.481 308.865C718.318 294.308 715.961 280.408 711.481 267.551C709.986 263.263 708.361 259.387 706.713 255.924C705.51 254.355 704.285 252.876 703.047 251.485C702.348 250.7 701.631 249.931 700.898 249.183C703.833 254.212 706.972 260.6 709.652 268.31C716.559 288.195 721.709 321.192 707.014 365.463C695.234 400.957 667.802 427.287 629.773 439.606C589.373 452.691 542.644 447.387 513.496 426.405C513.094 426.116 512.55 426.172 512.214 426.513Z" fill="#9F6F42"/>
<path d="M673.652 222.769C673.652 222.769 688.852 207.235 666.712 196.288C644.572 185.341 618.491 202.065 614.214 214.261C609.936 226.457 673.652 222.769 673.652 222.769Z" fill="#7C7A48"/>
<path d="M647.209 212.154C647.033 212.154 646.857 212.08 646.734 211.935C646.51 211.673 646.54 211.278 646.803 211.054C653.208 205.573 663.484 206.051 663.918 206.074C664.263 206.092 664.527 206.386 664.509 206.731C664.491 207.076 664.2 207.344 663.852 207.322C663.751 207.317 653.637 206.851 647.615 212.004C647.497 212.105 647.352 212.154 647.209 212.154Z" fill="#504F2C"/>
<path d="M662.047 212.889C661.948 212.889 661.848 212.865 661.754 212.816C661.686 212.78 654.857 209.187 650.331 210.241C649.994 210.32 649.659 210.11 649.581 209.774C649.503 209.438 649.712 209.102 650.048 209.023C655.029 207.863 662.045 211.554 662.341 211.712C662.646 211.874 662.761 212.252 662.599 212.557C662.487 212.769 662.271 212.889 662.047 212.889Z" fill="#504F2C"/>
<path d="M508.884 417.182L501.089 431.55C501.089 431.55 491.504 433.805 480.107 434.681C462.784 436.012 457.654 433.28 456.428 437.149C455.472 440.164 468.649 446.983 474.74 448.06C480.831 449.136 494.148 454.598 502.788 455.556C511.428 456.514 515.241 445.604 517.198 441.72C519.155 437.836 525.312 424.682 525.312 424.682L508.884 417.182Z" fill="#EBB088"/>
<path d="M463.222 440.938C463.186 442.023 463.382 443.052 463.954 443.885C464.045 444.016 464.142 444.142 464.253 444.262C467.321 447.649 479.598 449.287 479.598 449.287C478.62 448.347 478.15 447.02 478.006 445.533C477.622 441.628 479.482 436.618 480.291 434.666C480.511 434.136 480.653 433.832 480.653 433.832C478.528 433.335 476.51 433.059 474.686 432.923C472.892 432.788 471.284 432.789 469.953 432.846C467.45 432.954 465.916 433.262 465.916 433.262C465.916 433.262 465.485 433.954 464.969 435.017C464.221 436.548 463.293 438.85 463.222 440.938Z" fill="#FB532C"/>
<path d="M468.44 438.564L472.692 439.004C472.692 439.004 473.251 436.925 473.891 435.018C474.152 434.239 474.429 433.489 474.685 432.922C472.891 432.787 471.283 432.788 469.952 432.845C469.7 433.407 469.399 434.2 469.135 435.082C468.795 436.196 468.507 437.451 468.44 438.564Z" fill="#A62413"/>
<path d="M457.924 439.268C457.924 439.268 497.599 451.829 502.928 452.76C508.257 453.692 511.161 452.647 511.161 452.647C511.161 452.647 510.995 454.83 510.547 456.875C510.02 459.283 507.518 460.704 505.164 459.975C494.551 456.689 459.471 445.738 457.08 443.796C454.259 441.507 454.872 439.07 457.924 439.268Z" fill="#FB532C"/>
<path d="M545.436 413.881L545.948 426.789C545.948 426.789 538.864 433.629 529.518 440.209C515.312 450.211 509.506 450.487 510.431 454.438C511.152 457.518 525.962 456.64 531.747 454.45C537.531 452.26 551.769 450.144 559.684 446.549C567.599 442.954 565.297 431.629 564.992 427.29C564.688 422.951 564.042 413.179 564.042 413.179L545.436 413.881Z" fill="#EBB088"/>
<path d="M518.207 454.221C518.731 455.172 519.426 455.956 520.343 456.38C520.488 456.447 520.636 456.504 520.792 456.551C525.16 457.893 536.549 453.022 536.549 453.022C535.228 452.714 534.145 451.814 533.261 450.61C530.934 447.451 529.971 442.194 529.667 440.103C529.585 439.535 529.552 439.201 529.552 439.201C527.472 439.861 525.596 440.655 523.959 441.471C522.348 442.272 520.967 443.095 519.852 443.825C517.756 445.197 516.596 446.247 516.596 446.247C516.596 446.247 516.58 447.062 516.679 448.239C516.821 449.938 517.201 452.391 518.207 454.221Z" fill="#FB532C"/>
<path d="M521.479 449.513L525.357 447.717C525.357 447.717 524.774 445.644 524.349 443.679C524.175 442.876 524.031 442.09 523.961 441.472C522.35 442.273 520.969 443.096 519.854 443.826C519.925 444.438 520.071 445.273 520.294 446.166C520.571 447.296 520.967 448.522 521.479 449.513Z" fill="#A62413"/>
<path d="M512.799 455.496C512.799 455.496 553.317 446.002 558.374 444.078C563.43 442.154 565.392 439.771 565.392 439.771C565.392 439.771 566.364 441.732 567.025 443.718C567.803 446.056 566.38 448.557 563.984 449.135C553.184 451.738 517.438 460.265 514.39 459.82C510.796 459.294 510.075 456.886 512.799 455.496Z" fill="#FB532C"/>
<path d="M531.654 311.334C541.936 303.424 578.87 306.678 607.801 310.769C608.623 323.878 604.586 312.991 607.028 325.887C570.908 327.741 560.762 330.589 560.762 330.589C560.762 330.589 566.163 359.99 565.905 372.281C565.646 384.573 569.996 420.141 569.996 420.141L543.951 425.05C543.951 425.05 516.933 322.66 531.654 311.334Z" fill="#341A1B"/>
<path d="M542.627 419.325C542.739 419.362 542.862 419.371 542.986 419.346L568.705 414.091C569.085 414.013 569.329 413.643 569.252 413.263C569.174 412.884 568.804 412.638 568.424 412.716L542.705 417.971C542.325 418.049 542.081 418.419 542.158 418.799C542.211 419.054 542.396 419.248 542.627 419.325Z" fill="#6E3E45"/>
<path d="M563.749 414.326C563.864 414.364 563.989 414.373 564.116 414.345C564.495 414.263 564.736 413.89 564.654 413.511C564.626 413.382 561.875 400.384 561.719 379.386C561.562 358.232 555.077 326.726 555.012 326.41C554.934 326.03 554.562 325.787 554.183 325.865C553.804 325.944 553.56 326.315 553.639 326.694C553.704 327.008 560.161 358.382 560.317 379.396C560.474 400.552 563.255 413.676 563.283 413.807C563.337 414.06 563.521 414.251 563.749 414.326Z" fill="#6E3E45"/>
<path d="M602.471 221.254C602.471 221.254 586.266 279.609 565.083 289.5H599.893C599.893 289.5 608.792 239.367 602.471 221.254Z" fill="#7C7A48"/>
<path d="M602.471 221.254C600.627 226.848 603.687 240.431 600.719 264.34C600.502 266.094 600.251 267.91 599.966 269.791C599.695 271.551 599.394 273.369 599.055 275.247C598.741 276.993 598.392 278.795 598.014 280.639C597.68 282.259 597.32 283.916 596.932 285.614C596.533 287.358 596.11 289.138 595.648 290.965C595.519 291.482 595.378 292.036 595.226 292.621C595.19 292.768 595.153 292.914 595.113 293.065C595.077 293.196 595.044 293.331 595.009 293.468C594.984 293.569 594.958 293.67 594.93 293.77C594.911 293.844 594.891 293.918 594.872 293.993C594.839 294.125 594.805 294.26 594.769 294.393C594.763 294.42 594.757 294.446 594.748 294.472C594.707 294.635 594.664 294.798 594.62 294.963C594.615 294.987 594.609 295.011 594.601 295.035C594.565 295.177 594.528 295.32 594.487 295.466C594.311 296.141 594.126 296.845 593.932 297.574C593.883 297.755 593.835 297.94 593.784 298.124C593.719 298.368 593.653 298.617 593.586 298.867C593.455 299.359 593.318 299.861 593.18 300.372C593.111 300.628 593.042 300.886 592.97 301.143C592.822 301.693 592.67 302.248 592.515 302.814C592.486 302.916 592.457 303.021 592.43 303.127C592.062 304.47 591.677 305.857 591.28 307.274C591.1 307.914 590.918 308.559 590.734 309.211C590.511 309.996 590.287 310.788 590.058 311.584C589.726 312.749 589.386 313.922 589.043 315.094C588.898 315.59 588.752 316.085 588.607 316.581C588.475 317.029 588.34 317.476 588.208 317.924C588.046 318.461 587.888 318.997 587.727 319.531C587.62 319.888 587.513 320.243 587.404 320.598C587.338 320.821 587.271 321.04 587.204 321.26C587.069 321.702 586.934 322.141 586.8 322.578C586.666 323.015 586.531 323.449 586.396 323.881C586.301 324.185 586.206 324.487 586.114 324.79C586.028 325.058 585.945 325.325 585.861 325.588C585.837 325.661 585.816 325.732 585.792 325.805C585.744 325.958 585.696 326.112 585.646 326.262C585.545 326.575 585.449 326.884 585.35 327.192C585.234 327.552 585.119 327.909 585.004 328.264C584.078 331.109 583.176 333.75 582.326 336.042C588.643 343.308 599.377 349.649 611.997 353.459L618.999 348.905L624.861 356.333C637.193 358.139 650.394 357.43 662.568 352.999C666.588 344.782 673.214 314.64 675.09 305.622C675.464 303.828 675.801 302.025 676.111 300.218C677.602 291.536 678.4 282.716 678.938 273.456C678.969 272.951 678.995 272.447 679.024 271.942C679.028 271.883 679.032 271.822 679.034 271.761C679.606 263.959 689.801 240.963 688.774 232.687C686.74 216.289 676.287 220.607 666.866 218.081C663.774 217.252 661.174 216.2 659.044 215.125C658.156 214.678 657.353 214.226 656.625 213.786C656.321 213.605 656.036 213.428 655.763 213.244C652.836 211.347 651.234 209.744 651.234 209.744L629.861 207.512C627.744 210.003 625.249 211.445 622.629 212.378C622.339 212.477 622.048 212.577 621.752 212.671C621.314 212.808 620.872 212.932 620.432 213.045C612.877 215.006 604.885 213.93 602.471 221.254Z" fill="#7C7A48"/>
<path d="M656.119 336.381C656.046 336.381 655.973 336.368 655.901 336.341C655.578 336.22 655.413 335.861 655.534 335.537C667.178 304.284 673.216 250.215 673.276 249.673C673.314 249.33 673.618 249.082 673.966 249.12C674.309 249.158 674.556 249.467 674.519 249.809C674.459 250.353 668.405 304.575 656.706 335.973C656.611 336.225 656.373 336.381 656.119 336.381Z" fill="#504F2C"/>
<path d="M635.443 220.696C635.219 221.376 636.035 222.256 637.265 222.662C638.496 223.068 639.675 222.846 639.9 222.167C640.124 221.487 639.308 220.607 638.078 220.201C636.847 219.794 635.668 220.016 635.443 220.696Z" fill="#504F2C"/>
<path d="M625.894 218.26C625.67 218.94 626.486 219.82 627.716 220.226C628.947 220.632 630.126 220.41 630.351 219.731C630.575 219.051 629.759 218.171 628.529 217.765C627.298 217.359 626.119 217.58 625.894 218.26Z" fill="#504F2C"/>
<path d="M623.193 223.406C623.142 223.406 623.09 223.4 623.038 223.386C613.905 221.047 613.373 215.268 613.355 215.023C613.329 214.679 613.588 214.379 613.932 214.353C614.276 214.328 614.574 214.584 614.601 214.927C614.62 215.143 615.142 220.073 623.348 222.175C623.682 222.261 623.884 222.601 623.799 222.935C623.726 223.219 623.471 223.406 623.193 223.406Z" fill="#504F2C"/>
<path d="M607.515 282.061C605.866 282.061 604.185 281.998 602.476 281.86C602.132 281.832 601.875 281.531 601.903 281.187C601.931 280.843 602.231 280.59 602.576 280.614C615.433 281.648 626.72 278.419 633.925 275.53C641.748 272.393 646.585 268.966 646.633 268.932C646.914 268.732 647.304 268.796 647.505 269.077C647.706 269.358 647.641 269.748 647.36 269.949C647.16 270.092 642.378 273.483 634.426 276.676C628.046 279.238 618.516 282.061 607.515 282.061Z" fill="#504F2C"/>
<path d="M643.801 295.746C643.801 295.746 617.531 289.05 601.169 288.854L596.168 310.516C596.168 310.516 622.105 314.877 638.517 317.739L643.801 295.746Z" fill="#504F2C"/>
<path d="M658.531 228.486C656.182 228.486 653.578 228.181 650.72 227.434C650.386 227.347 650.186 227.005 650.273 226.671C650.36 226.337 650.703 226.138 651.036 226.224C667.503 230.529 675.354 219.697 675.432 219.587C675.631 219.305 676.021 219.238 676.303 219.436C676.585 219.635 676.653 220.025 676.454 220.307C676.369 220.428 674.325 223.288 670.116 225.609C667.472 227.068 663.597 228.486 658.531 228.486Z" fill="#504F2C"/>
<path d="M591.282 307.272C591.679 305.855 592.064 304.468 592.432 303.125C592.061 304.47 591.679 305.855 591.282 307.272Z" fill="#26120C"/>
<path d="M593.182 300.371C593.32 299.86 593.456 299.359 593.588 298.866C593.454 299.358 593.319 299.86 593.182 300.371Z" fill="#26120C"/>
<path d="M598.964 272.364C599.006 272.378 599.049 272.388 599.094 272.393C599.478 272.443 599.83 272.172 599.881 271.788C601.158 262.007 602.572 250.389 602.708 247.113C602.724 246.726 602.424 246.399 602.036 246.383C601.649 246.367 601.322 246.668 601.306 247.055C601.171 250.285 599.763 261.855 598.489 271.607C598.445 271.947 598.651 272.261 598.964 272.364Z" fill="#504F2C"/>
<path d="M652.356 189.322C652.356 189.322 660.762 184.155 662.862 173.856C664.962 163.557 657.835 159.115 657.835 159.115C657.835 159.115 663.41 150.892 650.738 147.559C637.419 144.055 629.266 141.392 623.817 143.392C617.519 145.703 616.766 159.014 625.065 159.098C633.364 159.181 656.609 172.171 652.356 189.322Z" fill="#341A1B"/>
<path d="M629.96 204.061L629.407 209.94C630.042 210.56 630.693 211.109 631.351 211.594C640.982 218.685 652.709 212.132 652.709 212.132L654.626 191.749L632.901 202.593L629.96 204.061Z" fill="#EBB088"/>
<path d="M629.96 204.061L629.407 209.94C630.042 210.56 630.693 211.109 631.351 211.594C640.366 208.971 647.551 200.446 647.551 200.446L632.902 202.593L629.96 204.061Z" fill="#341A1B"/>
<path d="M633.233 156.08C633.233 156.08 618.902 156.081 622.633 171.423C622.633 171.423 633.195 159.995 633.233 156.08Z" fill="#341A1B"/>
<path d="M625.066 177.317C625.066 177.317 622.098 173.058 619.84 176.825C617.582 180.592 618.282 188.713 623.486 187.884L625.066 177.317Z" fill="#FF7D5B"/>
<path d="M620.203 190.815C620.203 190.815 619.042 202.968 631.687 204.13C644.254 205.288 653.744 196.227 654.232 195.812C654.241 195.805 654.247 195.802 654.247 195.802L654.625 193.26L656.587 180.069L657.636 173.018C657.636 173.018 660.441 160.409 648.533 156.941C639.833 154.406 631.386 155.096 626.758 159.324C625.054 160.884 623.868 162.926 623.379 165.465L621.789 178.157L621.399 181.268L620.203 190.815Z" fill="#EBB088"/>
<path d="M650.192 179.712C650.192 179.712 646.265 186.176 642.505 184.65C638.744 183.124 634.321 182.227 630.65 183.535C630.65 183.535 624.947 180.784 621.197 182.881C618.683 184.287 618.511 200.545 626.608 203.651C634.705 206.757 646.179 204.891 649.619 197.304C653.059 189.717 653.515 183.027 653.515 183.027L650.192 179.712Z" fill="#341A1B"/>
<path d="M638.132 181.272C638.049 182.157 639.804 183.045 642.052 183.257C644.3 183.468 646.19 182.923 646.273 182.038C646.356 181.153 644.601 180.264 642.353 180.053C640.105 179.841 638.215 180.387 638.132 181.272Z" fill="#FF7D5B"/>
<path d="M621.399 181.267C621.71 181.328 622.038 181.374 622.376 181.406C624.622 181.617 626.512 181.071 626.596 180.186C626.679 179.301 624.924 178.412 622.678 178.2C622.374 178.171 622.076 178.157 621.789 178.156L621.399 181.267Z" fill="#FF7D5B"/>
<path d="M639.265 176.617C639.151 177.832 639.609 178.869 640.289 178.933C640.969 178.997 641.613 178.063 641.727 176.848C641.841 175.633 641.383 174.595 640.703 174.531C640.023 174.468 639.379 175.402 639.265 176.617Z" fill="#341A1B"/>
<path d="M627.24 175.486C627.126 176.701 627.584 177.738 628.264 177.802C628.944 177.866 629.588 176.933 629.702 175.717C629.816 174.502 629.358 173.464 628.678 173.4C627.998 173.337 627.354 174.27 627.24 175.486Z" fill="#341A1B"/>
<path d="M632.305 181.982C632.581 182.008 632.826 181.805 632.852 181.529C632.878 181.253 632.675 181.008 632.399 180.982C630.559 180.809 629.792 179.76 629.545 179.31C631.926 175.386 634.298 171.429 634.322 171.389C634.465 171.151 634.387 170.843 634.149 170.7C633.911 170.557 633.602 170.635 633.46 170.873C633.435 170.914 630.972 175.024 628.546 179.019C628.468 179.149 628.452 179.306 628.502 179.448C628.536 179.54 629.341 181.703 632.305 181.982Z" fill="#341A1B"/>
<path d="M645.332 171.408C645.175 170.099 644.332 167.589 640.246 167.02C639.747 166.95 639.266 167.239 639.087 167.709C638.863 168.3 639.189 168.963 639.798 169.131C640.869 169.427 642.393 170.17 643.128 172.032C643.357 172.613 644.05 172.857 644.609 172.579L644.74 172.514C645.155 172.309 645.387 171.866 645.332 171.408Z" fill="#341A1B"/>
<path d="M624.306 169.43C624.705 168.173 626 165.864 630.121 166.067C630.624 166.092 631.043 166.465 631.131 166.961C631.241 167.584 630.797 168.174 630.167 168.226C629.06 168.318 627.425 168.763 626.356 170.455C626.022 170.983 625.296 171.094 624.798 170.716L624.682 170.628C624.313 170.348 624.166 169.869 624.306 169.43Z" fill="#341A1B"/>
<path d="M629.657 188.526C634.099 188.944 638.095 185.477 638.148 185.43C638.355 185.246 638.375 184.929 638.192 184.722C638.009 184.514 637.691 184.495 637.483 184.678C637.222 184.908 631.029 190.264 625.905 185.828C625.695 185.646 625.378 185.669 625.196 185.879C625.015 186.089 625.037 186.406 625.247 186.587C626.681 187.829 628.193 188.389 629.657 188.526Z" fill="#6E3E45"/>
<path d="M650.738 190.508C650.783 190.648 652.033 194.509 654.232 195.812C654.24 195.805 654.246 195.801 654.246 195.801L654.623 193.259C654.623 193.259 652.659 192.731 650.738 190.508Z" fill="#341A1B"/>
<path d="M653.759 182.276C653.759 182.276 659.233 176.206 662.31 181.67C664.846 186.173 658.263 196.667 652.811 192.346L653.759 182.276Z" fill="#EBB088"/>
<path d="M653.661 190.443C653.913 190.467 654.146 190.297 654.198 190.044C655.203 185.155 659.504 183.822 659.687 183.767C659.953 183.688 660.104 183.409 660.026 183.143C659.947 182.877 659.669 182.725 659.403 182.803C659.197 182.863 654.344 184.347 653.215 189.841C653.159 190.112 653.334 190.378 653.606 190.434C653.625 190.439 653.643 190.441 653.661 190.443Z" fill="#341A1B"/>
<path d="M658.612 187.851C658.757 187.865 658.907 187.815 659.018 187.703C659.212 187.505 659.21 187.187 659.012 186.993C658.828 186.812 657.168 185.23 655.629 185.474C655.355 185.517 655.167 185.775 655.211 186.049C655.254 186.323 655.513 186.51 655.787 186.467C656.67 186.328 657.935 187.343 658.308 187.71C658.393 187.793 658.501 187.841 658.612 187.851Z" fill="#341A1B"/>
<path d="M626.758 159.324C626.808 159.758 626.955 160.144 627.209 160.465C629.424 163.273 635.314 162.904 640.851 161.748C646.387 160.594 649.798 164.852 649.798 164.852C647.818 169.863 652.846 170.756 651.399 174.557C649.95 178.36 649.882 183.551 649.882 183.551L653.079 183.432C653.932 181.662 655.524 180.607 656.586 180.069L657.634 173.017C657.634 173.017 660.439 160.408 648.532 156.94C639.832 154.406 631.385 155.095 626.758 159.324Z" fill="#341A1B"/>
<path d="M666.002 343.25C666.002 343.25 664.35 391.494 606.12 372.28C575.017 362.017 561.226 354.138 561.226 354.138C561.226 354.138 551.416 381.354 546.147 392.463C540.878 403.571 526.225 430.746 526.225 430.746L501.103 424.561C501.103 424.561 530.364 322.73 548.432 318.425C566.5 314.12 588.176 320.968 626.412 329.641C626.412 329.641 659.805 334.757 666.002 343.25Z" fill="#341A1B"/>
<path d="M525.52 421.61C525.821 421.709 526.162 421.594 526.336 421.312C534.448 408.185 542.503 388.307 548.976 372.335C551.701 365.611 554.054 359.804 556.018 355.465C558.677 349.588 559.759 348.418 560.167 348.242C561.971 347.468 567.893 350.146 575.39 353.535C586.25 358.445 602.661 365.866 621.746 369.825C631.537 371.856 640.016 370.527 646.948 365.875C659.288 357.593 662.334 341.896 662.457 341.232C662.528 340.851 662.276 340.485 661.896 340.414C661.515 340.343 661.149 340.594 661.078 340.975C661.049 341.132 658.006 356.77 646.158 364.716C639.552 369.146 631.435 370.403 622.031 368.452C603.098 364.523 586.771 357.142 575.968 352.257C567.25 348.315 561.987 345.935 559.614 346.953C557.457 347.878 554.037 356.112 547.676 371.808C541.223 387.731 533.193 407.549 525.143 420.574C524.939 420.904 525.041 421.336 525.371 421.54C525.418 421.57 525.469 421.593 525.52 421.61Z" fill="#6E3E45"/>
<path d="M504.141 416.761C504.155 416.766 504.168 416.77 504.182 416.773L529.575 423.487C529.95 423.586 530.334 423.363 530.433 422.988C530.532 422.613 530.311 422.224 529.934 422.13L504.541 415.416C504.166 415.317 503.782 415.54 503.683 415.915C503.588 416.277 503.791 416.646 504.141 416.761Z" fill="#6E3E45"/>
<path d="M589.421 308.29C589.421 308.29 571.344 304.255 565.028 307.26L567.239 318.73C567.239 318.73 577.43 318.023 579.8 319.199C582.17 320.375 582.307 324.951 591.446 325.209L589.421 308.29Z" fill="#EBB088"/>
<path d="M589.343 306.344L591.584 329.17L593.928 329.025L596.209 328.87C597.726 328.759 599.237 328.634 600.747 328.502C603.767 328.242 606.784 327.953 609.803 327.632C615.841 326.968 621.887 326.185 627.979 325.176C631.027 324.673 634.088 324.125 637.173 323.478C640.261 322.837 643.372 322.121 646.552 321.258C648.146 320.827 649.751 320.36 651.391 319.822C653.032 319.287 654.702 318.696 656.442 317.987C656.953 317.778 657.47 317.559 657.997 317.327C659.257 316.772 660.563 316.14 661.952 315.36C662.937 314.803 663.969 314.166 665.07 313.377C665.627 312.975 666.19 312.545 666.788 312.035C667.376 311.537 667.997 310.964 668.631 310.297C669.262 309.639 669.927 308.86 670.584 307.934L670.947 307.409L671.129 307.141L671.492 306.6C671.984 305.883 672.446 305.151 672.915 304.424C673.836 302.957 674.732 301.473 675.565 299.963C675.702 299.722 675.837 299.478 675.967 299.235C677.499 296.453 678.874 293.6 680.123 290.709C681.459 287.558 682.643 284.356 683.668 281.125C684.176 279.508 684.657 277.882 685.093 276.255C685.525 274.623 685.922 272.986 686.283 271.347C687.728 264.783 688.595 258.16 688.958 251.524C689.128 248.204 689.173 244.881 689.084 241.533C689.041 239.857 688.964 238.177 688.846 236.468C688.782 235.614 688.706 234.755 688.617 233.874L688.467 232.524L688.38 231.809L688.327 231.425L688.251 230.9L659.015 235.443L659.085 236.018L659.179 236.868C659.237 237.457 659.29 238.068 659.338 238.687C659.439 239.925 659.515 241.193 659.564 242.471C659.662 245.027 659.662 247.614 659.564 250.196C659.48 252.777 659.302 255.356 659.02 257.914C658.746 260.472 658.382 263.01 657.914 265.514C656.967 270.521 655.665 275.406 653.894 280.047C653.011 282.367 652.042 284.643 650.941 286.837C650.401 287.939 649.814 289.014 649.218 290.079C648.911 290.607 648.613 291.141 648.288 291.658L648.208 291.79C648.201 291.795 648.195 291.799 648.188 291.804C647.601 292.188 646.734 292.656 645.764 293.111C643.801 294.032 641.418 294.908 638.949 295.735C636.468 296.56 633.856 297.319 631.194 298.03C628.527 298.734 625.808 299.408 623.06 300.041C617.557 301.297 611.941 302.433 606.289 303.473C603.464 304.003 600.626 304.507 597.787 304.983L593.526 305.679L591.405 306.022L589.343 306.344ZM648.443 291.631C648.48 291.591 648.511 291.56 648.539 291.53C648.672 291.402 648.758 291.34 648.786 291.325C648.83 291.303 648.812 291.326 648.775 291.366C648.717 291.425 648.6 291.519 648.443 291.631Z" fill="#7C7A48"/>
<path d="M657.996 317.328C659.256 316.773 660.562 316.141 661.951 315.361C662.936 314.804 663.968 314.167 665.069 313.378C665.626 312.976 666.189 312.546 666.787 312.036C667.375 311.538 667.996 310.965 668.63 310.298C669.261 309.64 669.926 308.861 670.583 307.935L670.946 307.41L671.128 307.142L671.491 306.601C671.983 305.884 672.445 305.152 672.914 304.425C673.835 302.958 674.731 301.474 675.564 299.964C675.701 299.723 675.836 299.479 675.966 299.236C675.891 299.196 675.815 299.158 675.735 299.123C675.735 299.123 656.872 299.378 657.996 317.328Z" fill="#504F2C"/>
<path d="M618.637 327.336C618.726 327.365 618.823 327.377 618.923 327.368C619.161 327.345 642.864 325.045 656.133 318.819C669.508 312.544 675.778 300.573 676.039 300.066C676.216 299.721 676.08 299.299 675.736 299.122C675.391 298.946 674.969 299.08 674.791 299.425C674.729 299.545 668.466 311.484 655.538 317.549C642.487 323.672 619.027 325.949 618.791 325.971C618.405 326.007 618.122 326.35 618.159 326.736C618.185 327.022 618.381 327.252 618.637 327.336Z" fill="#504F2C"/>
<path d="M656.784 300.03C657.02 300.108 657.29 300.058 657.484 299.875C657.767 299.61 657.781 299.166 657.516 298.884C654.239 295.39 649.52 291.885 649.321 291.738C649.01 291.507 648.57 291.573 648.34 291.884C648.109 292.195 648.175 292.635 648.486 292.865C648.534 292.9 653.303 296.444 656.492 299.844C656.576 299.932 656.676 299.994 656.784 300.03Z" fill="#504F2C"/>
<path d="M649.013 293.217C649.038 293.225 649.063 293.232 649.089 293.237C651.88 293.826 655.559 295.019 655.596 295.031C655.964 295.151 656.36 294.949 656.48 294.581C656.6 294.214 656.399 293.819 656.033 293.698L656.03 293.697C655.877 293.647 652.242 292.468 649.378 291.865C648.999 291.785 648.627 292.028 648.547 292.407C648.472 292.759 648.678 293.106 649.013 293.217Z" fill="#504F2C"/>
<path d="M655.32 276.086C655.327 276.088 655.334 276.09 655.341 276.093C655.713 276.203 656.103 275.991 656.213 275.619C656.48 274.716 662.761 253.38 662.764 242.64C662.764 242.253 662.45 241.939 662.063 241.938C661.676 241.938 661.361 242.252 661.361 242.639C661.358 253.177 654.932 275.001 654.867 275.22C654.76 275.585 654.962 275.968 655.32 276.086Z" fill="#504F2C"/>
<path d="M661.405 249.273C661.597 249.336 661.814 249.317 661.998 249.201C662.326 248.995 662.426 248.562 662.22 248.234L659.92 244.565C659.714 244.237 659.281 244.138 658.953 244.343C658.625 244.549 658.525 244.982 658.731 245.31L661.031 248.979C661.121 249.124 661.256 249.224 661.405 249.273Z" fill="#504F2C"/>
<path d="M602.538 328.214C602.63 328.244 602.731 328.256 602.833 328.245C603.218 328.203 603.496 327.857 603.455 327.472L601.046 305.334C601.004 304.949 600.658 304.67 600.273 304.713C599.888 304.755 599.609 305.101 599.65 305.486L602.06 327.624C602.09 327.905 602.285 328.13 602.538 328.214Z" fill="#504F2C"/>
<path d="M620.933 293.139C620.867 293.139 620.8 293.129 620.734 293.106C620.407 292.996 620.23 292.642 620.34 292.315C627.104 272.134 636.887 221.752 636.985 221.246C637.05 220.907 637.38 220.685 637.717 220.751C638.056 220.816 638.278 221.144 638.212 221.483C638.114 221.991 628.315 272.453 621.525 292.713C621.438 292.974 621.194 293.139 620.933 293.139Z" fill="white"/>
<path d="M606.43 291.214C606.402 291.214 606.373 291.212 606.344 291.208C606.002 291.161 605.763 290.846 605.81 290.504C609.964 260.189 627.277 219.451 627.452 219.044C627.588 218.726 627.955 218.58 628.272 218.715C628.589 218.851 628.737 219.218 628.601 219.535C628.427 219.941 611.18 260.527 607.048 290.674C607.005 290.987 606.737 291.214 606.43 291.214Z" fill="white"/>
<path d="M591.067 304.727C588.939 313.045 581.244 317.067 570.776 320.722C563.201 323.367 554.762 324.704 544.859 325.472C542.802 325.632 541.218 325.629 539.386 325.307C520.201 321.952 512.619 296.03 521.899 283.545C526.369 277.53 533.129 275.26 540.376 275.26C542.676 275.26 545.024 275.49 547.364 275.898C548.669 276.128 549.971 276.413 551.261 276.748C552.806 277.148 554.334 277.616 555.826 278.138C558.253 278.991 560.589 279.991 562.756 281.073C564.159 281.773 565.489 282.511 566.731 283.266C567.866 283.956 568.994 284.549 570.106 285.049C581.396 290.166 591.066 286.259 591.066 286.259C591.066 286.259 594.732 290.392 591.067 304.727Z" fill="#FE812D"/>
<path d="M547.364 275.897C546.391 278.307 544.214 277.372 543.524 280.034C542.774 282.927 542.149 283.392 542.149 287.364C542.149 291.339 539.399 292.266 538.459 288.229C537.521 284.194 541.149 284.267 538.899 280.034C537.804 277.974 538.932 276.364 540.376 275.259C542.676 275.259 545.024 275.49 547.364 275.897Z" fill="#BF632D"/>
<path d="M555.047 296.99C552.202 299.465 548.892 299.517 550.017 295.017C551.142 290.517 549.517 288.017 547.892 284.484C546.267 280.951 547.017 279.642 549.767 277.984C550.317 277.654 550.814 277.224 551.262 276.746C552.807 277.146 554.335 277.614 555.827 278.136C553.68 279.568 551.813 282.103 554.331 286.976C556.344 290.872 557.892 294.517 555.047 296.99Z" fill="#BF632D"/>
<path d="M567.59 288.854C569.153 291.939 570.65 295.392 568.65 297.267C566.65 299.142 561.65 299.767 564.025 295.065C566.4 290.365 561.775 291.392 560.275 286.36C559.46 283.622 561.095 281.99 562.757 281.072C564.16 281.772 565.49 282.51 566.732 283.265C567.867 283.955 568.995 284.548 570.107 285.048C568.717 286.312 566.425 286.554 567.59 288.854Z" fill="#BF632D"/>
<path d="M571.872 320.566C564.297 323.211 555.13 324.799 545.227 325.566C543.17 325.726 541.219 325.629 539.387 325.306C538.044 324.326 537.357 323.146 537.394 321.966C537.559 316.846 545.727 314.754 557.832 314.674C567.452 314.612 570.872 318.829 571.872 320.566Z" fill="#BF632D"/>
<path d="M534.927 266.872C534.834 267.867 534.587 268.915 534.207 270.015C532.937 273.688 530.192 277.97 526.785 283.03L520.358 286.36C524.561 277.747 526.728 274.535 527.743 270.422C527.768 270.324 527.788 270.229 527.808 270.137C528.218 268.202 527.76 266.909 526.773 265.947C525.945 265.137 524.743 264.559 523.366 264.03C522.116 263.55 520.723 263.107 519.333 262.57C517.163 261.728 515.001 260.648 513.406 258.808C512.871 258.191 512.401 257.488 512.016 256.68C507.909 248.088 518.809 233.577 527.736 239.183C535.508 244.06 519.633 249.603 523.936 254.803C524.576 255.575 525.661 256.341 527.338 257.096C527.613 257.218 527.878 257.343 528.135 257.471C529.735 258.248 531.02 259.073 532.028 259.948C534.345 261.96 535.177 264.24 534.927 266.872Z" fill="#FE812D"/>
<path d="M532.026 259.947C529.956 260.197 525.994 261.057 523.364 264.03C522.114 263.55 520.721 263.107 519.331 262.57C520.024 260.948 522.073 258.26 528.133 257.47C529.734 258.247 531.019 259.072 532.026 259.947Z" fill="#BF632D"/>
<path d="M534.927 266.872C534.834 267.867 534.586 268.915 534.206 270.015C532.349 269.6 530.064 269.43 527.807 270.137C528.217 268.202 527.758 266.909 526.771 265.947C528.534 265.417 531.17 265.354 534.927 266.872Z" fill="#BF632D"/>
<path d="M523.934 254.801C520.95 256.595 517.167 258.375 513.405 258.806C512.871 258.189 512.4 257.486 512.013 256.679C507.906 248.088 518.807 233.577 527.734 239.181C535.506 244.058 519.632 249.601 523.934 254.801Z" fill="#341A1B"/>
<path d="M601.209 274.957C601.209 274.957 599.473 268.477 598.272 267.809C597.071 267.141 595.68 274.585 595.68 274.585C595.68 274.585 598.856 275.656 601.209 274.957Z" fill="#341A1B"/>
<path d="M598.287 273.648C598.287 273.648 598.263 269.5 598.566 269.003C598.869 268.505 600.455 274.001 600.455 274.001L598.287 273.648Z" fill="#6E3E45"/>
<path d="M607.286 276.629C606.892 276.487 606.455 276.328 605.967 276.137C605.326 275.88 604.593 275.568 603.762 275.162C599.869 273.256 595.089 273.489 595.089 273.489C590.517 275.275 585.089 281.217 583.691 284.075C583.533 284.397 582.328 286.642 579.149 287.52L591.856 301.25C595.149 297.954 599.594 297.142 601.398 296.354C603.835 295.287 605.605 293.859 606.903 292.129C607.742 291.022 608.383 289.793 608.881 288.454C609.923 285.672 610.444 283.112 610.531 281.198C610.596 279.854 610.447 278.832 610.122 278.273C609.629 277.432 608.792 277.169 607.286 276.629Z" fill="#FE812D"/>
<path d="M606.902 292.129C607.741 291.022 608.382 289.793 608.88 288.454C609.922 285.672 610.443 283.112 610.53 281.198C610.595 279.854 610.446 278.831 610.121 278.273C609.628 277.432 608.792 277.169 607.285 276.628C606.891 276.486 606.454 276.327 605.966 276.136C604.476 280.013 602.312 287.812 606.902 292.129Z" fill="#FF9F4F"/>
<path d="M607.286 276.628C607.004 277.923 607.168 280.017 610.531 281.199C610.595 279.854 610.447 278.83 610.123 278.274C609.629 277.431 608.792 277.169 607.286 276.628Z" fill="#341A1B"/>
<path d="M587.707 290.251C587.646 290.251 587.584 290.229 587.536 290.183C587.435 290.089 587.431 289.93 587.526 289.83C592.489 284.56 603.228 281.952 603.336 281.927C603.469 281.896 603.605 281.978 603.637 282.112C603.669 282.246 603.586 282.381 603.452 282.413C603.345 282.438 592.75 285.012 587.89 290.172C587.84 290.225 587.774 290.251 587.707 290.251Z" fill="#BF632D"/>
<path d="M592.109 292.309C592.067 292.309 592.023 292.298 591.984 292.275C591.865 292.206 591.824 292.053 591.893 291.933C595.742 285.283 603.052 282.62 603.125 282.594C603.254 282.548 603.398 282.616 603.444 282.746C603.49 282.876 603.423 283.019 603.293 283.066C603.221 283.091 596.081 285.698 592.326 292.185C592.279 292.264 592.195 292.309 592.109 292.309Z" fill="#BF632D"/>
<path d="M596.185 293.188C596.161 293.188 596.136 293.185 596.112 293.177C595.98 293.137 595.905 292.997 595.945 292.865C598.071 285.873 603.438 283.321 603.492 283.296C603.617 283.237 603.766 283.293 603.824 283.418C603.882 283.543 603.827 283.692 603.702 283.75C603.65 283.774 598.481 286.242 596.423 293.011C596.391 293.118 596.292 293.188 596.185 293.188Z" fill="#BF632D"/>
<path d="M601.242 278.688C601.933 279.252 602.751 279.396 603.068 279.008C603.385 278.62 603.082 277.848 602.391 277.284C601.7 276.719 600.882 276.576 600.565 276.964C600.248 277.351 600.551 278.123 601.242 278.688Z" fill="#341A1B"/>
<path d="M597.075 275.186C597.075 275.186 589.067 265.637 587.267 265.641C586.397 265.643 585.718 277.19 587.476 282.474C593.78 280.141 596.684 277.703 597.075 275.186Z" fill="#341A1B"/>
<path d="M594.202 276.952C594.202 276.952 590.493 270.544 589.278 269.526C588.063 268.508 589.46 279.86 589.46 279.86C589.46 279.86 592.724 279.32 594.202 276.952Z" fill="#6E3E45"/>
<path d="M522.445 301.632C525.459 299.362 531.323 298.274 534.97 299.241C539.996 300.574 546.382 304.231 547.076 311.058C548.076 320.891 544.243 323.772 544.243 323.772C544.243 323.772 550.409 320.818 553.91 323.105C557.41 325.392 556.99 327.596 556.99 327.596C555.142 330.272 538.537 330.901 534.4 330.186C528.525 329.171 520.022 323.884 518.36 316.479C516.551 308.425 519.272 304.022 522.445 301.632Z" fill="#FE812D"/>
<path d="M547.137 317.104C547.097 317.104 547.056 317.1 547.015 317.092C546.676 317.025 546.456 316.696 546.523 316.358C547.508 311.368 546.839 307.382 544.535 304.509C540.827 299.886 534.076 299.671 534.009 299.67C533.664 299.662 533.391 299.375 533.399 299.03C533.407 298.69 533.685 298.42 534.024 298.42C534.029 298.42 534.034 298.42 534.039 298.42C534.34 298.427 541.443 298.655 545.511 303.727C548.056 306.901 548.81 311.232 547.751 316.6C547.691 316.897 547.43 317.104 547.137 317.104Z" fill="#BF632D"/>
<path d="M577.275 303.296C569.353 298.641 562.386 309.546 563.674 318.643C564.165 322.111 565.721 324.977 569.525 324.977C580.873 324.977 579.275 324.977 588.741 324.977C594.17 324.977 593.385 318.059 586.65 317.739C582.272 317.531 578.136 317.739 578.136 317.739C578.136 317.739 580.373 313.732 580.373 307.763C580.373 304.708 577.326 303.326 577.275 303.296Z" fill="#FE812D"/>
<path d="M578.464 317.953C578.33 317.953 578.195 317.91 578.08 317.821C577.808 317.609 577.759 317.217 577.971 316.945C578.206 316.642 583.651 309.458 576.991 303.772C576.729 303.548 576.697 303.153 576.921 302.891C577.145 302.628 577.54 302.597 577.802 302.821C585.378 309.288 579.022 317.629 578.957 317.713C578.834 317.87 578.65 317.953 578.464 317.953Z" fill="#BF632D"/>
<path d="M567.592 283.77L571.447 285.615C571.447 285.615 570.242 280.021 565.935 278.571C561.628 277.121 556.619 274.604 554.174 273.485C551.729 272.366 546.52 270.025 544.44 270.558C542.36 271.091 541.253 273.732 540.212 277.058C539.17 280.384 541.003 282.023 542.607 280.766C544.211 279.51 547.108 275.852 547.108 275.852C547.108 275.852 547.816 276.158 545.497 279.76C543.177 283.362 544.559 284.33 547.459 283C550.359 281.671 553.822 277.271 553.822 277.271C553.822 277.271 552.05 281.381 550.689 284.153C549.328 286.924 553.107 287.726 555.977 283.632C558.846 279.538 559.483 279.557 559.483 279.557C559.483 279.557 560.026 281.667 558.224 284.963C556.422 288.259 556.466 290.978 558.852 290.467C561.237 289.956 565.223 282.38 565.223 282.38L567.592 283.77Z" fill="#EBB088"/>
<path d="M683.749 454.423C691.967 454.423 698.629 447.761 698.629 439.543C698.629 431.325 691.967 424.663 683.749 424.663C675.531 424.663 668.869 431.325 668.869 439.543C668.869 447.761 675.531 454.423 683.749 454.423Z" fill="#FB532C"/>
<path d="M669.115 437.642C668.799 437.642 668.5 437.455 668.373 437.145C668.204 436.735 668.399 436.266 668.809 436.097C678.553 432.082 683.007 424.346 683.051 424.268C683.269 423.883 683.758 423.746 684.144 423.964C684.53 424.182 684.666 424.671 684.448 425.057C684.258 425.394 679.673 433.356 669.421 437.581C669.32 437.622 669.217 437.642 669.115 437.642Z" fill="#A62413"/>
<path d="M683.245 455.026C682.93 455.026 682.63 454.839 682.503 454.529C682.334 454.119 682.529 453.65 682.939 453.481C692.705 449.457 697.658 441.816 697.707 441.74C697.945 441.366 698.441 441.256 698.815 441.495C699.189 441.733 699.299 442.229 699.06 442.603C698.849 442.934 693.781 450.75 683.55 454.966C683.451 455.006 683.347 455.026 683.245 455.026Z" fill="#A62413"/>
<path d="M677.173 453.697C676.86 453.697 676.562 453.512 676.433 453.206C676.261 452.797 676.453 452.327 676.861 452.155C689.913 446.663 697.643 435.475 697.72 435.363C697.969 434.997 698.468 434.902 698.835 435.152C699.201 435.402 699.296 435.901 699.046 436.267C698.723 436.742 690.968 447.961 677.483 453.635C677.383 453.677 677.277 453.697 677.173 453.697Z" fill="#A62413"/>
<path d="M681.307 455.026C681.154 455.026 681 454.983 680.864 454.892C676.215 451.8 673.059 446.578 671.737 439.79C670.748 434.712 671.119 430.596 671.135 430.423C671.177 429.982 671.568 429.659 672.009 429.699C672.45 429.741 672.774 430.132 672.733 430.573C672.718 430.733 671.363 446.645 681.753 453.555C682.122 453.8 682.222 454.298 681.977 454.667C681.822 454.9 681.567 455.026 681.307 455.026Z" fill="#A62413"/>
<path d="M612.591 460.333C607.489 460.333 601.514 459.559 593.59 457.788C593.186 457.698 592.931 457.297 593.022 456.892C593.113 456.488 593.514 456.234 593.918 456.324C614.381 460.897 621.203 458.832 634.683 453.722C641.667 451.075 649.211 452.698 655.272 454.003C661.139 455.265 664.496 455.862 665.29 453.461C665.351 453.276 665.325 453.183 665.292 453.117C665.033 452.605 663.613 452.143 662.472 451.772C660.6 451.163 658.478 450.473 657.766 448.862C657.4 448.036 657.456 447.08 657.932 446.022C658.701 444.313 661.148 443.543 665.42 443.664C668.365 443.748 671.077 444.238 671.191 444.259C671.598 444.333 671.868 444.724 671.794 445.131C671.72 445.539 671.329 445.809 670.921 445.734C666.618 444.949 660.168 444.71 659.3 446.637C659.002 447.299 658.949 447.828 659.138 448.254C659.58 449.252 661.363 449.832 662.937 450.344C664.629 450.895 666.091 451.371 666.631 452.438C666.86 452.889 666.888 453.405 666.715 453.93C665.46 457.727 660.825 456.73 654.957 455.467C649.088 454.204 641.784 452.632 635.215 455.123C626.901 458.276 620.907 460.333 612.591 460.333Z" fill="#FB532C"/>
<path d="M687.217 455.026C687.088 455.026 686.957 454.995 686.836 454.929C681.305 451.932 677.31 446.265 675.282 438.541C673.765 432.762 673.869 427.932 673.874 427.729C673.885 427.286 674.252 426.933 674.696 426.948C675.139 426.959 675.489 427.327 675.478 427.77C675.477 427.818 675.377 432.609 676.844 438.174C678.18 443.239 681.13 450.013 687.599 453.519C687.989 453.73 688.133 454.217 687.922 454.606C687.778 454.874 687.502 455.026 687.217 455.026Z" fill="#A62413"/>
<path d="M695.445 449.545C695.082 449.545 694.753 449.297 694.665 448.928C691.075 433.864 678.885 425.924 678.762 425.846C678.389 425.607 678.279 425.111 678.518 424.738C678.756 424.365 679.253 424.255 679.626 424.494C679.758 424.578 682.893 426.601 686.523 430.583C689.871 434.256 694.272 440.355 696.226 448.557C696.329 448.988 696.063 449.421 695.632 449.523C695.569 449.538 695.507 449.545 695.445 449.545Z" fill="#A62413"/>
<path d="M697.552 444.243C697.163 444.243 696.822 443.96 696.76 443.563C695.711 436.792 692.017 432.127 689.104 429.406C685.921 426.433 682.942 425.057 682.913 425.044C682.51 424.86 682.332 424.385 682.515 423.981C682.698 423.578 683.173 423.399 683.577 423.582C683.707 423.641 686.785 425.056 690.156 428.191C693.272 431.09 697.223 436.067 698.347 443.316C698.415 443.754 698.115 444.164 697.677 444.232C697.634 444.24 697.593 444.243 697.552 444.243Z" fill="#A62413"/>
<path d="M669.261 443.756C668.911 443.756 668.589 443.525 668.489 443.172C668.369 442.746 668.617 442.302 669.043 442.182C684.421 437.837 690.033 426.221 690.088 426.104C690.276 425.703 690.754 425.531 691.155 425.719C691.556 425.907 691.728 426.385 691.54 426.786C691.48 426.913 690.034 429.949 686.584 433.567C683.413 436.893 677.872 441.354 669.48 443.726C669.407 443.746 669.334 443.756 669.261 443.756Z" fill="#A62413"/>
<path d="M671.859 449.545C671.518 449.545 671.202 449.326 671.094 448.984C670.961 448.561 671.196 448.111 671.618 447.978C688.033 442.806 694.661 429.514 694.726 429.38C694.92 428.982 695.4 428.815 695.799 429.01C696.197 429.204 696.363 429.684 696.169 430.082C696.099 430.226 694.41 433.655 690.593 437.781C687.078 441.581 681.016 446.699 672.101 449.508C672.02 449.533 671.939 449.545 671.859 449.545Z" fill="#A62413"/>
<path d="M139.038 458.321C139.038 461.716 116.563 464.468 88.8386 464.468C61.1146 464.468 38.6396 461.716 38.6396 458.321C38.6396 454.926 61.1146 452.174 88.8386 452.174C116.563 452.174 139.038 454.925 139.038 458.321Z" fill="#DDD8CE"/>
<path d="M91.064 347.677C90.395 347.677 89.847 347.141 89.835 346.469C89.6 333.67 99.859 328.125 100.296 327.895C100.898 327.579 101.641 327.81 101.957 328.411C102.273 329.011 102.043 329.754 101.444 330.071C101.42 330.084 99.049 331.361 96.748 334.025C93.707 337.546 92.209 341.718 92.295 346.424C92.307 347.103 91.767 347.664 91.088 347.676C91.079 347.677 91.071 347.677 91.064 347.677Z" fill="#7C7A48"/>
<path d="M87.0947 315.895C87.0947 315.895 72.8117 288.956 124.051 270.069C126.694 269.095 129.366 271.431 128.734 274.175C125.501 288.2 114.895 320.99 87.0947 315.895Z" fill="#504F2C"/>
<path d="M73.0394 345.24C72.9804 345.24 72.9214 345.236 72.8614 345.227C72.1894 345.13 71.7234 344.506 71.8204 343.833C75.3704 319.326 93.6314 307.929 95.7014 306.71C96.2844 306.362 97.0474 306.549 97.3954 307.133C97.7434 307.717 97.5594 308.467 96.9754 308.815L96.9494 308.83C96.0854 309.339 91.5284 312.154 86.6304 317.652C79.8694 325.243 75.7054 334.17 74.2544 344.185C74.1664 344.798 73.6414 345.24 73.0394 345.24Z" fill="#504F2C"/>
<path d="M80.5656 345.239C80.5466 345.239 80.5266 345.239 80.5066 345.238C79.8276 345.206 79.3036 344.63 79.3356 343.951C79.8306 333.464 73.1746 323.898 73.1076 323.802C72.7166 323.247 72.8486 322.479 73.4036 322.088C73.9586 321.697 74.7256 321.829 75.1176 322.384C75.4116 322.802 82.3266 332.745 81.7926 344.066C81.7626 344.726 81.2186 345.239 80.5656 345.239Z" fill="#504F2C"/>
<path d="M84.0996 347.039C84.0886 347.039 84.0776 347.039 84.0666 347.039C83.3876 347.021 82.8516 346.456 82.8696 345.777L83.9176 305.89C83.9356 305.211 84.4976 304.676 85.1796 304.693C85.8586 304.711 86.3946 305.276 86.3766 305.955L85.3286 345.842C85.3116 346.509 84.7646 347.039 84.0996 347.039Z" fill="#7C7A48"/>
<path d="M75.5446 324.484C75.5446 324.484 46.4866 333.721 37.0646 279.931C36.5786 277.157 39.3546 274.945 41.9416 276.058C55.1616 281.746 85.5276 298.043 75.5446 324.484Z" fill="#504F2C"/>
<path d="M94.369 334.837C94.369 334.837 120.491 350.565 142.138 300.43C143.254 297.844 141.068 295.049 138.293 295.531C124.114 297.996 90.795 306.801 94.369 334.837Z" fill="#7C7A48"/>
<path d="M89.5795 319.686C87.5565 323.87 81.4515 323.41 80.0625 318.975C73.8665 299.19 63.4845 257.252 84.9815 252.439C109.101 247.04 101.019 296.021 89.5795 319.686Z" fill="#7C7A48"/>
<path d="M84.6237 322.37C84.6147 322.37 84.6057 322.37 84.5957 322.369C84.2257 322.354 83.9377 322.042 83.9527 321.672L86.2237 265.602C86.2387 265.232 86.5547 264.943 86.9207 264.959C87.2907 264.974 87.5787 265.286 87.5637 265.656L85.2927 321.725C85.2797 322.087 84.9817 322.37 84.6237 322.37Z" fill="#504F2C"/>
<path d="M95.0891 334.919C94.8951 334.919 94.7021 334.835 94.5691 334.673C94.3341 334.386 94.3761 333.963 94.6631 333.729L125.713 308.319C126 308.084 126.423 308.126 126.657 308.413C126.892 308.7 126.85 309.123 126.563 309.357L95.5131 334.767C95.3891 334.87 95.2381 334.919 95.0891 334.919Z" fill="#504F2C"/>
<path d="M117.492 342.606L115.759 350.543L115.196 353.133L113.999 358.609L113.434 361.199L108.408 384.396H63.1065L58.0815 361.199L57.5155 358.609L56.3195 353.133L55.7565 350.543L54.0225 342.606H117.492Z" fill="#FE812D"/>
<path d="M115.76 350.543L115.197 353.133H56.3198L55.7568 350.543H115.76Z" fill="#BF632D"/>
<path d="M114 358.609L113.435 361.199H58.0816L57.5156 358.609H114Z" fill="#BF632D"/>
<path d="M116.839 439.513H60.2194C59.8584 439.513 59.5664 439.116 59.5664 438.626V434.167C59.5664 433.677 59.8584 433.28 60.2194 433.28H116.839C117.2 433.28 117.492 433.677 117.492 434.167V438.626C117.492 439.115 117.2 439.513 116.839 439.513Z" fill="#341A1B"/>
<path d="M52.2627 384.396H124.204C125.4 384.396 126.369 385.366 126.369 386.561V395.4C126.369 396.596 125.4 397.565 124.204 397.565H52.2627C51.0667 397.565 50.0977 396.595 50.0977 395.4V386.561C50.0977 385.365 51.0667 384.396 52.2627 384.396Z" fill="#97635F"/>
<path d="M58.8039 458.321L75.4609 404.629L77.6519 397.566H60.1659L58.3439 406.636L47.9629 458.321H58.8039Z" fill="#6E3E45"/>
<path d="M60.1657 397.566H77.6517L75.4607 404.629L58.3438 406.636L60.1657 397.566Z" fill="#341A1B"/>
<path d="M117.843 458.321H128.683L116.922 399.768H116.92L116.478 397.566H98.9951L100.284 401.72L117.843 458.321Z" fill="#6E3E45"/>
<path d="M116.92 399.768L100.284 401.72L98.9951 397.566H116.478L116.92 399.768Z" fill="#341A1B"/>
<path d="M120.142 419.324H55.345C54.188 419.324 53.25 418.386 53.25 417.229V415.186C53.25 414.029 54.188 413.091 55.345 413.091H120.142C121.299 413.091 122.237 414.029 122.237 415.186V417.229C122.237 418.386 121.299 419.324 120.142 419.324Z" fill="#97635F"/>
</svg>
