<svg width="281" height="225" viewBox="0 0 281 225" fill="none" xmlns="http://www.w3.org/2000/svg">
<g filter="url(#filter0_i_812_3950)">
<path d="M214.74 34.8791C158.062 -15.7136 70.384 -10.6777 19.9591 46.1495C4.91195 63.1074 -4.55013 84.4413 2.23258 109.849C21.3762 181.561 82.3416 159.783 126.812 186.807C171.282 213.832 250.189 215.473 260.762 150.931C266.71 114.627 251 67.2464 214.74 34.8791Z" fill="#F5F4F1"/>
</g>
<path d="M22.4167 51.5332C22.4167 51.5332 161.526 188.771 238.975 196.002C316.424 203.233 260.453 135.552 260.453 135.552" stroke="#C5C5C5" stroke-miterlimit="10"/>
<path d="M36.6436 167.316C36.6436 167.316 35.875 172.544 34.0303 175.926C32.1856 179.308 27.2658 180.384 27.2658 180.384C27.2658 180.384 32.339 180.077 34.953 183.92C37.5663 187.764 37.6438 191.838 37.6438 191.838C37.6438 191.838 38.8103 180.692 48.021 178.847C48.021 178.847 38.8088 178.847 36.6436 167.316Z" stroke="#C5C5C5" stroke-width="2" stroke-miterlimit="10" stroke-linecap="round" stroke-linejoin="round"/>
<path d="M132.952 15.2134C132.952 15.2134 132.423 18.8079 131.154 21.1341C129.885 23.4603 126.503 24.2 126.503 24.2C126.503 24.2 129.992 23.9889 131.789 26.6318C133.587 29.2747 133.639 32.0764 133.639 32.0764C133.639 32.0764 134.441 24.4119 140.776 23.1429C140.776 23.1429 134.441 23.1421 132.952 15.2134Z" stroke="#C5C5C5" stroke-miterlimit="10" stroke-linecap="round" stroke-linejoin="round"/>
<path d="M192.928 32.0762C192.928 32.0762 193.09 33.3088 191.561 35.4839C190.623 36.8175 188.162 37.2655 188.162 37.2655C188.162 37.2655 190.684 37.4767 191.79 39.1034C192.896 40.7302 192.928 42.4542 192.928 42.4542C192.928 42.4542 192.931 38.0804 197.699 36.9671C197.699 36.9671 193.464 37.2655 192.928 32.0762Z" fill="#C5C5C5"/>
<path d="M7.8746 118.869C7.8746 118.869 8.0356 120.101 6.50682 122.276C5.56889 123.61 3.10825 124.058 3.10825 124.058C3.10825 124.058 5.62964 124.27 6.73617 125.897C7.84194 127.523 7.8746 129.247 7.8746 129.247C7.8746 129.247 7.87688 124.874 12.6455 123.76C12.6455 123.76 8.41002 124.057 7.8746 118.869Z" fill="#C5C5C5"/>
<path d="M18.7576 46.9636C18.7576 46.9636 -0.310069 28.2065 7.87688 18.4771C14.1834 10.9821 40.955 26.9094 40.955 26.9094" stroke="#C5C5C5" stroke-miterlimit="10"/>
<path d="M256.168 197.92C256.168 202.667 252.319 206.516 247.571 206.516C242.824 206.516 238.975 202.667 238.975 197.92C238.975 193.172 242.824 189.323 247.571 189.323C252.319 189.323 256.168 193.172 256.168 197.92Z" fill="#003E53"/>
<path d="M166.699 99.1624C168.933 96.9288 168.933 93.3075 166.699 91.0739C164.465 88.8404 160.844 88.8404 158.61 91.0739C156.377 93.3075 156.377 96.9288 158.61 99.1624C160.844 101.396 164.465 101.396 166.699 99.1624Z" fill="#C5C5C5"/>
<path d="M21.3162 54.187C24.475 54.187 27.0357 51.6263 27.0357 48.4675C27.0357 45.3087 24.475 42.748 21.3162 42.748C18.1574 42.748 15.5967 45.3087 15.5967 48.4675C15.5967 51.6263 18.1574 54.187 21.3162 54.187Z" fill="#003E53"/>
<path d="M154.975 172.001L165.858 201.702L151.268 208.165L136.346 187.035L154.975 172.001Z" fill="#EAB0BA"/>
<path d="M151.855 210.461C151.855 210.461 147.608 206.675 147.675 204.884C147.675 204.884 161.896 194.101 162.826 193.543C163.756 192.985 167.615 199.684 167.615 199.684C167.615 199.684 172.378 200.719 177.634 201.046C182.89 201.373 185.383 199.783 188.35 202.78C191.316 205.776 188.155 208.595 185.383 211.301C182.61 214.007 171.73 219.259 169.553 219.426C167.377 219.593 167.132 219.426 167.132 219.426C167.132 219.426 166.385 221.08 164.553 222.559C162.72 224.038 158.901 224.61 157.845 223.789C156.719 222.915 155.096 221.263 155.414 219.049C155.412 219.049 154.014 216.155 151.855 210.461Z" fill="#00454C"/>
<path d="M156.91 218.752C156.91 218.752 163.433 216.549 168.577 214.634C173.722 212.718 183.204 207.066 183.902 205.857C184.6 204.648 182.061 203.261 183.4 201.699" stroke="white" stroke-width="0.75" stroke-miterlimit="10" stroke-linecap="round" stroke-linejoin="round"/>
<path d="M152.868 209.983C152.868 209.983 158.896 206.707 161.107 204.536" stroke="white" stroke-width="0.75" stroke-miterlimit="10" stroke-linecap="round" stroke-linejoin="round"/>
<path d="M160.207 196.684C160.207 196.684 163.915 200.09 165.447 201.554" stroke="white" stroke-width="0.75" stroke-miterlimit="10" stroke-linecap="round" stroke-linejoin="round"/>
<path d="M168.475 199.858L167.313 203.155" stroke="white" stroke-width="0.75" stroke-miterlimit="10" stroke-linecap="round" stroke-linejoin="round"/>
<path d="M170.753 200.297L169.59 203.594" stroke="white" stroke-width="0.75" stroke-miterlimit="10" stroke-linecap="round" stroke-linejoin="round"/>
<path d="M173.344 200.373L172.181 203.669" stroke="white" stroke-width="0.75" stroke-miterlimit="10" stroke-linecap="round" stroke-linejoin="round"/>
<path d="M60.5407 124.943C60.5407 124.943 121.161 174.368 133.193 196.003L163.445 178.62C163.445 178.62 159.753 162.161 135.892 140.333C112.033 118.505 60.5407 124.943 60.5407 124.943Z" fill="#FE812D"/>
<path d="M96.2207 155.88C96.2207 155.88 127.31 183.27 133.193 196.002L163.445 178.62" stroke="#00454C" stroke-miterlimit="10" stroke-linecap="round" stroke-linejoin="round"/>
<path d="M92.4895 59.6709L129.407 86.4942L121.378 104.609C121.378 104.609 105.412 98.0858 98.2773 91.42C91.1438 84.7542 92.4895 59.6709 92.4895 59.6709Z" fill="#EAB0BA"/>
<path d="M133.639 168.782L125.341 199.306L109.7 196.14L109.748 170.273L133.639 168.782Z" fill="#FFCCD3"/>
<path d="M108.188 196.14C108.188 196.14 108.297 190.451 109.7 189.336C109.7 189.336 127.142 193.11 128.172 193.453C129.201 193.797 126.628 201.087 126.628 201.087C126.628 201.087 128.943 205.375 132.117 209.577C135.29 213.78 138.121 214.638 137.778 218.841C137.435 223.043 133.661 223.472 129.802 223.129C125.942 222.786 114.449 216.954 112.905 215.41C111.361 213.866 111.329 213.573 111.329 213.573C111.329 213.573 109.689 213.352 107.373 212.923C105.058 212.494 102.353 210.353 101.97 209.363C101.455 208.034 102.098 205.632 103.985 204.432C103.985 204.432 105.272 201.485 108.188 196.14Z" fill="#00454C"/>
<path d="M105.186 205.375C105.186 205.375 111.104 208.891 115.907 211.55C120.71 214.209 131.174 217.725 132.546 217.468C133.919 217.21 133.318 214.38 135.377 214.38" stroke="white" stroke-width="0.75" stroke-miterlimit="10" stroke-linecap="round" stroke-linejoin="round"/>
<path d="M109.21 196.599C109.21 196.599 115.621 199.041 118.708 199.306" stroke="white" stroke-width="0.75" stroke-miterlimit="10" stroke-linecap="round" stroke-linejoin="round"/>
<path d="M124.084 193.511C124.084 193.511 123.912 198.542 123.797 200.658" stroke="white" stroke-width="0.75" stroke-miterlimit="10" stroke-linecap="round" stroke-linejoin="round"/>
<path d="M127.057 201.853L123.797 203.116" stroke="white" stroke-width="0.75" stroke-miterlimit="10" stroke-linecap="round" stroke-linejoin="round"/>
<path d="M128.205 203.868L124.946 205.132" stroke="white" stroke-width="0.75" stroke-miterlimit="10" stroke-linecap="round" stroke-linejoin="round"/>
<path d="M129.835 205.884L126.576 207.148" stroke="white" stroke-width="0.75" stroke-miterlimit="10" stroke-linecap="round" stroke-linejoin="round"/>
<path d="M93.0454 116.541L57.2401 118.509C57.2401 118.509 56.2809 114.039 55.1204 107.679C54.7961 105.92 54.4643 104.009 54.1255 102.012C51.9261 88.875 49.7852 71.8229 52.3302 66.4156C54.241 62.3494 57.6297 59.5372 61.3427 57.6841C63.1524 56.7758 65.0344 56.0976 66.8586 55.6146C70.6225 54.6121 74.141 54.4253 76.2462 54.7419C76.2462 54.7419 81.0263 54.4822 86.5278 56.516C88.0998 57.1001 89.7365 57.8717 91.3367 58.8878C92.5913 59.6883 93.8239 60.6399 94.9919 61.7722C96.7372 63.4742 98.3305 65.5862 99.614 68.2041C100.616 70.2516 101.2 72.7031 101.459 75.4C103.025 91.5718 93.0454 116.541 93.0454 116.541Z" fill="#7C7A48"/>
<path d="M81.3756 51.9823L81.5875 61.7626L69.1096 56.4738L70.6354 45.4761L81.3756 51.9823Z" fill="#EAB0BA"/>
<path d="M93.9181 33.7755C93.9181 33.7755 94.8735 38.2609 93.9348 43.8695C92.9953 49.4781 87.5675 52.8007 84.4393 53.5168C81.8913 54.1001 74.7197 53.0642 71.4602 47.0075C68.2006 40.9501 69.6443 28.9249 69.6443 28.9249C69.6443 28.9249 90.1451 18.8294 93.9181 33.7755Z" fill="#FFCCD3"/>
<path d="M70.5009 37.6289C70.5009 37.6289 67.7115 32.8807 64.1428 34.9579C60.5741 37.035 61.5135 43.7159 64.6478 45.6222C67.7828 47.5284 71.1283 45.1809 71.1283 45.1809L70.5009 37.6289Z" fill="#FFCCD3"/>
<path d="M87.591 26.5742C87.591 26.5742 84.7696 40.3394 69.9086 41.4634L69.3382 36.1411C69.3382 36.1411 63.1494 32.8329 62.4181 39.6885C62.194 41.7884 62.8054 48.3919 70.6361 45.4763L69.8091 51.4381C69.8091 51.4381 63.4775 52.7367 58.7134 45.7702C53.9493 38.8045 55.3635 25.4669 63.4152 19.9624C71.467 14.4578 81.9673 14.6652 88.8191 20.4294C95.6709 26.1937 97.142 30.089 97.6531 34.8128C98.1642 39.5366 94.2378 41.4451 94.2378 41.4451C94.2378 41.4451 94.196 32.3149 87.591 26.5742Z" fill="#00454C"/>
<path d="M58.0163 23.6476C58.0163 23.6476 51.4492 23.4327 48.3157 26.6026" stroke="#FFC657" stroke-width="2" stroke-miterlimit="10" stroke-linecap="round"/>
<path d="M51.8798 28.864C51.8798 28.864 55.0642 25.0804 57.6198 24.9551" stroke="#FFC657" stroke-width="2" stroke-miterlimit="10" stroke-linecap="round"/>
<path d="M55.9832 88.117L67.7229 83.1562L62.8912 95.1177L55.9832 88.117Z" fill="#FFE89F"/>
<path d="M67.7236 57.7919C67.7236 59.5584 66.2958 60.9862 64.5293 60.9862C62.7628 60.9862 61.3351 59.5584 61.3351 57.7919C61.3351 57.7554 61.3351 57.7197 61.3427 57.6833C63.1524 56.775 65.0344 56.0968 66.8586 55.6138C67.3993 56.1841 67.7236 56.9406 67.7236 57.7919Z" fill="#FFE89F"/>
<path d="M84.781 79.9638C84.781 81.7272 83.3517 83.1565 81.5883 83.1565C79.8248 83.1565 78.3955 81.7272 78.3955 79.9638C78.3955 78.2003 79.8248 76.771 81.5883 76.771C83.351 76.7702 84.781 78.1995 84.781 79.9638Z" fill="#FFE89F"/>
<path d="M59.1797 104.608C59.1797 106.374 57.7451 107.802 55.9855 107.802C55.6824 107.802 55.3938 107.759 55.1204 107.68C54.7961 105.921 54.4643 104.01 54.1255 102.013C54.6519 101.637 55.286 101.414 55.9855 101.414C57.7451 101.413 59.1797 102.848 59.1797 104.608Z" fill="#FFE89F"/>
<path d="M91.3587 59.2486C91.3587 61.0151 89.9309 62.4429 88.172 62.4429C86.4055 62.4429 84.9777 61.0151 84.9777 59.2486C84.9777 58.0882 85.5974 57.0713 86.5278 56.5161C88.0999 57.1001 89.7365 57.8717 91.3367 58.8879C91.3511 59.0033 91.3587 59.1256 91.3587 59.2486Z" fill="#FFE89F"/>
<path d="M71.1283 75.2253L76.3981 68.6332L67.1009 65.8521L71.1283 75.2253Z" fill="#FFE89F"/>
<path d="M101.46 75.3994L91.4164 74.0946L94.9927 61.7725C96.7379 63.4744 98.3313 65.5865 99.6148 68.2043C100.616 70.251 101.2 72.7026 101.46 75.3994Z" fill="#FFE89F"/>
<path d="M76.3981 100.352L78.3947 87.1729L88.169 92.2719L76.3981 100.352Z" fill="#FFE89F"/>
<path d="M64.824 48.1507C65.4794 49.3689 66.9983 49.8253 68.2173 49.1691C69.4354 48.5137 69.8919 46.9948 69.2357 45.7759C68.5803 44.5577 67.0606 44.1013 65.8424 44.7574C64.6243 45.4136 64.1678 46.9325 64.824 48.1507Z" fill="#FFE89F"/>
<path d="M65.6032 37.7451C65.6032 37.7451 67.9704 39.9665 68.3661 42.8791" stroke="#00454C" stroke-width="0.75" stroke-miterlimit="10" stroke-linecap="round"/>
<path d="M65.301 41.7555C65.301 41.7555 65.4764 40.6064 67.1009 40.0444" stroke="#00454C" stroke-width="0.75" stroke-miterlimit="10" stroke-linecap="round"/>
<path d="M59.0202 18.4736C60.8202 21.819 64.9918 23.0713 68.3373 21.2706C71.6827 19.4707 72.935 15.299 71.1343 11.9536C69.3344 8.60821 65.1627 7.35586 61.8173 9.15654C58.4719 10.9564 57.2196 15.1282 59.0202 18.4736Z" fill="#00454C"/>
<path d="M139.981 177.339L104.797 177.271L106.842 153.802C106.842 153.802 81.0627 161.744 68.5514 149.18C56.0401 136.623 59.5108 120.573 59.5108 120.573L90.8225 115.86C90.8225 115.86 111.518 115.989 125.863 123.354C127.72 124.309 129.471 125.377 131.054 126.589C135.874 130.272 138.996 134.221 140.898 138.495C145.634 149.12 142.853 161.759 139.981 177.339Z" fill="#00454C"/>
<path d="M69.9541 124.565C69.9541 124.565 72.8773 135.769 89.1152 138.855C105.354 141.941 115.097 139.667 115.097 139.667C115.097 139.667 114.502 140.533 115.097 141.507C115.692 142.481 117.1 142.589 117.1 142.589C117.1 142.589 113.308 165.87 113.959 177.343" stroke="white" stroke-width="0.75" stroke-miterlimit="10" stroke-linecap="round" stroke-linejoin="round"/>
<path d="M177.999 37.8456L165.928 59.9351L25.3649 162.154C21.5684 164.919 16.2408 164.018 13.5584 160.168L11.1334 156.682L9.38287 154.166C6.76882 150.415 7.63992 145.27 11.3377 142.588L150.953 41.4074L176.127 35.3978C176.786 35.2383 177.392 35.4814 177.771 35.9135C178.219 36.4056 178.378 37.156 177.999 37.8456Z" fill="#FE812D"/>
<path d="M50.6085 21.7367C52.4084 25.0822 56.5801 26.3345 59.9255 24.5338C63.2709 22.7339 64.5233 18.5622 62.7226 15.2168C60.9227 11.8714 56.751 10.619 53.4056 12.4197C50.0609 14.2204 48.8086 18.3921 50.6085 21.7367Z" fill="#00454C"/>
<path d="M71.8209 16.568C71.8209 16.568 63.0666 15.9657 58.9807 24.9554" stroke="#FFC657" stroke-width="0.75" stroke-miterlimit="10" stroke-linecap="round"/>
<path d="M58.6602 59.2495C58.6602 59.2495 64.205 62.759 63.094 71.716C61.8059 82.0955 31.736 105.568 31.736 105.568L22.4174 91.1991C22.4174 91.1991 42.7116 66.4158 58.6602 59.2495Z" fill="#FFCCD3"/>
<path d="M63.7015 117.058L58.1924 128.516C58.1924 128.516 28.2896 117.899 21.6443 109.851C20.2424 108.154 19.3409 106.487 18.8176 104.887C17.5827 101.136 18.4159 97.7568 19.6963 95.18C21.2653 92.0503 23.4852 90.103 23.4852 90.103L63.7015 117.058Z" fill="#FFCCD3"/>
<path d="M62.8456 116.542L73.9504 120.146C73.9504 120.146 76.6328 121.309 78.1912 122.97C79.7489 124.63 80.5911 127.306 79.4155 127.349C77.8578 127.406 77.5677 125.116 76.8098 124.612C76.5288 124.425 75.0471 123.977 73.8236 123.627C74.5124 124.071 75.2392 124.615 75.8134 125.226C77.371 126.887 78.2132 129.562 77.0376 129.606C75.48 129.663 75.1899 127.372 74.4319 126.868C74.2064 126.717 73.2039 126.399 72.1839 126.098C72.7482 126.487 73.3132 126.937 73.778 127.433C75.3357 129.094 76.1779 131.769 75.0023 131.813C73.4446 131.87 73.1545 129.579 72.3966 129.075C72.1794 128.931 71.2475 128.631 70.2708 128.341C70.5048 128.54 70.728 128.748 70.9316 128.965C72.4892 130.626 73.3315 133.301 72.1558 133.344C70.5982 133.401 70.3081 131.111 69.5501 130.607C69.4316 130.528 69.0998 130.403 68.6638 130.259L68.6038 130.374C68.6038 130.374 63.7676 131.438 57.6965 128.258L62.8456 116.542Z" fill="#FFCCD3"/>
<path d="M61.1771 115.371L63.8253 116.859L58.1962 128.512L55.3042 127.447L61.1771 115.371Z" fill="#00454C"/>
<path d="M58.4704 121.136C59.0855 122.279 60.511 122.706 61.6533 122.092C62.7963 121.477 63.2238 120.052 62.6087 118.909C61.9935 117.766 60.568 117.338 59.4258 117.954C58.2836 118.567 57.856 119.993 58.4704 121.136Z" fill="white"/>
<path d="M150.851 59.4031C150.323 57.1877 148.553 55.0111 147.87 55.9688C146.964 57.2371 148.716 58.7408 148.719 59.6514C148.72 59.9894 148.277 61.4718 147.896 62.6862C147.905 61.8667 147.852 60.9615 147.657 60.145C147.129 57.9297 145.36 55.7531 144.676 56.7108C143.771 57.9791 145.522 59.4828 145.525 60.3934C145.526 60.6645 145.24 61.6761 144.929 62.6938C144.915 62.0088 144.851 61.2888 144.693 60.6281C144.165 58.4127 142.396 56.2361 141.712 57.1938C140.807 58.4621 142.558 59.9658 142.561 60.8764C142.562 61.1369 142.299 62.0802 142.002 63.0545C141.965 62.75 141.915 62.4492 141.846 62.1591C141.317 59.9438 139.549 57.7672 138.865 58.7249C137.959 59.9932 139.711 61.4969 139.714 62.4075C139.715 62.5495 139.636 62.8958 139.517 63.3386L139.387 63.3257C139.387 63.3257 136.681 66.2594 135.89 74.075C133.407 76.5964 126.203 84.156 123.339 89.8034C119.854 96.6787 121.375 104.608 121.375 104.608C121.375 104.608 127.473 104.451 134.649 97.4648C140.389 91.8767 145.544 79.5218 147.38 74.7965H147.381L147.386 74.7813C147.842 73.6079 148.095 72.9009 148.095 72.9009L148.067 72.9016L151.038 64.7041C151.039 64.7056 151.379 61.6184 150.851 59.4031Z" fill="#FFCCD3"/>
<path d="M67.0295 55.5713L68.7527 52.4097L79.5681 56.4272L80.7012 58.7959L81.0506 56.2677L82.4518 54.5992L83.4565 56.7105L81.5875 62.1436L67.0295 55.5713Z" fill="#00454C"/>
<path d="M83.0677 39.0174C83.0677 39.8863 82.5649 40.591 81.9437 40.591C81.3225 40.591 80.8197 39.887 80.8197 39.0174C80.8197 38.1486 81.3232 37.4438 81.9437 37.4438C82.5642 37.4438 83.0677 38.1486 83.0677 39.0174Z" fill="#00454C"/>
<path d="M91.7589 38.8272C91.7589 39.696 91.2554 40.4008 90.6349 40.4008C90.0144 40.4008 89.5109 39.6968 89.5109 38.8272C89.5109 37.9577 90.0137 37.2544 90.6349 37.2544C91.2554 37.2536 91.7589 37.9577 91.7589 38.8272Z" fill="#00454C"/>
<path d="M87.0161 41.6528C87.0161 41.6528 87.711 42.2125 87.8272 42.754C87.9427 43.2948 87.4217 43.8355 87.4217 43.8355" stroke="#00454C" stroke-width="0.75" stroke-miterlimit="10" stroke-linecap="round"/>
<path d="M88.9284 35.2605C88.9284 35.2605 90.0676 33.7924 91.6518 35.0676" stroke="#00454C" stroke-width="0.75" stroke-miterlimit="10" stroke-linecap="round"/>
<path d="M91.4005 36.9014C91.4005 36.9014 91.1111 37.4034 90.7435 37.616" stroke="#00454C" stroke-width="0.75" stroke-miterlimit="10" stroke-linecap="round"/>
<path d="M92.0498 37.4438C92.0498 37.4438 91.6571 37.8707 91.2523 37.9975" stroke="#00454C" stroke-width="0.75" stroke-miterlimit="10" stroke-linecap="round"/>
<path d="M82.83 37.1729C82.83 37.1729 82.5406 37.6749 82.1731 37.8875" stroke="#00454C" stroke-width="0.75" stroke-miterlimit="10" stroke-linecap="round"/>
<path d="M83.4793 37.7148C83.4793 37.7148 83.0867 38.1409 82.6819 38.2685" stroke="#00454C" stroke-width="0.75" stroke-miterlimit="10" stroke-linecap="round"/>
<path d="M83.1732 46.1528C83.1732 46.1528 84.5638 47.0543 86.7784 47.0285" stroke="#00454C" stroke-width="0.75" stroke-miterlimit="10" stroke-linecap="round"/>
<path d="M15.9119 140.529L25.5942 154.228" stroke="#00454C" stroke-width="0.75" stroke-miterlimit="10" stroke-linecap="round"/>
<path d="M26.2125 155.052L28.0663 157.628" stroke="#00454C" stroke-width="0.75" stroke-miterlimit="10" stroke-linecap="round"/>
<path d="M151.212 42.4541C151.212 42.4541 153.421 50.193 165.266 59.6702" stroke="#00454C" stroke-width="0.75" stroke-miterlimit="10" stroke-linecap="round"/>
<path d="M170.725 37.2651C170.725 37.2651 171.549 40.1009 174.948 41.8523" stroke="#00454C" stroke-width="0.75" stroke-miterlimit="10" stroke-linecap="round"/>
<path d="M81.4364 54.7792V55.8083L82.4518 54.5992L81.4364 54.3022V54.7792Z" fill="#00454C"/>
<path d="M69.3382 36.1406L77.292 38.5238" stroke="white" stroke-width="0.75" stroke-miterlimit="10" stroke-linecap="round" stroke-linejoin="round"/>
<path d="M86.6052 38.8277C86.6052 41.6582 84.5183 43.9517 81.9445 43.9517C79.3707 43.9517 77.2837 41.6574 77.2837 38.8277C77.2837 35.9979 79.3707 33.7036 81.9445 33.7036C84.5183 33.7029 86.6052 35.9972 86.6052 38.8277Z" stroke="white" stroke-width="0.75" stroke-miterlimit="10"/>
<path d="M96.9749 37.9971C96.9749 40.8276 94.8879 43.1212 92.3141 43.1212C89.7403 43.1212 87.6533 40.8268 87.6533 37.9971C87.6533 35.1674 89.7403 32.873 92.3141 32.873C94.8879 32.8723 96.9749 35.1666 96.9749 37.9971Z" stroke="white" stroke-width="0.75" stroke-miterlimit="10"/>
<path d="M87.6533 38.524C87.6533 38.524 87.0503 38.3371 86.6053 38.524" stroke="white" stroke-width="0.5" stroke-miterlimit="10"/>
<path d="M38.1048 100.353L30.9682 95.1177" stroke="#00454C" stroke-width="0.75" stroke-miterlimit="10" stroke-linecap="round"/>
<path d="M140.898 138.496C139.185 139.632 137.132 140.292 134.919 140.292C128.902 140.292 124.03 135.419 124.03 129.402C124.03 127.158 124.704 125.082 125.864 123.355C127.721 124.31 129.471 125.378 131.055 126.59C135.874 130.273 138.996 134.221 140.898 138.496Z" fill="#015166"/>
<path d="M25.2965 100.151C25.2965 102.932 23.1291 105.19 20.4466 105.19C19.8786 105.19 19.3249 105.083 18.8176 104.887C17.5827 101.136 18.4159 97.7562 19.6963 95.1794C19.9386 95.1414 20.1892 95.1187 20.4466 95.1187C23.1298 95.1194 25.2965 97.3697 25.2965 100.151Z" fill="#EAB0BA"/>
<path d="M152.935 143.468L204.452 89.1407C205.406 88.1337 206.892 87.8359 208.161 88.3972L267.546 114.666C269.249 115.419 269.732 117.61 268.502 119.01L213.116 182.047C212.232 183.053 210.754 183.279 209.61 182.584L153.61 148.531C151.824 147.444 151.496 144.986 152.935 143.468Z" fill="#FE812D"/>
<path d="M260.453 118.504L222.3 161.929L219.001 165.68L210.328 175.553L160.204 145.076L180.382 123.801L183.119 120.916L195.907 107.427L200.897 102.162L207.578 95.1177L217.016 99.2909L223.92 102.348L260.453 118.504Z" fill="#00454C"/>
<path d="M230.257 131.107C231.482 133.047 231.214 134.605 230.781 135.562C229.121 139.193 222.714 140.329 211.535 142.019C200.349 143.717 186.431 145.823 185.934 151.974C185.851 153.021 186.215 153.927 187.089 154.833C191.894 159.81 208.409 161.521 222.301 161.928L219.001 165.68C205.709 165.138 189.871 163.223 184.332 157.486C182.686 155.783 181.946 153.824 182.118 151.667C182.858 142.491 197.79 140.232 210.96 138.234C217.482 137.245 226.415 135.892 227.296 133.971C227.392 133.767 227.105 133.289 227.022 133.148C224.559 129.249 213.009 128.433 202.818 127.705C193.425 127.035 185.047 126.441 180.382 123.8L183.119 120.916C187.324 122.766 195.601 123.353 203.092 123.883C215.261 124.752 226.76 125.569 230.257 131.107Z" fill="#015166"/>
<path d="M203.082 111.979L203.332 122.535C203.448 127.42 207.329 131.379 212.211 131.593C217.046 131.804 221.232 128.267 221.832 123.466L223.124 113.12L203.082 111.979Z" fill="#FE812D"/>
<path d="M243.867 87.2761C243.867 94.4218 241.252 100.955 236.925 105.971C231.674 112.071 223.899 115.928 215.222 115.928C200.4 115.928 188.215 104.675 186.737 90.2463C186.737 90.2387 186.729 90.2387 186.729 90.2387C186.63 89.2613 186.577 88.2763 186.577 87.2753C186.577 71.4604 199.399 58.6309 215.222 58.6309C231.045 58.6309 243.867 71.4604 243.867 87.2761Z" fill="#7C7A48"/>
<path d="M197.751 93.0628C197.751 93.0628 204.652 86.7297 206.134 75.5421C207.417 65.8567 202.932 73.1103 202.221 81.6793C201.51 90.2482 203.143 92.9504 205.242 92.7248C207.341 92.4985 211.351 89.7333 211.351 89.7333C211.351 89.7333 206.764 93.0218 208.671 94.6052C211.992 97.3605 217.567 83.1336 217.464 77.6314C217.362 72.1291 211.148 87.9866 212.788 93.3628C214.428 98.739 220.012 92.3299 219.633 90.4897C219.353 89.1311 216.465 89.3278 216.532 93.4957C216.606 98.0182 225.68 91.6821 225.68 91.6821C225.68 91.6821 221.047 94.2399 222.654 95.5113C224.261 96.7826 226.681 91.9494 226.681 91.9494C226.681 91.9494 224.717 97.2238 227.229 97.0355C229.739 96.8471 232.198 93.8876 232.198 93.8876" stroke="#FFE89F" stroke-width="0.75" stroke-miterlimit="10" stroke-linecap="round" stroke-linejoin="round"/>
<path d="M220.809 63.2378C220.809 63.2378 229.253 63.9084 234.99 72.9026C239.891 80.5853 239.645 87.2792 239.645 87.2792" stroke="#FFE89F" stroke-width="0.75" stroke-miterlimit="10" stroke-linecap="round" stroke-linejoin="round"/>
<path d="M236.925 105.971C231.674 112.071 223.899 115.928 215.222 115.928C200.4 115.928 188.215 104.676 186.737 90.2466C188.881 93.8388 193.026 98.6128 200.839 102.219C212.04 107.388 226.945 108.29 236.925 105.971Z" fill="#FE812D"/>
<path d="M217.407 54.0613L218.272 39.2603" stroke="#00454C" stroke-width="0.75" stroke-miterlimit="10" stroke-linecap="round"/>
<path d="M236.985 63.908L247.401 53.3584" stroke="#00454C" stroke-width="0.75" stroke-miterlimit="10" stroke-linecap="round"/>
<path d="M246.712 82.0044L261.373 84.2099" stroke="#00454C" stroke-width="0.75" stroke-miterlimit="10" stroke-linecap="round"/>
<path d="M228.606 56.4812L232.589 46.5854" stroke="#00454C" stroke-width="0.75" stroke-miterlimit="10" stroke-linecap="round"/>
<path d="M243.868 72.903L254.042 69.6958" stroke="#00454C" stroke-width="0.75" stroke-miterlimit="10" stroke-linecap="round"/>
<path d="M198.524 60.4437L188.107 49.894" stroke="#00454C" stroke-width="0.75" stroke-miterlimit="10" stroke-linecap="round"/>
<path d="M184.54 78.1046L169.772 76.7847" stroke="#00454C" stroke-width="0.75" stroke-miterlimit="10" stroke-linecap="round"/>
<path d="M206.903 53.0173L202.92 43.1216" stroke="#00454C" stroke-width="0.75" stroke-miterlimit="10" stroke-linecap="round"/>
<path d="M186.554 68.092L176.379 64.8848" stroke="#00454C" stroke-width="0.75" stroke-miterlimit="10" stroke-linecap="round"/>
<path d="M204.029 116.392C204.029 116.392 211.31 119.45 222 117.366" stroke="#00454C" stroke-width="0.75" stroke-miterlimit="10" stroke-linecap="round"/>
<path d="M204.029 120.288C204.029 120.288 210.612 123.509 221.242 120.916" stroke="#00454C" stroke-width="0.75" stroke-miterlimit="10" stroke-linecap="round"/>
<path d="M204.368 124.122C204.368 124.122 210.507 127.343 220.42 124.75" stroke="#00454C" stroke-width="0.75" stroke-miterlimit="10" stroke-linecap="round"/>
<defs>
<filter id="filter0_i_812_3950" x="0" y="0" width="261.99" height="210.442" filterUnits="userSpaceOnUse" color-interpolation-filters="sRGB">
<feFlood flood-opacity="0" result="BackgroundImageFix"/>
<feBlend mode="normal" in="SourceGraphic" in2="BackgroundImageFix" result="shape"/>
<feColorMatrix in="SourceAlpha" type="matrix" values="0 0 0 0 0 0 0 0 0 0 0 0 0 0 0 0 0 0 127 0" result="hardAlpha"/>
<feOffset dy="6"/>
<feGaussianBlur stdDeviation="4"/>
<feComposite in2="hardAlpha" operator="arithmetic" k2="-1" k3="1"/>
<feColorMatrix type="matrix" values="0 0 0 0 0 0 0 0 0 0 0 0 0 0 0 0 0 0 0.25 0"/>
<feBlend mode="normal" in2="shape" result="effect1_innerShadow_812_3950"/>
</filter>
</defs>
</svg>
