<svg width="256" height="256" viewBox="0 0 256 256" fill="none" xmlns="http://www.w3.org/2000/svg">
<path d="M41.6932 153.439C42.9926 154.225 44.4334 154.821 45.9945 155.18C50.0321 156.116 54.0626 155.312 57.302 153.248C60.4708 151.236 62.889 148.021 63.8065 144.075C65.6532 136.085 60.6848 128.11 52.6945 126.263C44.7104 124.409 36.736 129.385 34.8826 137.375C33.3952 143.804 36.332 150.219 41.6932 153.439Z" fill="#EBEBEB"/>
<path d="M44.8118 139.079C44.8415 141.573 46.8874 143.571 49.3819 143.541C51.8764 143.512 53.8742 141.466 53.8445 138.971C53.8148 136.477 51.7688 134.479 49.2744 134.508C46.7799 134.538 44.7821 136.584 44.8118 139.079Z" fill="white"/>
<path d="M41.6712 151.576L41.6932 153.44C42.9926 154.225 44.4334 154.821 45.9945 155.18C50.0321 156.116 54.0626 155.312 57.302 153.248L57.28 151.392C57.2288 147.092 53.6955 143.629 49.3829 143.68C45.0703 143.73 41.62 147.277 41.6712 151.576Z" fill="white"/>
<path d="M206.765 93.2654C207.616 93.7805 208.56 94.1701 209.583 94.4056C212.228 95.0185 214.867 94.4922 216.989 93.14C219.065 91.8221 220.649 89.7162 221.25 87.1317C222.459 81.8975 219.205 76.6741 213.971 75.4642C208.741 74.2503 203.518 77.5086 202.304 82.7428C201.33 86.9535 203.253 91.156 206.765 93.2654Z" fill="#EBEBEB"/>
<path d="M208.808 83.8591C208.827 85.4929 210.167 86.8016 211.802 86.7826C213.435 86.7632 214.744 85.4227 214.725 83.789C214.705 82.1552 213.365 80.8465 211.731 80.8654C210.097 80.8849 208.788 82.2253 208.808 83.8591Z" fill="white"/>
<path d="M206.751 92.0452L206.765 93.2658C207.616 93.7808 208.56 94.1705 209.583 94.406C212.228 95.0189 214.867 94.4925 216.989 93.1403L216.975 91.9243C216.942 89.1078 214.627 86.8391 211.802 86.8729C208.977 86.9062 206.717 89.2286 206.751 92.0452Z" fill="white"/>
<path d="M110.032 68.6863H45.1932V24.3267H110.032V68.6863ZM45.7052 68.1743H109.52V24.8387H45.7052V68.1743Z" fill="#EBEBEB"/>
<path d="M50.2625 27.1848C50.2625 27.8975 49.6845 28.4755 48.9718 28.4755C48.2591 28.4755 47.681 27.898 47.681 27.1848C47.681 26.4721 48.2586 25.894 48.9718 25.894C49.685 25.8946 50.2625 26.4721 50.2625 27.1848Z" fill="#A6A6A6"/>
<path d="M55.5325 27.1848C55.5325 27.8975 54.955 28.4755 54.2418 28.4755C53.5291 28.4755 52.951 27.898 52.951 27.1848C52.951 26.4721 53.5286 25.894 54.2418 25.894C54.9545 25.8946 55.5325 26.4721 55.5325 27.1848Z" fill="#EBEBEB"/>
<path d="M60.802 27.1848C60.802 27.8975 60.2245 28.4755 59.5113 28.4755C58.7986 28.4755 58.2205 27.898 58.2205 27.1848C58.2205 26.4721 58.7981 25.894 59.5113 25.894C60.2245 25.8946 60.802 26.4721 60.802 27.1848Z" fill="#7C7A48"/>
<path d="M109.776 29.4565H45.4492V29.9685H109.776V29.4565Z" fill="#EBEBEB"/>
<path d="M64.9995 77.4123L31.218 82.0186L34.1392 103.442L67.9206 98.8356L64.9995 77.4123Z" fill="#EBEBEB"/>
<path d="M65.0032 77.4136C63.8164 78.9045 62.5968 80.3438 61.3972 81.8152C60.1832 83.2606 58.9647 84.707 57.739 86.1396C56.46 87.6362 55.1738 89.1194 53.8872 90.596C53.8472 90.6437 53.8124 90.6908 53.7725 90.7384C52.6323 92.0399 51.4869 93.3429 50.3416 94.6449L50.1706 94.8298L49.9612 94.6966C48.5091 93.7484 47.0617 92.7992 45.6138 91.8433C45.5636 91.8151 45.5119 91.7798 45.4607 91.7445C43.8202 90.6672 42.1839 89.5823 40.5501 88.4758C38.9916 87.4298 37.43 86.3628 35.874 85.2948C34.3242 84.1981 32.7636 83.1382 31.2209 82.019C32.8245 82.9396 34.4102 83.919 36.002 84.8693C37.5918 85.8411 39.1815 86.8129 40.7641 87.8067C42.5259 88.9023 44.2902 90.019 46.0515 91.1505C46.0566 91.15 46.0566 91.15 46.0628 91.1562C47.3812 91.9958 48.7006 92.8427 50.0205 93.6895C51.0599 92.5212 52.1039 91.3451 53.1504 90.1895C53.1535 90.1752 53.1535 90.1752 53.1586 90.1742C54.5538 88.6197 55.9495 87.0719 57.358 85.5365C58.6175 84.1622 59.8832 82.7942 61.1555 81.4389C62.4391 80.098 63.7048 78.7299 65.0032 77.4136Z" fill="white"/>
<path d="M46.1686 91.6328C46.1547 91.6451 46.1466 91.6615 46.1327 91.6738C45.9761 91.8504 45.8189 92.0265 45.6617 92.1981C44.9121 93.029 44.138 93.8318 43.3459 94.6173C42.3823 95.586 41.3885 96.5224 40.3896 97.4542C39.383 98.3718 38.3708 99.2852 37.3289 100.171C36.287 101.058 35.2328 101.93 34.1299 102.747C35.0321 101.709 35.9834 100.727 36.9475 99.7634C37.9162 98.7942 38.9094 97.8577 39.9037 96.9264C40.9149 96.0032 41.9272 95.0898 42.9691 94.2036C43.7975 93.4965 44.6428 92.7971 45.5132 92.1305C45.7139 91.9738 45.9156 91.8223 46.122 91.6702C46.1358 91.6579 46.1547 91.6451 46.1686 91.6328Z" fill="white"/>
<path d="M67.7499 98.1617C66.4684 97.6697 65.2145 97.1121 63.978 96.5366C62.7369 95.9616 61.5168 95.3529 60.2967 94.739C59.0843 94.1087 57.876 93.4723 56.6886 92.797C55.7204 92.2522 54.7599 91.6905 53.8204 91.09C53.6171 90.9625 53.4185 90.8345 53.2204 90.7065C53.204 90.6983 53.1917 90.6845 53.1748 90.6763C53.1912 90.6845 53.2132 90.6916 53.2291 90.6947C53.4697 90.791 53.7042 90.8831 53.9397 90.9804C54.9565 91.3895 55.9529 91.8375 56.9457 92.2962C58.1868 92.8712 59.4068 93.48 60.6228 94.0995C61.8353 94.7298 63.0436 95.3662 64.2309 96.0415C65.4228 96.7117 66.6025 97.4034 67.7499 98.1617Z" fill="white"/>
<path d="M172.21 127.418L164.322 160.75L216.881 173.188L224.769 139.857L172.21 127.418Z" fill="#EBEBEB"/>
<path d="M224.779 139.861C222.175 141.389 219.553 142.821 216.941 144.313C214.323 145.758 211.698 147.201 209.069 148.62C206.326 150.104 203.58 151.563 200.836 153.013C200.75 153.06 200.672 153.11 200.585 153.158C198.158 154.432 195.723 155.705 193.288 156.977L192.93 157.153L192.696 156.837C191.09 154.608 189.492 152.381 187.896 150.143C187.838 150.072 187.782 149.991 187.726 149.91C185.916 147.383 184.115 144.847 182.33 142.281C180.623 139.846 178.923 137.379 177.231 134.914C175.565 132.41 173.862 129.954 172.22 127.421C174.065 129.695 175.851 132.046 177.662 134.358C179.459 136.7 181.255 139.042 183.027 141.413C185.007 144.037 186.979 146.693 188.938 149.368C188.945 149.37 188.945 149.37 188.951 149.383C190.422 151.376 191.889 153.379 193.357 155.383C195.56 154.248 197.772 153.104 199.977 151.993C199.991 151.973 199.991 151.973 199.998 151.975C202.947 150.472 205.892 148.98 208.848 147.513C211.493 146.199 214.143 144.898 216.796 143.621C219.46 142.369 222.11 141.067 224.779 139.861Z" fill="white"/>
<path d="M188.837 150.146C188.81 150.157 188.789 150.177 188.761 150.187C188.429 150.358 188.097 150.529 187.766 150.693C186.184 151.494 184.582 152.24 182.964 152.949C180.988 153.832 178.986 154.65 176.977 155.458C174.967 156.241 172.95 157.013 170.905 157.73C168.86 158.446 166.805 159.135 164.709 159.714C166.634 158.694 168.6 157.784 170.574 156.909C172.558 156.029 174.561 155.211 176.561 154.401C178.582 153.612 180.598 152.839 182.643 152.123C184.271 151.55 185.918 150.998 187.585 150.508C187.971 150.391 188.355 150.282 188.747 150.175C188.775 150.165 188.81 150.157 188.837 150.146Z" fill="white"/>
<path d="M217.016 172.095C215.402 170.638 213.866 169.099 212.367 167.544C210.861 165.987 209.404 164.392 207.95 162.789C206.517 161.166 205.094 159.537 203.723 157.862C202.602 156.505 201.503 155.128 200.456 153.705C200.228 153.401 200.008 153.099 199.788 152.797C199.768 152.775 199.757 152.748 199.737 152.727C199.757 152.748 199.785 152.771 199.807 152.785C200.108 153.064 200.402 153.334 200.695 153.612C201.965 154.796 203.182 156.026 204.388 157.27C205.895 158.827 207.351 160.422 208.796 162.031C210.229 163.653 211.652 165.282 213.023 166.957C214.404 168.626 215.753 170.32 217.016 172.095Z" fill="white"/>
<path d="M213.288 19.9478H182.257V39.627H213.288V19.9478Z" fill="#EBEBEB"/>
<path d="M213.288 19.9478C212.035 21.1463 210.758 22.2943 209.495 23.4739C208.222 24.6279 206.946 25.7825 205.664 26.9238C204.327 28.1162 202.985 29.2953 201.642 30.4688C201.601 30.5067 201.563 30.5451 201.522 30.583C200.333 31.6167 199.14 32.6505 197.947 33.6842L197.77 33.8301L197.598 33.6842C196.405 32.6505 195.216 31.6167 194.028 30.5769C193.986 30.5451 193.944 30.5072 193.902 30.4694C192.556 29.2958 191.213 28.1167 189.876 26.9181C188.599 25.783 187.322 24.629 186.05 23.4744C184.787 22.2948 183.51 21.1469 182.257 19.9483C183.589 20.9758 184.899 22.0536 186.217 23.1063C187.532 24.1779 188.846 25.25 190.151 26.3406C191.605 27.5453 193.058 28.7695 194.508 30.006C194.512 30.006 194.512 30.006 194.517 30.0127C195.603 30.9322 196.688 31.8579 197.774 32.7841C198.856 31.8584 199.941 30.9261 201.027 30.0127C201.032 29.9999 201.032 29.9999 201.036 29.9999C202.486 28.7695 203.935 27.5458 205.393 26.3344C206.698 25.25 208.008 24.1718 209.322 23.1063C210.646 22.0531 211.955 20.9753 213.288 19.9478Z" fill="white"/>
<path d="M194.555 30.4541C194.541 30.4633 194.531 30.4777 194.517 30.4869C194.354 30.6266 194.191 30.7664 194.028 30.9016C193.25 31.5585 192.453 32.1877 191.642 32.798C190.654 33.5527 189.643 34.2752 188.627 34.993C187.607 35.6965 186.581 36.3959 185.533 37.0666C184.484 37.7378 183.427 38.3947 182.331 38.9958C183.273 38.171 184.251 37.4019 185.239 36.6519C186.232 35.8972 187.243 35.1747 188.254 34.4569C189.279 33.7488 190.305 33.0494 191.353 32.3787C192.187 31.8426 193.035 31.3163 193.902 30.8222C194.102 30.7055 194.303 30.5939 194.508 30.4818C194.522 30.473 194.541 30.4638 194.555 30.4541Z" fill="white"/>
<path d="M213.214 38.9958C212.119 38.3947 211.056 37.7378 210.012 37.0666C208.964 36.3953 207.939 35.6965 206.913 34.993C205.897 34.2752 204.886 33.5532 203.898 32.798C203.092 32.1877 202.295 31.5631 201.521 30.9062C201.353 30.7664 201.19 30.6266 201.027 30.4869C201.013 30.4777 201.004 30.4633 200.99 30.4541C201.004 30.4633 201.022 30.4725 201.036 30.4777C201.242 30.5939 201.442 30.706 201.642 30.8227C202.509 31.3168 203.352 31.8432 204.191 32.3792C205.24 33.0505 206.265 33.7493 207.285 34.4574C208.301 35.1753 209.312 35.8977 210.3 36.6524C211.294 37.4025 212.272 38.171 213.214 38.9958Z" fill="white"/>
<path d="M127.893 242.756C183.975 242.756 229.439 233.161 229.439 221.324C229.439 209.488 183.975 199.893 127.893 199.893C71.8107 199.893 26.347 209.488 26.347 221.324C26.347 233.161 71.8107 242.756 127.893 242.756Z" fill="#EBEBEB"/>
<path d="M20.4646 189.899L47.3487 189.775L74.2323 189.73L128 189.644L181.768 189.729L208.651 189.774L235.535 189.899L208.651 190.024L181.768 190.07L128 190.155L74.2323 190.069L47.3487 190.024L20.4646 189.899Z" fill="#263238"/>
<path d="M199.018 158.691C199.018 158.691 190.523 156.765 185.867 152.475C181.211 148.186 178.61 140.5 178.61 140.5C178.61 140.5 183.61 141.415 188.137 143.002C188.897 143.815 190.344 145.491 191.019 147.078C191.019 147.078 191.162 145.402 191.042 144.164C192.252 144.723 193.307 145.339 194.067 146.001C197.927 149.379 199.018 158.691 199.018 158.691Z" fill="#7C7A48"/>
<path d="M183.914 144.234C182.756 143.433 181.577 142.661 180.424 141.852C180.355 141.803 180.42 141.694 180.494 141.738C182.684 143.046 184.841 144.443 186.929 145.907C187.657 146.417 188.372 146.948 189.079 147.489C189.029 147.405 188.98 147.321 188.931 147.237C188.676 146.811 188.407 146.392 188.139 145.974C187.598 145.133 187.009 144.306 186.335 143.566C186.31 143.539 186.353 143.498 186.377 143.526C187.038 144.289 187.698 145.044 188.303 145.853C188.59 146.238 188.856 146.636 189.11 147.044C189.242 147.255 189.369 147.468 189.492 147.685C189.533 147.758 189.577 147.831 189.619 147.905C190.717 148.767 191.787 149.666 192.808 150.618C193.438 151.204 194.046 151.813 194.633 152.441C194.305 151.413 194.017 150.373 193.636 149.361C193.624 149.326 193.68 149.311 193.692 149.347C194.062 150.409 194.467 151.476 194.753 152.566C195.404 153.269 196.026 153.998 196.612 154.756C196.602 154.71 196.592 154.663 196.581 154.618C196.485 154.217 196.385 153.818 196.278 153.42C196.071 152.652 195.845 151.888 195.586 151.135C195.055 149.592 194.365 148.081 193.304 146.825C193.28 146.797 193.322 146.757 193.346 146.785C195.005 148.75 195.979 151.106 196.599 153.579C196.69 153.941 196.776 154.304 196.858 154.668C196.902 154.861 196.953 155.057 196.986 155.255C197.242 155.602 197.495 155.953 197.736 156.312C199.211 158.506 200.361 160.905 201.33 163.36C202.422 166.126 203.271 168.982 204.053 171.848C204.068 171.904 203.984 171.923 203.966 171.869C202.305 166.898 200.608 161.857 197.764 157.413C197.163 156.475 196.513 155.571 195.824 154.699C194.426 154.62 193.016 154.317 191.693 153.876C190.229 153.388 188.848 152.712 187.553 151.877C186.805 151.394 186.123 150.831 185.431 150.274C185.399 150.247 185.435 150.202 185.467 150.229C186.616 151.2 187.997 151.962 189.361 152.585C190.732 153.211 192.174 153.701 193.647 154.022C194.274 154.159 194.91 154.26 195.546 154.346C194.761 153.379 193.924 152.454 193.041 151.571C192.755 151.285 192.457 151.011 192.163 150.734C191.187 150.022 190.106 149.459 189.022 148.936C187.631 148.263 186.26 147.55 184.883 146.85C184.105 146.455 183.333 146.05 182.55 145.667C182.517 145.651 182.547 145.602 182.58 145.618C183.976 146.292 185.394 146.922 186.804 147.568C188.13 148.176 189.472 148.786 190.745 149.501C190.8 149.532 190.851 149.565 190.905 149.597C189.754 148.595 188.563 147.64 187.344 146.72C186.217 145.87 185.075 145.038 183.914 144.234Z" fill="#263238"/>
<path d="M184.397 148.614C185.087 148.918 185.791 149.186 186.475 149.505C187.178 149.834 187.845 150.219 188.512 150.614C188.541 150.632 188.514 150.673 188.485 150.659C187.807 150.335 187.121 150.032 186.45 149.694C185.763 149.348 185.084 148.979 184.38 148.67C184.347 148.655 184.363 148.599 184.397 148.614Z" fill="#263238"/>
<path d="M226.614 115.88C226.614 115.88 224.229 118.612 224.075 122.936C224.048 123.698 224.167 124.759 224.256 126.008C221.089 127.699 218.713 130.746 218.713 130.746C220.512 129.665 222.982 129.228 224.314 129.405C224.269 130.226 224.172 131.079 223.99 131.943C223.401 131.91 222.265 131.988 220.387 132.656C220.387 132.656 222.231 132.609 223.636 133.302C222.122 138.119 217.62 143.069 205.191 145.17C205.191 145.17 202.793 136.732 207.393 127.679C211.117 120.353 226.614 115.88 226.614 115.88Z" fill="#7C7A48"/>
<path d="M200.889 165.784C201.105 163.726 201.376 161.673 201.694 159.628C202.33 155.537 203.154 151.468 204.2 147.461C204.694 145.571 205.285 143.721 205.995 141.917C205.948 141.59 205.956 141.249 205.948 140.922C205.94 140.524 205.938 140.126 205.942 139.728C205.951 138.932 205.988 138.137 206.056 137.344C206.19 135.777 206.429 134.208 206.82 132.683C207.048 131.798 207.312 130.926 207.571 130.05C207.582 130.014 207.638 130.031 207.627 130.067C207.187 131.582 206.934 133.159 206.709 134.718C206.486 136.263 206.348 137.823 206.291 139.382C206.276 139.809 206.268 140.237 206.267 140.665C206.267 140.845 206.275 141.03 206.282 141.213C206.894 139.734 207.584 138.286 208.376 136.878C209.629 134.652 211.068 132.536 212.631 130.514C212.616 130.283 212.686 130.041 212.732 129.818C212.791 129.541 212.851 129.263 212.913 128.986C213.041 128.419 213.183 127.854 213.337 127.293C213.646 126.166 214.054 125.078 214.406 123.966C214.417 123.931 214.472 123.947 214.461 123.983C214.133 125.084 213.915 126.224 213.663 127.345C213.538 127.899 213.417 128.454 213.295 129.009C213.234 129.286 213.175 129.564 213.118 129.842C213.114 129.862 213.11 129.883 213.107 129.904C213.609 129.27 214.121 128.644 214.646 128.03C217.019 125.247 219.621 122.679 222.241 120.13C222.563 119.816 222.893 119.511 223.219 119.202C223.246 119.176 223.285 119.217 223.259 119.244C220.756 121.855 218.291 124.497 215.958 127.261C215.403 127.918 214.857 128.583 214.32 129.257C214.602 129.065 214.887 128.879 215.168 128.695C215.891 128.221 216.624 127.761 217.378 127.339C218.132 126.916 218.892 126.503 219.667 126.119C220.464 125.724 221.316 125.402 222.085 124.955C222.117 124.936 222.146 124.992 222.113 125.006C221.32 125.331 220.579 125.827 219.845 126.262C219.088 126.711 218.333 127.163 217.59 127.634C216.859 128.097 216.125 128.555 215.399 129.026C214.795 129.418 214.199 129.848 213.573 130.211C212.139 132.068 210.792 133.991 209.59 136.006C208.834 137.276 208.15 138.579 207.532 139.91C207.681 139.845 207.831 139.782 207.977 139.716C208.357 139.548 208.736 139.379 209.116 139.211C209.847 138.886 210.581 138.57 211.315 138.251C212.708 137.645 214.125 137.088 215.492 136.423C216.258 136.05 217.013 135.657 217.723 135.183C217.754 135.163 217.781 135.213 217.751 135.234C215.203 136.99 212.345 138.228 209.525 139.476L208.302 140.017C207.966 140.166 207.629 140.332 207.283 140.462C206.451 142.326 205.747 144.245 205.181 146.222C204.049 150.17 203.187 154.203 202.477 158.247C201.764 162.306 201.282 166.394 200.909 170.497C200.862 171.01 200.816 171.521 200.758 172.033C200.735 172.237 200.432 172.236 200.435 172.025C200.458 169.942 200.671 167.854 200.889 165.784Z" fill="#263238"/>
<path d="M208.451 131.458C208.678 130.195 209.015 128.959 209.355 127.722C209.365 127.686 209.42 127.703 209.411 127.739C209.096 128.953 208.871 130.191 208.643 131.424C208.411 132.68 208.205 133.942 208.028 135.207C208.025 135.229 207.991 135.229 207.993 135.206C208.076 133.948 208.227 132.699 208.451 131.458Z" fill="#263238"/>
<path d="M213.807 134.886C214.649 134.289 215.596 133.838 216.51 133.365C216.964 133.131 217.422 132.908 217.881 132.686C218.354 132.457 218.846 132.265 219.315 132.029C219.348 132.012 219.376 132.063 219.343 132.08C218.888 132.308 218.457 132.584 218.011 132.827C217.55 133.078 217.093 133.334 216.63 133.582C215.721 134.07 214.828 134.612 213.874 135.007C213.791 135.042 213.734 134.937 213.807 134.886Z" fill="#263238"/>
<path opacity="0.1" d="M198.863 143.976C198.863 143.976 191.003 142.098 187.393 136.825C183.946 131.789 182.832 123.204 182.744 122.449C182.885 123.141 184.507 130.644 189.859 134.139C193.956 136.817 197.916 139.018 198.863 143.976Z" fill="#263238"/>
<path d="M191.608 130.394C192.991 131.726 194.029 133.293 194.506 135.167C194.51 135.183 194.487 135.192 194.482 135.175C193.891 133.43 192.916 131.71 191.57 130.437C191.543 130.411 191.582 130.368 191.608 130.394Z" fill="#263238"/>
<path d="M198.863 143.976C198.863 143.976 191.003 142.098 187.393 136.825C183.946 131.789 182.832 123.204 182.744 122.449C182.736 122.414 182.735 122.396 182.735 122.396C182.735 122.396 186.504 127.755 190.467 129.122C194.43 130.488 199.999 135.216 198.863 143.976Z" fill="#7C7A48"/>
<path d="M184.128 125.352C184.857 126.782 185.622 128.2 186.558 129.507C187.47 130.779 188.569 131.863 189.792 132.834C190.859 133.683 191.988 134.451 193.07 135.282C193.061 135.27 193.054 135.256 193.045 135.243C192.842 134.942 192.626 134.649 192.402 134.364C191.952 133.788 191.46 133.246 190.965 132.709C189.988 131.649 188.991 130.61 188.115 129.462C187.631 128.827 187.205 128.151 186.855 127.432C186.839 127.399 186.894 127.38 186.91 127.413C188.185 130.07 190.731 131.77 192.548 134.014C192.807 134.333 193.051 134.662 193.275 135.007C193.433 135.25 193.625 135.521 193.727 135.806C194.716 136.616 195.63 137.499 196.409 138.517C196.343 138.001 196.231 137.486 196.094 136.99C195.898 136.286 195.643 135.625 195.261 135C195.241 134.968 195.29 134.936 195.309 134.967C195.677 135.587 196.012 136.256 196.226 136.945C196.4 137.506 196.481 138.067 196.512 138.643C196.514 138.645 196.515 138.646 196.516 138.648C196.909 139.175 197.257 139.729 197.579 140.299C197.546 140.131 197.514 139.963 197.481 139.796C197.325 139.012 197.152 138.231 196.949 137.459C196.537 135.893 195.98 134.374 195.058 133.03C195.037 132.999 195.085 132.968 195.106 132.998C196.016 134.324 196.705 135.804 197.201 137.331C197.452 138.102 197.653 138.887 197.829 139.678C197.915 140.064 197.993 140.453 198.067 140.842C198.106 141.043 198.149 141.249 198.182 141.456C198.985 143.154 199.549 144.976 199.995 146.785C200.797 150.043 201.296 153.393 201.671 156.724C202.064 160.222 202.27 163.758 202.213 167.278C202.206 167.72 202.18 168.161 202.156 168.603C202.149 168.717 201.979 168.733 201.974 168.613C201.897 166.869 201.851 165.123 201.748 163.381C201.645 161.636 201.493 159.896 201.306 158.158C200.94 154.749 200.411 151.344 199.668 147.996C199.031 145.122 198.204 142.229 196.634 139.711C195.846 138.449 194.905 137.332 193.798 136.339C192.695 135.349 191.491 134.483 190.328 133.566C189.173 132.655 188.061 131.662 187.145 130.506C186.156 129.258 185.377 127.858 184.645 126.449C184.46 126.092 184.27 125.739 184.082 125.383C184.062 125.351 184.111 125.319 184.128 125.352Z" fill="#263238"/>
<path d="M185.485 126.505C185.989 127.569 186.595 128.58 187.236 129.567C187.251 129.59 187.216 129.613 187.199 129.591C186.515 128.625 185.945 127.588 185.429 126.524C185.414 126.49 185.469 126.471 185.485 126.505Z" fill="#263238"/>
<path d="M227.71 140.5C227.71 140.5 227.835 151.67 221.155 154.895C214.476 158.125 210.894 155.434 206.356 156.514C206.356 156.514 206.361 156.514 206.364 156.508C206.54 156.242 209.779 151.586 214.931 150.304C220.231 148.982 226.103 145.154 227.71 140.5Z" fill="#7C7A48"/>
<path opacity="0.1" d="M227.71 140.5C227.71 140.5 227.835 151.67 221.155 154.895C214.476 158.125 210.894 155.434 206.356 156.514C206.356 156.514 206.361 156.514 206.364 156.508C206.553 156.417 209.866 154.759 213.958 154.268C218.169 153.761 226.215 151.017 227.71 140.5Z" fill="black"/>
<path d="M205.916 156.713C206.713 155.995 207.605 155.377 208.573 154.913C208.716 154.845 208.864 154.789 209.009 154.728C209.08 154.638 209.155 154.553 209.233 154.471C209.434 154.262 209.642 154.062 209.862 153.873C210.282 153.514 210.729 153.184 211.206 152.904C212.312 152.254 213.525 151.799 214.657 151.194C214.689 151.177 214.717 151.227 214.685 151.245C214.126 151.535 213.584 151.856 213.04 152.173C212.51 152.482 211.969 152.777 211.454 153.109C210.992 153.408 210.546 153.737 210.132 154.1C210.015 154.203 209.902 154.314 209.789 154.428C210.526 154.176 211.282 153.983 212.046 153.828C213.269 153.581 214.506 153.407 215.726 153.146C216.326 153.018 216.918 152.859 217.499 152.668C218.053 152.222 218.606 151.778 219.131 151.295C219.765 150.71 220.347 150.075 220.857 149.38C220.879 149.35 220.93 149.381 220.907 149.41C220.082 150.474 219.198 151.546 218.168 152.432C218.456 152.323 218.741 152.206 219.022 152.078C221.292 151.047 223.311 149.409 224.714 147.342C224.735 147.312 224.784 147.342 224.763 147.373C223.541 149.143 221.989 150.658 220.159 151.793C219.241 152.362 218.274 152.827 217.25 153.169C216.073 153.563 214.852 153.796 213.635 154.024C212.443 154.247 211.246 154.475 210.095 154.866C209.03 155.228 208.027 155.753 207.126 156.428C205.407 157.716 204.077 159.477 203.124 161.391C201.86 163.927 201.255 166.762 200.92 169.559C200.905 169.679 200.72 169.679 200.729 169.555C201.041 164.86 202.296 159.973 205.916 156.713Z" fill="#263238"/>
<path d="M213.667 153.07C214.001 152.537 214.501 152.137 215.041 151.825C215.671 151.461 216.237 151.068 216.674 150.474C216.696 150.444 216.745 150.475 216.723 150.504C216.319 151.023 215.836 151.448 215.281 151.796C214.697 152.162 214.11 152.52 213.709 153.096C213.691 153.122 213.65 153.097 213.667 153.07Z" fill="#263238"/>
<path d="M210.124 164.958L209.82 171.1L208.888 189.868H194.876L193.945 171.1L193.64 164.958H210.124Z" fill="#FE812D"/>
<path d="M210.124 164.958L209.82 171.1H193.945L193.64 164.958H210.124Z" fill="#263238"/>
<path d="M211.106 162.394H192.658V168.254H211.106V162.394Z" fill="#FE812D"/>
<path d="M169.66 27.9277H86.1158C81.451 27.9277 77.6653 31.7775 77.6653 36.536V208.512C77.6653 213.26 81.4505 217.12 86.1158 217.12H169.66C174.325 217.12 178.12 213.26 178.12 208.512V36.536C178.12 31.7769 174.325 27.9277 169.66 27.9277ZM172.833 203.195C172.833 207.721 169.443 211.383 165.262 211.383H90.5236C86.3329 211.383 82.943 207.721 82.943 203.195V43.0543C82.943 33.8331 86.3329 33.3831 90.5236 33.3831H105.497C106.367 33.3831 107.079 34.3713 107.079 35.597V36.1259C107.079 38.9972 108.65 39.0069 110.577 39.0069H145.199C147.146 39.0069 148.707 38.9972 148.707 36.1259V35.597C148.707 34.3713 149.409 33.3831 150.293 33.3831H165.262C169.442 33.3831 172.832 34.6088 172.832 43.0543V203.195H172.833Z" fill="#263238"/>
<path d="M172.838 43.1951V203.335C172.838 207.862 169.448 211.524 165.267 211.524H90.5288C86.338 211.524 82.9481 207.862 82.9481 203.335V43.1951C82.9481 33.974 86.338 33.5244 90.5288 33.5244H105.502C106.372 33.5244 107.083 34.5126 107.083 35.7383V36.2672C107.083 39.1385 108.655 39.1482 110.582 39.1482H145.204C147.151 39.1482 148.712 39.1385 148.712 36.2672V35.7378C148.712 34.5121 149.414 33.5239 150.299 33.5239H165.267C169.447 33.5239 172.838 34.7497 172.838 43.1951Z" fill="white"/>
<path d="M172.838 43.1965V57.725H82.9481V43.1965C82.9481 33.9754 86.338 33.5259 90.5288 33.5259H105.502C106.372 33.5259 107.083 34.514 107.083 35.7398V36.2687C107.083 39.14 108.655 39.1497 110.582 39.1497H145.203C147.15 39.1497 148.712 39.14 148.712 36.2687V35.7398C148.712 34.514 149.413 33.5259 150.298 33.5259H165.266C169.447 33.5259 172.838 34.7516 172.838 43.1965Z" fill="#7C7A48"/>
<path d="M132.613 35.4202H123.169C122.847 35.4202 122.586 35.1591 122.586 34.8371C122.586 34.515 122.847 34.2539 123.169 34.2539H132.613C132.935 34.2539 133.196 34.515 133.196 34.8371C133.196 35.1596 132.935 35.4202 132.613 35.4202Z" fill="white"/>
<path d="M102.912 36.9801C102.864 37.0277 102.815 37.0758 102.767 37.124C102.74 37.1511 102.712 37.1787 102.685 37.2064C102.297 36.829 101.834 36.6283 101.292 36.6278C100.75 36.6278 100.287 36.828 99.8963 37.2079C99.8707 37.1808 99.8446 37.1531 99.818 37.1265C99.7709 37.0784 99.7227 37.0308 99.6751 36.9832C99.6741 36.9821 99.6721 36.9816 99.6705 36.9806C99.6705 36.9796 99.6705 36.978 99.6705 36.977C99.6741 36.9739 99.6777 36.9714 99.6813 36.9683C99.7422 36.914 99.8016 36.8582 99.8641 36.8065C99.9936 36.6995 100.136 36.6109 100.287 36.5367C100.466 36.4491 100.652 36.3841 100.848 36.3483C100.94 36.3314 101.034 36.3227 101.128 36.3109C101.159 36.3068 101.367 36.3063 101.373 36.3068C101.436 36.3114 101.5 36.3145 101.564 36.3211C101.741 36.3401 101.912 36.3831 102.078 36.444C102.199 36.4881 102.314 36.5428 102.426 36.6068C102.544 36.6744 102.655 36.7512 102.758 36.8393C102.811 36.8838 102.86 36.9309 102.911 36.9765C102.912 36.9775 102.912 36.9791 102.912 36.9801Z" fill="white"/>
<path d="M100.356 37.6605C100.279 37.5847 100.204 37.5105 100.127 37.4337C100.387 37.1782 100.695 37.0159 101.057 36.9667C101.597 36.8935 102.062 37.0579 102.455 37.4306C102.377 37.5079 102.302 37.5832 102.226 37.659C101.967 37.4081 101.656 37.2724 101.291 37.2724C100.926 37.2729 100.616 37.4081 100.356 37.6605Z" fill="white"/>
<path d="M101.998 37.8889C101.922 37.9642 101.847 38.0394 101.77 38.1162C101.639 37.9882 101.479 37.9176 101.291 37.9176C101.104 37.9176 100.944 37.9882 100.812 38.1172C100.735 38.041 100.66 37.9657 100.585 37.8904C100.946 37.511 101.597 37.4808 101.998 37.8889Z" fill="white"/>
<path d="M101.497 38.3225C101.497 38.4362 101.405 38.5278 101.292 38.5278C101.178 38.5278 101.086 38.4357 101.086 38.3225C101.086 38.2093 101.178 38.1172 101.292 38.1172C101.405 38.1172 101.497 38.2093 101.497 38.3225Z" fill="white"/>
<path d="M88.8064 37.4172C88.8064 37.0885 89.0732 36.8218 89.4024 36.8218C89.7316 36.8218 89.9978 37.0885 89.9978 37.4172C89.9978 37.7465 89.7311 38.0132 89.4024 38.0132C89.0732 38.0127 88.8064 37.7459 88.8064 37.4172Z" fill="white"/>
<path d="M90.6829 37.4172C90.6829 37.0885 90.9496 36.8218 91.2789 36.8218C91.6081 36.8218 91.8743 37.0885 91.8743 37.4172C91.8743 37.7465 91.6076 38.0132 91.2789 38.0132C90.9496 38.0127 90.6829 37.7459 90.6829 37.4172Z" fill="white"/>
<path d="M92.5594 37.4172C92.5594 37.0885 92.8261 36.8218 93.1548 36.8218C93.484 36.8218 93.7503 37.0885 93.7503 37.4172C93.7503 37.7465 93.4835 38.0132 93.1548 38.0132C92.8261 38.0127 92.5594 37.7459 92.5594 37.4172Z" fill="white"/>
<path d="M94.4358 37.4172C94.4358 37.0885 94.7026 36.8218 95.0313 36.8218C95.3605 36.8218 95.6273 37.0885 95.6273 37.4172C95.6273 37.7465 95.3605 38.0132 95.0313 38.0132C94.7026 38.0127 94.4358 37.7459 94.4358 37.4172Z" fill="white"/>
<path d="M96.3118 37.4172C96.3118 37.0885 96.5786 36.8218 96.9073 36.8218C97.2365 36.8218 97.5027 37.0885 97.5027 37.4172C97.5027 37.7465 97.236 38.0132 96.9073 38.0132C96.5786 38.0127 96.3118 37.7459 96.3118 37.4172Z" fill="white"/>
<path d="M166.091 38.7174H161.242V36.4707H166.091V38.7174ZM161.489 38.4706H165.844V36.7185H161.489V38.4706Z" fill="white"/>
<path d="M164.77 36.8525H161.644V38.3358H164.77V36.8525Z" fill="white"/>
<path d="M166.526 36.9937H166.094V38.1953H166.526V36.9937Z" fill="white"/>
<path d="M91.4621 52.167L88.8064 49.6787L91.4621 47.1909L91.8743 47.6297L89.6876 49.6787L91.8743 51.7283L91.4621 52.167Z" fill="white"/>
<path d="M164.684 52.3468H162.893V51.7247C162.893 51.672 162.863 51.6239 162.813 51.5988C162.745 51.564 162.679 51.5251 162.615 51.4836C162.567 51.4519 162.51 51.4503 162.465 51.4764L161.924 51.7877L161.03 50.2374L161.57 49.9256C161.615 49.9 161.64 49.8488 161.638 49.7925C161.636 49.7535 161.635 49.7162 161.635 49.6783C161.635 49.6409 161.636 49.6035 161.637 49.5662C161.64 49.5078 161.614 49.4561 161.57 49.4305L161.03 49.1197L161.924 47.5694L162.464 47.8807C162.508 47.9068 162.566 47.9047 162.613 47.874C162.678 47.832 162.744 47.7936 162.813 47.7583C162.863 47.7332 162.893 47.6851 162.893 47.6323V47.0103H164.684V47.6323C164.684 47.6851 164.715 47.7332 164.763 47.7583C164.832 47.7936 164.899 47.832 164.963 47.874C165.01 47.9047 165.067 47.9068 165.113 47.8807L165.652 47.5694L166.547 49.1197L166.006 49.431C165.961 49.4566 165.935 49.5078 165.938 49.5651C165.94 49.6035 165.941 49.6409 165.941 49.6783C165.941 49.7157 165.94 49.753 165.938 49.7899C165.935 49.8478 165.961 49.8984 166.005 49.924L166.546 50.2369L165.652 51.7872L165.112 51.4759C165.066 51.4498 165.009 51.4524 164.963 51.4826C164.899 51.5246 164.832 51.5635 164.763 51.5983C164.714 51.6229 164.684 51.6715 164.684 51.7242V52.3468ZM163.277 51.9628H164.3V51.7247C164.3 51.5266 164.411 51.3474 164.59 51.2568C164.645 51.2281 164.7 51.1964 164.752 51.1621C164.921 51.052 165.132 51.0448 165.304 51.1441L165.511 51.2634L166.022 50.3782L165.813 50.2574C165.643 50.1596 165.544 49.9732 165.555 49.772L165.557 49.6788L165.554 49.5836C165.544 49.3834 165.643 49.197 165.814 49.0987L166.022 48.9789L165.511 48.0936L165.305 48.2129C165.133 48.3118 164.921 48.3051 164.753 48.1955C164.701 48.1612 164.646 48.1295 164.59 48.1008C164.411 48.0102 164.3 47.831 164.3 47.6323V47.3943H163.277V47.6323C163.277 47.8305 163.166 48.0097 162.988 48.1008C162.931 48.1295 162.876 48.1612 162.824 48.1955C162.655 48.3056 162.444 48.3128 162.272 48.2129L162.066 48.0936L161.555 48.9789L161.762 49.0982C161.933 49.1965 162.032 49.3829 162.022 49.5846L162.019 49.6783L162.022 49.7745C162.032 49.9742 161.933 50.1601 161.763 50.2584L161.555 50.3782L162.066 51.2634L162.273 51.1441C162.446 51.0448 162.657 51.052 162.825 51.1621C162.877 51.1964 162.932 51.2281 162.988 51.2568C163.167 51.3479 163.278 51.5271 163.278 51.7247V51.9628H163.277ZM163.788 51.0218C163.047 51.0218 162.445 50.4191 162.445 49.6788C162.445 48.9374 163.047 48.3348 163.788 48.3348C164.529 48.3348 165.132 48.9379 165.132 49.6788C165.132 50.4197 164.53 51.0218 163.788 51.0218ZM163.788 48.7188C163.259 48.7188 162.829 49.1494 162.829 49.6788C162.829 50.2077 163.259 50.6378 163.788 50.6378C164.317 50.6378 164.748 50.2077 164.748 49.6788C164.748 49.1494 164.318 48.7188 163.788 48.7188Z" fill="white"/>
<path d="M159.966 154.46H95.8203V100.197L127.888 79.833L159.966 100.197V154.46Z" fill="#7C7A48"/>
<path opacity="0.2" d="M159.966 154.46H95.8203V100.197L127.888 79.833L159.966 100.197V154.46Z" fill="black"/>
<path d="M156.348 150.308H99.4376V77.252H141.694L156.348 91.1722V150.308Z" fill="#EBEBEB"/>
<path d="M141.694 77.252L156.348 91.1722H141.694V77.252Z" fill="#DBDBDB"/>
<path d="M104.99 91.3857H136.632V89.5098H104.99V91.3857Z" fill="#DBDBDB"/>
<path d="M104.99 96.1206H136.632V94.2446H104.99V96.1206Z" fill="#DBDBDB"/>
<path d="M104.99 100.855H136.632V98.9795H104.99V100.855Z" fill="#DBDBDB"/>
<path d="M104.99 105.59H151.35V103.714H104.99V105.59Z" fill="#DBDBDB"/>
<path d="M104.99 110.326H151.35V108.45H104.99V110.326Z" fill="#DBDBDB"/>
<path d="M104.99 115.061H151.35V113.185H104.99V115.061Z" fill="#DBDBDB"/>
<path d="M104.99 119.795H151.35V117.919H104.99V119.795Z" fill="#DBDBDB"/>
<path d="M104.99 124.531H151.35V122.655H104.99V124.531Z" fill="#DBDBDB"/>
<path d="M104.99 129.266H151.35V127.39H104.99V129.266Z" fill="#DBDBDB"/>
<path d="M104.99 134H151.35V132.125H104.99V134Z" fill="#DBDBDB"/>
<path d="M104.99 138.735H151.35V136.859H104.99V138.735Z" fill="#DBDBDB"/>
<path d="M104.99 143.471H151.35V141.595H104.99V143.471Z" fill="#DBDBDB"/>
<path d="M159.966 113.78V154.46H95.8203V113.78C98.5754 115.34 101.282 116.978 104.008 118.577C106.725 120.205 109.441 121.833 112.138 123.489C115.144 125.32 118.149 127.179 121.145 129.057C121.174 129.038 121.212 129.019 121.241 128.999C121.212 129.018 121.193 129.048 121.164 129.067C123.408 130.464 125.653 131.87 127.898 133.277C130.132 131.87 132.377 130.454 134.621 129.067C134.593 129.048 134.573 129.019 134.544 128.999C134.574 129.018 134.612 129.038 134.641 129.048C137.636 127.179 140.633 125.32 143.647 123.48C146.344 121.833 149.051 120.195 151.768 118.577C154.504 116.978 157.211 115.34 159.966 113.78Z" fill="#7C7A48"/>
<g opacity="0.2">
<path d="M159.966 113.78C157.374 115.6 154.735 117.344 152.124 119.136C149.494 120.889 146.855 122.642 144.206 124.376C141.441 126.187 138.667 127.979 135.892 129.761C135.806 129.819 135.729 129.877 135.642 129.934C133.186 131.505 130.72 133.075 128.253 134.645L127.887 134.867L127.531 134.645C125.065 133.074 122.609 131.504 120.152 129.925C120.066 129.877 119.978 129.819 119.892 129.761C117.108 127.979 114.334 126.187 111.569 124.366C108.93 122.642 106.29 120.889 103.66 119.136C101.049 117.344 98.41 115.6 95.8187 113.78C98.5738 115.34 101.281 116.978 104.007 118.577C106.723 120.205 109.439 121.833 112.137 123.489C115.142 125.32 118.148 127.179 121.143 129.057C121.153 129.057 121.153 129.057 121.163 129.067C123.407 130.464 125.651 131.87 127.896 133.277C130.131 131.87 132.376 130.454 134.62 129.067C134.629 129.048 134.629 129.048 134.639 129.048C137.635 127.179 140.631 125.32 143.646 123.48C146.343 121.833 149.05 120.195 151.767 118.577C154.504 116.978 157.211 115.34 159.966 113.78Z" fill="black"/>
<path d="M121.241 129C121.212 129.019 121.193 129.048 121.164 129.068C120.827 129.356 120.49 129.646 120.153 129.925C118.544 131.283 116.897 132.583 115.22 133.846C113.178 135.406 111.088 136.899 108.988 138.382C106.878 139.837 104.759 141.282 102.591 142.669C100.424 144.056 98.2374 145.414 95.9734 146.657C97.9195 144.952 99.9419 143.363 101.984 141.811C104.036 140.251 106.126 138.758 108.217 137.274C110.336 135.81 112.455 134.365 114.622 132.978C116.347 131.87 118.1 130.781 119.892 129.76C120.306 129.52 120.72 129.288 121.144 129.057C121.174 129.038 121.212 129.019 121.241 129Z" fill="black"/>
<path d="M159.812 146.657C157.548 145.415 155.352 144.056 153.194 142.669C151.027 141.282 148.908 139.837 146.788 138.383C144.688 136.9 142.598 135.406 140.555 133.846C138.889 132.584 137.242 131.293 135.643 129.935C135.296 129.646 134.959 129.357 134.621 129.068C134.593 129.049 134.573 129.02 134.544 129C134.574 129.019 134.612 129.039 134.641 129.049C135.065 129.289 135.479 129.521 135.893 129.761C137.685 130.782 139.428 131.871 141.162 132.979C143.33 134.366 145.449 135.811 147.558 137.275C149.659 138.758 151.749 140.252 153.791 141.812C155.843 143.363 157.866 144.952 159.812 146.657Z" fill="black"/>
</g>
<path d="M105.167 169.289H95.8203V178.636H105.167V169.289Z" fill="#EBEBEB"/>
<path d="M118.829 169.289H109.481V178.636H118.829V169.289Z" fill="#EBEBEB"/>
<path d="M132.49 169.289H123.143V178.636H132.49V169.289Z" fill="#EBEBEB"/>
<path d="M146.151 169.289H136.804V178.636H146.151V169.289Z" fill="#EBEBEB"/>
<path d="M159.812 169.289H150.465V178.636H159.812V169.289Z" fill="#EBEBEB"/>
<path d="M159.524 183.562H95.5325V184.57H159.524V183.562Z" fill="#EBEBEB"/>
<path d="M159.524 186.227H95.5325V187.235H159.524V186.227Z" fill="#EBEBEB"/>
<path d="M159.524 188.891H95.5325V189.9H159.524V188.891Z" fill="#EBEBEB"/>
<path d="M125.239 191.556H95.5325V192.564H125.239V191.556Z" fill="#EBEBEB"/>
<path d="M96.064 90.6207L95.3344 90.6191L95.3364 90.2351L96.064 90.2367C96.4992 90.2362 96.9385 90.2346 97.3819 90.231L97.385 90.615C96.9405 90.6186 96.5002 90.6202 96.064 90.6207ZM92.7724 90.5848C92.0786 90.5695 91.3951 90.5495 90.7228 90.5239L90.7372 90.1404C91.4079 90.165 92.0888 90.1855 92.7811 90.2008L92.7724 90.5848ZM99.9475 90.5751L99.9383 90.1911C100.612 90.1757 101.293 90.1563 101.984 90.1333L101.997 90.5173C101.305 90.5403 100.622 90.5592 99.9475 90.5751ZM104.558 90.4143L104.54 90.0308C105.212 89.9996 105.894 89.9648 106.583 89.9264L106.605 90.3099C105.913 90.3483 105.231 90.3831 104.558 90.4143ZM88.1623 90.4026C87.4685 90.3621 86.7861 90.316 86.1158 90.2648L86.1455 89.8819C86.8132 89.9331 87.4926 89.9786 88.1848 90.0191L88.1623 90.4026ZM109.161 90.1527L109.136 89.7697C109.809 89.7247 110.489 89.6765 111.177 89.6248L111.206 90.0078C110.516 90.0595 109.835 90.1076 109.161 90.1527ZM83.5625 90.0375C82.8692 89.9668 82.1898 89.8901 81.5242 89.8066L81.5718 89.4257C82.2349 89.5086 82.9117 89.5854 83.6019 89.6555L83.5625 90.0375ZM113.759 89.804L113.727 89.4216C114.399 89.3647 115.079 89.3043 115.766 89.2413L115.801 89.6238C115.113 89.6873 114.433 89.7472 113.759 89.804ZM78.9842 89.4502C78.2945 89.3422 77.6202 89.227 76.9608 89.1046L77.0309 88.7273C77.6868 88.8492 78.3575 88.9633 79.0436 89.0708L78.9842 89.4502ZM118.35 89.3791L118.312 88.9971C118.984 88.9295 119.663 88.8594 120.348 88.7862L120.389 89.1681C119.703 89.2413 119.023 89.312 118.35 89.3791ZM122.935 88.887L122.891 88.5056L123.422 88.4442C123.921 88.3863 124.421 88.3238 124.92 88.2573L124.972 88.6377C124.47 88.7048 123.968 88.7672 123.466 88.8256L122.935 88.887ZM74.4469 88.588C73.769 88.4344 73.0977 88.2701 72.4521 88.0996L72.5499 87.7279C73.1909 87.8973 73.8575 88.0607 74.5313 88.2133L74.4469 88.588ZM127.511 88.2624L127.449 87.8835C128.123 87.7745 128.795 87.6577 129.466 87.5338L129.536 87.9112C128.862 88.0356 128.187 88.1528 127.511 88.2624ZM132.055 87.4135L131.976 87.0382C132.643 86.8974 133.309 86.7505 133.973 86.5974L134.059 86.9711C133.392 87.1252 132.724 87.2727 132.055 87.4135ZM69.9858 87.3838C69.3233 87.1729 68.6689 86.9486 68.0417 86.7177L68.1749 86.3573C68.7969 86.5866 69.4456 86.8088 70.1025 87.0177L69.9858 87.3838ZM136.55 86.366L136.455 85.9937C137.116 85.8253 137.774 85.6512 138.43 85.471L138.531 85.8417C137.873 86.0219 137.213 86.197 136.55 86.366ZM65.6584 85.7541C65.0235 85.473 64.3988 85.1756 63.8013 84.8694L63.9764 84.5279C64.5673 84.8305 65.1858 85.1254 65.814 85.4034L65.6584 85.7541ZM140.995 85.1392L140.886 84.7711C141.538 84.5775 142.189 84.3789 142.836 84.1761L142.951 84.5427C142.302 84.746 141.649 84.9451 140.995 85.1392ZM145.391 83.7517L145.269 83.3877C145.918 83.1706 146.563 82.9489 147.205 82.7236L147.332 83.0861C146.688 83.3119 146.041 83.5336 145.391 83.7517ZM61.5588 83.6078C60.9695 83.2438 60.3925 82.8603 59.8441 82.4666L60.0684 82.1548C60.6095 82.5428 61.1784 82.9217 61.7605 83.2806L61.5588 83.6078ZM149.745 82.2147L149.611 81.8547C150.253 81.6166 150.891 81.3745 151.525 81.1297L151.663 81.4876C151.028 81.7334 150.388 81.9756 149.745 82.2147ZM57.8227 80.8707C57.3051 80.4206 56.7992 79.946 56.3205 79.4596L56.5939 79.1903C57.066 79.6695 57.5642 80.1375 58.0746 80.5809L57.8227 80.8707ZM154.049 80.544L153.905 80.1882C154.54 79.9306 155.171 79.67 155.796 79.4074L155.945 79.7612C155.318 80.0243 154.686 80.2854 154.049 80.544ZM158.302 78.7494L158.148 78.3977C158.777 78.1217 159.401 77.8442 160.018 77.5652L160.176 77.9154C159.558 78.1949 158.932 78.4735 158.302 78.7494ZM54.6053 77.536C54.1522 76.9692 53.7651 76.386 53.4559 75.8024L53.7948 75.6221C54.0933 76.1848 54.4671 76.748 54.9053 77.2959L54.6053 77.536ZM162.506 76.8422L162.343 76.4946C162.967 76.2017 163.583 75.9078 164.192 75.614L164.359 75.9601C163.749 76.2545 163.131 76.5489 162.506 76.8422ZM166.661 74.8275L166.489 74.484C167.108 74.1747 167.716 73.866 168.315 73.5583L168.491 73.8998C167.89 74.2085 167.281 74.5178 166.661 74.8275ZM52.586 73.3427C52.5015 72.8819 52.4585 72.4109 52.4585 71.9419C52.4585 71.7125 52.4687 71.4831 52.4882 71.2553L52.8707 71.2881C52.8517 71.5052 52.8425 71.7233 52.8425 71.9419C52.8425 72.3873 52.8835 72.8353 52.9633 73.2736L52.586 73.3427ZM170.764 72.7135L170.584 72.3745C171.198 72.0484 171.801 71.7253 172.389 71.4053L172.572 71.7427C171.983 72.0632 171.38 72.3868 170.764 72.7135ZM174.819 70.5027L174.631 70.1678C175.242 69.8253 175.837 69.4879 176.413 69.1566L176.604 69.4894C176.027 69.8212 175.431 70.1591 174.819 70.5027ZM53.4559 68.8668L53.0985 68.7265C53.3396 68.1132 53.6525 67.488 54.0278 66.8695L54.356 67.0687C53.9919 67.6687 53.6888 68.2739 53.4559 68.8668ZM178.822 68.1971L178.626 67.8664C179.237 67.5044 179.824 67.1532 180.384 66.8132L180.583 67.1419C180.022 67.4819 179.434 67.8341 178.822 68.1971ZM182.769 65.7953L182.565 65.4697C183.192 65.0785 183.77 64.7109 184.297 64.3715L184.505 64.6945C183.975 65.035 183.396 65.4031 182.769 65.7953ZM55.8397 65.0222L55.5464 64.7749C55.9703 64.2716 56.4429 63.7617 56.9503 63.2599L57.2201 63.5328C56.7209 64.0259 56.2565 64.5271 55.8397 65.0222ZM186.654 63.2865L186.441 62.9676C187.544 62.2303 188.136 61.8089 188.137 61.8079L188.361 62.1202C188.361 62.1202 187.765 62.5446 186.654 63.2865ZM59.1089 61.8278L58.8636 61.5324C59.3715 61.111 59.9173 60.6835 60.4856 60.2632L60.714 60.5719C60.1508 60.9882 59.6111 61.4106 59.1089 61.8278ZM62.8091 59.1153L62.5992 58.7937C63.1608 58.4266 63.7481 58.0595 64.3441 57.7032L64.5412 58.0329C63.9498 58.3867 63.3672 58.7507 62.8091 59.1153ZM66.7622 56.7729L66.5805 56.4349C67.1739 56.1155 67.7888 55.798 68.4078 55.4913L68.5783 55.8354C67.9634 56.14 67.3521 56.4554 66.7622 56.7729ZM70.891 54.7515L70.7354 54.4003C71.3718 54.1187 72.0097 53.8499 72.6323 53.6021L72.7741 53.9584C72.1567 54.2052 71.5228 54.4719 70.891 54.7515Z" fill="#263238"/>
<path d="M191.225 53.0616L188.248 61.9642L194.849 56.5222L220.37 46.4937L191.225 53.0616Z" fill="#7C7A48"/>
<path opacity="0.1" d="M191.225 53.0616L188.248 61.9642L194.849 56.5222L220.37 46.4937L191.225 53.0616Z" fill="black"/>
<path d="M195.768 58.5536L188.248 61.964L194.849 56.522L195.768 58.5536Z" fill="#263238"/>
<path d="M194.849 56.5222L220.37 46.4937L199.78 67.6797L194.849 56.5222Z" fill="#7C7A48"/>
<path d="M191.225 53.0616L180.333 46.4312L220.37 46.4936L191.225 53.0616Z" fill="#7C7A48"/>
<path d="M181.05 160.019C180.806 159.785 180.559 159.551 180.309 159.316L180.571 159.036C180.823 159.272 181.072 159.507 181.316 159.742L181.05 160.019Z" fill="#263238"/>
<path d="M177.68 200.601L177.67 200.217C178.357 200.2 179.041 200.157 179.706 200.09L179.744 200.472C179.07 200.54 178.376 200.583 177.68 200.601ZM175.097 200.557C174.424 200.519 173.731 200.458 173.039 200.377L173.083 199.996C173.768 200.075 174.453 200.135 175.119 200.174L175.097 200.557ZM182.302 200.081L182.223 199.705C182.9 199.563 183.562 199.391 184.193 199.194L184.308 199.561C183.665 199.761 182.99 199.936 182.302 200.081ZM170.488 199.99C169.828 199.869 169.149 199.725 168.468 199.565L168.557 199.192C169.231 199.35 169.905 199.492 170.558 199.613L170.488 199.99ZM165.977 198.904C165.327 198.713 164.665 198.504 164.011 198.282L164.134 197.918C164.784 198.138 165.44 198.346 166.085 198.536L165.977 198.904ZM186.723 198.622L186.559 198.275C187.18 197.982 187.779 197.654 188.338 197.3L188.543 197.624C187.971 197.987 187.358 198.323 186.723 198.622ZM161.59 197.399C160.956 197.151 160.314 196.887 159.684 196.614L159.836 196.262C160.463 196.532 161.1 196.794 161.73 197.041L161.59 197.399ZM190.61 196.054L190.352 195.769C190.855 195.312 191.323 194.819 191.745 194.302L192.043 194.545C191.609 195.077 191.128 195.584 190.61 196.054ZM157.34 195.547C156.73 195.254 156.114 194.948 155.495 194.628L155.672 194.287C156.288 194.605 156.899 194.909 157.506 195.201L157.34 195.547ZM153.232 193.407C152.629 193.068 152.036 192.723 151.453 192.372L151.651 192.043C152.231 192.392 152.82 192.735 153.42 193.072L153.232 193.407ZM193.486 192.384L193.148 192.202C193.464 191.615 193.741 190.993 193.97 190.353L194.331 190.483C194.096 191.14 193.811 191.779 193.486 192.384ZM149.271 191.011C148.692 190.636 148.122 190.255 147.56 189.869L147.778 189.553C148.337 189.937 148.904 190.316 149.48 190.69L149.271 191.011ZM145.465 188.378C144.911 187.97 144.364 187.556 143.824 187.137L144.06 186.834C144.597 187.251 145.141 187.662 145.693 188.069L145.465 188.378ZM194.988 187.97L194.609 187.905C194.721 187.252 194.792 186.573 194.822 185.889L195.206 185.906C195.175 186.606 195.102 187.301 194.988 187.97ZM141.816 185.532C141.285 185.095 140.76 184.653 140.239 184.205L140.489 183.915C141.008 184.36 141.531 184.8 142.06 185.235L141.816 185.532ZM194.753 183.35C194.689 182.69 194.591 182.013 194.46 181.336L194.836 181.263C194.97 181.952 195.07 182.641 195.134 183.314L194.753 183.35ZM138.311 182.506C137.803 182.048 137.299 181.585 136.798 181.118L137.06 180.836C137.56 181.303 138.062 181.764 138.568 182.221L138.311 182.506ZM134.94 179.352C134.449 178.876 133.96 178.396 133.472 177.912L133.743 177.64C134.228 178.122 134.716 178.601 135.207 179.076L134.94 179.352ZM193.841 178.867C193.648 178.236 193.424 177.587 193.173 176.939L193.531 176.8C193.785 177.457 194.013 178.115 194.207 178.755L193.841 178.867ZM131.66 176.092C131.182 175.605 130.703 175.115 130.225 174.621L130.501 174.355C130.978 174.847 131.455 175.337 131.934 175.823L131.66 176.092ZM192.156 174.599C191.865 173.996 191.549 173.385 191.216 172.784L191.552 172.598C191.888 173.206 192.207 173.823 192.501 174.432L192.156 174.599ZM128.443 172.772C127.971 172.279 127.499 171.784 127.025 171.286L127.303 171.021C127.777 171.519 128.249 172.014 128.72 172.506L128.443 172.772ZM189.908 170.588C189.551 170.026 189.168 169.454 188.77 168.889L189.084 168.668C189.485 169.238 189.871 169.815 190.232 170.382L189.908 170.588ZM125.256 169.427L123.839 167.939L124.117 167.674L125.534 169.161L125.256 169.427ZM187.247 166.834C186.839 166.311 186.405 165.775 185.958 165.243L186.252 164.996C186.702 165.532 187.139 166.071 187.55 166.598L187.247 166.834ZM122.064 166.087C121.592 165.597 121.117 165.105 120.637 164.612L120.913 164.344C121.393 164.838 121.869 165.33 122.341 165.821L122.064 166.087ZM184.271 163.317C183.819 162.821 183.351 162.324 182.867 161.826L183.142 161.558C183.629 162.059 184.1 162.56 184.555 163.058L184.271 163.317ZM118.841 162.78C118.363 162.297 117.88 161.813 117.392 161.327L117.663 161.055C118.152 161.542 118.636 162.027 119.115 162.51L118.841 162.78ZM115.562 159.531C115.075 159.057 114.582 158.583 114.083 158.109L114.348 157.831C114.848 158.307 115.342 158.781 115.83 159.255L115.562 159.531ZM112.211 156.358C111.713 155.898 111.207 155.437 110.695 154.976L110.952 154.691C111.465 155.153 111.972 155.615 112.472 156.076L112.211 156.358ZM108.774 153.279C108.263 152.834 107.744 152.389 107.217 151.944L107.465 151.651C107.993 152.097 108.513 152.543 109.026 152.989L108.774 153.279ZM105.246 150.307C104.72 149.878 104.187 149.45 103.646 149.023L103.884 148.722C104.426 149.15 104.961 149.579 105.488 150.009L105.246 150.307ZM101.621 147.453C101.082 147.042 100.535 146.633 99.9798 146.224L100.208 145.914C100.764 146.325 101.313 146.736 101.853 147.147L101.621 147.453ZM97.9031 144.723C97.3501 144.332 96.7895 143.941 96.2212 143.551L96.4383 143.234C97.0086 143.625 97.5708 144.017 98.1253 144.41L97.9031 144.723ZM94.0943 142.12C93.5286 141.747 92.9551 141.376 92.3735 141.004L92.5798 140.68C93.163 141.053 93.738 141.425 94.3053 141.799L94.0943 142.12ZM90.2001 139.648C89.6225 139.294 89.0368 138.941 88.4434 138.589L88.6395 138.259C89.2344 138.612 89.8217 138.966 90.4008 139.319L90.2001 139.648ZM86.2269 137.302C85.6381 136.967 85.0417 136.632 84.4375 136.3L84.6228 135.964C85.2285 136.298 85.8266 136.632 86.4169 136.968L86.2269 137.302ZM82.1816 135.082C81.5826 134.766 80.9764 134.45 80.3625 134.135L80.5376 133.793C81.153 134.109 81.7608 134.425 82.3613 134.743L82.1816 135.082ZM78.0718 132.985C77.4635 132.685 76.8481 132.387 76.2255 132.09L76.3909 131.743C77.015 132.041 77.6315 132.34 78.2413 132.64L78.0718 132.985ZM73.9031 131.005C73.2867 130.722 72.6636 130.44 72.0333 130.161L72.1894 129.81C72.8212 130.091 73.4459 130.372 74.0634 130.655L73.9031 131.005ZM69.6817 129.137C69.0575 128.871 68.4268 128.606 67.7893 128.341L67.9363 127.987C68.5752 128.252 69.207 128.517 69.8322 128.785L69.6817 129.137Z" fill="#263238"/>
<path d="M65.2902 127.327C64.9738 127.201 64.6564 127.076 64.3364 126.95L64.4762 126.593C64.7962 126.718 65.1151 126.844 65.4321 126.97L65.2902 127.327Z" fill="#263238"/>
<path d="M66.5062 120.913L69.89 130.205L62.7871 124.658L35.6301 114.81L66.5062 120.913Z" fill="#7C7A48"/>
<path opacity="0.1" d="M66.5062 120.913L69.89 130.205L62.7871 124.658L35.6301 114.81L66.5062 120.913Z" fill="black"/>
<path d="M61.8752 126.823L69.89 130.206L62.7871 124.659L61.8752 126.823Z" fill="#263238"/>
<path d="M62.7871 124.658L35.6301 114.81L57.9046 136.547L62.7871 124.658Z" fill="#7C7A48"/>
<path d="M66.5062 120.913L77.7923 113.626L35.6301 114.81L66.5062 120.913Z" fill="#7C7A48"/>
<path d="M182.594 61.1791C184.859 51.4291 178.791 41.689 169.041 39.4239C159.291 37.1589 149.551 43.2265 147.286 52.9765C145.021 62.7265 151.089 72.4666 160.839 74.7317C170.589 76.9967 180.329 70.9291 182.594 61.1791Z" fill="#A6A6A6"/>
<path d="M177.311 49.2417H152.569V64.9325H177.311V49.2417Z" fill="white"/>
<path d="M177.311 49.2417C176.312 50.1976 175.294 51.1125 174.287 52.0531C173.273 52.9732 172.254 53.8937 171.233 54.8036C170.166 55.7543 169.096 56.6944 168.026 57.6303C167.993 57.6605 167.963 57.6907 167.929 57.7214C166.982 58.5458 166.031 59.3701 165.08 60.1939L164.938 60.3101L164.801 60.1939C163.849 59.3696 162.902 58.5452 161.954 57.7163C161.921 57.6912 161.887 57.6605 161.854 57.6303C160.78 56.6949 159.71 55.7543 158.644 54.7984C157.626 53.8932 156.607 52.9732 155.593 52.0531C154.586 51.1125 153.568 50.1971 152.569 49.2417C153.632 50.0609 154.676 50.9205 155.727 51.7597C156.775 52.6142 157.822 53.4688 158.863 54.3387C160.022 55.2992 161.181 56.275 162.337 57.2612C162.34 57.2612 162.34 57.2612 162.344 57.2663C163.21 57.9995 164.076 58.7378 164.941 59.4761C165.804 58.7378 166.669 57.9943 167.535 57.2663C167.538 57.256 167.538 57.256 167.542 57.256C168.697 56.275 169.853 55.2992 171.016 54.3335C172.056 53.4688 173.1 52.6091 174.148 51.7597C175.204 50.92 176.248 50.0604 177.311 49.2417Z" fill="#DBDBDB"/>
<path d="M162.375 57.6187C162.363 57.6258 162.356 57.6371 162.345 57.6448C162.215 57.7564 162.085 57.8675 161.955 57.9755C161.334 58.4993 160.699 59.001 160.052 59.488C159.265 60.0901 158.458 60.6656 157.648 61.238C156.835 61.7991 156.017 62.3562 155.181 62.8912C154.345 63.4263 153.502 63.95 152.628 64.4293C153.379 63.7714 154.159 63.1585 154.947 62.5605C155.738 61.9584 156.545 61.3829 157.35 60.8105C158.168 60.2457 158.985 59.6887 159.821 59.1531C160.486 58.7261 161.163 58.3058 161.854 57.912C162.014 57.8194 162.173 57.7298 162.337 57.6407C162.349 57.6335 162.363 57.6258 162.375 57.6187Z" fill="#DBDBDB"/>
<path d="M177.252 64.4292C176.379 63.95 175.532 63.4262 174.699 62.8912C173.863 62.3562 173.046 61.7986 172.228 61.238C171.418 60.6655 170.612 60.09 169.824 59.4879C169.181 59.001 168.546 58.5034 167.929 57.9796C167.796 57.868 167.666 57.7569 167.536 57.6452C167.524 57.6381 167.517 57.6268 167.506 57.6191C167.517 57.6263 167.532 57.634 167.543 57.6376C167.707 57.7302 167.866 57.8198 168.026 57.9125C168.717 58.3062 169.39 58.7261 170.059 59.1536C170.895 59.6886 171.712 60.2462 172.526 60.8109C173.336 61.3834 174.142 61.9594 174.93 62.561C175.721 63.1585 176.501 63.7713 177.252 64.4292Z" fill="#DBDBDB"/>
<path d="M176.522 52.7414C178.457 51.687 179.17 49.264 178.116 47.3295C177.061 45.395 174.638 44.6815 172.704 45.7359C170.769 46.7903 170.056 49.2132 171.11 51.1478C172.165 53.0823 174.588 53.7957 176.522 52.7414Z" fill="#7C7A48"/>
<path d="M174.165 50.1172V46.8706C174.165 46.6294 174.366 46.4287 174.607 46.4287C174.848 46.4287 175.041 46.6294 175.041 46.8706V50.1172C175.041 50.3665 174.848 50.559 174.607 50.559C174.366 50.559 174.165 50.3665 174.165 50.1172ZM174.607 52.0541C174.366 52.0541 174.165 51.8615 174.165 51.6122V51.4514C174.165 51.2103 174.366 51.0096 174.607 51.0096C174.848 51.0096 175.041 51.2103 175.041 51.4514V51.6122C175.041 51.8615 174.848 52.0541 174.607 52.0541Z" fill="white"/>
<path d="M69.4513 154.736C77.225 158.407 82.0849 173.47 78.1676 185.714C73.9343 198.945 60.3858 201.473 52.5967 198.646C44.3315 195.646 41.8278 186.509 45.5854 181.044C49.215 175.767 55.1818 174.203 56.8008 169.379C57.5754 167.071 57.4705 162.803 58.4668 159.343C59.5794 155.482 64.7542 152.518 69.4513 154.736Z" fill="#263238"/>
<path d="M72.4516 156.836C75.4944 160.081 77.8675 163.968 79.3897 168.173C80.1582 170.275 80.6318 172.484 80.8509 174.714C80.9477 175.832 80.9702 176.955 80.9216 178.077C80.8704 179.2 80.7306 180.31 80.5591 181.417C79.8106 185.817 78.0129 190.147 74.9092 193.424C73.3676 195.056 71.5407 196.414 69.5347 197.405C67.5246 198.385 65.3501 199.019 63.1383 199.256C67.5359 198.598 71.6851 196.454 74.6429 193.178C77.6274 189.914 79.3907 185.682 80.0922 181.339C80.2667 180.251 80.4132 179.152 80.4695 178.054C80.5238 176.954 80.5089 175.851 80.4214 174.752C80.2278 172.556 79.7507 170.387 79.0456 168.293C78.3401 166.198 77.4036 164.18 76.2911 162.264C75.1887 160.342 73.9103 158.514 72.4516 156.836Z" fill="#263238"/>
<path d="M57.6681 163.751C57.5903 164.98 57.4444 166.211 57.1464 167.418C56.8371 168.619 56.3645 169.791 55.6897 170.849C55.0195 171.911 54.1199 172.824 53.1041 173.561C52.0924 174.274 51.094 174.978 50.134 175.737C48.2074 177.231 46.4451 178.981 45.2516 181.103C44.0407 183.212 43.6004 185.732 43.9675 188.171C43.7064 186.969 43.6265 185.713 43.7934 184.478C43.8707 183.86 44.0161 183.251 44.2122 182.659C44.4037 182.065 44.6469 181.487 44.9377 180.934C46.0943 178.702 47.9176 176.913 49.8437 175.369C50.814 174.598 51.8451 173.903 52.8517 173.207C53.8414 172.515 54.6934 171.639 55.3784 170.643C56.7695 168.64 57.3256 166.178 57.6681 163.751Z" fill="#263238"/>
<path d="M179.985 228.288C178.843 228.727 145.661 230.206 144.363 229.464C144.221 229.381 144.26 227.917 143.772 224.128C143.747 223.947 142.991 223.244 141.809 222.254C137.372 218.534 126.944 210.694 126.944 210.694L143.503 196.307L159.55 212.08L163.724 216.181C163.724 216.181 177.281 222.625 178.623 223.592C179.956 224.562 181.128 227.848 179.985 228.288Z" fill="#F7A9A0"/>
<path d="M179.986 228.289C178.843 228.725 145.66 230.207 144.361 229.465C144.221 229.38 144.26 227.916 143.77 224.129C148.518 224.847 173.817 226.163 174.697 223.183C175.042 222.011 171.279 219.87 170.6 219.494C174.179 221.233 177.949 223.105 178.625 223.591C179.955 224.562 181.127 227.849 179.986 228.289Z" fill="#263238"/>
<path d="M153.696 204.717L151.143 207.631L138.401 222.179C138.401 222.179 120.859 209.428 115.709 205.222C115.543 205.085 95.2888 219.413 80.4797 222.179C69.1267 224.299 61.4021 220.017 56.9544 209.428L75.7187 201.124C91.4478 193.371 109.169 181.031 119.884 182.33C131.523 183.741 153.696 204.717 153.696 204.717Z" fill="#FE812D"/>
<path d="M149.689 203.655C147.074 206.486 147.787 205.639 145.202 208.497C143.937 209.896 137.561 216.912 136.598 218.414C136.577 218.447 136.624 218.488 136.654 218.463C138.031 217.329 144.253 210.177 145.492 208.755C148.025 205.85 147.268 206.658 149.769 203.726C149.816 203.671 149.739 203.602 149.689 203.655Z" fill="#263238"/>
<path d="M149.116 209.946L138.403 222.18C138.403 222.18 120.858 209.429 115.708 205.223C115.543 205.085 95.2878 219.414 80.4808 222.18C69.1267 224.299 61.4011 220.015 56.9559 209.429L75.7187 201.123C77.802 200.095 79.9176 198.99 82.0506 197.846C98.5293 200.851 134.64 207.345 149.116 209.946Z" fill="#263238"/>
<path d="M177.255 234.451C176.113 234.891 142.931 236.37 141.633 235.628C141.491 235.545 141.53 234.081 141.042 230.292C141.017 230.112 140.261 229.409 139.079 228.418C134.642 224.698 124.214 216.858 124.214 216.858L140.773 202.471L156.82 218.244L160.994 222.345C160.994 222.345 174.551 228.789 175.893 229.756C177.225 230.726 178.397 234.012 177.255 234.451Z" fill="#F7A9A0"/>
<path d="M177.256 234.453C176.113 234.889 142.93 236.371 141.631 235.628C141.49 235.544 141.529 234.08 141.04 230.293C145.787 231.011 171.086 232.327 171.966 229.346C172.311 228.174 168.548 226.034 167.869 225.658C171.448 227.396 175.218 229.269 175.893 229.754C177.225 230.726 178.397 234.013 177.256 234.453Z" fill="#263238"/>
<path d="M166.997 225.314C165.649 224.595 164.307 223.863 162.936 223.19C162.288 222.872 161.675 222.559 161.136 222.068C160.575 221.557 160.045 221.013 159.496 220.489C157.272 218.363 155.055 216.23 152.812 214.125C151.597 212.985 150.397 211.832 149.194 210.68C149.166 210.652 149.117 210.69 149.139 210.724C149.216 210.841 151.237 213.003 152.207 213.981C153.299 215.081 154.412 216.16 155.52 217.244C156.62 218.32 157.72 219.395 158.821 220.47C159.375 221.011 159.931 221.548 160.49 222.084C161.005 222.579 161.533 222.982 162.18 223.288C163.752 224.033 165.352 224.713 166.95 225.4C167.006 225.423 167.053 225.344 166.997 225.314Z" fill="#263238"/>
<path d="M53.8988 206.135C53.8988 206.135 51.4611 219.461 58.4294 225.156C63.4496 229.26 70.0375 229.666 75.7402 228.855C91.5016 226.614 104.855 207.578 110.095 206.562C112.783 206.041 133.928 226.952 133.928 226.952L150.353 211.053C146.175 207.424 121.263 182.235 108.686 182.235C100.079 182.235 78.2551 200.117 77.7298 199.907C76.8712 199.565 73.0506 197.731 73.0506 197.731L53.8988 206.135Z" fill="#FE812D"/>
<path d="M147.028 209.367C144.974 211.097 143.05 212.982 141.108 214.825C139.174 216.661 137.251 218.508 135.356 220.38C134.28 221.443 133.211 222.51 132.173 223.607C132.147 223.634 132.187 223.672 132.216 223.648C134.247 221.887 136.194 220.039 138.141 218.193C140.076 216.359 141.998 214.511 143.899 212.644C144.975 211.587 146.065 210.528 147.084 209.419C147.117 209.383 147.065 209.335 147.028 209.367Z" fill="#263238"/>
<path d="M66.9583 204.078C66.9286 204.008 66.8201 204.058 66.837 204.129C67.305 206.071 67.0679 208.286 66.1397 210.062C65.0752 212.098 63.1404 213.555 61.418 215.006C61.2526 215.146 61.4646 215.406 61.6453 215.302C62.7528 214.662 63.8049 213.865 64.7475 212.997C65.6056 212.208 66.3557 211.295 66.8349 210.224C67.7192 208.25 67.797 206.08 66.9583 204.078Z" fill="#263238"/>
<path d="M78.0319 201.246C77.5475 200.886 77.0376 200.558 76.5409 200.216C75.3674 199.407 74.1883 198.594 72.982 197.833C72.8678 197.761 72.7332 197.944 72.8433 198.028C73.6916 198.673 74.5697 199.281 75.4386 199.898C75.884 200.215 76.33 200.53 76.778 200.842C77.1963 201.133 77.6893 201.402 78.0421 201.773C78.4087 202.159 78.1962 202.633 77.7411 202.813C77.3335 202.973 76.8875 202.865 76.4974 202.707C75.6116 202.348 74.8155 201.703 74.0188 201.185C73.5314 200.869 73.044 200.553 72.5519 200.242C72.0287 199.913 71.4854 199.613 70.9637 199.284C70.9299 199.262 70.891 199.316 70.9227 199.341C71.4051 199.725 71.8669 200.139 72.3502 200.524C72.833 200.908 73.3199 201.287 73.812 201.661C74.2779 202.014 74.753 202.354 75.2363 202.684C75.6465 202.963 76.097 203.222 76.5798 203.352C77.3601 203.563 78.5495 203.328 78.6683 202.362C78.7287 201.884 78.3882 201.51 78.0319 201.246Z" fill="#263238"/>
<path d="M149.263 209.784C148.228 208.718 147.137 207.702 146.056 206.682C144.98 205.668 143.897 204.664 142.804 203.668C140.609 201.669 138.388 199.696 136.119 197.78C133.849 195.864 131.511 194.022 129.117 192.264C126.749 190.525 124.317 188.871 121.79 187.37C120.523 186.617 119.235 185.889 117.915 185.23C116.623 184.586 115.32 183.912 113.965 183.408C113.598 183.272 113.234 183.136 112.873 182.985C112.818 182.962 112.771 183.043 112.827 183.068C113.502 183.37 114.151 183.728 114.811 184.06C115.46 184.385 116.103 184.722 116.744 185.061C118.037 185.745 119.314 186.463 120.571 187.21C123.1 188.712 125.566 190.321 127.96 192.032C130.359 193.747 132.687 195.561 134.959 197.441C137.247 199.335 139.5 201.269 141.714 203.249C143.917 205.218 146.093 207.215 148.298 209.182C148.576 209.43 148.854 209.675 149.139 209.915C149.228 209.989 149.345 209.868 149.263 209.784Z" fill="#263238"/>
<path d="M133.076 221.487C128.012 216.67 114.303 204.402 111.2 202.351C110.584 201.944 109.796 201.817 109.059 201.998C108.258 202.196 107.616 202.789 106.987 203.287C106.235 203.882 105.484 204.477 104.733 205.072C103.19 206.295 101.646 207.517 100.104 208.741C97.2104 211.037 94.3355 213.358 91.413 215.617C88.8079 217.631 86.1312 219.574 83.2491 221.176C77.7462 224.236 70.7937 226.188 64.7327 223.55C61.93 222.331 59.8267 220.123 58.5139 217.387C57.2037 214.656 56.6523 211.622 56.3169 208.634C56.236 207.911 56.17 207.186 56.1126 206.461C56.1096 206.424 56.0538 206.425 56.0553 206.462C56.3374 212.097 57.2298 218.633 62.0006 222.341C67.0684 226.279 74.2001 225.592 79.8003 223.292C86.0785 220.713 91.3423 216.209 96.6016 212.032C99.6654 209.599 102.729 207.165 105.79 204.728C106.533 204.138 107.262 203.522 108.025 202.958C108.813 202.376 109.69 201.973 110.563 202.481C113.47 204.171 132.294 221.025 132.96 221.611C133.041 221.681 133.155 221.563 133.076 221.487Z" fill="#263238"/>
<path d="M69.3356 176.794C72.7127 178.843 87.2008 187.306 92.9628 184.905C96.4137 183.468 102.649 173.473 105.053 169.503C106.401 167.279 93.1676 163.169 92.1344 165.284C90.368 168.899 88.0819 173.828 87.5402 174.301C87.0267 174.749 78.0053 173.03 71.4179 172.58C65.4833 172.175 66.9558 175.349 69.3356 176.794Z" fill="#F7A9A0"/>
<path d="M106.796 164.856C106.395 167.588 103.391 172.853 102.178 173.845C100.965 174.836 91.8431 170.027 91.5656 168.444C91.2881 166.86 93.3489 157.768 95.4097 155.848C97.471 153.927 107.21 162.026 106.796 164.856Z" fill="#F7A9A0"/>
<path d="M91.6444 166.833C91.6444 166.833 90.8523 163.331 89.1643 160.655C87.745 158.405 85.3832 155.225 86.5643 154.417C88.9892 152.757 94.8761 160.69 94.8761 160.69C94.8761 160.69 96.9114 164.607 94.655 166.464C93.2393 167.629 91.6444 166.833 91.6444 166.833Z" fill="#F7A9A0"/>
<path d="M99.6751 167.527L103.444 165.637L97.9732 154.723L93.204 157.114L99.6751 167.527Z" fill="#7C7A48"/>
<path d="M93.2046 157.114L95.6719 161.086L99.6768 167.528L103.446 165.638L97.9744 154.723L93.2046 157.114Z" fill="#455A64"/>
<path d="M93.2046 157.114L95.6719 161.086L100.061 158.886L97.9744 154.723L93.2046 157.114Z" fill="#263238"/>
<path d="M93.5664 158.945L99.5004 155.971L97.241 151.463L91.307 154.437L93.5664 158.945Z" fill="#455A64"/>
<path d="M86.5096 154.784L91.35 152.935L87.6938 145.64L83.3152 148.411L86.5096 154.784Z" fill="#455A64"/>
<path d="M89.3409 143.008L94.7364 153.773L102.935 150.822L124.234 148.424L111.277 122.572L96.6108 138.205L89.3409 143.008Z" fill="#455A64"/>
<path d="M113.999 137.382C117.595 144.556 122.379 149.435 124.685 148.279C126.991 147.123 125.945 140.37 122.35 133.196C118.754 126.022 113.969 121.143 111.663 122.299C109.357 123.455 110.403 130.208 113.999 137.382Z" fill="#455A64"/>
<path d="M114.86 136.671C118.052 143.039 122.171 147.435 124.059 146.489C125.947 145.543 124.89 139.612 121.697 133.243C118.505 126.874 114.386 122.478 112.498 123.425C110.61 124.372 111.668 130.302 114.86 136.671Z" fill="#263238"/>
<path d="M115.418 136.393C115.843 137.241 116.284 138.053 116.737 138.822C117.362 138.962 118.036 138.893 118.653 138.584C120.076 137.87 120.652 136.136 119.938 134.71L119.326 133.491C118.611 132.065 116.877 131.489 115.454 132.202C114.849 132.506 114.395 132.999 114.13 133.571C114.507 134.492 114.939 135.438 115.418 136.393Z" fill="#455A64"/>
<path d="M90.8631 156.46L100.223 152.882L93.1528 138.776L84.6853 144.135L90.8631 156.46Z" fill="#7C7A48"/>
<path d="M90.8631 156.46L100.223 152.882L93.1528 138.776L84.6853 144.135L90.8631 156.46Z" fill="#263238"/>
<path d="M110.954 124.95C110.68 126.008 110.753 127.122 110.873 128.2C111.017 129.281 111.245 130.352 111.559 131.396C111.7 131.924 111.889 132.436 112.06 132.954C112.259 133.461 112.442 133.975 112.653 134.478C112.872 134.976 113.073 135.484 113.307 135.976C113.543 136.467 113.767 136.963 114.013 137.449C115.004 139.387 116.109 141.278 117.441 143.008C118.112 143.868 118.83 144.696 119.644 145.426C120.464 146.135 121.361 146.813 122.411 147.124C121.388 146.747 120.526 146.054 119.748 145.314C118.964 144.57 118.274 143.732 117.633 142.864C116.354 141.121 115.256 139.247 114.291 137.309C113.311 135.38 112.433 133.392 111.788 131.328C111.448 130.301 111.198 129.246 111.023 128.179C110.855 127.115 110.75 126.019 110.954 124.95Z" fill="#263238"/>
<path d="M120.201 119.607C119.768 120.225 119.366 120.862 118.97 121.501C118.57 122.139 118.194 122.79 117.817 123.44C117.447 124.095 117.079 124.75 116.733 125.419L116.215 126.422C116.054 126.762 115.881 127.097 115.729 127.443C115.949 127.135 116.15 126.817 116.361 126.505L116.961 125.549C117.361 124.911 117.737 124.26 118.114 123.609C118.483 122.954 118.852 122.299 119.197 121.631C119.545 120.965 119.889 120.295 120.201 119.607Z" fill="#263238"/>
<path d="M122.477 141.895C123.327 141.865 124.173 141.797 125.018 141.725C125.863 141.655 126.706 141.56 127.548 141.464C128.389 141.36 129.231 141.256 130.069 141.124L131.326 140.927C131.744 140.848 132.163 140.782 132.579 140.694C132.154 140.706 131.731 140.739 131.307 140.761L130.038 140.864C129.192 140.933 128.35 141.029 127.507 141.125C126.666 141.229 125.825 141.334 124.986 141.465C124.148 141.592 123.311 141.725 122.477 141.895Z" fill="#263238"/>
<path d="M136.597 134.593C135.377 134.855 134.166 135.153 132.957 135.457C131.747 135.757 130.544 136.082 129.34 136.408C128.139 136.742 126.939 137.076 125.745 137.435L123.955 137.976C123.361 138.169 122.765 138.349 122.174 138.552C122.785 138.424 123.39 138.275 123.999 138.137L125.815 137.688C127.025 137.388 128.228 137.063 129.431 136.737C130.632 136.403 131.833 136.068 133.026 135.708C134.221 135.353 135.414 134.991 136.597 134.593Z" fill="#263238"/>
<path d="M126.942 117.854C126.116 118.815 125.321 119.797 124.53 120.784C123.736 121.768 122.963 122.768 122.191 123.769C121.425 124.774 120.659 125.78 119.914 126.802L118.798 128.335C118.436 128.854 118.064 129.365 117.71 129.891C118.126 129.412 118.523 128.921 118.93 128.437L120.122 126.961C120.915 125.977 121.689 124.977 122.461 123.976C123.227 122.97 123.993 121.964 124.737 120.942C125.485 119.923 126.228 118.9 126.942 117.854Z" fill="#263238"/>
<path d="M120.319 134.089C121.65 133.484 122.963 132.846 124.274 132.202C125.585 131.56 126.882 130.889 128.186 130.235C129.478 129.555 130.777 128.889 132.063 128.197L133.988 127.153C134.624 126.794 135.266 126.445 135.897 126.077C135.23 126.377 134.574 126.696 133.912 127.004L131.942 127.963C130.632 128.607 129.334 129.276 128.03 129.931C126.738 130.612 125.439 131.277 124.154 131.97C122.869 132.662 121.586 133.359 120.319 134.089Z" fill="#263238"/>
<path d="M92.8328 159.438C93.4001 160.786 94.6642 159.346 94.6642 159.346C94.6642 159.346 93.3448 161.857 94.4671 163.021C95.552 164.14 97.0173 162.346 97.1238 162.219C97.0552 162.352 95.9027 164.692 97.151 165.745C98.4494 166.838 99.6111 164.785 99.6859 164.652C99.6608 164.799 99.3592 166.74 100.49 167.324C102.432 168.328 103.34 163.385 104.838 162.442C104.838 162.442 106.726 164.799 106.796 164.855C106.796 164.855 107.755 160.171 106.37 158.221C105.639 157.193 104.537 157.671 104.537 157.671C104.537 157.671 105.013 156.195 104.057 155.335C103.565 154.894 102.423 155.29 102.423 155.29C102.423 155.29 102.754 154.092 101.856 153.38C101.14 152.81 100.106 153.295 100.106 153.295C100.106 153.295 99.8907 151.997 98.9706 151.652C97.1167 150.951 91.6209 156.55 92.8328 159.438Z" fill="#F7A9A0"/>
<path d="M99.9306 153.347C99.9506 153.33 99.9306 153.299 99.9076 153.313C97.6507 154.714 95.6001 156.944 94.5879 159.416C94.5546 159.497 94.6719 159.587 94.7256 159.504C96.2565 157.155 97.8022 155.192 99.9306 153.347Z" fill="#263238"/>
<path d="M102.439 155.251C102.462 155.231 102.429 155.192 102.402 155.21C100.084 156.666 97.8437 159.241 97.0122 162.229C96.9836 162.331 97.0609 162.452 97.1023 162.336C97.8058 160.392 100.514 156.903 102.439 155.251Z" fill="#263238"/>
<path d="M99.6997 164.881C100.607 162.047 102.332 159.789 104.438 157.725C104.465 157.698 104.424 157.662 104.395 157.678C103.09 158.408 101.886 159.863 101.044 161.075C100.238 162.236 99.7443 163.445 99.6009 164.849C99.5953 164.903 99.6808 164.941 99.6997 164.881Z" fill="#263238"/>
<path d="M94.6161 159.357C94.5766 159.455 94.7625 159.405 94.7256 159.504C94.5715 159.919 93.8573 162.495 94.6596 163.011C95.3037 163.423 96.3036 162.844 96.6001 162.47L97.3466 161.532L96.9718 162.673C96.8079 163.171 96.7055 163.72 96.7132 164.241C96.7194 164.762 96.8637 165.278 97.2247 165.582C97.5954 165.907 98.0772 165.971 98.4806 165.701C98.8908 165.45 99.2323 164.997 99.4724 164.549L100.143 163.296L99.9199 164.693C99.8595 165.071 99.8426 165.484 99.8825 165.869C99.9245 166.254 100.031 166.636 100.258 166.899C100.479 167.158 100.846 167.299 101.158 167.207C101.489 167.116 101.788 166.827 102.044 166.525C102.558 165.904 102.946 165.163 103.368 164.448C103.576 164.088 103.784 163.726 104.011 163.375C104.241 163.031 104.48 162.665 104.839 162.442C104.507 162.699 104.315 163.078 104.11 163.433C103.913 163.798 103.734 164.172 103.554 164.547C103.194 165.296 102.822 166.047 102.312 166.739C102.048 167.073 101.75 167.425 101.277 167.591C100.788 167.758 100.247 167.553 99.9311 167.187C99.607 166.816 99.4883 166.355 99.4309 165.922C99.3802 165.481 99.3899 165.055 99.4534 164.612L99.9009 164.756C99.6214 165.288 99.2819 165.776 98.7433 166.129C98.4776 166.301 98.1289 166.403 97.7869 166.359C97.4433 166.315 97.1505 166.157 96.9083 165.944C96.4065 165.5 96.2575 164.828 96.2601 164.247C96.2637 163.65 96.3789 163.086 96.5714 162.526L96.9431 162.729C96.5499 163.19 95.5023 163.96 94.4236 163.447C93.1159 162.567 94.3539 159.84 94.6161 159.357Z" fill="#263238"/>
<path d="M94.6642 159.346C94.4067 159.534 94.1384 159.693 93.8778 159.779C93.6171 159.866 93.3673 159.822 93.1978 159.672C93.0242 159.525 92.9239 159.249 92.8527 158.967C92.7887 158.679 92.7365 158.374 92.695 158.056C92.5783 158.356 92.521 158.679 92.5363 159.01C92.5537 159.335 92.6315 159.702 92.929 159.981C93.0862 160.107 93.271 160.187 93.4676 160.201C93.6643 160.209 93.8511 160.158 94.0042 160.072C94.3145 159.902 94.526 159.635 94.6642 159.346Z" fill="#263238"/>
<path d="M84.3116 172.925L76.7176 181.53C76.7176 181.53 71.6058 178.858 68.9853 176.979C65.5181 174.494 65.6282 172.624 70.8332 172.119C74.3163 171.782 84.3116 172.925 84.3116 172.925Z" fill="#7C7A48"/>
<path opacity="0.2" d="M78.3872 179.599C78.0186 179.599 77.7216 179.896 77.7216 180.265C77.7216 180.3 77.7267 180.341 77.737 180.377L77.9571 180.126C77.993 179.998 78.0749 179.906 78.1926 179.855H78.1978L78.2029 179.85C78.208 179.845 78.208 179.845 78.208 179.845L78.4179 179.604C78.4077 179.599 78.3974 179.599 78.3872 179.599ZM82.0019 175.544C81.9405 175.247 81.6794 175.027 81.367 175.027C80.9984 175.027 80.7014 175.324 80.7014 175.692C80.7014 176.03 80.9626 176.312 81.3005 176.338L81.4899 176.123C81.449 176.138 81.408 176.143 81.367 176.143C81.111 176.143 80.9165 175.938 80.9165 175.692C80.9165 175.436 81.111 175.237 81.367 175.237C81.6128 175.237 81.8176 175.436 81.8176 175.692C81.8176 175.713 81.8176 175.739 81.8125 175.759L82.0019 175.544ZM75.4022 175.027C75.0438 175.027 74.7469 175.324 74.7469 175.692C74.7469 176.051 75.0438 176.348 75.4022 176.348C75.7709 176.348 76.0678 176.051 76.0678 175.692C76.0678 175.324 75.7709 175.027 75.4022 175.027ZM75.4022 176.143C75.1565 176.143 74.9517 175.938 74.9517 175.692C74.9517 175.436 75.1565 175.237 75.4022 175.237C75.648 175.237 75.8528 175.436 75.8528 175.692C75.8528 175.938 75.648 176.143 75.4022 176.143ZM69.4426 175.027C69.0739 175.027 68.777 175.324 68.777 175.692C68.777 176.051 69.0739 176.348 69.4426 176.348C69.8061 176.348 70.103 176.051 70.103 175.692C70.103 175.324 69.8061 175.027 69.4426 175.027ZM69.4426 176.143C69.1968 176.143 68.992 175.938 68.992 175.692C68.992 175.436 69.1968 175.237 69.4426 175.237C69.6934 175.237 69.8982 175.436 69.8982 175.692C69.8982 175.938 69.6934 176.143 69.4426 176.143Z" fill="black"/>
<path d="M82.7249 173.078C81.5329 174.254 80.361 175.444 79.2402 176.688C78.6811 177.309 78.1312 177.937 77.5916 178.575C77.0524 179.211 76.5768 179.905 76.0294 180.532C75.9992 180.566 76.0566 180.613 76.0852 180.577C76.5983 179.922 77.2065 179.33 77.7549 178.705C78.3053 178.076 78.8588 177.451 79.4163 176.829C80.5289 175.586 81.6405 174.34 82.7812 173.123C82.8124 173.089 82.7571 173.047 82.7249 173.078Z" fill="#263238"/>
<path opacity="0.1" d="M80.2862 177.485L76.7181 181.532C76.7181 181.532 71.6032 178.859 68.9843 176.981C66.5037 175.202 65.8565 173.735 67.6009 172.865C70.7835 174.026 76.7037 176.18 80.2862 177.485Z" fill="black"/>
<path d="M79.6795 194.712L80.7276 198.552C80.7276 198.552 52.8635 219.833 51.6019 219.152C51.6019 219.152 55.7286 181.973 62.8659 174.593C66.4356 170.902 70.5121 171.284 73.0501 173.987C73.6927 174.671 80.6702 183.409 81.4013 187.397C82.0383 190.915 79.6795 194.712 79.6795 194.712Z" fill="#7C7A48"/>
<path d="M79.1639 182.382C78.7369 181.598 78.2863 180.837 77.802 180.088C77.6991 179.803 77.5521 179.537 77.4134 179.265C77.2142 178.874 77.0222 178.483 76.8481 178.08C76.8317 178.042 76.779 178.065 76.7964 178.104C76.9812 178.501 77.1451 178.905 77.3043 179.314C77.313 179.335 77.3212 179.357 77.3294 179.379C77.1507 179.125 76.969 178.873 76.7831 178.623C76.4938 178.234 76.2168 177.821 75.8871 177.465C75.8712 177.448 75.8456 177.471 75.8564 177.49C76.0888 177.912 76.3827 178.305 76.6438 178.71C76.9147 179.13 77.1814 179.55 77.4579 179.966C78.0042 180.786 78.5623 181.597 79.1147 182.413C79.1357 182.443 79.1813 182.415 79.1639 182.382Z" fill="#263238"/>
<path opacity="0.2" d="M63.4778 175.027C63.1194 175.027 62.8224 175.324 62.8224 175.693C62.8224 176.051 63.1194 176.348 63.4778 176.348C63.8464 176.348 64.1434 176.051 64.1434 175.693C64.1434 175.324 63.8464 175.027 63.4778 175.027ZM63.4778 176.143C63.232 176.143 63.0272 175.939 63.0272 175.693C63.0272 175.437 63.232 175.237 63.4778 175.237C63.7338 175.237 63.9283 175.437 63.9283 175.693C63.9283 175.939 63.7338 176.143 63.4778 176.143ZM69.4426 175.027C69.0739 175.027 68.777 175.324 68.777 175.693C68.777 176.051 69.0739 176.348 69.4426 176.348C69.8061 176.348 70.103 176.051 70.103 175.693C70.103 175.324 69.8061 175.027 69.4426 175.027ZM69.4426 176.143C69.1968 176.143 68.992 175.939 68.992 175.693C68.992 175.437 69.1968 175.237 69.4426 175.237C69.6934 175.237 69.8982 175.437 69.8982 175.693C69.8982 175.939 69.6934 176.143 69.4426 176.143ZM58.1427 184.53C58.0659 184.771 57.9942 185.011 57.9226 185.257C58.0813 185.139 58.1786 184.955 58.1786 184.745C58.1786 184.668 58.1683 184.597 58.1427 184.53ZM63.4778 184.079C63.1194 184.079 62.8224 184.376 62.8224 184.745C62.8224 185.103 63.1194 185.4 63.4778 185.4C63.8464 185.4 64.1434 185.103 64.1434 184.745C64.1434 184.376 63.8464 184.079 63.4778 184.079ZM63.4778 185.196C63.232 185.196 63.0272 184.991 63.0272 184.745C63.0272 184.489 63.232 184.295 63.4778 184.295C63.7338 184.295 63.9283 184.489 63.9283 184.745C63.9283 184.991 63.7338 185.196 63.4778 185.196ZM69.4426 184.079C69.0739 184.079 68.777 184.376 68.777 184.745C68.777 185.103 69.0739 185.4 69.4426 185.4C69.8061 185.4 70.103 185.103 70.103 184.745C70.103 184.376 69.8061 184.079 69.4426 184.079ZM69.4426 185.196C69.1968 185.196 68.992 184.991 68.992 184.745C68.992 184.489 69.1968 184.295 69.4426 184.295C69.6934 184.295 69.8982 184.489 69.8982 184.745C69.8982 184.991 69.6934 185.196 69.4426 185.196ZM75.4022 184.079C75.0438 184.079 74.7469 184.376 74.7469 184.745C74.7469 185.103 75.0438 185.4 75.4022 185.4C75.7709 185.4 76.0678 185.103 76.0678 184.745C76.0678 184.376 75.7709 184.079 75.4022 184.079ZM75.4022 185.196C75.1565 185.196 74.9517 184.991 74.9517 184.745C74.9517 184.489 75.1565 184.295 75.4022 184.295C75.648 184.295 75.8528 184.489 75.8528 184.745C75.8528 184.991 75.648 185.196 75.4022 185.196ZM60.503 179.599C60.1344 179.599 59.8374 179.896 59.8374 180.265C59.8374 180.623 60.1344 180.92 60.503 180.92C60.8614 180.92 61.1584 180.623 61.1584 180.265C61.1584 179.896 60.8614 179.599 60.503 179.599ZM60.503 180.716C60.247 180.716 60.0525 180.511 60.0525 180.265C60.0525 180.009 60.247 179.809 60.503 179.809C60.7488 179.809 60.9485 180.009 60.9485 180.265C60.9485 180.511 60.7488 180.716 60.503 180.716ZM66.4627 179.599C66.0941 179.599 65.7971 179.896 65.7971 180.265C65.7971 180.623 66.0941 180.92 66.4627 180.92C66.8262 180.92 67.1232 180.623 67.1232 180.265C67.1232 179.896 66.8262 179.599 66.4627 179.599ZM66.4627 180.716C66.2118 180.716 66.007 180.511 66.007 180.265C66.007 180.009 66.2118 179.809 66.4627 179.809C66.7085 179.809 66.9133 180.009 66.9133 180.265C66.9133 180.511 66.7085 180.716 66.4627 180.716ZM72.4173 179.599C72.0589 179.599 71.7619 179.896 71.7619 180.265C71.7619 180.623 72.0589 180.92 72.4173 180.92C72.7859 180.92 73.0829 180.623 73.0829 180.265C73.0829 179.896 72.7859 179.599 72.4173 179.599ZM72.4173 180.716C72.1715 180.716 71.9718 180.511 71.9718 180.265C71.9718 180.009 72.1715 179.809 72.4173 179.809C72.6733 179.809 72.873 180.009 72.873 180.265C72.873 180.511 72.6733 180.716 72.4173 180.716ZM77.7267 180.234C77.7216 180.245 77.7216 180.255 77.7216 180.265C77.7216 180.542 77.9008 180.782 78.1517 180.879C78.0134 180.664 77.8701 180.449 77.7267 180.234ZM57.5181 193.137C57.1546 193.137 56.8576 193.434 56.8576 193.797C56.8576 194.161 57.1546 194.458 57.5181 194.458C57.8816 194.458 58.1786 194.161 58.1786 193.797C58.1786 193.434 57.8816 193.137 57.5181 193.137ZM57.5181 194.253C57.2723 194.253 57.0675 194.048 57.0675 193.797C57.0675 193.546 57.2723 193.347 57.5181 193.347C57.769 193.347 57.9738 193.546 57.9738 193.797C57.9738 194.048 57.769 194.253 57.5181 194.253ZM63.4778 193.137C63.1194 193.137 62.8224 193.434 62.8224 193.797C62.8224 194.161 63.1194 194.458 63.4778 194.458C63.8464 194.458 64.1434 194.161 64.1434 193.797C64.1434 193.434 63.8464 193.137 63.4778 193.137ZM63.4778 194.253C63.232 194.253 63.0272 194.048 63.0272 193.797C63.0272 193.546 63.232 193.347 63.4778 193.347C63.7338 193.347 63.9283 193.546 63.9283 193.797C63.9283 194.048 63.7338 194.253 63.4778 194.253ZM69.4426 193.137C69.0739 193.137 68.777 193.434 68.777 193.797C68.777 194.161 69.0739 194.458 69.4426 194.458C69.8061 194.458 70.103 194.161 70.103 193.797C70.103 193.434 69.8061 193.137 69.4426 193.137ZM69.4426 194.253C69.1968 194.253 68.992 194.048 68.992 193.797C68.992 193.546 69.1968 193.347 69.4426 193.347C69.6934 193.347 69.8982 193.546 69.8982 193.797C69.8982 194.048 69.6934 194.253 69.4426 194.253ZM75.4022 193.137C75.0438 193.137 74.7469 193.434 74.7469 193.797C74.7469 194.161 75.0438 194.458 75.4022 194.458C75.7709 194.458 76.0678 194.161 76.0678 193.797C76.0678 193.434 75.7709 193.137 75.4022 193.137ZM75.4022 194.253C75.1565 194.253 74.9517 194.048 74.9517 193.797C74.9517 193.546 75.1565 193.347 75.4022 193.347C75.648 193.347 75.8528 193.546 75.8528 193.797C75.8528 194.048 75.648 194.253 75.4022 194.253ZM60.503 188.652C60.1344 188.652 59.8374 188.949 59.8374 189.317C59.8374 189.681 60.1344 189.978 60.503 189.978C60.8614 189.978 61.1584 189.681 61.1584 189.317C61.1584 188.949 60.8614 188.652 60.503 188.652ZM60.503 189.773C60.247 189.773 60.0525 189.568 60.0525 189.317C60.0525 189.066 60.247 188.867 60.503 188.867C60.7488 188.867 60.9485 189.066 60.9485 189.317C60.9485 189.568 60.7488 189.773 60.503 189.773ZM66.4627 188.652C66.0941 188.652 65.7971 188.949 65.7971 189.317C65.7971 189.681 66.0941 189.978 66.4627 189.978C66.8262 189.978 67.1232 189.681 67.1232 189.317C67.1232 188.949 66.8262 188.652 66.4627 188.652ZM66.4627 189.773C66.2118 189.773 66.007 189.568 66.007 189.317C66.007 189.066 66.2118 188.867 66.4627 188.867C66.7085 188.867 66.9133 189.066 66.9133 189.317C66.9133 189.568 66.7085 189.773 66.4627 189.773ZM72.4173 188.652C72.0589 188.652 71.7619 188.949 71.7619 189.317C71.7619 189.681 72.0589 189.978 72.4173 189.978C72.7859 189.978 73.0829 189.681 73.0829 189.317C73.0829 188.949 72.7859 188.652 72.4173 188.652ZM72.4173 189.773C72.1715 189.773 71.9718 189.568 71.9718 189.317C71.9718 189.066 72.1715 188.867 72.4173 188.867C72.6733 188.867 72.873 189.066 72.873 189.317C72.873 189.568 72.6733 189.773 72.4173 189.773ZM78.3872 188.652C78.0186 188.652 77.7216 188.949 77.7216 189.317C77.7216 189.681 78.0186 189.978 78.3872 189.978C78.7507 189.978 79.0477 189.681 79.0477 189.317C79.0477 188.949 78.7507 188.652 78.3872 188.652ZM78.3872 189.773C78.1363 189.773 77.9315 189.568 77.9315 189.317C77.9315 189.066 78.1363 188.867 78.3872 188.867C78.633 188.867 78.8378 189.066 78.8378 189.317C78.8378 189.568 78.633 189.773 78.3872 189.773ZM57.5181 202.189C57.1546 202.189 56.8576 202.486 56.8576 202.855C56.8576 203.213 57.1546 203.51 57.5181 203.51C57.8816 203.51 58.1786 203.213 58.1786 202.855C58.1786 202.486 57.8816 202.189 57.5181 202.189ZM57.5181 203.305C57.2723 203.305 57.0675 203.1 57.0675 202.855C57.0675 202.599 57.2723 202.404 57.5181 202.404C57.769 202.404 57.9738 202.599 57.9738 202.855C57.9738 203.1 57.769 203.305 57.5181 203.305ZM63.4778 202.189C63.1194 202.189 62.8224 202.486 62.8224 202.855C62.8224 203.213 63.1194 203.51 63.4778 203.51C63.8464 203.51 64.1434 203.213 64.1434 202.855C64.1434 202.486 63.8464 202.189 63.4778 202.189ZM63.4778 203.305C63.232 203.305 63.0272 203.1 63.0272 202.855C63.0272 202.599 63.232 202.404 63.4778 202.404C63.7338 202.404 63.9283 202.599 63.9283 202.855C63.9283 203.1 63.7338 203.305 63.4778 203.305ZM69.4426 202.189C69.0739 202.189 68.777 202.486 68.777 202.855C68.777 203.213 69.0739 203.51 69.4426 203.51C69.8061 203.51 70.103 203.213 70.103 202.855C70.103 202.486 69.8061 202.189 69.4426 202.189ZM69.4426 203.305C69.1968 203.305 68.992 203.1 68.992 202.855C68.992 202.599 69.1968 202.404 69.4426 202.404C69.6934 202.404 69.8982 202.599 69.8982 202.855C69.8982 203.1 69.6934 203.305 69.4426 203.305ZM75.4022 202.189C75.0438 202.189 74.7469 202.486 74.7469 202.855C74.7469 202.921 74.7571 202.988 74.7827 203.049C74.8442 203.008 74.9005 202.962 74.9568 202.916C74.9517 202.896 74.9517 202.875 74.9517 202.855C74.9517 202.599 75.1565 202.404 75.4022 202.404C75.4688 202.404 75.5302 202.419 75.5866 202.445C75.6531 202.399 75.7146 202.348 75.776 202.302C75.6685 202.23 75.5405 202.189 75.4022 202.189ZM54.912 197.827C54.8915 197.909 54.8762 197.985 54.8608 198.062C54.9427 198.144 54.9888 198.252 54.9888 198.375C54.9888 198.554 54.8762 198.712 54.7226 198.784C54.7072 198.861 54.6918 198.938 54.6765 199.015C54.9786 198.953 55.1936 198.687 55.1936 198.375C55.1936 198.144 55.0861 197.944 54.912 197.827ZM60.503 197.709C60.1344 197.709 59.8374 198.006 59.8374 198.375C59.8374 198.733 60.1344 199.03 60.503 199.03C60.8614 199.03 61.1584 198.733 61.1584 198.375C61.1584 198.006 60.8614 197.709 60.503 197.709ZM60.503 198.825C60.247 198.825 60.0525 198.62 60.0525 198.375C60.0525 198.124 60.247 197.919 60.503 197.919C60.7488 197.919 60.9485 198.124 60.9485 198.375C60.9485 198.62 60.7488 198.825 60.503 198.825ZM66.4627 197.709C66.0941 197.709 65.7971 198.006 65.7971 198.375C65.7971 198.733 66.0941 199.03 66.4627 199.03C66.8262 199.03 67.1232 198.733 67.1232 198.375C67.1232 198.006 66.8262 197.709 66.4627 197.709ZM66.4627 198.825C66.2118 198.825 66.007 198.62 66.007 198.375C66.007 198.124 66.2118 197.919 66.4627 197.919C66.7085 197.919 66.9133 198.124 66.9133 198.375C66.9133 198.62 66.7085 198.825 66.4627 198.825ZM72.4173 197.709C72.0589 197.709 71.7619 198.006 71.7619 198.375C71.7619 198.733 72.0589 199.03 72.4173 199.03C72.7859 199.03 73.0829 198.733 73.0829 198.375C73.0829 198.006 72.7859 197.709 72.4173 197.709ZM72.4173 198.825C72.1715 198.825 71.9718 198.62 71.9718 198.375C71.9718 198.124 72.1715 197.919 72.4173 197.919C72.6733 197.919 72.873 198.124 72.873 198.375C72.873 198.62 72.6733 198.825 72.4173 198.825ZM78.3872 197.709C78.0186 197.709 77.7216 198.006 77.7216 198.375C77.7216 198.733 78.0186 199.03 78.3872 199.03C78.7507 199.03 79.0477 198.733 79.0477 198.375C79.0477 198.006 78.7507 197.709 78.3872 197.709ZM78.3872 198.825C78.1363 198.825 77.9315 198.62 77.9315 198.375C77.9315 198.124 78.1363 197.919 78.3872 197.919C78.633 197.919 78.8378 198.124 78.8378 198.375C78.8378 198.62 78.633 198.825 78.3872 198.825ZM57.5181 211.246C57.1546 211.246 56.8576 211.543 56.8576 211.907C56.8576 212.27 57.1546 212.567 57.5181 212.567C57.8816 212.567 58.1786 212.27 58.1786 211.907C58.1786 211.543 57.8816 211.246 57.5181 211.246ZM57.5181 212.362C57.2723 212.362 57.0675 212.158 57.0675 211.907C57.0675 211.656 57.2723 211.456 57.5181 211.456C57.769 211.456 57.9738 211.656 57.9738 211.907C57.9738 212.158 57.769 212.362 57.5181 212.362ZM63.4778 211.246C63.1245 211.246 62.8326 211.533 62.8224 211.886C62.9094 211.825 62.9965 211.763 63.0784 211.707V211.702C63.145 211.574 63.2627 211.482 63.4112 211.461H63.4163C63.4982 211.4 63.5802 211.338 63.6672 211.277C63.6058 211.256 63.5443 211.246 63.4778 211.246ZM54.5382 206.761C54.1696 206.761 53.8778 207.058 53.8778 207.427C53.8778 207.785 54.1696 208.082 54.5382 208.082C54.9069 208.082 55.1936 207.785 55.1936 207.427C55.1936 207.058 54.9069 206.761 54.5382 206.761ZM54.5382 207.877C54.2874 207.877 54.0826 207.672 54.0826 207.427C54.0826 207.181 54.2874 206.976 54.5382 206.976C54.784 206.976 54.9888 207.181 54.9888 207.427C54.9888 207.672 54.784 207.877 54.5382 207.877ZM60.503 206.761C60.1344 206.761 59.8374 207.058 59.8374 207.427C59.8374 207.785 60.1344 208.082 60.503 208.082C60.8614 208.082 61.1584 207.785 61.1584 207.427C61.1584 207.058 60.8614 206.761 60.503 206.761ZM60.503 207.877C60.247 207.877 60.0525 207.672 60.0525 207.427C60.0525 207.181 60.247 206.976 60.503 206.976C60.7488 206.976 60.9485 207.181 60.9485 207.427C60.9485 207.672 60.7488 207.877 60.503 207.877ZM66.4627 206.761C66.0941 206.761 65.7971 207.058 65.7971 207.427C65.7971 207.785 66.0941 208.082 66.4627 208.082C66.8262 208.082 67.1232 207.785 67.1232 207.427C67.1232 207.058 66.8262 206.761 66.4627 206.761ZM66.4627 207.877C66.2118 207.877 66.007 207.672 66.007 207.427C66.007 207.181 66.2118 206.976 66.4627 206.976C66.7085 206.976 66.9133 207.181 66.9133 207.427C66.9133 207.672 66.7085 207.877 66.4627 207.877ZM54.5382 215.818C54.1696 215.818 53.8778 216.115 53.8778 216.484C53.8778 216.842 54.1696 217.139 54.5382 217.139C54.9069 217.139 55.1936 216.842 55.1936 216.484C55.1936 216.115 54.9069 215.818 54.5382 215.818ZM54.5382 216.935C54.2874 216.935 54.0826 216.73 54.0826 216.484C54.0826 216.233 54.2874 216.028 54.5382 216.028C54.784 216.028 54.9888 216.233 54.9888 216.484C54.9888 216.73 54.784 216.935 54.5382 216.935Z" fill="black"/>
<path d="M62.7057 174.978C52.8778 185.209 38.5495 211.115 36.778 214.831C35.5758 217.352 48.7588 224 49.3184 222.166C50.0352 219.817 61.5188 190.825 64.5688 179.885C66.2513 173.853 64.7357 172.865 62.7057 174.978Z" fill="#F7A9A0"/>
<path d="M49.9395 220.433C49.4802 221.688 47.9145 227.023 46.8193 227.687C45.7242 228.352 39.98 228.209 37.0836 228.209C34.1878 228.209 33.6179 227.402 33.6655 226.406C33.7132 225.409 39.7896 225.219 39.7896 225.219C39.7896 225.219 31.6744 227.545 29.633 227.925C27.5917 228.305 22.889 229.491 22.2085 227.798C21.9018 227.035 23.1895 226.263 23.1895 226.263C23.1895 226.263 21.2157 226.839 20.9019 225.858C20.545 224.742 22.1133 224.127 22.1133 224.127C22.1133 224.127 20.8804 224.375 20.8517 223.465C20.7882 221.432 28.5066 220.433 28.5066 220.433C28.5066 220.433 22.5971 223.31 22.4072 221.65C22.1445 219.353 34.2559 216.834 35.5169 215.832C36.778 214.831 37.5368 213.339 37.5368 213.339L49.9395 220.433Z" fill="#F7A9A0"/>
<path d="M33.7085 226.911C33.6732 226.608 33.7751 226.324 33.9835 226.136C34.1827 225.942 34.4289 225.799 34.6895 225.679C35.2118 225.441 35.7791 225.281 36.3489 225.14C37.4902 224.85 38.6601 224.645 39.8249 224.344C38.6222 224.326 37.4241 224.46 36.2491 224.746C35.6654 224.899 35.0787 225.082 34.5421 225.399C34.2748 225.554 34.0204 225.753 33.8299 226.011C33.641 226.272 33.58 226.633 33.7085 226.911Z" fill="#263238"/>
<path d="M23.1895 226.263C24.0246 226.06 24.8474 225.824 25.6691 225.586C26.4924 225.353 27.3075 225.097 28.1252 224.85L30.5695 224.084C31.3846 223.828 32.1992 223.575 33.0225 223.33C32.1654 223.41 31.3226 223.589 30.4865 223.783C29.6489 223.973 28.8251 224.213 28.0049 224.462C27.1872 224.719 26.3726 224.986 25.5713 225.29C24.7685 225.59 23.9693 225.901 23.1895 226.263Z" fill="#263238"/>
<path d="M31.0625 221.303C30.2735 221.345 29.4938 221.472 28.7212 221.627C27.9465 221.777 27.1846 221.984 26.431 222.217C25.6794 222.456 24.9349 222.721 24.2145 223.045C23.4895 223.355 22.7866 223.717 22.1133 224.127C22.8598 223.869 23.5863 223.583 24.3282 223.335C25.0675 223.083 25.8058 222.832 26.5523 222.604C27.2947 222.364 28.0453 222.15 28.7949 221.929C29.5465 221.712 30.3022 221.51 31.0625 221.303Z" fill="#263238"/>
<path d="M29.8691 219.366C28.5947 219.441 27.348 219.749 26.1422 220.153C24.939 220.565 23.7696 221.098 22.7139 221.814C23.914 221.386 25.0808 220.934 26.2733 220.537C27.4606 220.127 28.6577 219.755 29.8691 219.366Z" fill="#263238"/>
<path d="M52.3796 186.013L63.849 186.417C63.849 186.417 65.4244 180.868 65.8627 177.674C66.4428 173.448 65.0097 172.241 61.0637 175.674C58.4233 177.97 52.3796 186.013 52.3796 186.013Z" fill="#7C7A48"/>
<path opacity="0.2" d="M60.503 179.599C60.1344 179.599 59.8374 179.896 59.8374 180.265C59.8374 180.623 60.1344 180.92 60.503 180.92C60.8614 180.92 61.1584 180.623 61.1584 180.265C61.1584 179.896 60.8614 179.599 60.503 179.599ZM60.503 180.715C60.247 180.715 60.0525 180.51 60.0525 180.265C60.0525 180.009 60.247 179.809 60.503 179.809C60.7488 179.809 60.9485 180.009 60.9485 180.265C60.9485 180.51 60.7488 180.715 60.503 180.715ZM63.4778 184.079C63.1194 184.079 62.8224 184.376 62.8224 184.745C62.8224 185.103 63.1194 185.4 63.4778 185.4C63.8464 185.4 64.1434 185.103 64.1434 184.745C64.1434 184.376 63.8464 184.079 63.4778 184.079ZM63.4778 185.195C63.232 185.195 63.0272 184.99 63.0272 184.745C63.0272 184.489 63.232 184.294 63.4778 184.294C63.7338 184.294 63.9283 184.489 63.9283 184.745C63.9283 184.99 63.7338 185.195 63.4778 185.195ZM57.5181 184.079C57.1546 184.079 56.8576 184.376 56.8576 184.745C56.8576 185.103 57.1546 185.4 57.5181 185.4C57.8816 185.4 58.1786 185.103 58.1786 184.745C58.1786 184.376 57.8816 184.079 57.5181 184.079ZM57.5181 185.195C57.2723 185.195 57.0675 184.99 57.0675 184.745C57.0675 184.489 57.2723 184.294 57.5181 184.294C57.769 184.294 57.9738 184.489 57.9738 184.745C57.9738 184.99 57.769 185.195 57.5181 185.195ZM63.4778 175.027C63.1194 175.027 62.8224 175.324 62.8224 175.692C62.8224 176.051 63.1194 176.348 63.4778 176.348C63.8464 176.348 64.1434 176.051 64.1434 175.692C64.1434 175.324 63.8464 175.027 63.4778 175.027ZM63.4778 176.143C63.232 176.143 63.0272 175.938 63.0272 175.692C63.0272 175.436 63.232 175.237 63.4778 175.237C63.7338 175.237 63.9283 175.436 63.9283 175.692C63.9283 175.938 63.7338 176.143 63.4778 176.143Z" fill="black"/>
<path d="M62.4502 186.371C62.5741 186.353 63.7532 186.356 63.8377 186.38C64.0067 185.723 64.1669 185.063 64.343 184.408C64.4311 184.081 64.5248 183.754 64.6231 183.429C64.7316 183.071 64.8361 182.658 64.9324 182.342C64.9472 182.292 65.0117 182.306 65.0015 182.357C64.9175 182.781 64.8417 183.095 64.767 183.461C64.7004 183.787 64.6257 184.115 64.5443 184.439C64.3717 185.124 64.2181 185.862 64.0123 186.538C63.9964 186.59 62.5679 186.439 62.4466 186.412C62.4256 186.407 62.4307 186.374 62.4502 186.371Z" fill="#263238"/>
<path d="M53.5818 184.966C55.255 184.91 56.9252 184.877 58.5989 184.919C59.434 184.94 60.268 184.973 61.1021 185.019C61.9351 185.065 62.7656 185.197 63.5976 185.231C63.6431 185.233 63.6375 185.306 63.5914 185.302C62.7635 185.224 61.9156 185.259 61.0842 185.227C60.2496 185.194 59.4145 185.166 58.5795 185.143C56.9119 185.096 55.2433 185.046 53.5752 185.037C53.5291 185.037 53.5368 184.968 53.5818 184.966Z" fill="#263238"/>
<path d="M67.7791 172.022C64.3384 172.366 65.257 175.833 66.774 177.423C67.7883 178.486 69.8353 179.555 71.0139 179.133C72.1925 178.711 71.2607 176.079 71.2607 176.079C71.2607 176.079 73.2001 177.963 73.92 177.148C74.6399 176.335 71.3431 171.666 67.7791 172.022Z" fill="white"/>
<path d="M65.9922 173.84C66.1847 174.329 68.8113 176.312 71.1122 175.865C71.8613 175.719 71.5157 172.55 71.5157 172.55L71.5397 172.235L71.8725 167.827L66.3895 165.34L65.6026 165.019C65.6026 165.019 65.5908 166.231 65.5918 167.74C65.5913 167.81 65.5913 167.881 65.5918 167.955C65.5898 168.041 65.5867 168.121 65.5882 168.201C65.5852 168.426 65.5836 168.657 65.5862 168.886C65.5877 169.061 65.5882 169.231 65.5964 169.414C65.6 169.598 65.6072 169.777 65.6108 169.961C65.6855 171.775 65.9139 173.631 65.9922 173.84Z" fill="#F7A9A0"/>
<path d="M65.5917 167.741C67.3095 170.96 70.2254 171.95 71.5397 172.235L71.8725 167.827L66.3895 165.34L65.6025 165.02C65.6025 165.02 65.5912 166.231 65.5917 167.741Z" fill="#263238"/>
<path d="M76.3366 158.911C79.53 165.981 75.6552 168.692 74.1299 169.379C72.7455 170.002 67.9506 171.95 64.044 165.247C60.1375 158.544 62.4154 154.824 65.5068 153.23C68.5988 151.637 73.1433 151.84 76.3366 158.911Z" fill="#F7A9A0"/>
<path d="M73.5012 157.746C73.3235 157.792 73.1525 157.804 72.9723 157.831C72.769 157.862 72.6103 157.906 72.4163 157.815C72.3123 157.766 72.2575 157.605 72.2954 157.5C72.3845 157.254 72.6246 157.155 72.8678 157.108C73.132 157.057 73.3481 157.086 73.5846 157.213C73.8135 157.338 73.7352 157.686 73.5012 157.746Z" fill="#263238"/>
<path d="M68.6326 159.898C68.7949 159.812 68.9306 159.707 69.0821 159.607C69.2536 159.493 69.4016 159.42 69.484 159.222C69.5281 159.116 69.4615 158.96 69.3627 158.908C69.1318 158.785 68.8876 158.872 68.6756 159C68.4457 159.14 68.3044 159.306 68.2143 159.559C68.1272 159.804 68.4181 160.01 68.6326 159.898Z" fill="#263238"/>
<path d="M70.4691 161.342C70.4579 161.325 70.4404 161.38 70.4492 161.4C70.6657 161.882 70.8326 162.471 70.4573 162.815C70.4456 162.826 70.4573 162.85 70.4727 162.841C70.9811 162.543 70.7512 161.763 70.4691 161.342Z" fill="#263238"/>
<path d="M69.823 161.011C69.0125 161.275 69.6003 162.875 70.3509 162.631C71.0892 162.391 70.5019 160.789 69.823 161.011Z" fill="#263238"/>
<path d="M69.5393 161.211C69.4328 161.353 69.3545 161.563 69.1922 161.642C69.0043 161.733 68.7954 161.619 68.609 161.504C68.5896 161.493 68.5809 161.511 68.5885 161.533C68.6966 161.841 68.93 162.113 69.2756 162.038C69.591 161.97 69.7067 161.619 69.6704 161.283C69.6627 161.22 69.5823 161.154 69.5393 161.211Z" fill="#263238"/>
<path d="M73.2672 160.024C73.2641 160.004 73.3143 160.034 73.321 160.055C73.4833 160.557 73.7541 161.106 74.263 161.11C74.2789 161.11 74.2861 161.136 74.2687 161.14C73.6922 161.259 73.3399 160.527 73.2672 160.024Z" fill="#263238"/>
<path d="M73.5252 159.346C74.3035 158.999 74.9404 160.58 74.2195 160.902C73.5099 161.219 72.873 159.637 73.5252 159.346Z" fill="#263238"/>
<path d="M73.897 159.317C74.0557 159.35 74.2405 159.453 74.3941 159.403C74.5718 159.344 74.6307 159.121 74.6752 158.913C74.6798 158.892 74.6977 158.9 74.7064 158.92C74.8365 159.219 74.8636 159.575 74.5964 159.75C74.3526 159.909 74.0536 159.728 73.8606 159.456C73.8243 159.406 73.833 159.303 73.897 159.317Z" fill="#263238"/>
<path d="M72.0323 165.088C72.19 165.168 72.362 165.292 72.5494 165.25C72.7296 165.209 72.9098 165.065 73.0506 164.952C73.0644 164.94 73.0859 164.952 73.0808 164.971C73.0112 165.205 72.7747 165.413 72.5279 165.446C72.2872 165.479 72.1121 165.317 71.9908 165.126C71.9739 165.1 72.0092 165.076 72.0323 165.088Z" fill="#263238"/>
<path d="M73.4177 162.518C73.4177 162.518 73.8002 163.217 73.9323 163.565C73.9446 163.597 73.8662 163.645 73.7505 163.697C73.7459 163.701 73.7434 163.704 73.7372 163.702C73.1597 164.032 72.4603 164.055 71.8966 163.695C71.8597 163.671 71.8899 163.618 71.9299 163.628C72.5166 163.79 73.0563 163.684 73.6046 163.486C73.5923 163.381 72.9098 162.312 72.9636 162.286C73.1474 162.198 73.5713 162.185 73.8217 162.165C73.0675 160.686 72.0824 159.341 71.3533 157.857C71.3283 157.804 71.401 157.758 71.4358 157.801C72.5683 159.138 73.4735 160.82 74.2912 162.327C74.3946 162.514 73.5795 162.524 73.4177 162.518Z" fill="#263238"/>
<path d="M73.6548 163.463C73.6548 163.463 73.5534 164.066 73.1894 164.451C73.0557 164.593 72.8909 164.706 72.681 164.751C72.2504 164.844 72.0635 164.501 71.9816 164.167C71.9135 163.893 71.9191 163.624 71.9191 163.624C71.9191 163.624 72.7383 163.86 73.6548 163.463Z" fill="#263238"/>
<path d="M73.1894 164.45C73.0557 164.592 72.8909 164.705 72.681 164.75C72.2504 164.844 72.0635 164.5 71.9816 164.166C72.4101 164.001 72.9533 164.072 73.1894 164.45Z" fill="#FF9ABB"/>
<path d="M64.1085 165.372C64.898 165.005 66.1258 161.948 64.6487 158.017C64.6487 158.017 65.7311 161.639 65.6701 162.257C65.6092 162.875 66.3532 160.54 65.2063 157.353C65.2063 157.353 67.4478 157.923 69.0995 157.753C70.7512 157.583 71.6559 157.21 71.7199 157.06C71.7839 156.91 69.3228 157.084 68.4616 156.636C68.4616 156.636 73.1443 156.913 75.0229 156.333C75.2399 156.266 73.7792 151.828 70.2336 151.1C66.6875 150.371 63.0057 154.122 62.2628 155.757C62.2628 155.757 60.9316 156.514 60.2225 159.205C59.5128 161.895 63.2581 165.767 64.1085 165.372Z" fill="#263238"/>
<path d="M65.4131 165.283C65.4131 165.283 63.0134 163.559 62.1763 164.493C61.3396 165.427 63.7035 168.317 65.0803 168.342C66.4566 168.368 66.5052 167.095 66.5052 167.095L65.4131 165.283Z" fill="#F7A9A0"/>
<path d="M62.8746 165.304C62.8541 165.309 62.8603 165.338 62.8797 165.339C63.8546 165.385 64.5816 166.018 65.1848 166.728C64.8197 166.502 64.4137 166.45 64.0968 166.9C64.0799 166.924 64.1137 166.952 64.1357 166.938C64.4593 166.74 64.7327 166.713 65.067 166.909C65.3041 167.048 65.5063 167.259 65.7065 167.446C65.7731 167.509 65.8964 167.419 65.8365 167.342C65.8319 167.336 65.8273 167.331 65.8227 167.324C65.4618 166.229 64.0814 165.003 62.8746 165.304Z" fill="#263238"/>
<path d="M62.3544 155.392C61.4456 156.342 58.2461 156.403 56.8156 154.935C54.846 152.913 57.1643 148.683 60.2056 149.595C63.2515 150.509 63.0564 154.66 62.3544 155.392Z" fill="#263238"/>
<path d="M56.8515 150.837C56.3497 151.63 55.9851 152.519 55.9252 153.411C55.9043 153.855 55.978 154.295 56.1935 154.66C56.404 155.025 56.7327 155.318 57.1233 155.519C57.5053 155.734 57.9476 155.861 58.3895 155.97C58.8303 156.086 59.2835 156.126 59.7371 156.139C60.6408 156.14 61.5706 155.92 62.3549 155.392C61.6837 156.065 60.7191 156.441 59.7494 156.498C59.2635 156.528 58.7725 156.492 58.2963 156.394C57.8253 156.287 57.3507 156.162 56.9062 155.919C56.4675 155.682 56.0604 155.327 55.8172 154.865C55.574 154.403 55.5069 153.87 55.574 153.38C55.7066 152.393 56.2115 151.527 56.8515 150.837Z" fill="#263238"/>
</svg>
