<svg width="237" height="237" viewBox="0 0 237 237" fill="none" xmlns="http://www.w3.org/2000/svg">
<path d="M167.004 29.6567V56.9113H170.83V63.5226L177.441 56.9113H213.721V29.6567H167.004Z" fill="#EBEBEB"/>
<path d="M199.195 43.2839C199.195 44.5063 200.186 45.497 201.408 45.497C202.631 45.497 203.622 44.5063 203.622 43.2839C203.622 42.0614 202.631 41.0703 201.408 41.0703C200.186 41.0708 199.195 42.0619 199.195 43.2839Z" fill="white"/>
<path d="M188.149 43.2839C188.149 44.5063 189.14 45.497 190.362 45.497C191.585 45.497 192.575 44.5063 192.575 43.2839C192.575 42.0614 191.585 41.0703 190.362 41.0703C189.14 41.0708 188.149 42.0619 188.149 43.2839Z" fill="white"/>
<path d="M177.103 43.2839C177.103 44.5063 178.094 45.497 179.316 45.497C180.539 45.497 181.53 44.5063 181.53 43.2839C181.53 42.0614 180.539 41.0703 179.316 41.0703C178.094 41.0708 177.103 42.0619 177.103 43.2839Z" fill="white"/>
<path d="M88.6342 116.001V154.13H83.2823V163.378L74.0336 154.13H23.2781V116.001H88.6342Z" fill="white"/>
<path d="M88.6342 116.001C88.666 126.841 88.9058 143.417 88.9177 154.13L88.9191 154.412L88.6342 154.413L83.2823 154.439L83.5909 154.13L83.6345 163.379L83.6383 164.228L83.033 163.627L73.7473 154.416C62.5827 154.79 35.185 154.466 22.8132 154.594L22.8141 154.129L22.8738 116.001L22.8743 115.594L23.2782 115.596C39.5748 115.676 72.3476 115.855 88.6342 116.001ZM88.6342 116.001C72.3476 116.15 39.5591 116.33 23.2782 116.406L23.6825 116.001L23.7422 154.13L23.2782 153.666C36.0259 153.668 61.4593 153.704 74.2024 153.726L74.3194 153.845L83.5312 163.13L82.9301 163.379L82.9737 154.13L82.9752 153.82L83.2823 153.822L88.6342 153.847L88.3508 154.13C88.4181 143.488 88.5442 126.762 88.6342 116.001Z" fill="#EBEBEB"/>
<path d="M43.6009 135.065C43.6009 136.776 42.2145 138.162 40.5043 138.162C38.7941 138.162 37.4077 136.776 37.4077 135.065C37.4077 133.355 38.7941 131.969 40.5043 131.969C42.215 131.969 43.6009 133.356 43.6009 135.065Z" fill="#EBEBEB"/>
<path d="M59.0538 135.065C59.0538 136.776 57.6674 138.162 55.9572 138.162C54.247 138.162 52.8605 136.776 52.8605 135.065C52.8605 133.355 54.247 131.969 55.9572 131.969C57.6674 131.969 59.0538 133.356 59.0538 135.065Z" fill="#EBEBEB"/>
<path d="M74.5067 135.065C74.5067 136.776 73.1202 138.162 71.4105 138.162C69.7003 138.162 68.3138 136.776 68.3138 135.065C68.3138 133.355 69.7003 131.969 71.4105 131.969C73.1207 131.969 74.5067 133.356 74.5067 135.065Z" fill="#EBEBEB"/>
<path d="M31.9249 43.8721L34.002 46.9673L37.5873 47.9864L35.2856 50.9186L35.4244 54.6432L31.9249 53.3601L28.4249 54.6432L28.5638 50.9186L26.262 47.9864L29.8474 46.9673L31.9249 43.8721Z" fill="#EBEBEB"/>
<path d="M47.9395 43.8721L50.0166 46.9673L53.6019 47.9864L51.3001 50.9186L51.4395 54.6432L47.9395 53.3601L44.4399 54.6432L44.5788 50.9186L42.2766 47.9864L45.8624 46.9673L47.9395 43.8721Z" fill="#EBEBEB"/>
<path d="M63.954 43.8721L66.0316 46.9673L69.6169 47.9864L67.3152 50.9186L67.454 54.6432L63.954 53.3601L60.4545 54.6432L60.5934 50.9186L58.2916 47.9864L61.8774 46.9673L63.954 43.8721Z" fill="#EBEBEB"/>
<path d="M79.9691 43.8721L82.0466 46.9673L85.632 47.9864L83.3302 50.9186L83.4686 54.6432L79.9691 53.3601L76.4695 54.6432L76.608 50.9186L74.3062 47.9864L77.892 46.9673L79.9691 43.8721Z" fill="#EBEBEB"/>
<path d="M95.9841 43.8721L98.0607 46.9673L101.647 47.9864L99.3452 50.9186L99.4836 54.6432L95.9841 53.3601L92.4841 54.6432L92.623 50.9186L90.3212 47.9864L93.9066 46.9673L95.9841 43.8721Z" stroke="#EBEBEB" stroke-miterlimit="10"/>
<path d="M95.9841 53.3601V43.8721L93.9066 46.9673L90.3212 47.9864L92.623 50.9186L92.4841 54.6432L95.9841 53.3601Z" fill="#EBEBEB"/>
<path fill-rule="evenodd" clip-rule="evenodd" d="M179.819 116.214C178.89 115.634 178.08 114.791 176.838 114.913C176.362 114.962 176.466 114.568 176.462 114.309C176.44 109.636 176.425 104.969 176.406 100.3C176.404 99.9601 176.424 99.6809 176.794 99.4932C180.354 97.683 181.89 94.1389 184.064 91.1081C186.39 87.8731 187.179 84.3726 186.616 80.5043C186.463 79.4539 186.952 78.9813 187.898 78.7628C189.037 78.4993 190.173 78.8107 190.566 79.5918C191.533 81.531 192.365 83.5469 192.623 85.705C192.835 87.4754 192.206 89.2022 191.99 90.9546C191.832 92.2372 191.537 93.5056 191.298 94.8049C191.612 95.0314 191.975 94.912 192.311 94.9158C196.256 94.9087 200.2 94.894 204.146 94.8802C205.809 94.8745 206.624 95.349 206.858 96.452C207.147 97.8257 206.425 99.2254 205.152 99.8781C204.858 100.028 204.324 99.8951 204.289 100.357C204.256 100.828 204.805 100.778 205.078 100.967C206.509 101.942 206.251 103.963 204.602 105.137C204.206 105.417 203.435 105.29 203.417 105.874C203.41 106.338 204.131 106.331 204.458 106.657C205.615 107.792 205.049 109.921 203.329 110.786C203.109 110.896 202.835 110.917 202.637 111.055C202.442 111.188 202.25 111.336 202.631 111.604C204.343 112.819 204.313 114.518 202.597 115.763C202.428 115.885 202.256 116.01 202.084 116.133C201.46 116.594 200.722 116.59 200.008 116.595C193.822 116.628 187.636 116.644 181.45 116.661C180.869 116.663 180.283 116.647 179.819 116.214Z" fill="#EBEBEB"/>
<path fill-rule="evenodd" clip-rule="evenodd" d="M162.202 108.037C162.192 105.071 162.196 102.101 162.162 99.1364C162.155 98.5325 162.216 98.2363 162.956 98.2419C166.576 98.2742 170.191 98.2614 173.81 98.2088C174.52 98.1993 174.631 98.4429 174.628 99.0738C174.628 105.044 174.643 111.015 174.692 116.986C174.699 117.745 174.493 117.961 173.731 117.951C170.22 117.923 166.71 117.926 163.203 117.993C162.329 118.01 162.208 117.704 162.214 116.939C162.249 113.972 162.211 111.006 162.202 108.037Z" fill="#EBEBEB"/>
<path fill-rule="evenodd" clip-rule="evenodd" d="M111.299 155.872C112.003 156.314 112.615 156.956 113.559 156.866C113.92 156.83 113.84 157.13 113.843 157.326C113.847 160.873 113.847 164.416 113.85 167.959C113.85 168.217 113.834 168.429 113.553 168.571C110.846 169.936 109.672 172.622 108.013 174.917C106.24 177.367 105.631 180.022 106.049 182.96C106.163 183.757 105.791 184.115 105.072 184.278C104.206 184.476 103.345 184.236 103.049 183.642C102.32 182.168 101.693 180.635 101.502 178.997C101.346 177.652 101.828 176.344 101.996 175.014C102.12 174.04 102.347 173.078 102.531 172.093C102.294 171.92 102.018 172.01 101.763 172.006C98.7684 172.001 95.7741 172.003 92.7794 172.003C91.5171 172.003 90.8995 171.641 90.7246 170.803C90.5089 169.759 91.0607 168.699 92.0286 168.207C92.2523 168.094 92.6571 168.196 92.6846 167.846C92.7106 167.488 92.2945 167.525 92.0878 167.381C91.0038 166.637 91.2047 165.104 92.4594 164.217C92.7609 164.005 93.3463 164.103 93.3605 163.66C93.3676 163.308 92.8197 163.311 92.5722 163.063C91.6972 162.198 92.1319 160.584 93.4392 159.932C93.607 159.849 93.8151 159.833 93.9653 159.729C94.1142 159.628 94.2602 159.517 93.972 159.313C92.6751 158.386 92.7026 157.096 94.0085 156.156C94.1364 156.063 94.2673 155.969 94.3986 155.876C94.873 155.528 95.4333 155.533 95.9751 155.531C100.671 155.522 105.366 155.525 110.062 155.528C110.503 155.528 110.948 155.542 111.299 155.872Z" fill="#EBEBEB"/>
<path fill-rule="evenodd" clip-rule="evenodd" d="M124.651 162.124C124.651 164.375 124.641 166.629 124.659 168.88C124.663 169.338 124.616 169.563 124.054 169.556C121.306 169.523 118.562 169.523 115.815 169.554C115.276 169.559 115.193 169.374 115.196 168.896C115.211 164.363 115.215 159.832 115.192 155.3C115.189 154.723 115.346 154.56 115.925 154.57C118.59 154.599 121.254 154.607 123.916 154.564C124.58 154.553 124.671 154.786 124.664 155.367C124.63 157.618 124.651 159.87 124.651 162.124Z" fill="#EBEBEB"/>
<path d="M20.6683 214.72C83.3453 214.43 153.655 214.427 216.332 214.72C153.655 215.012 83.3449 215.01 20.6683 214.72Z" fill="#6E3E45"/>
<path d="M149.894 45.3701L152.3 48.8431L156.347 50.0575L153.787 53.4186L153.882 57.642L149.894 56.2465L145.907 57.642L146.002 53.4186L143.443 50.0575L147.489 48.8431L149.894 45.3701Z" fill="#FE812D"/>
<path d="M66.9037 104.504L69.3092 107.977L73.3553 109.192L70.7957 112.553L70.891 116.777L66.9037 115.381L62.9159 116.777L63.0112 112.553L60.4516 109.192L64.4981 107.977L66.9037 104.504Z" fill="#FE812D"/>
<path d="M96.1988 142.701L97.4013 144.437L99.4243 145.045L98.1445 146.725L98.1924 148.837L96.1988 148.139L94.2046 148.837L94.2525 146.725L92.9727 145.045L94.9957 144.437L96.1988 142.701Z" fill="#FE812D"/>
<path d="M173.322 99.6455L174.525 101.382L176.548 101.989L175.269 103.67L175.316 105.782L173.322 105.084L171.329 105.782L171.376 103.67L170.096 101.989L172.12 101.382L173.322 99.6455Z" fill="#FE812D"/>
<path d="M136.03 38.1333L137.233 39.87L139.256 40.4772L137.976 42.1576L138.024 44.2697L136.03 43.5715L134.036 44.2697L134.084 42.1576L132.804 40.4772L134.827 39.87L136.03 38.1333Z" fill="#FE812D"/>
<path d="M38.1266 169.045C38.1266 169.045 27.6484 187.575 27.6417 187.589C25.9586 191.326 24.5494 194.632 23.9801 196.41C23.9758 196.419 23.9711 196.428 23.9716 196.439C23.7559 197.11 23.662 197.557 23.7275 197.718C23.7322 197.731 23.7322 197.742 23.7388 197.751C24.5115 199.006 53.9838 213.329 55.1797 213.482C56.378 213.642 56.9075 210.239 56.2069 208.77C55.4978 207.298 46.671 196.77 46.671 196.77L56.9601 178.165L38.1266 169.045Z" fill="#EB9481"/>
<path d="M54.7081 213.375C53.5141 213.219 24.511 199.004 23.7403 197.753C23.7327 197.74 23.7299 197.729 23.7275 197.719C23.6607 197.558 23.7588 197.108 23.9697 196.441C23.973 196.426 23.974 196.421 23.9816 196.412C24.5513 194.634 25.961 191.326 27.6408 187.587C27.6418 187.582 29.4065 184.348 30.1099 183.224L48.8547 192.913L46.6729 196.769C46.6729 196.769 55.0309 207.191 55.7358 208.66C56.4401 210.131 55.9069 213.531 54.7081 213.375Z" fill="#EBEBEB"/>
<path d="M55.2466 212.974C54.0426 212.792 24.6783 197.664 23.9275 196.378C23.6332 195.894 25.5884 191.487 28.103 186.23C28.13 186.175 28.1565 186.12 28.1831 186.066L47.2369 195.614L47.0639 195.931C47.0639 195.931 55.714 206.749 56.3913 208.251C57.0615 209.744 56.4482 213.162 55.2466 212.974Z" fill="#FE812D"/>
<path d="M55.5006 211.665C50.6132 208.993 30.6488 198.679 25.6149 196.409C25.5737 196.391 25.5599 196.418 25.5988 196.441C30.3853 199.195 50.4326 209.346 55.4594 211.746C55.5651 211.796 55.604 211.721 55.5006 211.665Z" fill="white"/>
<path d="M48.6262 196.808C46.8658 195.441 44.3294 194.513 42.1258 195.134C42.0405 195.158 42.076 195.279 42.149 195.292C44.383 195.676 46.378 196.212 48.4916 197.05C48.6409 197.109 48.7528 196.907 48.6262 196.808Z" fill="#6E3E45"/>
<path d="M49.596 198.38C47.8356 197.013 45.2992 196.085 43.0956 196.706C43.0103 196.73 43.0458 196.851 43.1188 196.863C45.3528 197.248 47.3474 197.783 49.4614 198.622C49.6102 198.681 49.7221 198.478 49.596 198.38Z" fill="#6E3E45"/>
<path d="M50.5653 199.952C48.8049 198.585 46.2685 197.657 44.0649 198.278C43.9796 198.302 44.0151 198.423 44.0881 198.435C46.3221 198.82 48.3167 199.355 50.4307 200.194C50.58 200.253 50.6914 200.05 50.5653 199.952Z" fill="#6E3E45"/>
<path d="M31.3375 191.852C29.7572 189.691 26.3956 192.144 27.9788 194.308C29.5591 196.47 32.9207 194.017 31.3375 191.852Z" fill="white"/>
<path opacity="0.1" d="M48.356 197.554L50.4663 210.739C53.1245 212.061 54.9607 212.931 55.2442 212.974C56.4458 213.162 57.061 209.744 56.3932 208.249C55.8789 207.115 50.7929 200.63 48.356 197.554Z" fill="black"/>
<path d="M56.2372 212.152C56.6586 212.626 55.6357 214.332 55.1835 214.278C54.7313 214.224 22.7871 197.589 22.3055 197.186C21.8239 196.784 23.0302 194.935 23.7137 195.16C24.3968 195.386 56.2372 212.152 56.2372 212.152Z" fill="#6E3E45"/>
<path d="M30.0649 181.492L51.1849 192.769C51.1849 192.769 77.8436 154.778 78.3769 144.795C79.1135 131.01 67.3426 87.2447 67.3426 87.2447L48.5679 87.1172C48.5679 87.1172 56.2003 132.126 55.5798 139.805C55.2551 143.822 30.0649 181.492 30.0649 181.492Z" fill="#6E3E45"/>
<path d="M53.0283 188.405C51.9409 187.621 41.9296 181.82 34.3067 178.115C34.2555 178.09 34.2214 178.162 34.2673 178.192C36.5795 179.719 51.5219 187.905 52.9723 188.486C53.0197 188.505 53.0776 188.44 53.0283 188.405Z" fill="#6E3E45"/>
<path d="M58.1864 130.188C57.3142 123.603 56.3548 117.026 55.2604 110.473C54.1611 103.89 53.0022 97.3113 51.6257 90.781C51.4575 89.9837 51.2816 89.1878 51.1076 88.3915C51.0806 88.2688 50.8934 88.3043 50.9157 88.4285C52.0727 94.9081 53.2624 101.382 54.327 107.878C55.3912 114.373 56.3842 120.88 57.2758 127.401C57.4962 129.016 57.7109 130.632 57.92 132.248C58.1356 133.917 58.3797 135.592 58.3992 137.278C58.4177 138.897 58.1641 140.473 57.5943 141.99C57.035 143.48 56.2387 144.862 55.431 146.229C52.0348 151.975 36.8222 177.087 36.4274 177.817C36.4013 177.865 36.4677 177.915 36.499 177.867C40.1492 172.202 51.4736 154.11 54.9186 148.271C56.4724 145.637 58.2532 142.97 58.7604 139.896C59.2875 136.7 58.6063 133.359 58.1864 130.188Z" fill="#6E3E45"/>
<path d="M52.7765 181.493C52.7765 181.493 52.5651 202.913 52.5646 202.928C52.6779 207.025 52.8505 210.615 53.1131 212.464C53.1131 212.474 53.1131 212.484 53.1178 212.494C53.2159 213.191 53.3268 213.635 53.4553 213.751C53.4652 213.761 53.47 213.771 53.4799 213.776C54.7223 214.568 87.4904 214.618 88.6332 214.234C89.7812 213.856 88.7749 210.563 87.5051 209.546C86.2248 208.529 73.6927 202.899 73.6927 202.899L73.7017 181.495L52.7765 181.493Z" fill="#EB9481"/>
<path d="M52.6082 198.531C52.6082 198.531 52.5651 202.913 52.5646 202.929C52.6779 207.025 52.8505 210.615 53.1131 212.465C53.1131 212.474 53.1131 212.484 53.1178 212.494C53.2562 213.183 53.3766 213.636 53.4553 213.751C53.4652 213.761 53.47 213.771 53.4799 213.777C54.7223 214.569 87.4904 214.618 88.6332 214.235C89.7812 213.857 88.7749 210.563 87.5051 209.547C86.2248 208.53 73.6927 202.9 73.6927 202.9L73.6946 198.435L52.6082 198.531Z" fill="#EBEBEB"/>
<path d="M88.6493 214.194C87.489 214.563 54.4621 213.982 53.2197 213.16C52.7419 212.856 52.5462 208.039 52.477 202.212C52.477 202.151 52.477 202.09 52.4765 202.029L73.788 202.166L73.7733 202.528C73.7733 202.528 86.3154 208.405 87.5876 209.452C88.8489 210.494 89.8102 213.831 88.6493 214.194Z" fill="#FE812D"/>
<path d="M88.2981 212.907C82.7333 212.672 60.2657 212.251 54.747 212.442C54.7019 212.443 54.7015 212.474 54.7465 212.477C60.2572 212.83 82.7272 213.069 88.2967 212.998C88.4142 212.996 88.4157 212.912 88.2981 212.907Z" fill="white"/>
<path d="M75.5622 202.623C73.3785 202.175 70.6933 202.464 68.9916 203.996C68.9257 204.055 69.011 204.148 69.0821 204.127C71.2554 203.484 73.2818 203.082 75.5484 202.9C75.7087 202.887 75.7191 202.655 75.5622 202.623Z" fill="#6E3E45"/>
<path d="M77.1269 203.604C74.9432 203.156 72.258 203.445 70.5563 204.977C70.4904 205.036 70.5757 205.129 70.6468 205.108C72.8206 204.464 74.8465 204.062 77.1131 203.88C77.2734 203.867 77.2833 203.635 77.1269 203.604Z" fill="#6E3E45"/>
<path d="M78.6915 204.585C76.5078 204.137 73.8221 204.426 72.1209 205.958C72.0551 206.017 72.1404 206.11 72.2115 206.089C74.3848 205.445 76.4111 205.043 78.6778 204.861C78.8375 204.848 78.8479 204.617 78.6915 204.585Z" fill="#6E3E45"/>
<path d="M89.174 213.019C89.7613 213.258 89.5987 215.24 89.1693 215.392C88.7399 215.544 52.7325 214.751 52.1224 214.603C51.5124 214.455 51.7764 212.263 52.4893 212.163C53.2017 212.063 89.174 213.019 89.174 213.019Z" fill="#6E3E45"/>
<path d="M57.8639 205.823C55.4906 204.584 53.5605 208.27 55.9381 209.512C58.3114 210.751 60.2415 207.065 57.8639 205.823Z" fill="white"/>
<path d="M67.106 87.2025C67.106 87.2025 67.1056 87.2072 67.0989 87.2219C66.9743 87.6092 60.2264 106.099 59.5912 106.394C58.8717 106.725 74.4971 132.972 75.4214 145.165C76.0125 152.964 74.8536 197.097 74.8536 197.097H52.0096C52.0096 197.097 53.1074 157.419 53.6297 144.848C53.8321 139.972 37.9451 115.7 37.7503 100.586C37.6887 95.8217 41.1119 87.1172 41.1119 87.1172L67.106 87.2025Z" fill="#6E3E45"/>
<path d="M53.7605 144.507C53.7605 144.306 53.6017 144.241 53.5861 144.447C53.0699 151.251 52.95 158.018 52.6248 164.833C52.3006 171.628 52.485 173.266 52.1821 180.062C52.0105 183.908 52.1731 187.764 52.084 191.613C52.0826 191.672 52.1722 191.68 52.1783 191.62C52.8893 184.838 53.7558 148.36 53.7605 144.507Z" fill="#6E3E45"/>
<path d="M75.4214 145.434C75.3707 143.758 75.2607 142.077 74.9597 140.425C74.6654 138.81 74.1535 137.246 73.5491 135.722C72.2869 132.54 70.7942 129.436 69.3684 126.325C67.9242 123.172 66.4505 120.034 64.9271 116.919C64.0705 115.168 63.2093 113.42 62.3419 111.675C61.464 109.909 60.5184 108.176 59.5993 106.431C59.5628 106.362 59.4566 106.413 59.4898 106.484C60.954 109.628 62.3987 112.78 63.8629 115.924C65.3266 119.068 66.7647 122.224 68.2029 125.379C69.6178 128.482 71.0355 131.588 72.3689 134.728C73.0078 136.233 73.6046 137.759 73.9985 139.349C74.4018 140.978 74.5729 142.651 74.6677 144.325C74.8886 148.227 74.9972 152.14 75.3802 156.032C75.3849 156.08 75.4645 156.075 75.466 156.027C75.583 152.504 75.5281 148.957 75.4214 145.434Z" fill="#6E3E45"/>
<path d="M73.1993 192.582C71.8702 192.409 61.7498 192.06 53.2818 192.421C53.2249 192.424 53.2292 192.503 53.2837 192.508C56.0438 192.754 71.636 192.858 73.1879 192.681C73.2396 192.674 73.2595 192.59 73.1993 192.582Z" fill="#6E3E45"/>
<path d="M62.749 105.367C60.3051 105.938 57.9085 106.858 55.6058 107.844C55.5158 107.882 55.5584 108.021 55.6551 107.991C58.0531 107.24 60.4913 106.536 62.8448 105.654C63.0296 105.585 62.9367 105.324 62.749 105.367Z" fill="#6E3E45"/>
<path d="M65.0526 89.7076C65.0545 89.6275 64.9171 89.5957 64.9085 89.6815C64.6478 92.4098 64.2279 94.7907 63.7368 97.3157C63.5088 98.4879 61.8873 104.928 59.8846 104.241C59.5495 104.126 59.4087 103.77 59.4078 103.246C59.4068 102.617 59.7192 101.878 59.8856 101.269C60.2534 99.9242 60.5771 98.5699 60.8359 97.1996C61.3199 94.6414 61.5953 92.0619 61.545 89.4573C61.5431 89.372 61.4208 89.3658 61.4118 89.4511C61.0488 93.0237 60.5899 96.5801 59.6931 100.064C59.2622 101.738 58.1436 104.21 59.895 104.654C61.6796 105.106 63.2903 100.938 63.6316 99.7877C64.5853 96.5772 64.972 93.0459 65.0526 89.7076Z" fill="#6E3E45"/>
<path d="M59.9216 104.422C59.6912 104.842 59.4955 105.284 59.3215 105.73C59.1864 106.076 59.0129 106.448 59.0158 106.824C59.0163 106.897 59.1111 106.914 59.1547 106.869C59.4263 106.589 59.5708 106.182 59.7424 105.834C59.9415 105.431 60.1491 105.032 60.3363 104.623C60.4605 104.352 60.0638 104.163 59.9216 104.422Z" fill="#6E3E45"/>
<path d="M56.0997 151.22C56.2168 147.974 56.5775 144.567 55.5124 141.433C54.9844 139.879 54.1819 138.44 53.4287 136.988C52.6367 135.461 51.8603 133.926 51.0971 132.384C48.0451 126.219 45.1693 119.957 42.6002 113.575C41.3631 110.501 40.2568 107.347 39.8145 104.048C39.3519 100.598 39.6813 97.0679 40.4525 93.6863C40.645 92.8412 40.8502 91.9999 41.081 91.1642C41.0981 91.103 41.0066 91.0684 40.9872 91.1301C39.9591 94.3343 39.2514 97.6642 39.2054 101.04C39.1613 104.292 39.8738 107.45 40.9246 110.511C42.0191 113.7 43.3913 116.8 44.7413 119.886C46.1334 123.067 47.5782 126.226 49.0807 129.357C50.5757 132.472 52.1698 135.535 53.7468 138.609C54.5104 140.097 55.2058 141.62 55.5006 143.277C55.8006 144.964 55.7528 146.684 55.6888 148.389C55.4195 155.574 54.8 179.484 54.709 186.651C54.6976 187.56 54.6863 188.47 54.6768 189.38C54.6758 189.46 54.7972 189.471 54.8024 189.39C55.2574 182.24 55.8414 158.384 56.0997 151.22Z" fill="#6E3E45"/>
<path d="M50.9753 91.8559C50.972 91.8047 50.8957 91.8151 50.8895 91.8606C50.6203 93.8377 50.4662 95.8887 49.5116 97.6823C48.6356 99.3285 47.1075 100.389 45.4423 101.132C44.4796 101.562 43.478 101.9 42.4769 102.226C42.4049 102.249 42.421 102.362 42.5002 102.345C44.3895 101.953 46.3102 101.512 47.9526 100.451C49.7111 99.3152 50.6151 97.4974 50.9042 95.4621C51.0739 94.2657 51.0554 93.0575 50.9753 91.8559Z" fill="#6E3E45"/>
<path d="M64.4639 60.5451C68.3436 67.9585 80.5401 78.6714 84.4298 79.6075C89.2238 80.7612 99.8694 72.7293 103.998 67.9978C105.704 66.0431 98.5924 57.5106 95.5285 57.9102C93.8434 58.1296 85.2123 66.8005 83.7856 66.2042C80.3467 64.7675 75.5717 61.8325 68.7498 57.8855C65.0361 55.7369 62.0513 55.935 64.4639 60.5451Z" fill="#EB9481"/>
<path d="M91.8531 60.7686C91.8531 60.7686 93.7865 57.3193 94.9701 55.9917C96.1537 54.664 102.386 51.3384 103.18 52.6438C104.206 54.3289 100.987 56.9572 99.2418 58.0389C99.2418 58.0389 101.619 61.9351 99.7163 64.3213C97.8136 66.7074 91.8531 60.7686 91.8531 60.7686Z" fill="#EB9481"/>
<path d="M102.693 69.2707C104.009 68.5184 109.739 64.5387 111.086 63.0741C112.433 61.6099 116.003 57.1154 114.987 55.9697C113.97 54.8246 112.82 56.057 112.82 56.057C112.82 56.057 114.027 53.9202 112.898 52.8608C111.77 51.8014 110.043 53.777 110.043 53.777C110.043 53.777 111.123 51.4923 109.922 50.5159C108.721 49.5395 107.317 51.817 107.317 51.817C107.317 51.817 108.402 49.7741 107.074 49.3864C105.476 48.9195 103.902 52.9115 102.294 54.4164C101.929 54.7582 94.3994 60.8164 94.3994 60.8164L102.693 69.2707Z" fill="#EB9481"/>
<path d="M107.441 51.6241C106.277 54.5572 105.26 55.6389 102.749 57.4685C102.7 57.5041 102.742 57.5851 102.797 57.5524C105.419 55.9844 106.89 54.8118 107.586 51.6729C107.62 51.5198 107.497 51.4848 107.441 51.6241Z" fill="#6E3E45"/>
<path d="M110.131 53.5426C108.656 56.4833 107.563 57.6664 105.075 59.7762C105.04 59.8061 105.087 59.8686 105.125 59.8416C107.739 57.976 109.18 56.7725 110.268 53.6403C110.317 53.4986 110.199 53.408 110.131 53.5426Z" fill="#6E3E45"/>
<path d="M112.689 56.1605C111.055 58.9045 109.913 60.253 107.234 61.9911C107.171 62.0324 107.225 62.1281 107.292 62.0931C110.196 60.5867 111.634 58.9139 112.767 56.2188C112.845 56.0353 112.792 55.9879 112.689 56.1605Z" fill="#6E3E45"/>
<path d="M103.311 53.199C103.138 55.4107 100.755 56.6824 99.1409 57.8579C99.0181 57.9471 99.047 58.0779 99.1338 58.158C100.021 59.8577 100.778 62.5131 99.8405 64.3067C99.813 64.3593 99.8836 64.4053 99.9187 64.3565C101.185 62.569 100.654 59.8995 99.5632 58.1002C101.238 56.9204 103.571 55.5406 103.332 53.1999C103.331 53.1862 103.312 53.1848 103.311 53.199Z" fill="#6E3E45"/>
<path d="M77.8336 62.2356L72.9922 73.4268C72.9922 73.4268 64.5606 62.9993 62.9467 59.2328C61.1303 54.9939 63.6946 54.992 67.7786 56.5856C71.8621 58.1791 77.8336 62.2356 77.8336 62.2356Z" fill="#455A64"/>
<path d="M74.7735 61.3497C74.6218 61.3402 74.489 61.3071 74.3705 61.236C74.1335 61.0938 73.9914 60.8425 73.9961 60.5676C73.9914 60.2121 73.7591 59.8708 73.432 59.7476C73.2756 59.6812 73.086 59.6812 72.9391 59.7002C72.7874 59.7192 72.631 59.7334 72.4745 59.7618C72.631 59.7855 72.7874 59.7997 72.9391 59.8187C73.1002 59.8282 73.2282 59.8566 73.3515 59.923C73.5932 60.0557 73.7496 60.3069 73.7496 60.5724C73.7401 60.9231 73.9629 61.2739 74.2852 61.4066C74.4369 61.4824 74.6218 61.4919 74.7735 61.473C74.9299 61.4493 75.0863 61.4398 75.238 61.4113C75.0863 61.3829 74.9299 61.3687 74.7735 61.3497ZM62.9092 58.7712C62.8903 58.6147 62.876 58.4631 62.8476 58.3066C62.8192 58.4631 62.8097 58.6147 62.7907 58.7712C62.7907 58.7901 62.786 58.8091 62.7812 58.828C62.8192 58.9228 62.8571 59.0176 62.8998 59.1219C62.9282 59.0034 62.9235 58.8754 62.9092 58.7712ZM70.5833 65.5494C70.4648 65.6536 70.351 65.72 70.2136 65.7532C69.9481 65.8195 69.6685 65.7437 69.4789 65.5494C69.2229 65.2981 68.8153 65.2223 68.5024 65.3645C68.3413 65.4309 68.2086 65.5636 68.1185 65.6821C68.0237 65.8053 67.9242 65.9191 67.8341 66.0518C67.9621 65.9617 68.0806 65.8622 68.2038 65.7674C68.3223 65.6584 68.4313 65.5873 68.5688 65.5446C68.8295 65.4688 69.1186 65.5399 69.3082 65.7247C69.55 65.976 69.9529 66.0708 70.2752 65.938C70.4363 65.8812 70.5738 65.7579 70.6686 65.6347C70.7634 65.5114 70.863 65.3929 70.953 65.265C70.825 65.355 70.7065 65.4546 70.5833 65.5494Z" fill="white"/>
<path d="M75.6394 61.7539C74.8298 63.0953 72.9694 67.4608 72.6547 68.1794C72.4888 68.5581 71.8929 70.0986 71.7247 70.475C71.7029 70.5233 71.7816 70.5475 71.8029 70.4996C72.1243 69.781 72.5215 69.0942 72.8495 68.3766C73.1851 67.6424 75.2308 63.2868 75.6949 61.7795C75.7048 61.7468 75.6579 61.7235 75.6394 61.7539Z" fill="#6E3E45"/>
<path opacity="0.1" d="M62.9481 59.2306C64.5592 62.998 72.9922 73.4251 72.9922 73.4251L75.4859 67.6584L63.7681 55.6064C62.3414 55.6799 61.866 56.7023 62.9481 59.2306Z" fill="black"/>
<path d="M38.0214 92.0626C38.0219 92.0597 70.3131 98.3165 70.3127 98.3194C70.1889 98.9522 71.6963 76.0343 69.3376 60.1358C68.6399 55.4328 63.3619 53.2116 58.4304 57.3662C48.0422 66.1168 37.9413 92.4731 38.0214 92.0626Z" fill="#455A64"/>
<path d="M44.7124 77.333C44.6603 77.4373 44.6081 77.5368 44.5607 77.6364C44.5939 77.6032 44.6271 77.5653 44.6555 77.5321C44.7456 77.4088 44.8499 77.2903 44.9352 77.1624C44.8594 77.2145 44.7835 77.2761 44.7124 77.333ZM70.0051 92.0128C69.7538 91.7616 69.3462 91.6905 69.0286 91.8327C68.8675 91.8943 68.7347 92.027 68.6447 92.1455C68.5499 92.2687 68.4503 92.3872 68.3603 92.5152C68.4883 92.4252 68.6068 92.3256 68.73 92.2308C68.8532 92.1265 68.9575 92.0507 69.095 92.0128C69.3557 91.9369 69.6496 92.0033 69.8344 92.1929C70.0098 92.373 70.2705 92.4726 70.5217 92.4678C70.5217 92.392 70.5265 92.3161 70.5265 92.2403C70.3321 92.2356 70.1473 92.155 70.0051 92.0128ZM51.0688 93.7287C50.9503 93.8329 50.8365 93.8993 50.699 93.9372C50.4336 94.0036 50.1539 93.923 49.9643 93.7287C49.7084 93.4774 49.3007 93.4063 48.9832 93.5485C48.8267 93.6102 48.694 93.7429 48.604 93.8614C48.5471 93.9325 48.4902 94.0036 48.4333 94.0794L48.4997 94.0889C48.5044 94.0936 48.5044 94.0936 48.5044 94.0889C48.566 94.0415 48.6277 93.9941 48.6893 93.9467C48.8078 93.8424 48.9168 93.7666 49.0495 93.7287C49.315 93.6528 49.6041 93.7192 49.7937 93.9088C50.0354 94.1553 50.4383 94.2548 50.7607 94.1173C50.9218 94.0605 51.0593 93.9372 51.1541 93.814C51.2489 93.6907 51.3484 93.577 51.4385 93.4443C51.3105 93.5343 51.192 93.6339 51.0688 93.7287ZM59.5344 77.0533C59.4159 77.1576 59.3021 77.224 59.1694 77.2572C58.8992 77.3283 58.6196 77.2477 58.43 77.0533C58.174 76.8021 57.7664 76.7263 57.4535 76.8732C57.2924 76.9348 57.1597 77.0676 57.0696 77.1861C56.9748 77.3093 56.8753 77.4278 56.7852 77.5558C56.9132 77.4657 57.0317 77.3662 57.1549 77.2714C57.2734 77.1624 57.3824 77.0913 57.5199 77.0533C57.7806 76.9728 58.0745 77.0439 58.2593 77.2287C58.5011 77.4799 58.904 77.5747 59.2263 77.442C59.3875 77.3851 59.5297 77.2619 59.6197 77.1387C59.7145 77.0154 59.8141 76.8969 59.9041 76.7689C59.7761 76.859 59.6576 76.9585 59.5344 77.0533ZM69.9956 65.7721C69.8012 65.7674 69.6164 65.6916 69.4789 65.5494C69.223 65.2981 68.8153 65.2223 68.5025 65.3645C68.3413 65.4309 68.2086 65.5636 68.1185 65.6821C68.0237 65.8053 67.9242 65.9191 67.8341 66.0518C67.9621 65.9617 68.0806 65.8622 68.2039 65.7674C68.3224 65.6584 68.4314 65.5873 68.5688 65.5446C68.8295 65.4688 69.1187 65.5399 69.3083 65.7247C69.4884 65.9096 69.7586 66.0139 70.0145 65.9949C70.0145 65.9191 70.0051 65.848 69.9956 65.7721ZM70.5407 74.7592C70.2421 74.8066 69.9624 75.0104 69.8486 75.2853C69.7775 75.4417 69.7681 75.6266 69.787 75.7783C69.806 75.93 69.8202 76.0864 69.8486 76.2381C69.8771 76.0864 69.8866 75.93 69.9055 75.7783C69.9197 75.6219 69.9529 75.4891 70.024 75.3706C70.1378 75.1763 70.3321 75.0436 70.5502 75.0057C70.5454 74.9251 70.5407 74.8445 70.5407 74.7592ZM51.5902 71.1805C51.5712 71.0241 51.557 70.8676 51.5285 70.716C51.5001 70.8676 51.4906 71.0241 51.4669 71.1805C51.4574 71.3369 51.4337 71.4649 51.3674 71.5881C51.2347 71.8299 50.9787 71.9863 50.718 71.9863C50.3672 71.9815 50.0117 72.1996 49.879 72.5219C49.8079 72.6783 49.7984 72.8632 49.8174 73.0149C49.8364 73.1713 49.8506 73.323 49.879 73.4794C49.9075 73.323 49.9169 73.1713 49.9406 73.0149C49.9501 72.8584 49.9833 72.7305 50.0544 72.6072C50.1966 72.375 50.4478 72.228 50.7227 72.2328C51.0782 72.2328 51.4195 71.9958 51.5428 71.6687C51.6091 71.5123 51.6091 71.3274 51.5902 71.1805ZM44.2621 86.8936C44.2432 86.7419 44.2289 86.5855 44.2005 86.4291C44.1721 86.5855 44.1626 86.7419 44.1436 86.8936C44.1341 87.0547 44.1057 87.1827 44.0393 87.306C43.9066 87.5477 43.6554 87.7041 43.39 87.7041C43.0392 87.6946 42.6884 87.9174 42.5557 88.2397C42.4799 88.3914 42.4704 88.5763 42.4894 88.7327C42.5131 88.8844 42.5225 89.0408 42.551 89.1925C42.5794 89.0408 42.5889 88.8844 42.6126 88.7327C42.6221 88.5763 42.6553 88.4436 42.7264 88.3251C42.8686 88.0881 43.1198 87.9459 43.3947 87.9506C43.7502 87.9459 44.0915 87.7136 44.2147 87.3865C44.2811 87.2301 44.2811 87.0405 44.2621 86.8936ZM59.231 85.9219C59.2121 85.7702 59.1979 85.6138 59.1694 85.4621C59.141 85.6138 59.1315 85.7702 59.1078 85.9219C59.0983 86.083 59.0746 86.211 59.0083 86.3343C58.8755 86.576 58.6196 86.7324 58.3589 86.7324C58.0081 86.7277 57.6574 86.9457 57.5199 87.268C57.4488 87.4197 57.4393 87.6046 57.4583 87.761C57.4772 87.9127 57.4915 88.0691 57.5199 88.2208C57.5483 88.0691 57.5578 87.9127 57.5815 87.761C57.591 87.6046 57.6242 87.4719 57.6953 87.3534C57.8375 87.1164 58.0887 86.9742 58.3636 86.9789C58.7191 86.9742 59.0604 86.7419 59.1836 86.4148C59.25 86.2584 59.25 86.0688 59.231 85.9219ZM62.9093 58.7712C62.8903 58.6147 62.8761 58.4631 62.8477 58.3066C62.8192 58.4631 62.8097 58.6147 62.7908 58.7712C62.7766 58.9323 62.7529 59.0603 62.6865 59.1835C62.5538 59.4205 62.2978 59.5817 62.0371 59.577C61.6864 59.5722 61.3356 59.7903 61.1981 60.1126C61.127 60.269 61.1176 60.4539 61.1365 60.6055C61.1555 60.762 61.1697 60.9136 61.1981 61.0701C61.2266 60.9136 61.2361 60.762 61.2598 60.6055C61.2692 60.4491 61.3024 60.3211 61.3735 60.2026C61.5157 59.9656 61.7669 59.8187 62.0419 59.8282C62.3974 59.8234 62.7386 59.5864 62.8619 59.2641C62.9282 59.1077 62.9282 58.9181 62.9093 58.7712ZM53.6947 64.3691C53.5762 64.4781 53.4672 64.5492 53.3345 64.5871C53.069 64.6677 52.7799 64.5966 52.595 64.4118C52.5382 64.3501 52.4671 64.298 52.3912 64.2601C52.3486 64.3264 52.3012 64.3928 52.249 64.4592C52.3106 64.4923 52.3675 64.535 52.4197 64.5871C52.6756 64.8384 53.0833 64.9142 53.4008 64.7673C53.5573 64.7056 53.69 64.5729 53.78 64.4544C53.8748 64.3312 53.9791 64.2127 54.0644 64.0847C53.9365 64.1748 53.818 64.2743 53.6947 64.3691ZM67.7393 82.7745C67.5829 82.765 67.4549 82.7319 67.3317 82.6608C67.0994 82.5186 66.9525 82.2626 66.9572 81.9924C66.9572 81.6369 66.7202 81.2956 66.3932 81.1724C66.2368 81.106 66.0519 81.106 65.905 81.125C65.7485 81.144 65.5921 81.1582 65.4404 81.1819C65.5921 81.2103 65.7485 81.2245 65.905 81.2435C66.0614 81.253 66.1894 81.2814 66.3126 81.3478C66.5543 81.4758 66.7108 81.7317 66.7108 81.9972C66.706 82.3432 66.9241 82.6987 67.2464 82.8314C67.4028 82.9072 67.5877 82.9167 67.7393 82.8978C67.8958 82.8741 68.0474 82.8646 68.2039 82.8361C68.0474 82.8077 67.8958 82.7935 67.7393 82.7745ZM59.3069 95.8427C59.3069 95.4825 59.0699 95.1459 58.7428 95.0227C58.5864 94.9516 58.4015 94.9516 58.2546 94.9753C58.0982 94.9942 57.9418 95.0037 57.7901 95.0322C57.9418 95.0606 58.0982 95.0748 58.2546 95.0938C58.411 95.1033 58.539 95.127 58.6622 95.1981C58.904 95.326 59.0604 95.582 59.0604 95.8474C59.0604 95.947 59.0746 96.0513 59.1125 96.1461L59.3969 96.2029C59.3353 96.0939 59.3069 95.9707 59.3069 95.8427ZM50.827 83.6704C50.6706 83.6609 50.5426 83.6277 50.4194 83.5566C50.1824 83.4144 50.0402 83.1632 50.0449 82.8883C50.0449 82.5328 49.8079 82.1915 49.4809 82.0683C49.3244 82.0019 49.1348 82.0019 48.9879 82.0209C48.8362 82.0398 48.6798 82.054 48.5281 82.0825C48.6798 82.1062 48.8362 82.1204 48.9879 82.1394C49.1491 82.1488 49.277 82.1773 49.4003 82.2436C49.642 82.3764 49.7984 82.6276 49.7984 82.893C49.7937 83.2438 50.0117 83.5945 50.3341 83.7273C50.4905 83.8031 50.6753 83.8126 50.827 83.7936C50.9787 83.7699 51.1351 83.7604 51.2868 83.732C51.1351 83.7036 50.9787 83.6893 50.827 83.6704ZM62.2125 70.0381C62.0608 70.0287 61.9281 69.9955 61.8096 69.9196C61.5726 69.7822 61.4304 69.5262 61.4351 69.256C61.4304 68.8958 61.1934 68.5593 60.8711 68.436C60.7147 68.3649 60.5251 68.3649 60.3781 68.3839C60.2217 68.4076 60.07 68.4171 59.9136 68.4455C60.07 68.4739 60.2217 68.4882 60.3781 68.5071C60.5393 68.5166 60.6673 68.5403 60.7905 68.6114C61.0275 68.7394 61.1887 68.9953 61.1887 69.2608C61.1792 69.6068 61.402 69.9623 61.7195 70.095C61.876 70.1661 62.0608 70.1803 62.2125 70.1566C62.3689 70.1377 62.5253 70.1235 62.677 70.095C62.5253 70.0713 62.3689 70.0571 62.2125 70.0381Z" fill="white"/>
<path d="M67.1876 61.1568C65.6148 61.4995 62.3841 59.5969 61.3067 57.3392C61.2337 57.1842 61.5522 55.6134 61.8489 53.687C62.0243 52.5172 62.1921 51.2104 62.2594 50.0069C62.2717 49.7599 69.705 52.2612 69.705 52.2612C69.705 52.2612 68.8224 54.7426 68.7186 56.8415C68.7119 57.0169 68.72 57.1809 68.7428 57.3383C68.7442 57.361 68.7489 57.389 68.7494 57.4207C68.8499 58.3673 68.8703 60.7899 67.1876 61.1568Z" fill="#EB9481"/>
<path d="M68.7451 57.3377C68.7446 57.3619 68.7489 57.3913 68.748 57.4202C68.5105 57.4392 68.2536 57.4382 67.9735 57.4174C63.5363 57.0718 62.6737 51.4455 62.5262 50.0239C63.8568 50.2908 69.7054 52.2607 69.7054 52.2607C69.7054 52.2607 68.8224 54.7445 68.7176 56.8434C68.7138 57.0173 68.7195 57.1823 68.7451 57.3377Z" fill="#6E3E45"/>
<path d="M61.3806 40.5593C60.499 43.2194 61.7285 50.9944 63.5932 52.7662C66.2964 55.3344 70.8146 55.6818 73.0197 52.4117C75.1574 49.2416 73.3756 39.1373 71.2844 37.5177C68.2038 35.1325 62.6836 36.6299 61.3806 40.5593Z" fill="#EB9481"/>
<path d="M68.8219 45.3745C68.8148 45.355 68.7845 45.4058 68.7887 45.4271C68.8859 45.9485 68.9087 46.5623 68.4612 46.8088C68.4474 46.8164 68.4527 46.8424 68.4702 46.8377C69.0362 46.6671 68.9968 45.8527 68.8219 45.3745Z" fill="#6E3E45"/>
<path d="M68.2697 44.8987C67.417 44.9637 67.6099 46.6649 68.4001 46.6042C69.1774 46.5449 68.9845 44.8442 68.2697 44.8987Z" fill="#6E3E45"/>
<path d="M71.8811 45.1147C71.883 45.0938 71.9252 45.1346 71.9271 45.1564C71.9702 45.6849 72.1087 46.2831 72.6049 46.4044C72.6206 46.4082 72.622 46.4347 72.604 46.4343C72.0129 46.4182 71.8371 45.6218 71.8811 45.1147Z" fill="#6E3E45"/>
<path d="M72.2892 44.5107C73.1292 44.3505 73.3884 46.0422 72.6101 46.1905C71.8441 46.337 71.5849 44.6453 72.2892 44.5107Z" fill="#6E3E45"/>
<path d="M67.5104 44.1969C67.7355 44.1125 67.9289 43.9969 68.1427 43.8902C68.384 43.7698 68.5887 43.6987 68.7281 43.4546C68.8025 43.3233 68.7414 43.1105 68.621 43.0261C68.3404 42.829 68.0081 42.9029 67.7118 43.0361C67.39 43.1802 67.1791 43.374 67.0212 43.6883C66.8677 43.9931 67.2137 44.3088 67.5104 44.1969Z" fill="#6E3E45"/>
<path d="M72.8495 43.5798C72.6092 43.568 72.3898 43.5173 72.1537 43.4812C71.8869 43.4405 71.6707 43.4353 71.4631 43.2452C71.3517 43.1433 71.3451 42.9214 71.4342 42.8039C71.6413 42.5309 71.9802 42.4996 72.303 42.5356C72.6533 42.5745 72.9135 42.6944 73.16 42.9456C73.3994 43.1893 73.1662 43.5955 72.8495 43.5798Z" fill="#6E3E45"/>
<path d="M68.8892 50.3192C69.0295 50.4282 69.1746 50.5837 69.3675 50.578C69.5528 50.5728 69.7581 50.4656 69.9188 50.3813C69.9349 50.3732 69.9538 50.3888 69.9448 50.4059C69.8311 50.6235 69.5576 50.7827 69.3087 50.7676C69.0656 50.7529 68.9243 50.56 68.8414 50.3486C68.8295 50.3192 68.8688 50.3035 68.8892 50.3192Z" fill="#6E3E45"/>
<path d="M69.2642 48.679C69.6107 49.1028 70.0728 49.3038 70.5521 49.3412C70.7663 49.3592 70.9872 49.3417 71.2005 49.2976C71.2427 49.2919 71.2849 49.2824 71.3223 49.2697C71.3602 49.2606 71.3944 49.2521 71.4361 49.2388C71.4967 49.2227 71.5247 49.1682 71.5285 49.109L71.528 49.1052C71.5257 49.0857 71.5233 49.0701 71.5171 49.0516C71.5171 49.0516 71.5171 49.0516 71.5167 49.0478L71.5105 49.0018C71.4759 48.5951 71.3664 47.9827 71.3664 47.9827C71.5228 48.0401 72.3172 48.2946 72.2812 48.0837C71.9774 46.3413 71.6399 44.4036 70.9692 42.7337C70.9498 42.6777 70.863 42.701 70.8744 42.7583C71.1 44.4443 71.6209 46.0796 71.8745 47.7694C71.6228 47.7055 71.2105 47.5803 70.9986 47.6088C70.9426 47.632 71.2308 48.7885 71.2323 48.9725C71.2323 48.9725 71.2332 48.98 71.2308 48.9924C70.5592 49.1568 70.0221 49.009 69.3088 48.6264C69.2652 48.6004 69.2277 48.6407 69.2642 48.679Z" fill="#6E3E45"/>
<path d="M71.0853 49.2005C71.0853 49.2005 70.745 49.764 70.2283 50.0048C70.0382 50.0939 69.8287 50.1423 69.6007 50.1039C69.1329 50.0271 69.0817 49.609 69.1315 49.2426C69.1718 48.9412 69.2841 48.6743 69.2841 48.6743C69.2841 48.6743 70.0098 49.2355 71.0853 49.2005Z" fill="#6E3E45"/>
<path d="M70.2283 50.0049C70.0382 50.094 69.8287 50.1423 69.6007 50.1039C69.1329 50.0271 69.0817 49.6091 69.1315 49.2427C69.6259 49.2465 70.1416 49.5332 70.2283 50.0049Z" fill="#FF9ABB"/>
<path d="M63.8767 44.9008C64.3772 43.383 63.489 40.8571 64.2388 40.1712C65.8628 38.6871 69.2348 41.4785 71.5337 41.4733C73.762 41.4681 74.4948 40.029 74.0772 38.2245C73.6596 36.4195 72.1134 35.2179 69.6097 34.8653C67.0193 34.5007 64.6702 35.563 63.3951 36.3953C63.3951 36.3953 63.9502 35.4881 63.7373 35.2089C63.5245 34.9302 62.4405 35.8071 62.1101 36.1801C61.7745 36.5589 61.574 37.2585 61.574 37.2585C61.574 37.2585 61.1664 37.1409 60.5558 37.1618C59.9894 37.1812 59.2794 37.631 59.24 37.7642C59.2007 37.8979 60.0126 37.9946 60.5814 38.0183C60.5814 38.0183 59.5334 39.4351 59.5661 40.6395C59.5988 41.844 61.5219 47.5509 61.9726 47.6087C62.5523 47.6836 63.6733 45.5175 63.8767 44.9008Z" fill="#6E3E45"/>
<path d="M60.8004 37.8706C60.8203 37.8587 60.8473 37.8862 60.8284 37.9028C60.2904 38.3754 59.8557 38.9243 59.6377 39.6168C59.3841 40.4221 59.4462 41.2876 59.6344 42.0996C60.0003 43.679 60.7852 45.1081 61.4702 46.5628C61.4901 46.6054 61.4185 46.6405 61.3958 46.5993C60.5719 45.1047 59.7334 43.4808 59.4135 41.7915C59.1405 40.351 59.4609 38.6887 60.8004 37.8706Z" fill="#6E3E45"/>
<path d="M64.1459 39.5873C64.7991 39.4906 65.5276 39.5466 66.1685 39.7025C66.7998 39.8566 67.3416 40.2438 67.9085 40.5458C69.1798 41.2231 70.5729 41.7445 72.0352 41.6421C72.0541 41.6407 72.0551 41.6687 72.0366 41.671C70.7009 41.8502 69.3898 41.4634 68.1977 40.8818C67.5962 40.5884 67.0274 40.1666 66.3941 39.9476C65.6746 39.6987 64.9029 39.7158 64.1525 39.7068C64.0748 39.7063 64.0696 39.5987 64.1459 39.5873Z" fill="#6E3E45"/>
<path d="M64.764 35.7508C65.6561 35.2853 66.6292 34.9768 67.6152 34.7824C68.5608 34.5957 69.5391 34.5104 70.4966 34.6582C72.1494 34.9133 73.6767 35.9523 74.0777 37.6444C74.281 38.5019 74.1985 39.4456 73.7629 40.2211C73.7335 40.2732 73.6558 40.2334 73.68 40.1789C74.3464 38.6891 74.0653 36.8913 72.7964 35.8077C71.4337 34.644 69.5315 34.5696 67.8446 34.8535C66.7828 35.0322 65.7689 35.3673 64.7697 35.7622C64.7626 35.7641 64.7574 35.7537 64.764 35.7508Z" fill="#6E3E45"/>
<path d="M63.1861 47.0029C63.1861 47.0029 61.4446 44.4921 60.3061 45.1121C59.1675 45.7321 60.4701 49.3668 61.802 49.8687C63.134 50.3702 63.6227 49.1463 63.6227 49.1463L63.1861 47.0029Z" fill="#EB9481"/>
<path d="M60.7052 46.1446C60.6839 46.1427 60.6796 46.1726 60.6981 46.1802C61.6319 46.5627 62.121 47.432 62.4623 48.3326C62.1855 47.9852 61.8072 47.7941 61.3427 48.1236C61.3185 48.1406 61.3418 48.179 61.3678 48.1738C61.7513 48.0932 62.0277 48.1605 62.285 48.4686C62.4675 48.6867 62.5917 48.9621 62.7221 49.2133C62.7657 49.2972 62.9169 49.2531 62.8851 49.1564C62.8827 49.1493 62.8804 49.1422 62.8775 49.1346C62.9055 47.942 61.985 46.2698 60.7052 46.1446Z" fill="#6E3E45"/>
<path d="M121.896 36.7213L142.145 65.9562L169.414 71.9864L176.207 76.1804L154.661 104.473L155.462 140.026L121.896 128.277L88.3304 140.026L81.5379 135.832L89.1319 104.473L67.5858 76.1804L101.647 65.9562L115.104 32.5278L121.896 36.7213Z" fill="#FE812D"/>
<path opacity="0.1" d="M121.896 36.7213L142.145 65.9562L169.414 71.9864L176.207 76.1804L154.661 104.473L155.462 140.026L121.896 128.277L88.3304 140.026L81.5379 135.832L89.1319 104.473L67.5858 76.1804L101.647 65.9562L115.104 32.5278L121.896 36.7213Z" fill="black"/>
<path d="M115.104 32.5278L135.353 61.7623L169.414 71.9864L147.868 100.279L148.67 135.832L115.104 124.083L81.5379 135.832L82.3395 100.279L60.7933 71.9864L94.8545 61.7623L115.104 32.5278Z" fill="#FE812D"/>
<g opacity="0.2">
<path d="M81.975 116.486L82.34 100.28L77.6711 94.1463L125 46.8174L135.352 61.7626L136.385 62.0754L81.975 116.486Z" fill="white"/>
<path d="M165.375 70.773L110.429 125.719L94.6687 131.236L157.497 68.4077L165.375 70.773Z" fill="white"/>
<path d="M78.5385 66.6587L66.1623 79.0348L61.7352 73.2236L63.9061 71.0527L78.5385 66.6587Z" fill="white"/>
<path d="M123.355 44.4425L75.9314 91.8662L75.4954 91.2926L122.943 43.8452L123.355 44.4425Z" fill="white"/>
<path d="M148.316 120.06L136.722 131.654L135.978 131.393L148.292 119.079L148.316 120.06Z" fill="white"/>
</g>
<path d="M56.5676 62.9186C55.3902 70.7491 52.4656 86.9357 55.7424 91.8042C60.0421 98.1928 74.4142 102.541 78.1797 103.833C79.8202 104.396 84.208 93.7111 83.3031 92.0919C82.3983 90.4727 67.4829 84.3643 66.4719 83.4149C65.4608 82.4654 64.1597 69.6395 62.8472 63.0466C61.192 54.7307 57.564 56.2902 56.5676 62.9186Z" fill="#EB9481"/>
<path d="M87.7782 95.9098C87.1918 95.2476 87.5355 94.9353 89.0826 95.2163C90.6487 95.4974 96.5149 97.9238 97.1875 95.7994C97.8668 93.6687 89.5083 90.3711 86.896 90.1005C84.2838 89.8232 79.9633 90.3066 79.9633 90.3066C81.4602 91.2755 84.8664 93.9716 87.7782 95.9098Z" fill="#EB9481"/>
<path d="M74.0805 102.043C78.3963 104.617 83.6117 108.085 89.2812 108.119C90.3932 108.126 91.0364 107.572 91.0364 107.572C93.5771 107.632 94.3687 106.451 94.3687 106.451C96.7524 105.782 97.3956 104.462 97.3956 104.462C97.3956 104.462 100.379 104.5 100.702 102.701C101.07 100.684 96.8069 101.025 94.3483 99.7791C88.7148 96.9246 81.5057 91.2916 79.9628 90.3066L74.0805 102.043Z" fill="#EB9481"/>
<path d="M86.3429 100.936C88.0175 101.743 89.6415 102.58 91.4166 103.156C93.3643 103.788 95.3446 104.07 97.3534 104.407C97.416 104.417 97.408 104.505 97.3444 104.505C93.6112 104.471 89.4097 103.072 86.305 101.012C86.2296 100.962 86.2585 100.896 86.3429 100.936Z" fill="#6E3E45"/>
<path d="M84.1256 104.086C85.7988 104.781 88.7466 105.984 94.3734 106.391C94.3919 106.392 94.3952 106.424 94.3749 106.425C90.6867 106.647 87.3464 105.85 84.0924 104.166C83.9919 104.114 84.0146 104.04 84.1256 104.086Z" fill="#6E3E45"/>
<path d="M82.9661 105.801C85.8556 106.874 87.8137 107.185 91.0256 107.558C91.0436 107.56 91.045 107.592 91.0246 107.592C87.3298 107.552 85.994 107.118 82.9149 105.895C82.8092 105.853 82.8533 105.759 82.9661 105.801Z" fill="#6E3E45"/>
<path d="M65.0139 72.0588L53.5322 75.8778C53.5322 75.8778 55.6713 62.7433 57.3905 59.0584C59.3254 54.9109 61.0228 56.8074 62.5448 60.8829C64.0663 64.9578 65.0139 72.0588 65.0139 72.0588Z" fill="#455A64"/>
<path d="M62.2125 70.0383C62.0608 70.0288 61.9281 69.9957 61.8096 69.9198C61.5726 69.7824 61.4304 69.5264 61.4351 69.2562C61.4304 68.896 61.1934 68.5594 60.8711 68.4362C60.7146 68.3651 60.525 68.3651 60.3781 68.3841C60.2217 68.4078 60.07 68.4172 59.9136 68.4457C60.07 68.4741 60.2217 68.4883 60.3781 68.5073C60.5393 68.5168 60.6672 68.5405 60.7905 68.6116C61.0275 68.7396 61.1886 68.9955 61.1886 69.261C61.1792 69.607 61.4019 69.9625 61.7195 70.0952C61.8759 70.1663 62.0608 70.1805 62.2125 70.1568C62.3689 70.1379 62.5253 70.1236 62.677 70.0952C62.5253 70.0715 62.3689 70.0573 62.2125 70.0383ZM62.0181 59.5771C61.6721 59.5819 61.3356 59.7999 61.1981 60.1128C61.127 60.2692 61.1175 60.454 61.1365 60.6057C61.1555 60.7621 61.1697 60.9138 61.1981 61.0702C61.2266 60.9138 61.236 60.7621 61.2597 60.6057C61.2692 60.4493 61.3024 60.3213 61.3735 60.2028C61.5157 59.9658 61.7669 59.8189 62.0418 59.8284C62.0703 59.8284 62.094 59.8284 62.1224 59.8189C62.0845 59.7383 62.0513 59.6577 62.0181 59.5771Z" fill="white"/>
<path d="M63.9194 70.1168C62.3912 70.405 57.9313 71.9156 57.1914 72.1579C56.8013 72.2858 55.2679 72.8636 54.8778 72.9878C54.8281 73.0039 54.8617 73.0779 54.9115 73.0622C55.6557 72.8252 56.4264 72.6646 57.1744 72.4328C57.9394 72.1953 62.5149 70.8288 63.9374 70.1751C63.9682 70.1604 63.954 70.1102 63.9194 70.1168Z" fill="#6E3E45"/>
<path d="M55.8742 64.1895C55.8837 64.1336 55.804 64.1246 55.7898 64.1762C55.4826 65.265 55.2035 66.3618 54.9418 67.4625C54.9361 66.8695 55.003 66.286 55.1058 65.6949C55.1106 65.6689 55.0717 65.6632 55.0655 65.6883C54.9053 66.3486 54.8646 67.0473 54.8792 67.7293C54.6987 68.4972 54.5247 69.2665 54.3602 70.0372C53.9417 71.9987 53.4985 73.961 53.1932 75.9442C53.1771 76.0499 53.2828 76.1296 53.3805 76.0931C53.7748 75.9471 54.1635 75.7921 54.5474 75.62C54.5873 75.602 54.5749 75.5323 54.5275 75.5418C54.1853 75.6096 53.8492 75.6954 53.5127 75.7826C53.9677 73.8989 54.3261 71.9911 54.7271 70.0955C55.1414 68.1337 55.5391 66.1666 55.8742 64.1895Z" fill="#6E3E45"/>
<path d="M64.3398 66.9089C64.2967 66.2719 64.2521 65.6348 64.1872 64.9987C64.1858 64.9854 64.1664 64.9883 64.1668 65.0011C64.1801 65.4708 64.2047 65.9401 64.2327 66.4089C64.0298 65.4931 63.8104 64.5816 63.5506 63.6853C63.5468 63.672 63.5255 63.6777 63.5274 63.6914C63.7184 65.0973 63.9867 66.4928 64.2109 67.8944C64.4308 69.2695 64.674 70.6388 64.9186 72.0097C64.6707 72.1372 64.4209 72.259 64.1687 72.3775C64.1204 72.4002 64.1488 72.4671 64.1991 72.4533C64.4929 72.3704 64.7863 72.2888 65.0835 72.2192C65.1537 72.2026 65.212 72.1495 65.202 72.0703C64.9835 70.3478 64.6996 68.6187 64.3398 66.9089Z" fill="#6E3E45"/>
<path d="M100.898 214.498C102.056 214.918 136.37 215.594 137.661 214.806C137.812 214.726 138.371 203.373 138.371 203.373C138.33 203.212 138.903 202.118 139.778 200.598C142.225 196.328 147.007 188.682 147.007 188.682L126.642 182.523L118.276 199.282L116.144 203.558C116.144 203.558 111.466 205.386 107.386 207.21C107.38 207.215 107.375 207.215 107.375 207.221C104.861 208.339 102.675 209.364 102.165 209.747C100.853 210.755 99.7391 214.089 100.898 214.498Z" fill="#FFC4C0"/>
<path d="M100.898 214.498C102.056 214.918 136.37 215.594 137.661 214.806C137.812 214.726 138.371 203.373 138.371 203.373C138.33 203.212 138.903 202.118 139.778 200.598L118.276 199.282L116.144 203.558C116.144 203.558 111.467 205.386 107.387 207.21C107.381 207.215 107.375 207.215 107.375 207.221C104.862 208.339 102.675 209.364 102.165 209.747C100.853 210.755 99.7391 214.089 100.898 214.498Z" fill="white"/>
<path d="M100.753 214.625C101.947 215.048 136.305 215.637 137.63 214.831C138.134 214.528 138.74 209.239 138.37 203.373L116.219 203.02C116.219 203.02 103.39 208.69 102.032 209.729C100.681 210.769 99.5604 214.204 100.753 214.625Z" fill="#FE812D"/>
<path opacity="0.1" d="M137.629 214.83C137.145 215.123 132.264 215.233 126.198 215.233L137.828 203.366L137.833 203.361L138.371 203.374C138.74 209.24 138.134 214.529 137.629 214.83Z" fill="black"/>
<path d="M101.27 213.26C107.032 213.217 130.276 213.589 135.974 213.984C136.021 213.988 136.02 214.019 135.974 214.02C130.264 214.187 107.024 213.628 101.268 213.354C101.147 213.348 101.148 213.26 101.27 213.26Z" fill="#6E3E45"/>
<path d="M104.263 208.531C105.63 208.499 106.954 209.171 107.685 209.997C108.387 210.791 108.98 211.901 108.919 213.094C108.917 213.128 108.854 213.128 108.849 213.093C108.559 210.833 106.543 208.818 104.262 208.604C104.216 208.599 104.216 208.533 104.263 208.531Z" fill="#6E3E45"/>
<path d="M114.402 203.566C116.708 203.574 119.366 204.433 120.767 206.344C120.821 206.418 120.715 206.493 120.647 206.457C118.582 205.347 116.614 204.513 114.358 203.85C114.198 203.803 114.237 203.566 114.402 203.566Z" fill="#6E3E45"/>
<path d="M112.611 204.23C114.917 204.238 117.575 205.097 118.975 207.007C119.029 207.081 118.924 207.157 118.856 207.12C116.79 206.01 114.823 205.176 112.566 204.513C112.407 204.466 112.445 204.23 112.611 204.23Z" fill="#6E3E45"/>
<path d="M110.819 204.893C113.125 204.901 115.784 205.76 117.184 207.67C117.238 207.744 117.132 207.82 117.064 207.784C114.999 206.674 113.032 205.84 110.774 205.177C110.616 205.13 110.654 204.893 110.819 204.893Z" fill="#6E3E45"/>
<path d="M109.028 205.556C111.334 205.564 113.992 206.423 115.392 208.333C115.447 208.407 115.341 208.483 115.273 208.447C113.207 207.336 111.24 206.502 108.983 205.839C108.824 205.793 108.862 205.556 109.028 205.556Z" fill="#6E3E45"/>
<path d="M134.601 208.489C137.187 208.54 137.112 212.56 134.521 212.508C131.935 212.456 132.011 208.437 134.601 208.489Z" fill="#6E3E45"/>
<path d="M112.142 200.755C113.359 202.381 115.236 203.424 116.859 204.587C117.027 204.708 117.224 204.573 117.276 204.408C117.314 204.412 117.351 204.393 117.349 204.343C117.254 202.354 116.493 200.06 115.355 198.413C114.653 197.395 113.199 196.425 112.016 197.373C110.897 198.269 111.432 199.805 112.142 200.755ZM112.068 198.843C112.34 196.339 114.571 198.305 115.058 199.074C115.372 199.569 115.631 200.111 115.874 200.644C116.382 201.76 116.722 202.926 117.114 204.082C116.352 203.461 115.545 202.912 114.761 202.32C113.826 201.615 111.918 200.224 112.068 198.843Z" fill="#6E3E45"/>
<path d="M125.561 203.014C125.406 201.505 123.695 201.15 122.477 201.363C120.505 201.708 118.336 202.775 116.851 204.103C116.815 204.136 116.828 204.176 116.857 204.2C116.776 204.353 116.818 204.588 117.022 204.623C118.989 204.963 121.05 205.57 123.062 205.296C124.237 205.136 125.707 204.44 125.561 203.014ZM120.109 204.528C119.138 204.385 118.18 204.195 117.203 204.087C118.302 203.555 119.372 202.979 120.523 202.559C121.073 202.358 121.641 202.163 122.214 202.039C123.105 201.847 126.07 202.057 124.476 204.008C123.598 205.084 121.267 204.7 120.109 204.528Z" fill="#6E3E45"/>
<path d="M141.336 200.52L118.479 197.056C118.479 197.056 129.466 175.159 136.267 163.276C140.049 156.668 150.394 156.345 155.425 164.261C162.147 174.836 167.362 184.746 170.351 190.239L175.536 190.683L174.418 199.154L157.187 203.013C150.587 203.803 145.954 192.052 145.846 192.251C145.011 193.794 141.336 200.52 141.336 200.52Z" fill="#6E3E45"/>
<path d="M145.725 192.303C146.375 190.972 146.882 189.559 147.46 188.195C148.019 186.875 148.581 185.557 149.136 184.236C150.257 181.566 151.418 178.908 152.506 176.225C153.117 174.718 153.677 173.192 154.247 171.67C154.261 171.633 154.317 171.65 154.306 171.687C153.865 173.126 153.405 174.559 152.924 175.985C153.052 175.739 153.179 175.493 153.312 175.253C153.679 174.597 154.058 173.949 154.439 173.301C154.453 173.275 154.49 173.299 154.477 173.324C154.126 173.975 153.776 174.625 153.412 175.269C153.23 175.589 153.032 175.906 152.841 176.226C151.485 180.217 149.948 184.145 148.1 187.938C147.374 189.43 146.522 190.858 145.795 192.347C145.772 192.393 145.702 192.35 145.725 192.303Z" fill="#6E3E45"/>
<path d="M140.825 196.457C141.927 194.757 144.552 189.609 145.492 187.83C147.393 184.231 149.133 180.558 150.778 176.836C151.708 174.733 152.577 172.611 153.438 170.479C153.443 170.465 153.466 170.471 153.461 170.486C152.167 174.327 150.624 178.088 148.951 181.777C147.275 185.472 141.868 195.424 140.895 196.5C140.86 196.539 140.797 196.501 140.825 196.457Z" fill="#6E3E45"/>
<path d="M155.015 173.322C156.984 176.839 158.997 180.332 160.975 183.844C161.974 185.619 162.974 187.394 163.962 189.175C164.428 190.013 164.879 190.861 165.362 191.689C165.819 192.472 166.364 193.121 167.168 193.563C168.053 194.049 169.072 194.281 170.034 194.563C171.146 194.888 172.25 195.238 173.367 195.545C173.418 195.559 173.394 195.637 173.344 195.623C172.348 195.357 171.342 195.128 170.341 194.881C169.433 194.657 168.498 194.468 167.617 194.146C166.82 193.855 166.129 193.422 165.597 192.752C165.027 192.033 164.621 191.191 164.183 190.39C162.207 186.777 160.251 183.154 158.309 179.523C157.205 177.459 156.111 175.39 154.996 173.332C154.99 173.32 155.008 173.311 155.015 173.322Z" fill="#6E3E45"/>
<path d="M141.855 197.313C140.486 197.063 139.083 196.944 137.703 196.767C136.318 196.589 134.933 196.41 133.549 196.229C130.787 195.868 121.385 194.37 120.675 194.135C120.63 194.121 120.645 194.047 120.69 194.046C121.363 194.025 127.52 194.845 128.901 195.048C131.663 195.455 134.407 195.944 137.159 196.408C137.945 196.541 138.728 196.69 139.513 196.829C140.296 196.968 141.08 197.137 141.869 197.238C141.916 197.245 141.903 197.321 141.855 197.313Z" fill="#6E3E45"/>
<path d="M126.585 219.668C127.022 218.516 148.902 192.076 150.339 191.611C150.504 191.549 159.466 198.533 159.466 198.533C159.826 199.059 177.569 196.108 177.569 196.108L176.823 217.326L144.825 215.252C144.825 215.252 140.388 217.608 136.341 219.508C136.334 219.508 136.331 219.512 136.328 219.509C133.837 220.686 131.634 221.674 131.013 221.808C129.392 222.148 126.14 220.813 126.585 219.668Z" fill="#FFC4C0"/>
<path d="M131.012 221.807C131.636 221.676 133.836 220.687 136.326 219.508C136.33 219.513 136.336 219.508 136.341 219.508C140.385 217.608 144.823 215.251 144.823 215.251L151.944 215.714L163.886 198.192C161.418 198.519 159.581 198.7 159.465 198.532C159.465 198.532 150.505 191.548 150.339 191.612C148.903 192.076 127.024 218.516 126.585 219.667C126.142 220.813 129.392 222.151 131.012 221.807Z" fill="white"/>
<path d="M126.394 219.696C126.853 218.516 148.826 192.096 150.301 191.617C150.859 191.433 155.263 194.425 159.466 198.533L145.28 215.55C145.28 215.55 132.612 221.571 130.938 221.922C129.269 222.267 125.936 220.876 126.394 219.696Z" fill="#FE812D"/>
<path d="M127.766 220.196C131.558 215.857 146.444 198.001 149.863 193.424C149.891 193.387 149.866 193.367 149.835 193.401C145.982 197.619 131.242 215.595 127.693 220.136C127.619 220.232 127.686 220.288 127.766 220.196Z" fill="#6E3E45"/>
<path d="M133.302 221.013C134.218 219.998 134.573 218.556 134.424 217.463C134.28 216.414 133.827 215.24 132.883 214.507C132.856 214.486 132.814 214.534 132.838 214.561C134.361 216.255 134.572 219.098 133.247 220.966C133.22 221.005 133.271 221.048 133.302 221.013Z" fill="#6E3E45"/>
<path d="M143.68 216.57C145.179 214.817 146.263 212.242 145.729 209.935C145.708 209.845 145.581 209.876 145.565 209.951C145.058 212.241 144.407 214.276 143.437 216.419C143.368 216.57 143.573 216.695 143.68 216.57Z" fill="#6E3E45"/>
<path d="M142.008 217.495C143.508 215.742 144.591 213.167 144.057 210.86C144.037 210.77 143.91 210.801 143.893 210.876C143.386 213.166 142.735 215.201 141.764 217.344C141.697 217.495 141.901 217.62 142.008 217.495Z" fill="#6E3E45"/>
<path d="M140.337 218.419C141.836 216.667 142.92 214.092 142.386 211.784C142.365 211.695 142.238 211.726 142.222 211.801C141.715 214.09 141.064 216.125 140.094 218.269C140.025 218.419 140.23 218.545 140.337 218.419Z" fill="#6E3E45"/>
<path d="M138.665 219.344C140.164 217.592 141.248 215.017 140.714 212.709C140.694 212.62 140.567 212.65 140.55 212.726C140.043 215.015 139.392 217.05 138.422 219.193C138.353 219.344 138.558 219.47 138.665 219.344Z" fill="#6E3E45"/>
<path d="M153.131 198.052C154.779 196.058 151.684 193.493 150.033 195.49C148.384 197.483 151.48 200.049 153.131 198.052Z" fill="#6E3E45"/>
<path d="M146.817 222.42C148.307 222.141 148.521 220.406 148.208 219.21C147.702 217.273 146.46 215.199 145.015 213.829C144.979 213.796 144.94 213.812 144.918 213.843C144.759 213.775 144.528 213.836 144.51 214.043C144.333 216.031 143.898 218.134 144.337 220.117C144.593 221.275 145.408 222.683 146.817 222.42ZM144.859 217.111C144.922 216.132 145.033 215.16 145.06 214.179C145.68 215.23 146.342 216.249 146.856 217.362C147.101 217.893 147.342 218.444 147.513 219.004C147.778 219.876 147.812 222.849 145.737 221.42C144.593 220.634 144.783 218.279 144.859 217.111Z" fill="#6E3E45"/>
<path d="M148.021 208.879C146.5 210.225 145.615 212.183 144.589 213.895C144.483 214.072 144.633 214.258 144.802 214.296C144.802 214.334 144.824 214.37 144.872 214.364C146.847 214.105 149.071 213.158 150.619 211.888C151.575 211.104 152.423 209.576 151.381 208.475C150.395 207.433 148.908 208.093 148.021 208.879ZM149.92 208.648C152.438 208.713 150.662 211.097 149.935 211.647C149.468 212 148.949 212.303 148.438 212.588C147.368 213.187 146.233 213.622 145.114 214.108C145.67 213.297 146.151 212.447 146.676 211.617C147.301 210.628 148.531 208.612 149.92 208.648Z" fill="#6E3E45"/>
<path d="M171.997 189.509C171.997 189.509 194.697 187.065 203.678 189.484C216.203 192.858 217.639 207.905 207.993 213.632C195.772 220.889 153.374 216.844 153.374 216.844L165.208 196.895C165.208 196.895 182.97 193.585 198.89 194.869L166.767 198.844L171.997 189.509Z" fill="#6E3E45"/>
<path d="M164.386 198.238C164.402 198.212 164.407 198.16 164.415 198.13C164.423 198.101 164.431 198.071 164.439 198.042C164.458 197.973 164.477 197.905 164.498 197.838C164.54 197.696 164.593 197.562 164.649 197.426C164.704 197.291 164.764 197.158 164.827 197.027C164.892 196.892 164.977 196.783 165.057 196.66C165.066 196.647 165.078 196.646 165.089 196.637C165.096 196.632 165.102 196.627 165.11 196.623C165.12 196.619 165.128 196.612 165.139 196.611C165.149 196.607 165.157 196.601 165.168 196.599C167.119 196.287 180.349 194.788 182.314 194.628C184.294 194.467 186.279 194.35 188.263 194.254C192.219 194.061 196.19 194.053 200.142 194.299C200.512 194.322 200.882 194.355 201.251 194.385C201.331 194.359 201.416 194.348 201.498 194.33C201.69 194.287 201.881 194.244 202.074 194.212C202.434 194.152 202.797 194.11 203.158 194.065C203.912 193.971 204.666 193.917 205.417 193.795C205.463 193.788 205.478 193.864 205.432 193.873C204.675 194.023 203.929 194.23 203.172 194.377C202.954 194.419 202.735 194.461 202.517 194.5C203.964 194.647 205.406 194.833 206.847 195.04C206.892 195.047 206.891 195.124 206.844 195.119C204.88 194.906 202.896 194.804 200.922 194.755C198.962 194.706 197.002 194.668 195.04 194.706C191.073 194.784 187.103 195.003 183.142 195.286C180.92 195.444 167.429 197.014 165.203 197.02C165.193 197.02 165.185 197.015 165.176 197.014C165.155 197.069 165.134 197.124 165.107 197.178C165.041 197.309 164.973 197.437 164.902 197.564C164.833 197.687 164.766 197.807 164.688 197.924C164.65 197.982 164.611 198.039 164.571 198.096C164.552 198.125 164.532 198.153 164.512 198.182C164.495 198.206 164.46 198.243 164.45 198.272C164.432 198.327 164.358 198.287 164.386 198.238Z" fill="#6E3E45"/>
<path d="M159.454 215.6C160.153 214.453 160.76 213.223 161.405 212.036C162.053 210.847 162.702 209.656 163.352 208.468C164.648 206.097 169.278 198.134 169.725 197.582C169.753 197.547 169.806 197.591 169.791 197.632C169.562 198.254 166.659 203.534 165.992 204.71C164.659 207.063 163.266 209.365 161.89 211.686C161.497 212.348 161.092 213.001 160.694 213.66C160.298 214.318 159.876 214.964 159.508 215.642C159.486 215.683 159.429 215.641 159.454 215.6Z" fill="#6E3E45"/>
<path d="M170.445 199.769C171.625 199.511 172.829 199.362 174.019 199.168C175.211 198.973 176.404 198.78 177.597 198.59C179.983 198.21 182.372 197.848 184.764 197.512C189.534 196.841 194.317 196.319 199.115 196.023C201.824 195.856 204.536 195.785 207.246 195.685C207.304 195.683 207.298 195.783 207.24 195.784C202.418 195.813 197.582 196.322 192.785 196.868C188.034 197.409 183.292 198.024 178.554 198.693C177.217 198.881 175.88 199.074 174.542 199.269C173.185 199.468 171.824 199.726 170.461 199.856C170.41 199.861 170.392 199.78 170.445 199.769Z" fill="#6E3E45"/>
<path d="M180.939 157.368C181.804 159.576 183.037 161.586 183.727 163.875C184.356 165.972 184.641 168.212 184.306 170.394C183.078 178.406 172.645 183.212 165.317 180.725C161.813 179.533 158.764 176.69 157.833 173.043C156.695 168.572 159.081 164.278 160.527 160.198C161.359 157.86 161.698 155.551 161.704 153.082C161.706 150.962 161.575 148.805 162.005 146.712C162.312 145.219 163.331 140.877 168.832 139.144C172.78 137.899 176.777 140.056 178.618 143.807C180.758 148.166 179.23 152.987 180.939 157.368Z" fill="#6E3E45"/>
<path d="M162.126 158.021C160.42 161.676 158.178 165.409 157.522 169.441C156.977 172.785 157.88 176.403 160.789 178.391C160.814 178.408 160.843 178.373 160.818 178.354C157.762 175.986 157.382 171.892 158.24 168.37C159.118 164.763 161.23 161.624 162.299 158.095C162.333 157.982 162.179 157.909 162.126 158.021Z" fill="#6E3E45"/>
<path d="M161.354 157.808C160.062 162.602 156.118 166.376 155.864 171.477C155.862 171.538 155.955 171.553 155.959 171.491C156.291 166.398 160.679 162.783 161.449 157.823C161.458 157.76 161.369 157.751 161.354 157.808Z" fill="#6E3E45"/>
<path d="M181.215 157.289C180.366 155.471 179.9 153.648 179.717 151.654C179.707 151.553 179.541 151.545 179.534 151.651C179.073 158.688 187.133 163.963 184.988 171.24C184.973 171.291 185.048 171.325 185.066 171.273C186.096 168.271 185.296 165.268 183.948 162.499C183.089 160.736 182.046 159.067 181.215 157.289Z" fill="#6E3E45"/>
<path d="M179.584 150.608C179.567 150.474 179.372 150.513 179.381 150.643C179.547 153.257 180.448 155.837 181.855 158.04C182.555 159.135 183.414 160.117 184.093 161.228C184.835 162.444 185.407 163.75 186.033 165.028C186.049 165.061 186.094 165.038 186.082 165.005C185.27 162.582 184 160.653 182.544 158.59C180.849 156.186 179.955 153.51 179.584 150.608Z" fill="#6E3E45"/>
<path d="M164.005 163.573C153.278 170.786 144.588 177.678 143.656 182.489C142.365 189.15 146.401 191.21 148.249 191.317C153.279 191.61 164.771 174.604 168.328 166.97C171.783 159.558 166.367 161.985 164.005 163.573Z" fill="#FE812D"/>
<path opacity="0.1" d="M168.329 166.971C164.769 174.602 153.28 191.609 148.251 191.315C146.966 191.244 144.634 190.23 143.752 187.391L169.31 162.534C169.633 163.24 169.434 164.606 168.329 166.971Z" fill="black"/>
<path d="M188.777 189.482C188.777 189.482 175.977 191.161 169.774 191.095C164.21 191.036 158.748 188.332 158.748 188.332L161.272 179.051C161.272 179.051 158.755 175.839 160.707 172.36C162.096 169.884 166.446 164.589 168.759 162.107C173.974 156.51 178.351 159.684 179.635 161.465C184.54 168.262 188.777 189.482 188.777 189.482Z" fill="#FE812D"/>
<path d="M169.059 178.318C167.884 178.299 166.699 178.325 165.527 178.504C164.944 178.592 164.368 178.711 163.79 178.844C163.502 178.911 163.214 178.965 162.925 179.019C162.628 179.074 162.311 179.12 162.012 179.092C161.985 179.089 161.98 179.135 162.007 179.139C162.295 179.186 162.57 179.231 162.864 179.234C163.142 179.238 163.424 179.207 163.702 179.168C164.294 179.084 164.883 178.969 165.474 178.879C166.667 178.696 167.859 178.513 169.058 178.428C169.114 178.424 169.114 178.318 169.059 178.318Z" fill="#6E3E45"/>
<path d="M171.768 179.865C170.832 179.629 169.87 179.44 168.912 179.326C168.43 179.269 167.948 179.244 167.462 179.233C167.23 179.228 166.998 179.227 166.765 179.23C166.51 179.233 166.253 179.275 165.998 179.274C165.972 179.274 165.965 179.32 165.992 179.321C166.233 179.331 166.472 179.385 166.711 179.41C166.951 179.435 167.191 179.459 167.431 179.484C167.913 179.534 168.393 179.59 168.874 179.636C169.838 179.726 170.797 179.827 171.757 179.955C171.809 179.962 171.817 179.877 171.768 179.865Z" fill="#6E3E45"/>
<path d="M180.577 163.189C189.271 170.731 195.479 181.261 195.211 188.126C194.946 194.906 192.617 194.133 191.95 194.057C187.869 193.59 179.148 174.263 176.587 166.433C174.045 158.661 178.427 161.324 180.577 163.189Z" fill="#FE812D"/>
<path d="M186.766 188.5C186.334 187.622 185.887 186.754 185.468 185.872L184.183 183.24C183.336 181.481 182.474 179.729 181.655 177.957C180.802 176.202 179.989 174.427 179.181 172.652C178.774 171.765 178.377 170.874 177.995 169.976C177.595 169.085 177.237 168.178 176.869 167.271C177.402 169.155 178.108 170.985 178.846 172.796C179.588 174.608 180.406 176.385 181.227 178.16C182.084 179.919 182.941 181.676 183.859 183.404C184.778 185.129 185.722 186.845 186.766 188.5Z" fill="#6E3E45"/>
<path d="M177.715 169.589C177.564 169.262 177.382 168.97 177.201 168.677C177.105 168.533 177.016 168.387 176.914 168.246C176.814 168.104 176.72 167.959 176.603 167.819C176.658 168.177 176.814 168.505 177.001 168.804C177.195 169.1 177.421 169.378 177.715 169.589Z" fill="#6E3E45"/>
<path d="M169.829 166.084C169.829 166.084 175.682 161.411 178.743 161.522L181.337 163.834C181.337 163.834 182.189 164.115 182.454 163.575C183.11 162.24 183.246 159.007 180.47 156.902C177.927 154.975 172.699 155.357 169.218 156.267C165.875 157.14 164.03 159.103 165.05 161.284C166.071 163.466 169.829 166.084 169.829 166.084Z" fill="#FE812D"/>
<path opacity="0.1" d="M169.496 165.058C169.496 165.058 166.788 162.254 166.396 160.628C166.003 159.003 169.255 157.462 171.354 156.859C174.603 155.925 176.813 156.139 178.629 157.875C180.445 159.612 169.496 165.058 169.496 165.058Z" fill="black"/>
<path d="M174.22 160.24C174.166 160.808 171.73 163.682 169.2 163.908C168.377 163.98 168.082 160.554 168.082 160.554L167.963 160.233L166.295 155.743L171.258 151.51L171.981 150.941C171.981 150.941 172.356 152.199 172.808 153.771C172.829 153.844 172.851 153.916 172.872 153.994C172.9 154.083 172.928 154.166 172.95 154.249C173.021 154.483 173.092 154.722 173.157 154.962C173.208 155.144 173.258 155.321 173.305 155.514C173.356 155.707 173.402 155.895 173.454 156.088C173.92 157.999 174.239 160 174.22 160.24Z" fill="#FFC4C0"/>
<path d="M172.808 153.771C171.985 157.638 169.246 159.542 167.963 160.233L166.295 155.743L171.258 151.51L171.982 150.941C171.982 150.941 172.357 152.199 172.808 153.771Z" fill="#6E3E45"/>
<path d="M161.181 146.084C157.909 153.826 162.177 156.66 163.847 157.364C165.363 158.003 170.607 159.986 174.662 152.623C178.716 145.26 176.151 141.291 172.761 139.647C169.37 138.002 164.453 138.342 161.181 146.084Z" fill="#FFC4C0"/>
<path d="M163.07 145.614C163.261 145.668 163.447 145.686 163.641 145.72C163.86 145.758 164.031 145.811 164.243 145.716C164.358 145.665 164.421 145.494 164.382 145.379C164.291 145.11 164.034 144.996 163.772 144.94C163.487 144.878 163.252 144.904 162.993 145.036C162.742 145.163 162.818 145.543 163.07 145.614Z" fill="#6E3E45"/>
<path d="M168.535 147.467C168.362 147.371 168.218 147.253 168.056 147.14C167.873 147.013 167.714 146.93 167.63 146.713C167.585 146.597 167.661 146.43 167.769 146.375C168.023 146.248 168.285 146.349 168.511 146.493C168.757 146.65 168.906 146.834 168.997 147.11C169.085 147.378 168.764 147.594 168.535 147.467Z" fill="#6E3E45"/>
<path d="M166.775 148.49C166.787 148.472 166.804 148.533 166.794 148.554C166.547 149.071 166.352 149.704 166.749 150.086C166.762 150.098 166.748 150.124 166.732 150.114C166.19 149.778 166.458 148.94 166.775 148.49Z" fill="#6E3E45"/>
<path d="M167.483 148.149C168.353 148.455 167.677 150.174 166.87 149.891C166.076 149.611 166.753 147.892 167.483 148.149Z" fill="#6E3E45"/>
<path d="M167.785 148.373C167.896 148.529 167.976 148.758 168.15 148.848C168.351 148.951 168.58 148.833 168.786 148.714C168.807 148.702 168.816 148.722 168.807 148.745C168.682 149.077 168.423 149.365 168.05 149.275C167.71 149.193 167.594 148.81 167.642 148.447C167.65 148.379 167.74 148.309 167.785 148.373Z" fill="#6E3E45"/>
<path d="M163.723 147.168C163.727 147.146 163.671 147.177 163.664 147.199C163.475 147.74 163.168 148.328 162.617 148.319C162.6 148.318 162.591 148.346 162.61 148.351C163.231 148.495 163.631 147.71 163.723 147.168Z" fill="#6E3E45"/>
<path d="M163.46 146.427C162.626 146.031 161.896 147.728 162.669 148.095C163.429 148.455 164.159 146.758 163.46 146.427Z" fill="#6E3E45"/>
<path d="M163.058 146.386C162.885 146.418 162.682 146.525 162.518 146.466C162.327 146.398 162.268 146.156 162.226 145.929C162.221 145.905 162.202 145.914 162.191 145.936C162.043 146.256 162.005 146.64 162.29 146.837C162.549 147.016 162.878 146.827 163.094 146.537C163.135 146.484 163.128 146.373 163.058 146.386Z" fill="#6E3E45"/>
<path d="M165.082 152.776C164.916 152.872 164.738 153.016 164.532 152.982C164.335 152.949 164.131 152.805 163.972 152.691C163.956 152.68 163.933 152.694 163.94 152.713C164.03 152.962 164.299 153.173 164.568 153.194C164.83 153.214 165.009 153.029 165.129 152.815C165.146 152.785 165.106 152.762 165.082 152.776Z" fill="#6E3E45"/>
<path d="M163.426 150.081C163.426 150.081 163.055 150.86 162.933 151.244C162.922 151.28 163.01 151.327 163.138 151.376C163.143 151.38 163.146 151.384 163.153 151.381C163.798 151.702 164.555 151.685 165.143 151.261C165.182 151.232 165.146 151.177 165.103 151.19C164.478 151.402 163.888 151.32 163.283 151.14C163.29 151.024 163.963 149.827 163.903 149.802C163.699 149.718 163.24 149.729 162.968 149.723C163.694 148.078 164.677 146.562 165.375 144.913C165.399 144.854 165.317 144.808 165.282 144.856C164.139 146.372 163.263 148.247 162.47 149.927C162.369 150.135 163.252 150.097 163.426 150.081Z" fill="#6E3E45"/>
<path d="M163.221 151.246C163.221 151.246 163.398 151.881 163.831 152.252C163.99 152.389 164.178 152.492 164.408 152.516C164.88 152.568 165.041 152.179 165.092 151.812C165.135 151.511 165.098 151.224 165.098 151.224C165.098 151.224 164.248 151.569 163.221 151.246Z" fill="#6E3E45"/>
<path d="M163.831 152.252C163.99 152.388 164.178 152.491 164.408 152.516C164.88 152.568 165.041 152.179 165.092 151.812C164.615 151.683 164.041 151.82 163.831 152.252Z" fill="#FF9ABB"/>
<path d="M174.002 152.33C172.513 152.133 173.012 148.733 173.012 148.733C173.012 148.733 167.144 146.075 167.94 140.936C167.94 140.936 165.674 143.648 162.077 144.244C162.077 144.244 164.529 138.274 169.156 138.353C169.156 138.353 174.386 137.921 176.544 143.007C178.754 148.218 175.002 152.462 174.002 152.33Z" fill="#6E3E45"/>
<path d="M168.016 140.56C167.732 141.301 167.638 142.114 167.689 142.915C167.74 143.717 167.942 144.52 168.316 145.24C168.396 145.428 168.521 145.589 168.622 145.765L168.781 146.022C168.842 146.103 168.906 146.182 168.97 146.259C169.099 146.414 169.223 146.574 169.357 146.723C169.501 146.864 169.649 147 169.798 147.135C169.872 147.202 169.944 147.273 170.021 147.336L170.264 147.512L170.749 147.862C171.093 148.063 171.447 148.246 171.799 148.421C171.487 148.174 171.156 147.964 170.852 147.718L170.409 147.336L170.188 147.147C170.119 147.079 170.055 147.005 169.989 146.934C169.858 146.791 169.727 146.65 169.592 146.512C169.47 146.364 169.359 146.206 169.242 146.054L169.068 145.824L168.92 145.577C168.828 145.41 168.71 145.256 168.638 145.078C168.276 144.401 168.077 143.649 167.963 142.888C167.909 142.505 167.891 142.117 167.901 141.728C167.903 141.338 167.946 140.949 168.016 140.56Z" fill="#6E3E45"/>
<path d="M173.046 151.748C173.046 151.748 175.6 149.818 176.531 150.807C177.462 151.796 174.978 154.989 173.487 155.054C171.998 155.118 171.911 153.74 171.911 153.74L173.046 151.748Z" fill="#FFC4C0"/>
<path d="M175.796 151.705C175.818 151.709 175.813 151.741 175.792 151.742C174.737 151.818 173.966 152.524 173.332 153.309C173.721 153.054 174.16 152.987 174.515 153.466C174.534 153.491 174.498 153.522 174.474 153.508C174.119 153.302 173.822 153.28 173.465 153.502C173.212 153.659 172.999 153.892 172.787 154.101C172.716 154.17 172.58 154.076 172.643 153.991C172.647 153.984 172.653 153.978 172.657 153.972C173.018 152.775 174.481 151.411 175.796 151.705Z" fill="#6E3E45"/>
<path d="M169.496 165.058C169.496 165.058 174.416 158.593 179.149 157.969L178.743 161.522C178.743 161.522 174.803 161.584 169.829 166.084L169.496 165.058Z" fill="#FE812D"/>
<path d="M180.019 161.59C179.153 161.48 178.292 161.67 177.479 161.925C174.233 162.685 170.921 165.352 170.921 165.352L169.968 166.225L169.861 166.323L169.742 166.262C168.154 165.396 166.56 163.388 166.262 162.994C167.472 164.245 169.478 165.697 169.916 165.905L169.69 165.942L170.644 165.04C170.974 164.752 174.604 162.37 177.411 161.692C177.623 161.633 177.841 161.596 178.057 161.554C178.276 161.527 178.493 161.494 178.713 161.484C179.152 161.455 179.598 161.47 180.019 161.59Z" fill="#6E3E45"/>
<path d="M181.337 163.834C180.849 163.51 180.404 163.139 179.969 162.757C179.539 162.369 179.12 161.969 178.743 161.522C179.231 161.845 179.676 162.216 180.111 162.598C180.54 162.987 180.959 163.387 181.337 163.834Z" fill="#6E3E45"/>
<path d="M171.09 164.307C171.09 164.307 171.626 166.1 171.891 168.736C171.996 169.779 171.89 173.558 170.718 173.515C169.546 173.471 171.246 170.903 171.422 168.9C171.6 166.866 170.955 165.491 170.791 164.313L171.09 164.307Z" fill="#6E3E45"/>
<path d="M167.823 164.257C167.823 164.257 167.185 165.843 166.723 168.218C166.541 169.158 166.32 172.603 167.39 172.662C168.459 172.721 167.128 170.243 167.136 168.406C167.144 166.542 167.846 165.346 168.094 164.288L167.823 164.257Z" fill="#6E3E45"/>
<path d="M145.439 172.8C145.777 169.598 146.535 165.122 147.644 164.153C148.809 163.137 153.046 159.729 154.286 159.254C155.526 158.78 161.049 156.472 162.095 157.034C162.933 157.483 162.028 159.677 159.401 160.799C157.092 161.785 155.915 162.673 155.256 162.983C154.583 163.3 153.014 165.56 153.493 166.524C153.775 167.091 155.473 167.713 156.5 167.209C157.526 166.704 157.718 164.633 158.877 163.621C160.036 162.61 162.14 162.661 162.279 163.224C162.419 163.787 161.734 164.074 160.721 166.036C160.07 167.298 160.119 170.274 158.621 172.456C157.868 173.553 156.587 176.449 156.587 176.449L145.439 172.8Z" fill="#FFC4C0"/>
<path d="M159.96 162.707C160.325 162.612 160.722 162.487 160.986 162.202C161.098 162.082 161.182 161.933 161.209 161.769C161.223 161.683 161.222 161.589 161.208 161.503C161.195 161.423 161.168 161.301 161.098 161.252C161.077 161.238 161.107 161.211 161.119 161.232C161.144 161.278 161.188 161.313 161.219 161.356C161.245 161.392 161.265 161.432 161.282 161.474C161.317 161.556 161.334 161.642 161.335 161.732C161.338 161.928 161.265 162.115 161.145 162.268C160.86 162.632 160.405 162.74 159.964 162.738C159.946 162.738 159.943 162.712 159.96 162.707Z" fill="#6E3E45"/>
<path d="M147.645 164.153C148.606 162.529 151.105 159.576 153.641 158.507C155.355 157.784 161.424 160.498 161.287 161.646C161.15 162.793 160.131 162.83 158.614 162.7C158.061 162.652 155.115 161.702 154.639 162.329C153.955 163.23 153.146 166.26 153.146 166.26L147.645 164.153Z" fill="#FFC4C0"/>
<path d="M161.125 161.205C160.347 160.006 158.704 159.407 157.073 158.945C157.047 158.938 157.034 158.977 157.06 158.984C157.475 159.102 160.145 160.226 161.108 161.225C161.119 161.236 161.133 161.217 161.125 161.205Z" fill="#6E3E45"/>
<path d="M147.645 164.153C148.606 162.529 151.105 159.576 153.641 158.507C155.355 157.784 160.203 161.352 160.067 162.5C159.93 163.648 158.467 163.786 156.828 163.275C156.299 163.11 154.502 161.932 154.026 162.558C153.341 163.459 151.674 165.696 151.674 165.696L147.645 164.153Z" fill="#FFC4C0"/>
<path d="M152.632 164.313C152.786 164.057 152.839 163.967 152.999 163.713C153.157 163.46 153.32 163.21 153.496 162.97C153.649 162.762 153.796 162.533 154.013 162.388C154.222 162.248 154.479 162.209 154.725 162.223C155.289 162.257 155.808 162.597 156.294 162.855C156.836 163.143 157.956 163.602 158.798 163.485C159.03 163.453 159.259 163.406 159.46 163.282C159.591 163.202 159.767 163.101 159.849 162.95C160.195 162.317 159.714 161.621 159.229 161.134C158.326 160.226 157.13 159.585 155.973 159.064C155.689 158.936 155.401 158.815 155.114 158.694C154.787 158.557 154.447 158.426 154.079 158.435C153.492 158.449 152.549 159.078 152.256 159.268C152.234 159.282 152.216 159.246 152.237 159.231C152.591 158.994 153.462 158.233 154.411 158.25C154.759 158.256 155.088 158.423 155.408 158.549C155.743 158.681 156.074 158.824 156.401 158.974C157.038 159.267 157.659 159.595 158.243 159.984C158.794 160.351 159.383 160.782 159.766 161.332C160.098 161.808 160.215 162.498 159.925 163.019C159.68 163.459 159.13 163.58 158.878 163.621C158.626 163.662 158.384 163.665 158.13 163.639C157.867 163.611 156.9 163.365 156.49 163.217C155.97 163.029 155.496 162.698 154.961 162.555C154.705 162.487 154.428 162.493 154.196 162.631C153.98 162.758 153.805 162.987 153.64 163.172C153.268 163.591 153.021 163.863 152.72 164.338C152.647 164.454 152.567 164.42 152.632 164.313Z" fill="#6E3E45"/>
<path d="M146.938 165.566C147.285 164.797 147.811 161.657 148.382 160.681C148.953 159.705 151.594 156.306 152.882 156.407C154.502 156.534 152.916 159.497 152.11 160.722C151.304 161.947 151.514 163.977 151.514 163.977L146.938 165.566Z" fill="#FFC4C0"/>
<path d="M153.222 158.698C152.935 159.087 152.682 159.516 152.435 159.931C152.2 160.325 151.926 160.717 151.752 161.142C151.577 161.569 151.509 162.023 151.481 162.481C151.467 162.707 151.467 162.93 151.473 163.156C151.48 163.402 151.51 163.649 151.512 163.894C151.513 163.92 151.553 163.923 151.553 163.897C151.557 163.452 151.622 162.993 151.684 162.553C151.749 162.095 151.87 161.637 152.044 161.208C152.394 160.351 152.921 159.579 153.278 158.725C153.293 158.691 153.243 158.67 153.222 158.698Z" fill="#6E3E45"/>
<path d="M151.544 164.318C151.469 165.094 151.725 165.868 152.032 166.572C152.19 166.926 152.373 167.27 152.582 167.601C152.793 167.932 153.041 168.244 153.282 168.53C153.766 169.11 154.195 169.706 154.517 170.375C154.84 171.042 155.051 171.768 155.207 172.518C155.225 171.754 155.125 170.97 154.846 170.236C154.579 169.497 154.13 168.829 153.647 168.235C153.151 167.652 152.742 167.063 152.376 166.4C152.028 165.742 151.665 165.074 151.544 164.318Z" fill="#6E3E45"/>
<path d="M148.778 191.023C151.903 190.463 153.731 185.116 156.921 175.717C157.481 174.067 148.835 164.447 147.782 165.983C146.456 167.919 143.117 178.524 142.842 181.386C142.3 187.029 145.128 191.678 148.778 191.023Z" fill="#FFC4C0"/>
<path d="M155.249 180.958L144.691 171.55C144.691 171.55 142.179 180.148 142.601 183.687C143.024 187.226 144.437 191.221 148.723 191.259C151.931 191.288 155.249 180.958 155.249 180.958Z" fill="#FE812D"/>
<path d="M152.267 187.915C152.611 187.38 152.914 186.824 153.208 186.264C153.505 185.706 153.772 185.132 154.033 184.556C154.287 183.976 154.532 183.392 154.74 182.792C154.949 182.195 155.147 181.587 155.249 180.958C155.006 181.544 154.748 182.116 154.486 182.69L153.709 184.412C153.457 184.989 153.199 185.564 152.961 186.149C152.719 186.731 152.479 187.316 152.267 187.915Z" fill="#6E3E45"/>
<path d="M153.141 182.768C152.626 182.25 152.065 181.773 151.521 181.285C150.976 180.798 150.426 180.315 149.87 179.84C148.758 178.89 147.641 177.946 146.512 177.017C146.203 176.763 145.893 176.509 145.58 176.26C145.244 175.994 144.875 175.769 144.543 175.501C144.517 175.48 144.486 175.519 144.51 175.541C144.779 175.779 145.015 176.056 145.279 176.3C145.553 176.552 145.832 176.799 146.113 177.044C146.664 177.525 147.217 178.004 147.772 178.48C148.882 179.431 149.999 180.378 151.139 181.292C151.784 181.809 152.419 182.348 153.093 182.826C153.133 182.854 153.175 182.803 153.141 182.768Z" fill="#6E3E45"/>
<path d="M166.581 164.488L170.854 177.726C171.023 178.111 170.846 178.445 170.458 178.47L163.512 178.925C163.125 178.951 162.672 178.658 162.502 178.273L158.229 165.035C158.06 164.649 158.237 164.316 158.625 164.291L165.57 163.836C165.958 163.81 166.411 164.102 166.581 164.488Z" fill="#6E3E45"/>
<path d="M165.756 164.535L170.029 177.772C170.198 178.158 170.021 178.492 169.633 178.517L162.687 178.972C162.299 178.998 161.846 178.705 161.677 178.319L157.404 165.082C157.233 164.696 157.411 164.363 157.799 164.337L164.744 163.882C165.133 163.857 165.586 164.149 165.756 164.535Z" fill="#455A64"/>
<path d="M163.892 165.274C163.92 165.6 164.207 165.84 164.532 165.812C164.858 165.784 165.098 165.496 165.07 165.171C165.042 164.846 164.755 164.605 164.429 164.634C164.104 164.662 163.863 164.949 163.892 165.274Z" fill="#6E3E45"/>
<path d="M192.93 193.981C189.897 194.398 186.117 192.041 176.315 184.885C174.958 183.895 179.372 172.442 180.874 173.426C182.767 174.664 189.845 179.879 190.314 180.326C194.274 184.094 194.987 193.698 192.93 193.981Z" fill="#FFC4C0"/>
<path d="M184.375 176.89C184.375 176.89 181.583 172.972 179.48 171.368C176.663 169.22 173.346 168.526 171.939 168.319C169.001 167.886 161.598 168.872 161.51 171.053C161.431 173.028 168.946 171.638 168.946 171.638C168.946 171.638 161.05 171.791 161.391 174.186C161.732 176.582 170.365 174.473 170.365 174.473C170.365 174.473 162.255 174.811 162.997 177.226C163.558 179.05 171.485 177.581 171.485 177.581C171.485 177.581 164.516 177.919 165.012 179.821C165.561 181.922 172.962 181.025 172.962 181.025C175.037 185.646 178.012 186.947 180.174 187.665C180.697 187.837 184.375 176.89 184.375 176.89Z" fill="#FFC4C0"/>
<path d="M171.674 171.411C170.746 171.395 169.806 171.373 168.88 171.439C167.953 171.506 167.028 171.606 166.112 171.758C163.866 172.133 162.517 172.719 162.604 172.692C164.667 172.05 167.98 171.76 168.907 171.693C169.831 171.626 170.752 171.513 171.677 171.446C171.701 171.444 171.696 171.411 171.674 171.411Z" fill="#6E3E45"/>
<path d="M171.976 174.751C170.79 174.783 169.611 174.77 168.426 174.854C167.247 174.937 166.136 175.119 164.965 175.284C164.875 175.297 164.912 175.341 165.003 175.332C166.179 175.214 167.275 175.197 168.452 175.093C169.626 174.99 170.804 174.84 171.979 174.779C171.997 174.778 171.994 174.751 171.976 174.751Z" fill="#6E3E45"/>
<path d="M172.751 177.572C170.936 177.527 169.115 177.817 167.335 178.144C167.247 178.16 167.3 178.212 167.392 178.201C169.189 177.977 170.596 177.788 172.75 177.636C172.783 177.633 172.79 177.573 172.751 177.572Z" fill="#6E3E45"/>
<path d="M184.375 175.333L180.512 189.408C180.512 189.408 190.876 195.51 193.165 193.896C195.455 192.283 193.957 184.154 191.366 181.055C190.286 179.763 184.375 175.333 184.375 175.333Z" fill="#FE812D"/>
<path d="M184.247 175.802L184.399 175.339L184.361 175.352C185.339 176.152 186.322 176.944 187.29 177.752C188.265 178.552 189.23 179.363 190.152 180.215C190.611 180.641 191.077 181.067 191.468 181.542C191.863 182.02 192.204 182.543 192.512 183.084C193.119 184.173 193.521 185.376 193.762 186.616C193.662 185.355 193.323 184.104 192.749 182.959C192.468 182.384 192.116 181.843 191.717 181.34C191.312 180.833 190.849 180.397 190.391 179.956C189.451 179.102 188.468 178.303 187.47 177.526C186.461 176.762 185.441 176.015 184.389 175.313L184.359 175.292L184.351 175.326L184.247 175.802Z" fill="#6E3E45"/>
<path d="M186.646 178.826C186.409 179.517 186.23 180.232 186.035 180.935C185.839 181.64 185.651 182.347 185.471 183.056C185.112 184.473 184.761 185.893 184.428 187.317C184.337 187.707 184.247 188.096 184.163 188.488C184.073 188.907 184.035 189.337 183.941 189.754C183.934 189.787 183.983 189.798 183.992 189.766C184.086 189.42 184.23 189.086 184.331 188.74C184.437 188.383 184.534 188.023 184.63 187.663C184.816 186.955 185 186.248 185.181 185.539C185.542 184.122 185.896 182.703 186.21 181.274C186.387 180.468 186.59 179.659 186.719 178.843C186.727 178.795 186.662 178.78 186.646 178.826Z" fill="#6E3E45"/>
<path d="M180.856 188.156C180.828 188.597 180.759 189.026 180.665 189.45L180.595 189.273C181.378 189.696 182.117 190.177 182.829 190.731C182.386 190.622 181.974 190.436 181.578 190.231C181.181 190.025 180.798 189.797 180.43 189.543L180.326 189.471L180.36 189.366C180.495 188.954 180.655 188.549 180.856 188.156Z" fill="#6E3E45"/>
<path d="M177.776 129.56V140.219H179.878V143.853L183.512 140.219H214.29V129.56H177.776Z" fill="white"/>
<path d="M177.776 129.56C177.805 133.154 177.899 136.706 177.917 140.219L177.776 140.078L179.878 140.065L180.032 140.064L180.033 140.219L180.055 143.853L179.754 143.728L183.369 140.076L183.428 140.017H183.512L214.29 139.987L214.058 140.219L214.076 129.56L214.29 129.773C203.774 129.76 188.459 129.644 177.776 129.56ZM177.776 129.56C188.562 129.5 203.646 129.334 214.29 129.346H214.504L214.504 129.56L214.522 140.219L214.523 140.452H214.29L183.512 140.422L183.656 140.363L180.003 143.978L179.7 144.278L179.702 143.853L179.724 140.219L179.878 140.373L177.776 140.361L177.633 140.36L177.633 140.219C177.652 136.626 177.746 133.072 177.776 129.56Z" fill="#6E3E45"/>
<path d="M183.219 132.387L184.05 133.625L185.485 134.032L184.564 135.205L184.619 136.695L183.219 136.182L181.819 136.695L181.875 135.205L180.954 134.032L182.388 133.625L183.219 132.387Z" fill="#FE812D"/>
<path d="M189.626 132.387L190.457 133.625L191.891 134.032L190.97 135.205L191.026 136.695L189.626 136.182L188.226 136.695L188.281 135.205L187.36 134.032L188.795 133.625L189.626 132.387Z" fill="#FE812D"/>
<path d="M196.033 132.387L196.864 133.625L198.298 134.032L197.377 135.205L197.433 136.695L196.033 136.182L194.633 136.695L194.688 135.205L193.767 134.032L195.202 133.625L196.033 132.387Z" fill="#FE812D"/>
<path d="M202.439 132.387L203.271 133.625L204.705 134.032L203.784 135.205L203.839 136.695L202.439 136.182L201.039 136.695L201.095 135.205L200.174 134.032L201.608 133.625L202.439 132.387Z" fill="#FE812D"/>
<path d="M208.846 136.182V132.387L208.015 133.625L206.581 134.032L207.502 135.205L207.446 136.695L208.846 136.182Z" fill="#FE812D"/>
<path d="M208.846 132.387L209.716 133.599C210.048 133.644 210.695 133.854 211.133 133.958L211.245 133.987L211.174 134.081L210.271 135.268L210.292 135.202L210.356 136.692L210.364 136.855L210.209 136.799L208.806 136.294H208.888L207.485 136.799L207.33 136.855L207.337 136.692L207.401 135.202L207.422 135.269L206.52 134.081L206.448 133.987L206.56 133.958C206.996 133.855 207.646 133.642 207.977 133.599C207.977 133.599 208.846 132.387 208.846 132.387ZM208.846 132.387L208.054 133.651C207.589 133.833 207.082 133.95 206.602 134.108L206.643 133.985L207.582 135.143C207.608 135.171 207.605 135.174 207.603 135.209L207.557 136.7L207.409 136.592L208.806 136.071C208.848 136.053 208.847 136.055 208.888 136.071L210.284 136.593L210.137 136.7L210.09 135.209C210.087 135.172 210.088 135.17 210.112 135.143L211.051 133.985L211.091 134.107C210.611 133.95 210.104 133.832 209.639 133.65C209.639 133.65 208.846 132.387 208.846 132.387Z" fill="#6E3E45"/>
<path d="M75.8528 18.2832V36.4279H77.9554V40.0616L81.5891 36.4279H118.642V18.2832H75.8528Z" fill="white"/>
<path d="M75.8528 18.2834L75.9267 27.3861C75.9618 30.4121 75.9817 33.4196 75.9855 36.4276L75.8528 36.2949L77.9554 36.2873L78.0953 36.2868L78.0957 36.4281L78.109 40.0618L77.8464 39.9532L81.4668 36.3063L81.5171 36.256C87.6881 36.2404 103.406 36.2029 109.378 36.1939L118.641 36.2162L118.429 36.4281L118.469 18.2839L118.641 18.4559C107.975 18.4464 86.5178 18.3497 75.8528 18.2834ZM75.8528 18.2834C86.5145 18.2184 107.98 18.1222 118.641 18.1113L118.813 18.1108L118.813 18.2834L118.853 36.4276L118.854 36.639L118.641 36.6395C108.308 36.6912 92.0432 36.6177 81.5891 36.6002L81.7114 36.5494L78.0645 40.1694L77.8004 40.4315L77.8019 40.0608L77.8151 36.4271L77.9554 36.5675L75.8528 36.5599L75.7196 36.5594C75.6959 31.2255 75.8376 23.6832 75.8528 18.2834Z" fill="#6E3E45"/>
<path d="M90.5638 27.38C90.5638 30.2334 88.2507 32.547 85.3972 32.547C82.5438 32.547 80.2302 30.2339 80.2302 27.38C80.2302 24.526 82.5433 22.2129 85.3972 22.2129C88.2507 22.2129 90.5638 24.526 90.5638 27.38Z" fill="#EBEBEB"/>
<path d="M85.4641 28.2585C86.362 28.2585 87.0899 27.5306 87.0899 26.6327C87.0899 25.7347 86.362 25.0068 85.4641 25.0068C84.5662 25.0068 83.8383 25.7347 83.8383 26.6327C83.8383 27.5306 84.5662 28.2585 85.4641 28.2585Z" fill="white"/>
<path d="M82.6547 31.117V31.7877C83.1192 32.0764 83.6349 32.2968 84.1956 32.4328C85.6451 32.7869 87.0989 32.5148 88.2739 31.7854V31.117C88.2739 29.5694 87.0169 28.3076 85.4645 28.3076C83.9117 28.3076 82.6547 29.5694 82.6547 31.117Z" fill="white"/>
<path d="M113.598 24.2383H94.2213V24.5331H113.598V24.2383Z" fill="#EBEBEB"/>
<path d="M113.598 26.2476H94.2213V26.5424H113.598V26.2476Z" fill="#EBEBEB"/>
<path d="M113.598 28.2573H94.2213V28.5522H113.598V28.2573Z" fill="#EBEBEB"/>
<path d="M103.825 30.2671H94.2213V30.5619H103.825V30.2671Z" fill="#EBEBEB"/>
</svg>
