<svg width="264" height="183" viewBox="0 0 264 183" fill="none" xmlns="http://www.w3.org/2000/svg">
<path d="M57.1986 182.561C88.7885 182.561 114.397 180.969 114.397 179.005C114.397 177.04 88.7885 175.448 57.1986 175.448C25.6087 175.448 0 177.04 0 179.005C0 180.969 25.6087 182.561 57.1986 182.561Z" fill="#6E3E45"/>
<path d="M16.5697 179.032H31.2719C29.432 176.957 28.0361 175.863 24.3019 174.451V171.487L36.4529 153.705L34.9711 136.812L9.48364 140.073L10.9655 147.482L17.4855 148.074L12.1509 152.52L16.5697 179.032Z" fill="#00002F"/>
<path d="M34.6747 162.3L32.8965 136.516L79.426 105.102L82.9823 160.226L34.6747 162.3Z" fill="#504F2C"/>
<path d="M127.734 59.7573C138.996 66.5737 146.108 77.5393 144.034 79.0211C142.374 80.2066 127.734 72.2047 127.734 59.7573Z" fill="black"/>
<path d="M145.516 49.5029C139.351 50.9255 130.006 57.4852 127.141 60.0535C128.03 64.7954 130.47 67.5362 132.772 70.7227C135.242 68.3518 140.655 61.6539 142.552 61.6539C144.923 61.6539 150.752 59.149 152.332 58.0975C153.871 57.0733 163.691 58.3702 163.987 57.4811C164.225 56.7698 160.038 55.924 158.556 55.4302C162.902 55.6276 171.596 55.9044 171.596 55.4302C171.596 54.956 170.213 54.4421 169.521 54.2448C171.003 54.3432 173.67 54.304 172.485 53.3557C171.003 52.1702 153.221 47.7247 145.516 49.5029Z" fill="#FCC7BF"/>
<path d="M158.556 52.645L169.521 53.8305" stroke="black" stroke-width="1.5" stroke-linecap="round" stroke-linejoin="round"/>
<path d="M90.3916 107.473C80.0188 98.2855 75.8696 74.6753 71.7205 58.5725L80.6115 34.8633L103.135 78.1327L127.437 59.758C128.326 63.018 134.686 73.5645 144.034 79.0218C127.635 89.6909 101.342 117.172 90.3916 107.473Z" fill="#FE812D"/>
<path fill-rule="evenodd" clip-rule="evenodd" d="M76.3753 77.4173C75.4145 73.772 74.5373 70.1196 73.6974 66.6213C73.0228 63.81 72.3714 61.0988 71.7206 58.572L80.2008 35.9587L80.6116 35.2676C84.3553 54.4383 84.1715 57.7345 76.3753 77.4173Z" fill="black"/>
<path d="M112.619 8.48627C111.866 1.71195 102.839 -2.77562 92.4661 1.96623C88.4231 3.81496 81.1657 -4.25745 77.0551 4.33716C76.1292 6.27302 75.9455 8.53073 76.4529 10.7541C74.5366 10.3326 72.6339 10.3605 71.1278 11.1536C65.4968 14.1172 67.275 22.1191 64.9041 22.4155C62.5331 22.7118 62.1431 17.3772 57.994 22.4155C54.3695 26.8165 54.4376 27.1573 53.8449 25.9719C53.1686 24.6204 46.9289 13.6294 35.0654 24.8243C25.344 35.5433 32.4022 49.8791 35.5633 54.7193L82.005 18.5674C83.0796 19.2835 84.2935 19.8892 85.6491 20.3409C91.7744 24.688 113.804 19.1554 112.619 8.48627Z" fill="#6E3E45"/>
<path d="M80.9078 7.89341C82.3896 5.22612 84.8993 5.12061 87.1315 8.18977C89.5024 11.4498 94.2443 10.2643 97.5043 5.81885C101.105 7.01913 102.601 12.937 101.95 16.1916C101.742 17.2319 102.998 18.6521 104.024 19.4517C104.446 19.7806 104.617 20.6371 103.135 20.3408L100.764 20.0444C100.073 21.6252 101.061 25.0826 97.2079 26.5644C94.2389 27.7066 90.6879 25.0826 88.6133 22.119L84.1678 29.3402L77.6478 21.042L84.4642 15.8953C83.0814 13.9197 79.4112 10.588 80.9078 7.89341Z" fill="#FCC7BF"/>
<path d="M86.5387 18.8589L88.6133 22.2274L86.2424 26.0801L86.5387 18.8589Z" fill="black"/>
<path d="M100.172 17.0806C100.172 17.9697 95.1333 15.8952 94.2442 13.5242C93.5774 11.746 100.172 12.4046 100.172 17.0806Z" fill="#F5F5F5"/>
<path fill-rule="evenodd" clip-rule="evenodd" d="M96.7219 16.0617C98.3632 17.083 100.172 17.6141 100.172 17.0812C100.172 15.6901 99.5878 14.6546 98.7852 13.9326C98.0395 13.9842 97.3656 14.3505 96.9963 14.9877C96.8025 15.3208 96.7148 15.6895 96.7219 16.0617Z" fill="black"/>
<path d="M91.577 17.0806C91.2806 18.8588 92.7625 20.3406 94.5407 20.3406" stroke="black" stroke-linecap="round"/>
<path d="M96.0225 10.5606L98.6898 10.2642M83.3588 9.1333L85.3539 12.6352" stroke="black" stroke-linecap="round"/>
<path d="M80.9079 179.033V175.933L84.2894 179.033H114.437C114.445 178.339 113.198 175.792 110.249 174.451C107.471 173.189 100.765 173.859 97.2086 169.71C94.3635 166.39 95.233 162.103 93.3558 159.04L71.1284 157.262V179.033H80.9079Z" fill="#00002F"/>
<path d="M39.4167 142.444C21.9311 151.335 11.0741 133.084 11.8547 115.474L58.9768 89.9869C89.5025 69.834 100.278 72.7971 103.135 86.1336C104.558 92.7722 101.16 137.603 98.6898 160.818H66.9787L77.0551 108.362C70.3377 116.758 53.4051 135.331 39.4167 142.444Z" fill="#7C7A48"/>
<path d="M46.5276 138.076L30.7468 121.082L37.2372 143.424C37.952 143.143 38.6781 142.82 39.4166 142.444C41.7265 141.27 44.117 139.778 46.5276 138.076Z" fill="#00002F"/>
<path d="M77.0551 108.362L79.7064 98.5483" stroke="black" stroke-linecap="round" stroke-linejoin="round"/>
<path d="M84.4642 28.935L77.6478 20.9331C76.3633 21.5258 55.4008 32.2063 44.1585 43.1605C22.0484 64.7057 12.8427 98.8773 11.8546 116.066L26.2473 108.132C31.2452 130.395 48.5755 158.839 51.864 162.3C57.4949 168.227 71.1277 156.669 77.0551 148.37L49.6472 95.232L58.0877 90.579C60.2612 84.3554 62.8485 75.5652 63.7186 73.9826C66.9786 68.0553 71.1112 70.7955 78.2405 65.0916C82.686 61.5352 83.4761 42.6668 81.5005 34.5659L84.4642 28.935Z" fill="#FE812D"/>
<path d="M39.4883 58.2905C29.6904 73.4455 22.5747 89.4184 25.7837 107.176" stroke="#FFFDFE" stroke-linecap="round" stroke-linejoin="round"/>
<path d="M67.5311 160.469C74.3983 156.384 78.3853 150.417 76.4362 147.14C74.4871 143.863 67.3401 144.517 60.4729 148.602C53.6057 152.686 49.6187 158.654 51.5678 161.931C53.5169 165.208 60.6639 164.553 67.5311 160.469Z" fill="black"/>
<path d="M79.1296 170.598C74.3924 166.507 63.2248 153.31 60.7549 148.371C64.4091 145.702 71.2498 143.328 75.9916 146.292C85.5678 162.052 93.591 167.422 92.7624 168.227C92.0511 169.175 85.946 164.869 82.9823 162.596C82.9823 162.596 84.933 165.84 86.5387 167.634C92.8513 175.067 96.5019 177.577 96.5019 178.467C96.5019 179.356 92.5668 178.996 90.0951 178.007C87.1314 176.822 85.6496 176.229 79.1296 170.598Z" fill="#FCC7BF"/>
<path d="M81.1022 170.019C83.7624 173.345 85.4048 175.157 89.4004 178.021M83.7695 169.13C86.5263 172.973 91.1786 177.428 94.735 179.206" stroke="black" stroke-linecap="round"/>
<path d="M65.7931 50.8667L47.7148 90.8761" stroke="#FFFDFE" stroke-linecap="round" stroke-linejoin="round"/>
<path d="M201.232 181.969C231.185 181.969 255.467 180.376 255.467 178.412C255.467 176.448 231.185 174.856 201.232 174.856C171.279 174.856 146.997 176.448 146.997 178.412C146.997 180.376 171.279 181.969 201.232 181.969Z" fill="#6E3E45"/>
<path d="M247.465 141.366C244.146 152.509 236.105 151.64 234.129 149.072C236.204 152.628 239.019 154.194 245.391 151.442C258.431 145.811 257.838 126.844 257.838 116.471C257.838 101.706 260.061 100.171 262.284 97.2075C265.353 93.1147 261.306 92.0928 256.949 97.2075C250.133 105.209 251.615 127.437 247.465 141.366Z" fill="#341A1B"/>
<path d="M240.795 150.181C237.94 151.321 235.179 150.436 234.13 149.072C234.246 149.272 234.366 149.463 234.488 149.65L236.891 152.088C238.068 152.775 239.521 153.021 241.41 152.699L240.795 150.181Z" fill="black"/>
<path d="M161.816 86.5388C159.741 69.9423 137.514 64.6077 139.885 60.4586C147.887 60.4586 160.512 60.8142 165.965 59.8658C172.781 58.6804 179.301 61.644 184.34 72.0168C189.378 82.3896 186.71 114.99 211.902 133.365C220.764 139.829 229.956 140.834 241.834 154.11C251.911 165.372 245.391 176.041 241.242 177.819C236.5 179.852 207.628 179.797 207.16 178.708C206.548 177.285 213.029 174.447 213.029 173.21C213.029 168.765 191.452 154.407 176.93 146.405C174.955 150.356 171.892 158.852 167.447 164.779C159.85 174.908 152.925 180.19 151.443 179.005C149.961 177.819 163.594 100.764 161.816 86.5388Z" fill="#341A1B"/>
<path d="M213.618 156.979C213.618 156.979 207.097 163.943 213.03 173.21" stroke="black" stroke-width="2" stroke-linecap="round" stroke-linejoin="round"/>
<path d="M176.93 146.405C176.93 146.405 177.858 142.297 178.227 140.283" stroke="black" stroke-width="2" stroke-linecap="round" stroke-linejoin="round"/>
<path fill-rule="evenodd" clip-rule="evenodd" d="M194.802 111.854C194.122 110.339 193.5 108.816 192.942 107.294L192.934 107.284L160.63 107.877L160.616 107.914C160.473 109.198 160.322 110.513 160.163 111.854H194.802Z" fill="#E8E4DD"/>
<path fill-rule="evenodd" clip-rule="evenodd" d="M143.924 60.4781C142.495 60.4668 141.134 60.4585 139.885 60.4585C139.57 61.0097 139.692 61.5823 140.141 62.1988C141.937 62.7227 143.988 61.7631 143.924 60.4781Z" fill="black"/>
<path d="M161.519 65.7928C162.338 65.7928 163.001 65.1293 163.001 64.3109C163.001 63.4925 162.338 62.8291 161.519 62.8291C160.701 62.8291 160.038 63.4925 160.038 64.3109C160.038 65.1293 160.701 65.7928 161.519 65.7928Z" fill="black"/>
<path d="M177.57 104.616C174.199 104.616 170.03 100.793 167.68 95.3583C164.857 88.83 166.476 76.3174 168.46 69.9165C168.46 69.9165 164.827 87.0826 168.659 94.9351C171.24 100.224 175.299 104.166 178.268 103.47C181.065 102.813 182.44 98.137 182.04 90.6408C181.176 74.4337 179.98 71.2644 179.98 71.2644C181.657 75.7792 182.68 82.6033 183.106 90.5833C183.664 101.069 180.916 103.943 178.512 104.508C178.207 104.581 177.892 104.616 177.57 104.616Z" fill="black"/>
</svg>
