<svg width="500" height="500" viewBox="0 0 500 500" fill="none" xmlns="http://www.w3.org/2000/svg">
<path d="M442.58 139.321C424.43 98.685 389.376 67.163 349.084 50.204C308.792 33.245 263.656 30.234 220.698 37.566C180.293 44.462 140.951 60.62 109.299 87.307C77.647 113.994 54.115 151.609 47.172 193.048C41.281 228.204 47.278 264.37 56.584 298.739C62.237 319.617 74.472 341.669 88.862 357.634C111.912 383.208 150.445 405.964 178.509 405.341L175.362 405.524C268.987 417.622 365.271 380.903 409.775 330.066C454.279 279.229 470.331 201.45 442.58 139.321Z" fill="#263238"/>
<path d="M104.397 275.149C116.278 269.676 136.429 254.006 135.515 249.855C135.367 249.181 132.509 245.151 128.587 239.99C130.37 237.42 132.211 233.324 130.125 229.03C129.057 226.833 127.129 225.169 124.863 224.255C122.658 223.365 119.471 222.731 116.007 224.109C110.606 217.581 106.026 212.506 105.385 212.988C104.867 213.379 101.104 216.19 96.16 219.97C93.997 218.198 88.723 214.716 83.376 217.576C81.222 218.728 79.634 220.72 78.809 223.019C77.918 225.501 77.385 229.174 79.573 232.992C79.308 233.208 79.044 233.424 78.784 233.637C72.984 238.395 68.391 241.329 68.144 242.54C76.618 254.869 84.503 263.86 92.759 274.117C95.723 277.798 99.366 277.466 104.397 275.149Z" fill="#E8E4DD"/>
<path d="M125.931 303.167C126.876 316.214 134.457 340.589 138.664 341.193C139.347 341.291 144.125 340.034 150.336 338.178C152.115 340.751 155.301 343.915 160.055 343.472C162.487 343.245 164.723 342.025 166.376 340.226C167.985 338.475 169.699 335.715 169.627 331.987C177.638 329.227 183.999 326.724 183.773 325.955C183.589 325.332 182.281 320.822 180.482 314.864C182.901 313.463 188.016 309.75 187.219 303.739C186.898 301.317 185.592 299.131 183.73 297.549C181.72 295.842 178.469 294.051 174.125 294.757C174.016 294.433 173.907 294.11 173.799 293.792C171.385 286.688 170.254 281.358 169.207 280.701C154.685 284.297 143.496 288.517 130.991 292.638C126.502 294.116 125.531 297.643 125.931 303.167Z" fill="#E8E4DD"/>
<path d="M323.133 279.572C323.133 279.572 345.656 294.904 355.426 274.027C355.426 274.027 351.488 287.577 360.666 293.917C369.844 300.258 380.201 301.328 380.201 301.328C380.201 301.328 363.349 306.359 362.033 317.531C360.224 332.885 366.108 338.985 366.108 338.985C366.108 338.985 353.972 334.144 344.763 337.316C335.554 340.488 334.235 350.185 334.235 350.185C334.235 350.185 335.423 332.545 325.304 326.107C315.184 319.669 304.038 320.103 304.038 320.103C304.038 320.103 320.314 316.075 323.667 298.976C327.019 281.877 323.133 279.572 323.133 279.572Z" fill="#E8E4DD"/>
<path d="M369.99 125.364C357.088 144.908 334.986 144.229 314.659 130.81C294.332 117.391 283.478 96.314 296.381 76.77C309.283 57.226 336.221 52.26 356.548 65.679C376.874 79.098 382.892 105.82 369.99 125.364Z" fill="#E8E4DD"/>
<path d="M299.566 130.434C297.411 132.383 294.634 131.553 292.595 129.299C290.556 127.045 290.029 124.222 292.184 122.273C294.339 120.324 297.738 120.571 299.776 122.824C301.814 125.079 301.72 128.486 299.566 130.434Z" fill="#E8E4DD"/>
<path d="M287.305 132.631C286.003 133.229 284.819 132.428 284.193 131.066C283.567 129.704 283.736 128.298 285.038 127.699C286.34 127.101 287.903 127.719 288.529 129.081C289.155 130.443 288.607 132.032 287.305 132.631Z" fill="#E8E4DD"/>
<path d="M208.299 164.811C210.765 166.849 210.378 169.915 208.34 172.381C206.302 174.847 203.385 175.779 200.919 173.741C198.453 171.703 198.106 168.052 200.144 165.586C202.182 163.12 205.833 162.773 208.299 164.811Z" fill="#E8E4DD"/>
<path d="M315.721 74.9919C310.911 82.2849 306.494 92.9339 313.157 100.609C318.298 106.53 327.677 106.888 333.81 102.399C337.017 100.052 339.391 96.7119 340.753 92.9919C342.004 89.5789 342.638 85.3179 340.84 81.9729C338.676 77.9449 333.854 78.0639 330.106 79.5499C326.279 81.0679 322.826 83.5489 320.051 86.5789C314.816 92.2949 309.718 102.665 314.545 110.053C316.884 113.634 321.101 115.53 325.055 116.732C329.687 118.14 334.701 118.583 339.442 117.455C346.98 115.662 354.551 108.63 353.696 100.278C353.27 96.1169 349.789 93.522 345.654 94.438C341.543 95.348 338.28 99.1339 336.58 102.806C333.585 109.273 334.137 121.404 343.061 122.773C347.251 123.416 351.468 121.348 354.497 118.582C357.518 115.825 359.641 112.083 360.577 108.11C362.696 99.1249 358.772 89.7569 352.206 83.6109C345.616 77.4409 335.735 72.9309 326.582 74.3789C322.318 75.0529 318.269 77.1319 315.572 80.5509C312.918 83.9149 311.704 88.1479 311.204 92.3439C310.142 101.26 311.864 111.172 318.737 117.479C325.937 124.086 336.275 125.584 345.605 123.751C349.74 122.939 353.852 121.359 357.077 118.584C360.589 115.561 362.361 111.256 363.244 106.799C365.032 97.78 364.323 88.0799 357.827 81.0599C352.316 75.1039 344.037 71.9419 335.972 72.3629C327.024 72.8299 318.612 77.1729 312.246 83.3459C306.327 89.0849 300.942 97.8009 304.757 106.138C306.258 109.418 309.091 112.072 312.694 112.76C313.48 112.91 313.817 111.705 313.026 111.555C309.421 110.867 306.749 108.069 305.504 104.699C304.107 100.915 304.721 96.8329 306.403 93.2419C309.755 86.0869 316.546 80.2809 323.567 76.8909C330.522 73.5329 338.544 72.5049 345.949 74.9559C352.882 77.2499 359.072 82.4439 361.504 89.4599C362.958 93.6569 363.104 98.1719 362.634 102.554C362.179 106.79 361.27 111.246 358.814 114.811C354.073 121.693 344.231 123.579 336.428 123.199C327.948 122.786 319.464 118.756 315.311 111.077C313.321 107.397 312.429 103.204 312.226 99.0509C312.031 95.0649 312.347 90.9539 313.561 87.1369C314.802 83.2319 317.148 79.7919 320.741 77.7169C324.343 75.6369 328.608 75.0399 332.701 75.5239C340.923 76.4969 349.16 81.2639 354.303 87.716C359.443 94.1639 361.625 103.258 358.308 111.031C356.826 114.504 354.344 117.594 351.117 119.588C347.634 121.74 342.715 122.782 339.444 119.679C336.653 117.032 335.842 112.727 336.167 109.037C336.501 105.251 338.148 101.551 340.805 98.8249C342.333 97.2569 344.265 95.8619 346.486 95.5599C348.652 95.2649 350.887 96.1279 351.868 98.1659C353.515 101.587 351.95 106.049 349.959 108.973C345.098 116.112 335.975 117.942 327.946 116.197C324.023 115.344 319.718 113.857 316.847 110.925C313.799 107.812 313.495 103.345 314.477 99.2949C316.276 91.8739 321.608 85.2569 328.349 81.7319C331.677 79.9919 336.991 78.2449 339.512 82.1839C341.471 85.2439 340.721 89.4609 339.548 92.6619C337.029 99.5359 330.554 104.928 322.975 104.167C319.49 103.817 316.06 102.207 313.823 99.4689C311.075 96.1069 310.571 91.3959 311.414 87.2579C312.278 83.0149 314.441 79.2019 316.8 75.6249C317.244 74.9499 316.162 74.3229 315.721 74.9919Z" fill="#263238"/>
<path d="M190.032 194.702C193.259 190.259 194.036 183.153 193.829 177.665C193.521 169.499 192.471 160.632 182.835 154.431C171.399 147.072 160.74 146.81 160.74 146.81C152.097 145.877 141.656 147.448 135.163 153.228C129.875 157.935 126.824 162.674 124.649 169.411C122.653 175.596 122.532 184.981 124.996 190.996C126.992 195.868 137.97 208.127 155.763 208.127C155.763 208.127 179.186 209.634 190.032 194.702Z" fill="#E8E4DD"/>
<path d="M139.191 182.837C141.806 180.82 143.667 177.963 144.304 174.704C144.865 171.834 144.727 167.594 141.485 166.367C138.243 165.14 136.619 168.704 135.933 171.201C134.934 174.841 134.559 178.726 135.341 182.444C136.67 188.765 142.433 194.712 149.328 193.73C156.093 192.767 160.866 185.827 162.519 179.683C163.386 176.459 163.555 173.059 162.99 169.768C162.489 166.851 161.391 162.91 158.43 161.574C155.44 160.224 152.32 162.375 150.604 164.745C148.639 167.457 147.924 170.972 148.215 174.272C148.553 178.109 150.078 181.708 151.912 185.055C153.728 188.371 155.927 191.584 158.931 193.935C161.691 196.096 165.202 197.53 168.753 197.254C171.914 197.008 174.865 195.48 177.074 193.233C181.855 188.37 182.579 180.516 179.139 174.689C175.578 168.658 168.199 165.876 161.502 167.628C153.709 169.666 148.351 176.156 143.031 181.743C140.81 184.075 138.438 186.797 138.859 190.257C139.257 193.528 141.704 196.121 144.634 197.409C150.891 200.162 159.177 198.744 165.041 195.645C171.137 192.424 175.538 186.571 176.454 179.682C178.524 164.113 161.23 154.824 147.762 155.195C144.499 155.285 140.243 155.547 137.705 157.854C135.14 160.184 135.872 163.444 138.082 165.707C142.702 170.437 150.069 172.53 156.529 172.243C159.809 172.097 163.043 171.347 166.033 169.989C169.444 168.44 172.332 165.513 176.07 164.743C182.911 163.334 189.495 169.416 188.256 176.336C187.687 179.515 185.765 182.341 182.909 183.877C182.2 184.258 182.831 185.338 183.54 184.956C187.971 182.573 190.4 177.274 189.464 172.346C188.503 167.281 183.741 163.685 178.726 163.333C175.862 163.132 173.306 164.192 170.912 165.668C168.204 167.337 165.672 169.026 162.591 169.96C156.754 171.729 150.229 171.283 144.702 168.687C142.17 167.498 139.032 165.73 137.704 163.145C135.523 158.901 141.114 157.205 144.163 156.753C150.921 155.752 158.021 157.07 163.987 160.39C169.561 163.491 174.518 168.558 175.269 175.155C175.966 181.272 173.364 187.49 168.796 191.548C163.977 195.829 157.329 197.773 150.953 197.482C147.687 197.333 144.152 196.519 141.904 193.967C139.327 191.042 139.75 187.553 142.087 184.655C144.128 182.124 146.527 179.796 148.804 177.476C151.313 174.919 153.995 172.494 157.145 170.747C163.092 167.45 170.336 167.405 175.519 172.192C180.303 176.61 181.489 184.242 178.121 189.856C176.575 192.432 174.122 194.536 171.254 195.485C167.916 196.59 164.393 195.894 161.415 194.13C158.502 192.404 156.269 189.769 154.47 186.941C152.583 183.974 150.906 180.735 150.011 177.32C149.198 174.215 149.127 170.885 150.317 167.864C151.413 165.079 154.861 160.858 158.272 162.896C160.86 164.442 161.646 168.498 161.947 171.248C162.286 174.34 161.948 177.486 160.991 180.444C159.175 186.059 154.249 192.735 147.706 192.583C140.679 192.42 136.425 185.461 136.185 179.092C136.065 175.913 136.492 172.139 137.935 169.263C138.816 167.508 140.727 166.637 142.231 168.364C143.421 169.73 143.435 171.902 143.226 173.599C142.831 176.805 141.116 179.79 138.561 181.76C137.933 182.242 138.554 183.329 139.191 182.837Z" fill="#263238"/>
<path d="M81.1039 176.206L84.0399 167.266L87.3739 176.206C87.3739 176.206 94.0349 177.339 94.1119 177.96C94.1879 178.567 87.7369 180.469 87.7369 180.469C87.7369 180.469 85.0299 189.137 84.0399 187.174C83.0499 185.211 82.0899 180.865 82.0899 180.865C82.0899 180.865 73.7029 179.123 73.7029 178.267C73.7029 177.341 81.1039 176.206 81.1039 176.206Z" fill="#E8E4DD"/>
<path d="M402.306 274.189L404.457 267.638L406.9 274.189C406.9 274.189 411.781 275.019 411.838 275.474C411.893 275.919 407.167 277.312 407.167 277.312C407.167 277.312 405.183 283.664 404.458 282.225C403.733 280.787 403.029 277.602 403.029 277.602C403.029 277.602 396.883 276.325 396.883 275.699C396.883 275.021 402.306 274.189 402.306 274.189Z" fill="#E8E4DD"/>
<path d="M396.883 112.746L399.034 106.195L401.477 112.746C401.477 112.746 406.358 113.576 406.415 114.031C406.471 114.476 401.744 115.869 401.744 115.869C401.744 115.869 399.76 122.221 399.035 120.782C398.31 119.344 397.606 116.159 397.606 116.159C397.606 116.159 391.46 114.882 391.46 114.256C391.459 113.578 396.883 112.746 396.883 112.746Z" fill="#E8E4DD"/>
<path d="M156.451 371.702L158.602 365.151L161.045 371.702C161.045 371.702 165.926 372.532 165.983 372.987C166.038 373.432 161.312 374.825 161.312 374.825C161.312 374.825 159.328 381.177 158.603 379.738C157.878 378.3 157.174 375.115 157.174 375.115C157.174 375.115 151.028 373.838 151.028 373.212C151.027 372.534 156.451 371.702 156.451 371.702Z" fill="#E8E4DD"/>
<path d="M105.297 148.863L106.496 145.212L107.858 148.863C107.858 148.863 110.578 149.326 110.61 149.579C110.641 149.827 108.006 150.604 108.006 150.604C108.006 150.604 106.9 154.144 106.496 153.342C106.092 152.54 105.7 150.765 105.7 150.765C105.7 150.765 102.274 150.053 102.274 149.704C102.274 149.327 105.297 148.863 105.297 148.863Z" fill="#E8E4DD"/>
<path d="M151.262 241.513L152.461 237.862L153.823 241.513C153.823 241.513 156.543 241.976 156.575 242.229C156.606 242.477 153.971 243.254 153.971 243.254C153.971 243.254 152.865 246.794 152.461 245.992C152.057 245.19 151.665 243.415 151.665 243.415C151.665 243.415 148.24 242.703 148.24 242.354C148.24 241.976 151.262 241.513 151.262 241.513Z" fill="#E8E4DD"/>
<path d="M106.04 307.509L107.239 303.858L108.601 307.509C108.601 307.509 111.321 307.972 111.353 308.225C111.384 308.473 108.749 309.25 108.749 309.25C108.749 309.25 107.643 312.79 107.239 311.988C106.835 311.186 106.443 309.411 106.443 309.411C106.443 309.411 103.018 308.699 103.018 308.35C103.017 307.972 106.04 307.509 106.04 307.509Z" fill="#E8E4DD"/>
<path d="M296.117 360.928L297.316 357.277L298.678 360.928C298.678 360.928 301.398 361.391 301.43 361.644C301.461 361.892 298.826 362.669 298.826 362.669C298.826 362.669 297.72 366.209 297.316 365.407C296.912 364.605 296.52 362.83 296.52 362.83C296.52 362.83 293.094 362.118 293.094 361.769C293.094 361.392 296.117 360.928 296.117 360.928Z" fill="#E8E4DD"/>
<path d="M345.142 160.901L346.341 157.25L347.703 160.901C347.703 160.901 350.423 161.364 350.455 161.617C350.486 161.865 347.851 162.642 347.851 162.642C347.851 162.642 346.745 166.182 346.341 165.38C345.937 164.578 345.545 162.803 345.545 162.803C345.545 162.803 342.119 162.091 342.119 161.742C342.119 161.365 345.142 160.901 345.142 160.901Z" fill="#E8E4DD"/>
<path d="M205.363 100.193C207.592 122.605 190.144 135.561 166.133 137.948C142.122 140.335 120.64 131.251 118.412 108.839C116.183 86.4271 133.842 66.3231 157.853 63.9351C181.863 61.5471 203.134 77.7801 205.363 100.193Z" fill="#FE812D"/>
<path d="M214.986 137.381C216.138 138.809 215.516 140.53 214.023 141.734C212.53 142.939 210.731 143.171 209.58 141.743C208.428 140.316 208.705 138.182 210.198 136.977C211.69 135.773 213.834 135.954 214.986 137.381Z" fill="#FE812D"/>
<path d="M209.634 122.878C212.217 124.765 212.015 127.848 210.128 130.432C208.241 133.015 205.385 134.121 202.802 132.234C200.219 130.347 199.654 126.724 201.54 124.14C203.427 121.556 207.051 120.991 209.634 122.878Z" fill="#FE812D"/>
<path d="M146.058 85.967C140.981 89.827 138.173 96.2881 138.814 102.647C139.471 109.163 143.878 114.702 149.835 117.284C155.353 119.676 163.065 119.506 167.105 114.431C171.013 109.521 167.993 102.207 162.186 100.533C155.367 98.567 149.029 103.86 147.53 110.299C146.792 113.47 146.83 117.349 148.61 120.189C150.467 123.154 153.948 123.873 157.157 124.418C164.821 125.719 173.186 126.245 180.121 122.09C185.991 118.573 188.927 112.236 188.11 105.48C186.294 90.4781 170.389 84.097 156.977 84.413C149.487 84.59 141.929 86.774 136.259 91.835C131.158 96.387 128.067 103.02 128.89 109.917C129.697 116.683 134.118 122.026 140.513 124.281C147.152 126.622 154.725 125.807 161.237 123.448C168.073 120.972 174.19 116.465 177.954 110.174C181.602 104.077 182.941 96.57 180.764 89.722C178.738 83.348 173.891 77.755 167.414 75.698C161.268 73.746 153.038 75.987 151.486 83.045C150.052 89.567 155.684 95.407 161.755 96.541C165.55 97.25 169.501 96.595 173.078 95.235C176.419 93.964 179.706 92.117 181.984 89.3C184.079 86.71 185.122 83.405 184.508 80.101C184.361 79.311 183.156 79.646 183.303 80.433C184.678 87.834 177.187 92.724 171.103 94.594C164.813 96.527 157.108 95.737 153.683 89.393C152.217 86.679 152.082 83.4391 153.765 80.7851C155.418 78.1761 158.357 76.563 161.394 76.251C167.958 75.576 174.109 79.9 177.396 85.306C184.531 97.037 178.71 111.749 167.831 118.808C162.504 122.264 156.063 124.282 149.707 124.401C143.887 124.51 137.654 122.91 133.737 118.332C129.659 113.566 129.032 106.499 131.329 100.795C133.702 94.904 138.863 90.426 144.669 88.069C151.024 85.489 158.282 85.081 165.005 86.22C171.122 87.256 177.168 89.7441 181.517 94.2861C185.583 98.5321 187.782 104.786 186.775 110.637C185.684 116.975 180.686 121.316 174.706 123.089C171.316 124.094 167.749 124.271 164.236 124.049C160.711 123.826 156.808 123.463 153.444 122.306C146.612 119.955 147.396 110.319 151.094 105.547C154.911 100.622 163.151 99.603 166.593 105.506C168.143 108.164 168.02 111.422 166.008 113.803C164.188 115.956 161.35 117.143 158.592 117.46C152.688 118.139 146.592 115.165 143.101 110.436C139.543 105.615 139.092 99.182 141.472 93.74C142.621 91.113 144.4 88.782 146.686 87.044C147.321 86.566 146.699 85.48 146.058 85.967Z" fill="#421B36"/>
<path d="M289.731 61.226C289.731 83.917 272.168 95.166 249.437 95.166C226.706 95.166 204.857 82.308 204.857 59.616C204.857 36.925 225.843 20.139 248.574 20.139C271.305 20.139 289.731 38.535 289.731 61.226Z" fill="#7C7A48"/>
<path d="M280.791 97.2181C280.791 99.7171 278.752 101.01 276.253 101.01C273.754 101.01 271.741 99.7171 271.741 97.2181C271.741 94.7191 273.767 92.6931 276.266 92.6931C278.765 92.6931 280.791 94.7191 280.791 97.2181Z" fill="#7C7A48"/>
<path d="M278.48 106.132C278.188 107.356 277.038 107.75 275.814 107.458C274.59 107.165 273.755 106.297 274.048 105.073C274.341 103.849 275.57 103.094 276.794 103.386C278.017 103.679 278.772 104.908 278.48 106.132Z" fill="#7C7A48"/>
<path d="M229.199 45.514C223.386 51.972 220.763 60.998 222.287 69.566C223.06 73.915 224.937 78.383 228.751 80.894C232.463 83.338 236.87 82.854 240.43 80.385C247.369 75.574 250.922 66.349 251.128 58.157C251.234 53.946 250.492 49.639 248.791 45.774C247.32 42.431 244.374 38.649 240.315 38.865C236.115 39.088 233.646 43.172 233.174 46.959C232.866 49.433 233.137 51.963 233.46 54.422C233.768 56.769 234.222 59.105 234.966 61.356C237.547 69.157 244.904 76.617 253.784 74.02C262.248 71.545 266.001 62.156 262.836 54.203C259.561 45.974 250.153 42.06 241.775 43.83C237.463 44.74 233.099 47.05 230.141 50.356C228.81 51.843 227.751 53.709 227.93 55.769C228.097 57.695 229.305 59.335 230.782 60.503C234.381 63.349 239.451 63.778 243.832 63.088C248.657 62.329 253.216 60.125 257.464 57.799C260.906 55.915 264.544 53.495 266.332 49.868C267.986 46.512 267.567 42.59 265.231 39.661C262.807 36.621 258.81 35.467 255.126 36.705C251.067 38.068 248.904 41.613 248.471 45.744C247.526 54.772 251.56 64.845 258.008 71.127C260.904 73.948 265.036 76.26 269.16 74.87C273.244 73.494 275.651 69.525 276.447 65.477C277.051 62.406 277.83 56.732 274.74 54.605C273.279 53.6 271.381 53.925 270.051 54.996C268.322 56.389 267.835 58.662 267.558 60.751C266.91 65.641 267.373 71.001 264.779 75.408C262.464 79.343 258.17 81.817 253.868 83.002C245.455 85.32 235.865 82.954 229.55 76.913C223.129 70.771 220.602 61.095 222.719 52.524C224.834 43.961 231.799 37.231 240.182 34.748C248.612 32.251 257.655 34.638 264.07 40.574C267.121 43.397 269.47 46.907 270.819 50.843C271.079 51.6 272.286 51.275 272.024 50.511C269.687 43.698 264.51 38.053 258.005 34.981C251.316 31.822 243.714 31.718 236.91 34.605C230.258 37.427 224.751 42.876 222.269 49.705C219.709 56.747 220.413 64.867 223.903 71.468C230.82 84.549 249.847 89.773 261.893 80.443C265.032 78.012 266.987 74.713 267.749 70.826C268.159 68.735 268.294 66.601 268.451 64.48C268.618 62.222 268.634 59.674 269.611 57.587C270.576 55.528 273.431 54.136 274.853 56.565C275.824 58.223 275.694 60.433 275.588 62.275C275.339 66.577 273.822 71.284 269.68 73.315C265.373 75.427 260.929 72.497 258.05 69.378C255.08 66.162 252.817 62.255 251.394 58.121C249.975 53.996 249.089 49.209 249.845 44.86C250.574 40.666 253.804 37.452 258.192 37.449C262.267 37.446 265.713 40.859 266.088 44.87C266.461 48.846 263.706 52.091 260.697 54.302C257.34 56.768 253.376 58.714 249.503 60.209C245.124 61.899 240.261 62.818 235.651 61.518C233.579 60.934 231.446 59.88 230.146 58.1C228.649 56.049 229.067 53.725 230.555 51.804C233.188 48.404 237.575 46.083 241.702 45.125C249.982 43.203 259.483 47.325 262.075 55.807C263.29 59.783 262.88 64.259 260.497 67.727C258.252 70.996 254.378 73.222 250.388 73.288C246.239 73.356 242.458 71.03 239.863 67.923C237.002 64.498 235.625 60.099 234.909 55.761C234.211 51.529 233.325 45.908 236.313 42.328C237.674 40.697 239.739 39.71 241.865 40.272C243.86 40.8 245.398 42.428 246.483 44.109C250.733 50.692 250.722 59.958 248.257 67.159C245.931 73.952 238.519 84.949 230.038 80.215C226.018 77.971 224.193 73.369 223.457 69.042C222.77 65.004 223.081 60.805 224.236 56.883C225.38 52.997 227.371 49.409 230.081 46.398C230.62 45.801 229.739 44.915 229.199 45.514Z" fill="#421B36"/>
<path d="M374.228 154.702C376.216 147.434 378.204 140.166 380.193 132.898C379.791 132.898 379.39 132.898 378.988 132.898C380.898 140.726 382.808 148.554 384.718 156.382C384.828 156.834 385.444 156.995 385.763 156.658C394.599 147.321 404.476 139.023 415.204 131.94C414.898 131.705 414.592 131.469 414.286 131.234C410.823 142.063 407.361 152.892 403.898 163.72C403.742 164.208 404.226 164.571 404.667 164.489C414.255 162.695 423.843 160.901 433.431 159.107C433.228 158.759 433.026 158.411 432.823 158.062C425.891 165.293 419.422 172.955 412.49 180.186C412.188 180.5 412.284 181.142 412.766 181.231C416.113 181.846 419.459 182.461 422.806 183.075C423.592 183.219 423.93 182.015 423.138 181.87C419.791 181.255 416.445 180.641 413.098 180.026C413.19 180.374 413.282 180.723 413.374 181.071C420.306 173.84 426.775 166.178 433.707 158.947C434.16 158.474 433.697 157.791 433.099 157.902C423.511 159.696 413.923 161.49 404.335 163.284C404.591 163.54 404.847 163.796 405.104 164.053C408.567 153.224 412.029 142.395 415.492 131.567C415.654 131.06 415.026 130.562 414.574 130.861C403.76 138.001 393.788 146.362 384.88 155.775C385.228 155.867 385.576 155.959 385.925 156.051C384.015 148.223 382.105 140.395 380.196 132.567C380.048 131.961 379.15 131.983 378.991 132.567C377.003 139.835 375.014 147.103 373.026 154.371C372.81 155.146 374.016 155.478 374.228 154.702Z" fill="#421B36"/>
<path d="M407.841 196.351C396.489 185.231 369.985 169.134 365.668 171.967C364.967 172.427 361.628 177.414 357.465 184.098C353.776 183.186 348.331 182.868 344.359 187.093C342.327 189.255 341.272 192.164 341.214 195.131C341.158 198.02 341.816 201.91 344.879 205.248C339.805 214.203 336.025 221.598 336.849 222.116C337.517 222.535 342.335 225.591 348.765 229.568C347.689 232.789 346.017 240.283 351.577 245.116C353.817 247.063 356.765 248.004 359.732 247.946C362.935 247.884 367.335 246.9 370.723 242.765C371.083 242.972 371.442 243.179 371.796 243.382C379.707 247.908 385.023 251.852 386.505 251.609C396.836 236.657 403.63 223.817 411.703 210.008C414.6 205.052 412.648 201.059 407.841 196.351Z" fill="#7C7A48"/>
<path d="M356.466 252.812C356.133 252.682 355.793 252.551 355.455 252.42C352.92 258.006 348.32 259.979 344.917 260.649C342.005 261.222 338.939 260.809 336.394 259.282C329.37 255.067 330.577 246.055 331.08 243.508C324.032 241.034 318.708 239.231 317.968 238.977C317.092 238.676 313.991 245.526 310.437 254.433L311.988 255.031C318.405 257.817 320.298 262.982 320.786 266.672C321.175 269.614 320.214 272.594 318.529 275.037C313.083 282.936 302.449 278.571 302.449 278.571C299.871 285.985 296.91 293.631 297.537 294.185C298.403 294.949 326.418 304.755 342.392 308.835C348.911 310.5 354.208 308.539 356.245 303.172C361.919 288.217 366.96 276.519 372.106 259.089C371.365 257.783 364.957 256.124 356.466 252.812Z" fill="#FE812D"/>
<path d="M318.07 238.75C317.303 238.423 311.303 235.979 303.543 232.883C300.683 238.159 296.053 239.835 292.66 240.303C289.72 240.709 286.682 240.121 284.229 238.451C278.249 234.379 278.893 226.937 279.572 223.521C279.541 223.509 279.509 223.497 279.478 223.486C270.952 220.263 263.262 217.011 261.837 217.485C255.284 234.13 249.293 249.05 244.723 264.365C243.081 269.866 245.893 275.715 251.224 277.845C266.534 283.961 296.06 295.477 297.537 294.186C298.18 293.624 300.095 286.781 303.335 279.282C306.311 279.995 314.572 281.266 318.985 274.866C320.669 272.423 321.275 269.388 320.886 266.446C320.426 262.961 318.707 258.164 313.114 255.294C316.551 246.282 318.921 239.112 318.07 238.75Z" fill="#421B36"/>
<path d="M293.262 166.152C287.867 164.189 281.872 166.629 279.409 171.815C272.554 186.252 268.47 200.204 261.827 217.629C262.569 218.934 270.459 221.665 278.95 224.978C279.015 225.003 279.083 225.029 279.149 225.055C278.669 228.832 278.873 234.899 284.059 238.43C286.512 240.1 289.55 240.688 292.49 240.282C295.682 239.841 300.193 238.414 303.071 233.848C311.147 236.701 318.512 238.951 319.313 239.226C319.313 239.226 321.556 231.764 325.137 222.416C319.273 219.704 317.968 215.145 317.415 211.62C316.955 208.688 317.487 205.64 319.112 203.157C323.272 196.8 331.28 197.678 334.435 198.319C336.824 191.161 339.702 184.401 339.616 183.591C339.524 182.741 309.45 172.041 293.262 166.152Z" fill="#FE812D"/>
<path d="M260.429 218.508C266.749 220.807 273.069 223.107 279.388 225.406C279.243 225.15 279.097 224.893 278.952 224.637C277.97 228.455 278.51 233.085 280.948 236.243C285.276 241.849 294.612 242.497 300.055 238.266C301.454 237.179 302.801 235.762 303.61 234.163C303.375 234.259 303.14 234.354 302.904 234.45C308.132 236.265 313.361 238.08 318.589 239.895C318.444 239.639 318.298 239.382 318.153 239.126C316.273 244.459 314.392 249.793 312.512 255.126C312.389 255.474 312.656 255.772 312.948 255.895C312.635 255.763 313.041 255.941 313.121 255.981C313.392 256.116 313.658 256.258 313.92 256.41C314.769 256.903 315.569 257.479 316.299 258.136C318.498 260.114 319.979 262.779 320.169 265.762C320.413 269.593 318.941 273.909 316.045 276.5C313.908 278.411 311.048 279.207 308.229 279.25C306.657 279.274 305.017 279.128 303.502 278.677C303.154 278.573 302.854 278.804 302.733 279.113C300.8 284.081 298.868 289.049 296.935 294.017C296.643 294.767 297.851 295.092 298.14 294.349C300.072 289.381 302.005 284.413 303.938 279.445C303.682 279.591 303.425 279.736 303.169 279.882C307.46 281.159 312.76 280.672 316.34 277.873C322.27 273.235 323.175 263.566 318.034 258.085C316.715 256.679 315.067 255.441 313.281 254.69C313.427 254.946 313.572 255.202 313.717 255.459C315.597 250.126 317.477 244.792 319.358 239.458C319.476 239.125 319.222 238.794 318.922 238.689C313.694 236.874 308.465 235.059 303.237 233.244C302.991 233.159 302.649 233.298 302.531 233.531C300.685 237.18 296.574 239.575 292.563 239.744C288.998 239.894 284.954 238.785 282.465 236.11C280.707 234.221 279.914 231.663 279.801 229.124C279.74 227.749 279.813 226.308 280.158 224.968C280.247 224.621 280.044 224.316 279.722 224.199C273.402 221.9 267.082 219.6 260.763 217.301C260.004 217.027 259.678 218.235 260.429 218.508Z" fill="#421B36"/>
<path d="M319.358 239.459C321.454 233.783 323.551 228.106 325.647 222.43C325.771 222.095 325.505 221.769 325.211 221.661C318.952 219.384 316.574 212.065 318.99 206.153C321.399 200.257 328.055 197.242 334.082 199.434C334.417 199.556 334.743 199.294 334.851 198.998C336.654 194.042 338.457 189.087 340.26 184.131C340.536 183.374 339.328 183.047 339.055 183.799C337.252 188.755 335.449 193.71 333.646 198.666C333.902 198.52 334.159 198.375 334.415 198.229C331.247 197.077 327.626 197.289 324.543 198.615C321.343 199.991 319.003 202.707 317.742 205.921C315.156 212.512 318.04 220.379 324.879 222.868C324.733 222.612 324.588 222.355 324.443 222.099C322.347 227.775 320.25 233.452 318.154 239.128C317.874 239.883 319.082 240.209 319.358 239.459Z" fill="#421B36"/>
<path opacity="0.2" d="M284.606 213.271L285.049 211.884C285.891 211.357 287.437 211.377 287.28 209.955C288.285 209.314 289.902 208.335 290.049 210.223C289.298 211.377 287.408 211.318 287.157 212.807C286.93 213.919 284.899 214.628 284.606 213.271ZM298.674 208.38C298.272 207.955 298.676 207.419 298.513 206.916C298.241 205.263 296.17 205.873 295.915 207.25C296.588 208.352 297.73 208.481 298.799 208.951C299.135 209.674 299.196 210.103 298.972 210.87C299.963 211.428 300.838 210.878 301.367 209.932C300.675 208.938 299.342 209.286 298.674 208.38ZM293.86 222.644C294.669 222.832 295.301 222.621 295.795 222.007C295.695 220.508 295.052 220.112 293.219 220.431C293.158 220.845 293.097 221.261 293.039 221.659C293.334 222.013 293.609 222.344 293.86 222.644ZM285.805 217.176C285.323 217.82 284.338 218.486 284.695 219.309C285.364 219.93 286.687 220.699 286.963 219.299C287.48 218.362 286.755 217.517 285.805 217.176ZM295.831 170.963C295.361 170.021 294.931 169.192 294.563 168.501C294.122 168.356 293.652 168.63 293.241 169.684C294.107 171.061 294.558 171.306 295.831 170.963ZM289.515 223.307C289.734 222.414 289.217 221.588 289.812 220.778C289.099 220.082 288.661 220.12 287.228 220.985C287.084 221.531 288.913 223.765 289.515 223.307ZM296.576 173.96C296.812 173.942 297.027 173.911 297.229 173.872C296.922 173.209 296.622 172.58 296.333 171.985C296.081 172.553 296.111 173.36 296.576 173.96ZM289.855 180.094C289.362 179.996 288.941 179.912 288.501 179.826C288.126 180.068 287.86 180.333 287.696 180.601C287.82 181.137 287.945 181.67 288.07 182.2C288.303 182.367 288.592 182.512 288.965 182.608C289.408 181.822 290.299 181.26 289.855 180.094ZM298.223 183.205C297.841 181.891 295.954 183.145 295.885 184.222C297.17 186.171 298.922 185.525 298.223 183.205ZM292.312 171.43C288.378 171.577 290.655 175.035 292.914 173.141C292.959 172.519 293.144 171.817 292.312 171.43ZM287.468 175.51C288.275 176.766 289.148 177.412 290.001 175.814C289.915 173.958 288.028 173.326 287.468 175.51ZM290.157 230.277C290.474 231.182 291.163 231.646 292.037 231.105C294.642 229.882 290.529 227.618 290.157 230.277ZM283.748 232.226C282.746 231.51 281.913 231.46 281.466 232.742C281.911 234.935 285.061 234.405 283.748 232.226ZM301.725 212.463C301.776 212.753 301.821 213.007 301.866 213.262C301.978 212.883 302.09 212.504 302.197 212.126C302.029 212.23 301.867 212.342 301.725 212.463ZM297.333 176.921C296.167 177.107 296.383 178.044 296.147 178.873C296.567 179.658 297.211 179.519 297.815 179.461C298.126 179.087 298.401 178.753 298.694 178.398C298.576 178.058 298.462 177.73 298.35 177.415C297.965 177.228 297.612 177.057 297.333 176.921ZM281.404 224.185C281.371 224.021 281.315 223.887 281.252 223.766L280.753 225.326C281.078 225.081 281.327 224.675 281.404 224.185ZM294.289 185.728C292.682 186.066 293.262 187.648 294.357 188.345C294.74 188.238 295.146 188.124 295.523 188.02C295.611 187.492 295.689 187.033 295.771 186.548C295.346 186.15 294.816 185.981 294.289 185.728ZM299.025 204.454C299.089 205.303 299.922 205.154 300.26 205.603C301.572 205.149 302.143 203.526 300.548 203.057C299.735 202.898 299.081 203.734 299.025 204.454ZM286.291 208.251C286.734 207.675 286.992 206.936 286.808 206.384L286.211 208.251C286.236 208.251 286.266 208.251 286.291 208.251ZM298.975 221.657C299.082 221.382 299.189 221.107 299.295 220.83C299.118 221.057 299.005 221.346 298.975 221.657ZM285.896 231.551C286.853 231.168 287.411 229.442 286.224 228.946C285.779 229.109 285.412 229.185 284.913 229.275C284.281 230.627 284.465 231.035 285.896 231.551ZM295.563 175.387C295.007 173.689 293.127 173.447 293.115 175.688C293.786 176.872 295.32 176.809 295.563 175.387ZM283.909 239.311C284.764 237.428 281.974 237.064 281.731 238.794C282.249 239.202 282.786 239.607 283.324 239.989C283.541 239.854 283.745 239.634 283.909 239.311ZM291.688 177.132C291.255 177.053 290.893 177.281 290.571 177.836C289.923 178.649 290.88 179.003 291.333 179.65C293.098 179.851 293.184 177.462 291.688 177.132ZM303.162 208.308C303.324 207.58 303.467 206.862 303.597 206.152C303.21 205.794 302.612 205.744 301.939 206.287C301.329 207.421 302.203 208.459 303.162 208.308ZM283.713 216.859C284.063 216.229 284.101 215.679 283.97 215.261L283.441 216.916C283.529 216.903 283.617 216.888 283.713 216.859ZM289.487 216.855C290.477 215.117 288.74 213.576 287.504 215.226C287.09 216.575 288.299 217.025 289.487 216.855ZM297.591 194.211C294.211 194.964 297.733 198.76 298.48 195.501C298.328 194.973 298.123 194.51 297.591 194.211ZM291.75 222.955C290.562 223.163 290.593 224.103 290.306 224.846C290.903 225.514 291.618 225.339 292.278 225.307C292.505 224.977 292.698 224.694 292.9 224.399C292.742 223.759 292.33 223.309 291.75 222.955ZM291.431 194.239C290.684 194.627 290.468 195.324 290.323 196.094C291.828 198.328 294.056 194.516 291.431 194.239ZM296.458 223.223C295.673 224.48 296.054 225.62 297.48 225.347C297.709 224.805 297.937 224.256 298.163 223.702C297.793 223.264 297.135 222.979 296.458 223.223ZM298.127 217.551C296.922 216.951 296.617 217.887 296.122 218.586C296.357 220.98 299.489 219.404 298.127 217.551ZM291.209 211.771C290.667 212.89 290.054 214.036 291.712 214.314C292.422 213.277 293.339 212.967 292.567 211.707C292.03 211.686 291.562 211.573 291.209 211.771ZM281.406 230.383C281.11 229.471 280.621 229.167 279.494 229.266L279.076 230.574C279.261 230.88 279.445 231.182 279.641 231.504C280.562 231.848 280.824 230.855 281.406 230.383ZM291.51 168.203C292.604 167.678 292.731 167.451 292.643 166.223C292.528 166.08 292.413 165.974 292.298 165.886C292.038 165.821 291.732 165.75 291.402 165.681C290.446 165.971 289.987 167.841 291.51 168.203ZM278.273 233.083L278.093 233.646C278.188 233.443 278.246 233.255 278.273 233.083ZM287.465 227.314C287.651 227.681 287.811 228 288.016 228.409C291.877 229.127 288.835 223.811 287.465 227.314ZM301.873 189.866C302.228 190.834 302.777 191.179 303.259 191.163C303.097 190.404 302.92 189.647 302.727 188.893C302.263 189.058 302.182 189.223 301.873 189.866ZM299.44 199.557C299.974 199.557 300.396 199.557 300.867 199.557C301.162 199.224 301.349 198.791 301.513 198.376C301.341 197.865 301.095 197.475 300.509 197.258C299.152 197.803 298.507 198.177 299.44 199.557ZM290.297 200.526C290.29 201.258 290.582 201.883 290.924 202.47C292.057 202.549 292.428 202.309 292.951 201.165C292.209 200.203 291.313 200.211 290.297 200.526ZM284.04 221.998C284.205 220.631 283.976 220.023 282.46 220.42C282.385 220.478 282.327 220.537 282.265 220.596L281.842 221.92C282.14 222.563 283.213 222.823 284.04 221.998ZM290.068 198.676C289.857 198.45 289.709 198.156 289.519 197.901L288.961 199.647C289.378 199.563 289.791 199.266 290.068 198.676ZM293.525 197.643C293.406 198.126 293.303 198.544 293.207 198.937C293.706 200.056 295.011 199.769 295.564 198.819C295.412 197.52 294.689 196.765 293.525 197.643ZM285.415 167.828C285.442 167.861 285.46 167.889 285.488 167.923C286.209 168.15 286.697 167.763 287.156 167.3C286.97 166.475 286.945 166.377 286.212 165.738C286.001 165.851 285.807 165.981 285.659 166.151C285.457 166.383 285.386 166.975 285.415 167.828ZM289.469 237.65C288.158 237.24 287.724 238.249 287.472 239.339C287.896 239.98 289.768 240.423 289.507 239.189C289.864 238.632 289.72 238.249 289.469 237.65ZM285.275 234.716C284.901 235.144 284.705 235.604 284.547 236.087C286.241 238.902 288.5 235.021 285.275 234.716ZM289.826 169.592C289.752 167.911 288.077 167.969 287.552 169.457C287.963 170.872 289.748 171.436 289.826 169.592ZM298.927 181.372C299.275 181.983 300.036 182.521 300.679 182.252C300.411 181.502 300.135 180.769 299.856 180.048C299.326 180.11 298.854 180.538 298.927 181.372ZM294.409 216.744C295.626 216.71 296.09 214.74 294.534 214.515C293.177 214.161 292.531 217.119 294.409 216.744ZM302.155 194.496C302.091 194.859 302.031 195.204 301.974 195.526C302.232 195.954 302.473 196.354 302.708 196.746C303.036 196.746 303.308 196.746 303.662 196.746C303.744 196.386 303.742 196.249 303.872 195.971C303.933 195.894 303.98 195.819 304.018 195.746C303.984 195.448 303.951 195.151 303.911 194.852C303.523 194.435 302.69 194.266 302.155 194.496ZM294.392 205.309C296.29 205.757 295.605 202.838 294.101 203.044C292.926 203.284 293.347 205.063 294.392 205.309ZM281.616 235.822C280.613 234.996 279.276 234.493 278.822 236.064C278.85 236.21 278.89 236.333 278.934 236.444C279.156 236.641 279.399 236.854 279.66 237.08C280.303 237.154 281.136 236.542 281.616 235.822ZM288.846 205.416C290.123 205.416 290.002 203.415 288.799 203.018C287.243 203.224 287.223 205.311 288.846 205.416ZM284.883 224.764C284.737 225.274 285.426 225.366 285.779 225.583C288.2 224.706 286.105 221.893 284.6 223.864C284.639 224.217 285.068 224.377 284.883 224.764ZM291.03 234.777C290.713 235.232 290.599 235.761 290.094 236.149C290.751 236.934 291.515 237.059 292.039 236.71C292.231 236.359 292.427 235.996 292.628 235.618C292.638 235.537 292.659 235.466 292.662 235.378C292.279 234.87 291.59 234.674 291.03 234.777ZM293.777 231.973C293.665 232.285 293.559 232.579 293.4 233.024C293.492 233.241 293.588 233.42 293.684 233.569C293.974 232.994 294.267 232.404 294.565 231.789C294.343 231.8 294.092 231.846 293.777 231.973ZM300.037 216.855C300.453 216.676 300.684 216.572 300.864 216.435C301.008 216.005 301.15 215.576 301.287 215.146C299.963 213.887 297.808 215.995 300.037 216.855ZM297.771 211.826C296.596 211.287 296.331 212.151 296.34 213.213C297.322 215.23 299.527 212.683 297.771 211.826ZM296.359 190.373C296.724 190.663 297.058 190.928 297.412 191.209C298.136 190.725 298.436 190.02 298.703 189.275C297.783 188.161 296.036 189.039 296.359 190.373ZM302.845 202.56C303.294 202.211 303.738 201.866 304.191 201.514C304.2 201.37 304.211 201.225 304.218 201.082C304.082 200.851 303.956 200.637 303.848 200.453C302.472 200.283 302.143 200.357 301.83 201.635C302.119 202.002 302.384 202.332 302.845 202.56ZM286.537 240.75C286.129 240.75 285.699 240.75 285.203 240.75C285.123 240.87 285.055 240.973 284.985 241.079C285.589 241.437 286.167 241.73 286.689 241.923C286.924 241.486 286.841 241.283 286.537 240.75ZM290.712 219.535C291.982 219.65 292.449 219.715 292.653 218.535C292.358 217.984 291.76 217.822 291.292 217.454C290.778 217.758 290.421 218.154 290.079 218.633C290.295 218.941 290.492 219.223 290.712 219.535ZM283.735 227.898C283.861 227.417 283.968 227.007 284.105 226.48C281.478 224.868 280.85 229.355 283.735 227.898ZM289.689 232.541C289.355 232.213 289.064 231.77 288.477 231.732C288.132 232.048 287.79 232.363 287.417 232.706C287.706 233.214 287.914 233.58 288.112 233.93C289.5 234.095 289.621 233.771 289.689 232.541ZM294.385 228.408C295.284 228.037 295.284 228.037 295.803 227.088C295.316 226.132 294.384 226.114 293.42 226.514C293.874 227.137 293.365 228.123 294.385 228.408ZM299.256 193.547C299.835 193.69 301.152 194.305 301.017 193.326C300.749 192.849 301.301 192.735 301.298 192.343C299.885 190.699 300.03 191.791 299.082 192.812C299.135 193.035 299.189 193.263 299.256 193.547ZM295.558 192.754C295.275 192.451 294.986 192.143 294.638 191.774C291.398 191.477 294.119 195.352 295.558 192.754ZM293.73 180.455C293.73 180.664 293.73 180.885 293.73 181.085C293.562 181.182 293.426 181.26 293.212 181.384C294.41 184.582 297.343 179.103 293.73 180.455ZM296.702 200.152C295.196 202.752 298.968 203.539 298.03 200.728C297.583 200.533 297.191 200.363 296.702 200.152ZM301.094 187.754C301.851 186.918 300.156 185.53 299.286 186.129C299.376 186.751 299.376 186.751 299.101 187.399C299.558 188.18 300.398 187.855 301.094 187.754ZM288.961 185.87C289.085 186.37 289.207 186.857 289.325 187.326C289.819 186.544 289.486 185.998 288.961 185.87ZM291.644 182.999C290.681 183.205 290.726 183.96 290.584 184.625C291.057 184.834 291.454 185.01 291.848 185.184C293.086 184.382 292.79 183.427 291.644 182.999ZM292.211 188.971C291.611 189.272 290.788 188.45 290.388 189.121C290.426 190.417 291.983 191.211 292.854 190.014C292.796 189.672 292.658 188.965 292.211 188.971ZM286.947 172.811C286.946 172.196 286.406 171.748 285.865 171.665C285.958 172.231 286.061 172.82 286.176 173.436C286.609 173.433 286.971 173.252 286.947 172.811ZM294.147 208.774C292.773 209.591 293.969 210.661 295.072 210.931C295.254 210.462 295.414 210.05 295.56 209.676C295.222 209.164 294.783 208.932 294.147 208.774ZM290.623 206.191C290.572 206.744 290.53 207.199 290.488 207.656C291.158 207.703 291.755 207.746 292.365 207.789C292.57 207.152 292.483 206.652 292.016 206.191C291.613 206.191 291.189 206.191 290.623 206.191Z" fill="#421B36"/>
<path d="M198.504 336.42C198.504 338.183 209.878 371.949 212.225 380.275C215.308 391.209 224.012 412.76 224.012 412.76C226.183 425.103 234.648 462.875 234.648 462.875L247.72 464.591L254.03 436.174C254.03 436.174 237.589 369.168 237.899 368.161C238.209 367.154 233.246 331.887 232.005 331.887C230.765 331.886 198.504 336.42 198.504 336.42Z" fill="#FFAE7A"/>
<path d="M231.862 451.802C231.862 451.802 223.14 415.99 224.074 414.211C225.008 412.432 248.254 411.327 254.099 416.835C254.099 416.835 253.795 451.557 251.666 455.037C249.538 458.518 231.862 451.802 231.862 451.802Z" fill="#7C7A48"/>
<path d="M211.525 332.702C211.525 333.71 226.833 388.248 229.223 393.731C232.004 400.115 234.135 403.722 235.443 408.668C236.605 413.062 248.328 462.223 250.5 463.482C252.671 464.741 261.158 463.438 261.158 463.438C261.154 463.68 264.604 433.884 264.719 407.335C264.755 399.022 254.72 373.531 254.099 366.478C253.479 359.425 257.125 333.205 256.194 332.701C255.264 332.198 211.525 332.702 211.525 332.702Z" fill="#FFAE7A"/>
<path d="M185.825 297.123C185.825 297.123 183.617 347.461 185.825 349.724C188.033 351.987 257.55 354.533 279.947 342.086L267.279 259.28L202.642 244.646L185.825 297.123Z" fill="#421B36"/>
<path d="M185.825 294.426C185.65 294.661 179.035 305.206 179.035 305.206C179.035 305.206 172.057 309.289 173.471 314.598C174.885 319.907 180.732 319.09 180.732 319.09C180.732 319.09 183.75 320.723 186.202 320.56C188.654 320.397 192.426 316.64 192.426 316.64C192.426 316.64 196.198 312.965 195.067 310.025C193.935 307.085 190.823 307.156 191.672 304.793C192.521 302.43 195.279 299.817 195.279 299.817L185.825 294.426Z" fill="#FFAE7A"/>
<path d="M176.677 289.363C176.771 289.771 172.056 319.662 175.923 321.785C179.789 323.908 181.352 319.393 181.352 319.393C181.352 319.393 188.937 322.03 192.049 321.458C195.161 320.886 201.573 317.701 200.819 316.394C200.065 315.087 197.659 314.189 195.278 315.332C192.897 316.475 190.162 316.557 190.162 316.557C190.162 316.557 188.84 292.383 188.323 291.811C187.805 291.241 176.677 289.363 176.677 289.363Z" fill="#FFAE7A"/>
<path d="M292.882 183.763C290.326 173.805 286.577 164.348 284.211 154.319C281.851 144.315 280.879 133.797 277.69 124.148C274.501 114.499 268.392 105.417 260.08 103.484L231.312 121.988C231.737 147.811 230.516 173.674 227.663 199.262C226.534 209.384 225.246 220.268 229.046 229.351C231.995 236.4 237.742 241.285 243.941 243.428C250.14 245.57 256.76 245.196 263.077 243.667C276.48 240.423 289.962 230.561 294.156 214.55C296.758 204.609 295.438 193.721 292.882 183.763Z" fill="#421B36"/>
<path d="M238.381 174.322C238.381 174.322 239.106 173.262 239.869 173.25C244.244 173.185 257.222 171.907 262.066 173.099C267.754 174.5 222.87 252.21 217.527 251.828C212.184 251.446 199.43 249.154 199.43 249.154C199.43 249.154 230.281 175.891 238.381 174.322Z" fill="#FE812D"/>
<path d="M267.363 114.009C258.37 97.71 236.902 99.72 226.817 115.367C223.628 120.316 222.065 123.912 221.173 133.237C218.686 159.254 240.644 158.992 240.644 158.992L239.869 174.933L258.694 173.1L260.708 155.992C260.708 155.992 270.417 138.569 270.225 126.14C270.181 123.375 268.68 116.396 267.363 114.009Z" fill="#FFAE7A"/>
<path d="M260.162 118.294C258.793 117.157 256.715 116.454 255 116.062C253.214 115.653 251.567 116.056 249.804 115.918C248.985 115.854 248.359 114.636 249.282 114.176C251.102 113.271 253.565 113.568 255.477 114.092C257.773 114.722 259.19 115.938 260.87 117.534C261.36 117.998 260.673 118.718 260.162 118.294Z" fill="#421B36"/>
<path d="M255.757 157.749C250.885 160.794 245.008 161.56 239.414 160.362C238.352 160.135 238.771 158.618 239.804 158.754C245.26 159.469 250.366 158.948 255.694 157.61C255.776 157.589 255.833 157.701 255.757 157.749Z" fill="#421B36"/>
<path d="M232.795 113.243C236.04 110.116 241.255 111.697 242.816 115.673C244.797 120.723 242.38 126.489 238.743 130.054C237.982 130.8 236.511 129.896 237.151 128.911C238.877 126.255 240.583 124.536 241.221 121.26C241.74 118.598 241.516 114.665 238.399 113.676C236.966 113.221 234.58 113.416 233.2 113.894C232.833 114.023 232.512 113.516 232.795 113.243Z" fill="#421B36"/>
<g opacity="0.3">
<path d="M250.204 131.994C250.524 133.259 252.475 133.856 254.562 133.328C256.649 132.8 258.08 131.346 257.76 130.081C257.44 128.816 255.489 128.219 253.402 128.747C251.315 129.275 249.883 130.729 250.204 131.994Z" fill="#421B36"/>
</g>
<g opacity="0.3">
<path d="M226.663 129.719C226.308 130.975 227.699 132.467 229.77 133.053C231.841 133.639 233.808 133.096 234.163 131.84C234.518 130.584 233.127 129.092 231.056 128.506C228.985 127.92 227.018 128.463 226.663 129.719Z" fill="#421B36"/>
</g>
<path d="M231.334 109.912C231.334 109.912 238.702 100.516 251.511 100.549C259.972 100.57 265.89 101.883 272.278 109.773C278.666 117.663 280.42 132.825 278.25 138.711C276.081 144.597 260.707 155.991 260.707 155.991C265.231 147.849 270.916 137.453 268.598 129.096C268.394 128.824 253.357 126.418 249.456 104.451C248.853 101.046 235.399 106.096 231.334 109.912Z" fill="#421B36"/>
<path d="M268.69 128.778C270.456 128.178 272.496 128.834 273.828 130.139C275.161 131.444 275.849 133.299 276.048 135.153C276.379 138.235 275.332 141.545 272.948 143.527C270.564 145.509 266.809 145.853 264.347 143.968L268.69 128.778Z" fill="#FFAE7A"/>
<path d="M271.517 137.733C271.113 137.352 269.998 137.032 269.475 136.949C268.512 136.796 267.839 137.211 267.095 137.752C266.266 138.355 265.428 137.154 266.01 136.437C266.84 135.413 268.347 135.012 269.608 135.283C270.155 135.4 270.709 135.668 271.113 136.059C271.622 136.552 271.573 136.957 271.781 137.57C271.832 137.722 271.631 137.84 271.517 137.733Z" fill="#421B36"/>
<path d="M253.982 126.079C253.982 127.017 253.296 127.778 252.451 127.778C251.605 127.778 250.92 127.018 250.92 126.079C250.92 125.14 251.606 124.38 252.451 124.38C253.296 124.381 253.982 125.141 253.982 126.079Z" fill="#421B36"/>
<path d="M237.281 125.397C237.281 126.335 236.595 127.096 235.75 127.096C234.904 127.096 234.219 126.336 234.219 125.397C234.219 124.459 234.905 123.698 235.75 123.698C236.595 123.698 237.281 124.459 237.281 125.397Z" fill="#421B36"/>
<path d="M239.869 173.25C239.096 173.06 226.903 173.023 219.278 176.781C211.136 180.794 174.191 250.636 170.326 264.151C166.461 277.666 174.448 286.422 174.448 286.422C174.448 286.422 172.387 293.275 175.479 294.797C178.571 296.32 192.741 292.703 192.741 292.703C192.741 292.703 200.96 254.633 204.065 246.068C207.169 237.503 239.869 173.25 239.869 173.25Z" fill="#7C7A48"/>
<path d="M258.971 171.765C257.705 171.821 245.602 183.508 238.858 199.242C234.588 209.205 216.6 245.615 213.332 261.442C210.064 277.269 214.575 291.431 219.763 296.288C224.951 301.145 268.523 308.868 277.6 296.288C286.677 283.708 284.927 279.684 282.716 272.441C280.505 265.198 274.735 245.421 277.947 234.135C281.16 222.85 259.202 171.755 258.971 171.765Z" fill="#7C7A48"/>
<path d="M236.41 136.948C237.85 137.25 239.292 137.228 240.756 137.39C241.083 137.426 241.406 137.183 241.569 136.923C241.792 136.569 241.736 136.341 241.569 135.972C241.437 135.68 241.06 135.504 240.756 135.505C239.174 135.513 237.711 135.647 236.35 136.484C236.174 136.593 236.188 136.902 236.41 136.948Z" fill="#421B36"/>
<path opacity="0.2" d="M246.559 294.006C246.202 294.285 245.848 294.56 245.497 294.828C244.819 294.658 244.275 294.361 244.001 293.703C244.214 293.205 244.41 292.745 244.655 292.17C246.172 291.869 247.048 292.922 246.559 294.006ZM242.764 295.027C241.145 295.637 240.81 296.679 241.927 297.426C242.551 296.999 243.194 296.542 243.85 296.061C243.741 295.534 243.384 295.078 242.764 295.027ZM239.793 277.684C240.174 277.221 240.523 276.796 240.999 276.22C240.763 275.63 240.475 275.265 240.178 275.05L238.542 276.752C238.749 277.113 239.138 277.451 239.793 277.684ZM276.585 251.686C277.262 251.852 277.722 251.446 278.323 251.113L278.238 250.09C277.619 247.887 274.268 249.849 276.585 251.686ZM238.094 296.883C238.652 295.386 235.344 294.36 235.418 296.373C235.879 298.228 236.918 297.965 238.094 296.883ZM242.358 274.756C244.502 274.616 244.151 272.389 243.036 272.075L241.494 273.679C241.624 274.043 241.929 274.406 242.358 274.756ZM264.219 278.809C264.23 278.858 264.243 278.91 264.254 278.96C264.645 278.623 265.028 278.296 265.403 277.977C265.055 278.092 264.661 278.339 264.219 278.809ZM255.52 281.945C255.783 282.406 255.992 282.772 256.193 283.125C257.2 283.195 257.2 283.195 258.116 282.727C258.116 282.307 258.116 281.88 258.116 281.487C257.014 280.265 256.169 280.447 255.52 281.945ZM238.285 299.559C238.301 299.589 238.324 299.614 238.341 299.643C239.015 299.282 239.729 298.858 240.474 298.385C239.716 297.706 238.565 298.209 238.285 299.559ZM223.06 294.637C223.405 294.259 223.587 293.83 223.742 293.446C223.658 293.08 223.588 292.776 223.506 292.421C223.5 292.418 223.495 292.417 223.489 292.414L221.621 294.357C221.911 294.573 222.369 294.7 223.06 294.637ZM231.304 289.254C229.123 289.358 229.959 292.481 231.864 291.992C232.06 291.541 232.248 291.108 232.436 290.675C232.33 290.025 231.811 289.699 231.304 289.254ZM268.219 269.107C267.483 269.365 267.516 270.082 267.23 270.714C269.02 273.374 271.506 269.716 268.219 269.107ZM254.085 286.291C255.871 285.823 255.853 283.885 253.982 283.482C252.779 284.459 252.538 285.545 254.085 286.291ZM235.608 290.607C236.064 292.256 237.978 292.301 238.15 290.242C237.307 288.934 235.954 288.983 235.608 290.607ZM257.437 275.273C255.926 274.736 255.364 277.16 256.575 277.65C258.455 277.776 258.943 276.495 257.437 275.273ZM239.72 286.449C238.623 287.433 237.888 287.909 239.392 289.009C240.022 289.527 240.451 288.652 240.843 288.251C241.586 287.489 240.544 286.57 239.72 286.449ZM251.351 277.177C252.026 276.899 252.47 276.679 252.651 275.898C249.531 273.044 248.933 278.072 251.351 277.177ZM262.753 269.097C261.883 269.292 261.926 270.07 261.57 270.461C261.671 272.413 264.105 271.752 264.115 270.144C263.728 269.629 263.332 269.25 262.753 269.097ZM245.666 274.832C243.033 275.749 244.529 278.155 246.563 277.039C246.765 276.12 246.694 275.31 245.666 274.832ZM272.433 245.011C273.057 243.601 270.984 243.145 270.071 243.947L269.953 244.069C269.748 245.541 271.822 246.784 272.433 245.011ZM276.865 260.509C275.622 261.505 275.59 263.141 277.461 262.996C277.715 262.325 277.925 261.697 278.099 261.124C277.838 260.754 277.404 260.485 276.865 260.509ZM255.615 264.809C255.866 265.174 255.978 265.54 256.322 265.817C260.021 266.202 257.015 261.066 255.615 264.809ZM266.767 272.934C266.728 272.253 265.724 271.499 265.249 272.071C264.866 272.791 264.099 272.988 264.146 273.899C264.606 274.202 264.904 274.336 265.397 274.53C265.97 273.997 266.969 273.793 266.767 272.934ZM242.539 291.787C242.915 291.658 243.289 291.563 243.662 291.51C244.364 290.139 243.052 289.026 241.718 289.537C241.03 290.349 241.597 291.378 242.539 291.787ZM252.424 270.755C252.41 269.233 250.675 268.532 250.037 270.047C250.284 270.584 250.674 271.084 250.293 271.687C251.322 272.221 251.817 271.464 252.424 270.755ZM241.402 279.333C241.625 280.883 243.837 280.276 243.994 278.867C242.884 277.657 241.45 277.398 241.402 279.333ZM271.168 251.471C271.633 251.291 272.066 251.124 272.514 250.952C272.514 250.501 272.514 250.111 272.514 249.673C270.87 247.999 268.955 250.519 271.168 251.471ZM259.26 257.18C260.581 257.628 260.769 257.52 261.222 256.018C260.871 255.812 260.664 255.536 260.504 255.134C259.983 255.058 259.595 255.068 259.31 255.143L258.753 255.723C258.712 256.081 258.885 256.571 259.26 257.18ZM275.56 258.775C275.139 258.372 274.936 257.988 274.453 257.765C273.588 257.889 273.239 258.453 272.935 259.068C273.071 260.651 275.768 260.357 275.56 258.775ZM228.033 294.469C230.122 294.569 229.856 292.63 228.068 292.295C226.748 292.45 226.367 294.649 228.033 294.469ZM251.213 266.172C251.723 265.741 252.167 265.366 252.635 264.972C252.508 264.196 251.832 263.868 251.438 263.335L250.05 264.779C250.036 264.861 250.023 264.944 250.012 265.039C250.62 265.322 250.916 265.567 251.213 266.172ZM263.81 259.508C263.721 258.858 263.654 258.359 263.576 257.797C262.738 257.818 261.901 258.145 261.293 258.69C261.615 260.194 262.768 260.91 263.81 259.508ZM243.752 285.328C243.652 284.934 243.548 284.517 243.43 284.047C242.71 283.529 242.067 283.551 241.438 284.08C240.873 285.576 243.008 287.008 243.752 285.328ZM227.85 298.029C227.423 298.41 227.162 298.606 226.642 298.865C226.999 299.192 227.132 299.579 227.341 299.892C227.797 300.046 228.26 300.191 228.733 300.323C230.33 299.929 229.268 298.47 227.85 298.029ZM259.969 280.303C261.048 280.386 261.318 278.75 260.625 278.141C258.733 277.328 257.701 279.893 259.969 280.303ZM235.138 298.838C234.521 297.659 232.477 298.317 232.735 299.662C233.762 301.415 234.95 300.593 235.138 298.838ZM275.973 239.108C276.253 239.613 276.693 239.841 277.165 239.946C277.239 239.914 277.311 239.884 277.383 239.853L277.198 237.634C276.685 237.677 276.177 238.147 275.973 239.108ZM259.995 260.492C256.155 262.014 261.223 264.767 260.978 261.299C260.682 261.056 260.379 260.806 259.995 260.492ZM224.215 296.305C224.487 297.361 226.078 298.203 226.19 296.717C226.044 296.261 226.372 295.981 226.452 295.568C225.662 294.425 224.068 294.875 224.215 296.305ZM233.815 294.869C234.123 294.665 234.446 294.451 234.707 294.277C234.707 293.753 234.707 293.296 234.707 292.804C233.734 291.664 233.249 292.792 232.466 293.298C232.647 294.082 233.021 294.633 233.815 294.869ZM240.78 292.633C240.019 292.395 238.899 291.989 238.523 293.006C238.476 295.053 241.589 295.263 240.78 292.633ZM229.465 287.281C229.308 287.051 229.097 286.907 228.871 286.813L227.346 288.4C228.379 289.079 229.952 288.695 229.465 287.281ZM256.041 269.892C256.041 270.406 256.041 270.834 256.041 271.269C259.059 273.005 258.969 267.583 256.041 269.892ZM230.588 295.406C229.531 295.566 229.821 296.542 230.205 297.292C232.875 297.939 233.195 294.629 230.588 295.406ZM275.627 253.212C275.497 251.394 273.6 251.676 273.098 253.196C273.218 254.481 275.446 254.543 275.627 253.212ZM264.855 249.374L264.428 249.819C264.694 250.316 264.545 250.991 265.102 251.473C267.948 251.068 266.665 248.319 264.855 249.374ZM247.692 278.133C246.402 279.105 247.422 280.26 248.699 280.59C249.821 279.248 249.726 277.953 247.692 278.133ZM254.948 262.893C255.136 261.879 255.723 261.368 254.501 260.619C254.284 260.706 254.058 260.763 253.845 260.83L252.976 261.735C253.422 263.059 253.577 263.131 254.948 262.893ZM271.146 254.917C270.247 254.771 270.398 255.958 270.313 256.502C271.161 257.842 273.134 257.095 272.484 255.514C272.292 254.979 271.573 255.16 271.146 254.917ZM248.632 289.515C247.748 289.574 247.242 290.015 247.202 290.972C248.282 293.607 250.582 290.687 248.632 289.515ZM264.455 267.012C264.04 267.563 264.519 268.038 264.876 268.443C265.569 269.744 266.556 268.494 266.788 267.63C266.821 266.706 264.925 266.287 264.455 267.012ZM248.908 272.235C247.685 271.923 247.313 272.673 247.017 273.557C247.404 274.067 248.031 274.132 248.356 274.753C249.431 274.163 249.837 273.121 248.908 272.235ZM267.69 265.837C270.249 266.386 270.246 262.869 267.591 263.858C267.595 264.517 266.963 265.133 267.69 265.837ZM246.445 288.099C247.017 287.663 246.524 287.086 246.179 286.731C245.392 286.236 244.743 287.395 243.937 287.76C244.622 288.765 245.988 289.585 246.445 288.099ZM251.373 286.575C249.071 286.7 249.507 289.306 251.954 288.656C252.373 288.06 252.223 286.745 251.373 286.575ZM245.226 271.917C246.054 271.425 247.073 271.037 246.271 269.955C246.142 269.534 245.941 269.353 245.701 269.302L244.598 270.449C244.595 271.054 244.468 271.579 245.226 271.917ZM275.361 264.125C275.096 263.62 274.499 263.805 274.151 263.482C271.027 264.63 275.754 267.767 275.361 264.125ZM270.65 260.802C269.404 261.649 270.875 263.108 271.953 262.769C273.727 261.994 271.993 260.421 270.65 260.802ZM235.074 287.773C234.783 286.483 232.947 286.455 232.636 287.744C232.53 289.09 235.056 289.502 235.074 287.773ZM248.228 283.465C247.804 283.983 247.41 284.467 246.978 284.993C247.263 285.564 248.136 286.734 248.351 285.461C248.605 285.572 248.783 285.649 249.027 285.755C250.009 284.943 249.217 283.838 248.228 283.465ZM263.525 263.815C263.188 263.724 262.89 263.644 262.616 263.569C262.219 263.935 261.871 264.255 261.537 264.563C261.744 267.059 264.832 265.754 263.525 263.815ZM226.445 290.721C226.421 290.291 226.251 289.984 226.017 289.782L224.405 291.459C224.93 292.112 226.021 291.625 226.445 290.721ZM254.627 268.522C255.884 268.08 254.967 266.146 253.794 266.771C253.568 266.902 253.268 266.906 253.02 266.962C251.995 268.058 253.763 269.143 254.627 268.522ZM273.123 241.623C273.292 241.955 273.428 242.223 273.625 242.61C277.275 243.332 274.164 238.099 273.123 241.623ZM236.504 280.297C236.912 280.096 237.182 279.916 237.479 279.824C238.362 279.518 237.898 278.509 237.234 278.112L235.819 279.584C235.964 279.87 236.194 280.131 236.504 280.297ZM233.826 283.184C235.232 283.198 235.332 281.459 234.39 281.071L232.938 282.582C233.063 282.95 233.352 283.229 233.826 283.184ZM253.558 272.301C253.314 272.588 253.087 272.855 252.788 273.205C254.469 277.073 256.589 272.296 253.558 272.301ZM256.402 260.089C257.597 259.924 257.681 258.924 258.158 258.157C257.728 257.654 257.118 257.705 256.579 257.986L255.581 259.025C255.752 259.473 255.947 259.876 256.402 260.089ZM275.963 244.863C276.383 245.801 277.22 245.87 277.845 245.384L277.701 243.657C277.32 243.607 276.962 243.531 276.599 243.422C276.156 243.855 276.115 244.409 275.963 244.863ZM277.699 257.159C277.949 256.862 278.2 256.564 278.465 256.25C278.025 253.084 273.613 257.755 277.699 257.159ZM270.217 266.992C269.94 268.298 271.164 269.706 272.265 268.408C272.265 267.957 272.265 267.493 272.265 267.002C271.568 266.801 270.92 266.816 270.217 266.992ZM244.326 282.611C244.859 282.791 245.341 282.953 245.821 283.115C246.817 282.429 246.545 281.023 245.478 280.855C244.143 281.035 244.398 281.536 244.326 282.611ZM241.095 282.492C240.974 281.363 239.832 280.628 238.803 281.182C238.707 281.597 238.621 281.972 238.523 282.395C239.268 282.779 240.461 283.244 241.095 282.492ZM246.897 268.124C247.697 268.664 248.421 268.226 249.267 268.264C249.267 267.656 249.267 267.203 249.267 266.774C248.942 266.679 248.578 266.646 248.231 266.671L246.894 268.062C246.898 268.084 246.892 268.101 246.897 268.124ZM267.08 247.217C267.548 247.944 268.254 248.155 268.915 248.585C269.179 248.288 269.429 248.007 269.68 247.725C269.5 247.511 269.376 247.364 269.255 247.22C269.299 247.027 269.341 246.842 269.404 246.566C268.82 246.47 268.359 246.394 267.871 246.312C267.731 246.437 267.581 246.553 267.447 246.678L267.346 246.783C267.227 246.91 267.127 247.047 267.08 247.217ZM250.495 280.917C249.967 281.648 250.148 282.338 250.435 283.099C251.339 283.016 251.843 282.541 252.276 281.957C252.082 280.637 251.575 280.932 250.495 280.917ZM267.382 276.086C267.345 276.188 267.325 276.283 267.314 276.373C267.754 276.011 268.182 275.661 268.585 275.34L268.588 275.337C268.171 275.34 267.715 275.583 267.382 276.086ZM220.242 295.79L219.763 296.288C219.763 296.288 220.104 296.507 220.681 296.842C220.787 296.493 220.682 296.086 220.242 295.79ZM261.295 253.486C262.448 254.617 263.15 254.027 264.17 253.257C263.374 251.738 262.059 252.282 261.295 253.486ZM270.344 272.355C270.407 272.687 270.538 273.088 270.72 273.445C271.129 273.043 271.518 272.635 271.888 272.223C271.476 272.032 270.852 272.161 270.344 272.355ZM266.467 254.988C265.526 254.619 265.018 255.127 264.531 255.696C264.804 256.253 264.804 256.253 264.757 257.002C266.251 257.333 266.78 256.291 266.467 254.988ZM268.861 252.258C268.396 252.199 268.029 252.258 267.535 252.369C267.088 254.011 268.602 254.844 269.674 253.463C269.398 253.055 269.136 252.667 268.861 252.258ZM259.133 272.349C259.284 272.617 259.414 272.847 259.592 273.16C257.968 274.228 259.557 274.896 260.687 274.119C260.814 273.661 260.926 273.254 261.069 272.74C260.351 272.762 259.974 271.811 259.133 272.349ZM235.742 284.896C236.223 286.738 237.556 285.898 237.986 284.533C237.593 284.245 237.335 283.842 236.943 283.703C236.349 284.009 236.349 284.009 235.742 284.896ZM273.288 270.538C273.522 270.232 273.75 269.925 273.966 269.619C273.537 269.796 273.234 270.127 273.288 270.538ZM259.226 268.437C259.682 268.412 260.011 268.531 260.424 268.742C260.572 268.349 260.693 268.025 260.82 267.683C260.205 265.519 258.13 266.614 259.226 268.437ZM232.093 285.408C232.109 284.761 231.887 284.35 231.461 284.117L230.111 285.521C230.64 286.055 231.422 285.59 232.093 285.408ZM267.646 259.035C267.859 260.299 268.286 260.252 269.339 260.051C269.441 259.733 269.543 259.41 269.646 259.088C269.255 258.668 269.05 258.134 268.488 257.937C268.217 258.291 267.958 258.629 267.646 259.035ZM266.359 262.687C267.082 261.154 265.488 260.657 264.351 261.416C263.731 262.257 265.597 262.97 266.359 262.687ZM254.877 278.4C254.535 278.226 254.232 278.072 253.955 277.932C251.357 279.288 255.931 281.662 254.877 278.4ZM275.033 248.312C275.696 247.315 275.413 247.272 274.82 246.772C272.663 245.578 273.139 249.024 275.033 248.312ZM263.965 276.613C263.807 276.354 263.357 276.651 263.311 276.232C263.317 276.226 263.321 276.222 263.326 276.216L263.31 276.231C263.4 275.993 263.491 275.754 263.581 275.516C261.162 274.415 260.953 278.927 263.309 276.233C263.258 276.499 263.117 276.909 263.009 277.332C263.507 277.172 264.026 277.269 263.965 276.613Z" fill="#421B36"/>
<path d="M258.868 171.625C258.868 171.625 268.487 170.69 274.671 175.259C280.854 179.827 281.627 199.052 282.658 210.664C283.689 222.275 271.064 256.538 263.077 265.484C255.09 274.43 207.169 306.79 199.955 304.696C192.741 302.602 180.981 298.565 182.481 294.778C183.981 290.991 203.82 265.484 219.793 253.492C235.767 241.5 234.736 237.503 234.736 237.503C234.736 237.503 232.417 234.648 234.221 231.793C236.025 228.938 243.496 209.903 249.422 199.243C255.347 188.583 258.868 171.625 258.868 171.625Z" fill="#7C7A48"/>
<path d="M282.032 210.663C282.357 214.588 281.491 218.63 280.616 222.432C279.401 227.709 277.785 232.895 275.973 237.995C274.093 243.285 271.986 248.504 269.549 253.563C267.738 257.322 265.794 261.218 263.131 264.461C261.412 266.554 259.254 268.301 257.166 270.007C253.969 272.62 250.656 275.091 247.309 277.509C239.267 283.319 230.989 288.829 222.489 293.946C218.755 296.194 214.972 298.372 211.083 300.343C208.383 301.711 205.584 303.109 202.639 303.87C201.892 304.063 200.987 304.252 200.283 304.132C199.087 303.929 197.862 303.422 196.709 303.053C195.256 302.587 193.811 302.094 192.382 301.558C189.762 300.575 187.005 299.493 184.745 297.804C183.514 296.885 182.58 295.837 183.345 294.429C185.025 291.338 187.353 288.515 189.511 285.755C193.062 281.213 196.79 276.806 200.656 272.53C204.902 267.833 209.321 263.276 214.042 259.053C218.866 254.738 224.27 251.137 228.979 246.689C231.226 244.567 233.758 242.134 234.982 239.224C235.178 238.759 235.39 238.214 235.373 237.698C235.347 236.909 234.776 236.579 234.451 235.69C233.667 233.542 234.979 231.835 235.853 229.977C236.788 227.988 237.66 225.97 238.541 223.957C240.993 218.35 243.426 212.732 246.064 207.209C247.297 204.626 248.574 202.063 249.961 199.559C250.351 198.855 249.272 198.223 248.882 198.928C243.354 208.913 239.463 219.656 234.507 229.91C233.598 231.79 232.518 233.39 233.115 235.596C233.255 236.113 233.704 237.697 234.282 237.929C233.889 237.771 234.313 237.492 234.125 237.685C234.042 237.771 234.125 237.852 234.06 238.093C233.976 238.406 233.861 238.704 233.724 238.996C233.168 240.178 232.35 241.247 231.513 242.241C227.555 246.939 222.513 250.51 217.735 254.3C212.766 258.241 208.2 262.689 203.829 267.275C199.5 271.816 195.361 276.54 191.399 281.404C188.609 284.829 185.838 288.31 183.389 291.991C182.815 292.853 182.073 293.817 181.807 294.839C181.36 296.558 182.873 297.972 184.116 298.883C186.389 300.551 189.102 301.641 191.721 302.638C194.357 303.642 197.152 304.753 199.92 305.331C201.982 305.762 204.361 304.714 206.223 303.959C209.734 302.537 213.1 300.76 216.407 298.922C225.166 294.056 233.603 288.586 241.843 282.893C248.618 278.213 255.526 273.435 261.595 267.844C263.934 265.689 265.738 263.176 267.342 260.435C269.934 256.005 272.064 251.302 274.021 246.563C276.234 241.204 278.193 235.732 279.849 230.175C281.254 225.462 282.5 220.651 283.094 215.761C283.299 214.073 283.425 212.361 283.284 210.663C283.217 209.867 281.966 209.86 282.032 210.663Z" fill="#421B36"/>
<path d="M201.828 255.054C198.578 255.199 194.423 255.295 192.369 252.238C191.346 250.716 191.585 248.945 192.094 247.288C192.613 245.599 193.277 243.944 193.897 242.289C196.078 236.467 198.45 230.716 201.115 225.099C206.129 214.532 212.247 204.574 218.778 194.886C219.35 194.038 219.924 193.192 220.501 192.348C220.831 191.864 221.586 191.137 221.602 190.55C221.615 190.065 221.247 189.431 221.095 188.993C220.572 187.494 220.049 185.996 219.527 184.497C219.264 183.742 218.056 184.067 218.322 184.829C218.809 186.224 219.295 187.619 219.782 189.014C219.919 189.408 220.412 190.247 220.359 190.669C220.405 190.298 219.74 191.153 219.928 190.979C219.635 191.252 219.399 191.752 219.173 192.084C218.64 192.866 218.109 193.649 217.58 194.434C213.995 199.757 210.515 205.154 207.293 210.706C201.06 221.449 196.029 232.778 191.775 244.438C190.63 247.577 189.38 251.065 192.048 253.81C194.6 256.435 198.424 256.456 201.829 256.304C202.629 256.268 202.634 255.018 201.828 255.054Z" fill="#421B36"/>
<path d="M195.292 478.551C195.729 478.186 196.162 477.905 196.957 477.406C197.262 477.592 206.5 482.939 222.32 482.069C238.409 481.182 250.499 472.04 250.499 472.04C250.799 474.171 250.857 476.001 250.386 476.944C250.332 477.052 250.255 477.158 250.161 477.265C249.97 477.486 249.688 477.71 249.333 477.935C244.188 481.186 223.127 485.015 214.717 485.765C203.63 486.756 198.144 483.393 196.033 480.938C194.974 479.639 194.841 478.927 195.292 478.551Z" fill="#FE812D"/>
<path d="M200.621 475.373L220.237 464.493C222.236 463.324 224.251 461.224 226.275 458.681C228.428 453.201 233.2 452.602 235.711 455.711C237.38 457.777 237.623 461.067 237.57 463.251C237.806 463.261 238.041 463.278 238.277 463.274C244.311 463.182 247.677 459.544 247.677 459.544C248.908 464.269 250.025 468.774 250.501 472.038C250.501 472.038 238.456 481.36 222.367 482.249C206.278 483.138 196.959 477.404 196.959 477.404L200.621 475.373Z" fill="#421B36"/>
<path d="M250.623 472.251C237.134 481.651 212.596 488.571 198.02 477.898C197.481 477.503 197.978 476.6 198.555 476.983C214.375 487.508 235.24 479.447 250.377 471.829C250.66 471.686 250.881 472.071 250.623 472.251Z" fill="#421B36"/>
<path d="M223.404 461.945C223.404 461.945 228.825 457.246 228.949 450.342C229.015 446.686 227.031 439.463 228.728 438.167C230.425 436.871 246.702 439.647 247.854 443.372C249.006 447.097 246.505 454.085 246.505 454.085L248.158 461.452L239.749 465.76L223.404 461.945Z" fill="#421B36"/>
<path d="M215.715 467.257C216.246 468.077 217.121 468.615 217.829 469.279C218.613 470.015 219.212 471.028 220.034 471.691C220.776 472.29 221.763 471.564 221.348 470.677C220.876 469.667 219.726 468.859 218.834 468.229C217.981 467.627 216.924 466.961 215.848 467.024C215.738 467.03 215.648 467.152 215.715 467.257Z" fill="white"/>
<path d="M222.748 462.839C223.099 463.621 224.165 464.154 224.786 464.716C225.541 465.4 226.125 466.286 226.949 466.878C227.658 467.387 228.589 466.547 228.374 465.782C228.044 464.605 226.906 463.673 225.896 463.058C225.089 462.567 223.787 461.936 222.859 462.415C222.699 462.498 222.682 462.693 222.748 462.839Z" fill="white"/>
<path d="M227.491 457.165C228.146 457.743 229.155 457.968 229.946 458.326C230.884 458.751 231.662 459.617 232.631 459.894C233.408 460.117 233.876 459.286 233.592 458.644C233.138 457.619 231.69 457.049 230.689 456.701C229.774 456.383 228.379 456.162 227.543 456.767C227.42 456.856 227.359 457.047 227.491 457.165Z" fill="white"/>
<path d="M229.223 450.068C230.907 450.193 232.588 450.719 234.239 451.047C235.48 451.294 235.968 449.559 234.762 449.149C232.862 448.502 230.987 448.68 229.077 448.991C228.432 449.096 228.645 450.025 229.223 450.068Z" fill="white"/>
<path d="M239.345 478.621C240.014 475.672 240.255 472.77 241.852 470.104C243.412 467.499 245.669 465.753 248.315 464.363C249.5 463.74 248.459 462.088 247.286 462.602C241.639 465.079 236.463 472.32 238.952 478.621C239.019 478.792 239.296 478.836 239.345 478.621Z" fill="#FE812D"/>
<path d="M208.115 471.476C209.353 473.189 211.385 474.171 212.879 475.67C215.109 477.905 216.637 480.712 216.18 483.949C215.964 485.475 218.248 486.186 218.553 484.603C219.128 481.622 218.258 478.712 216.365 476.345C214.598 474.134 211.346 471.459 208.52 470.95C208.247 470.9 207.914 471.197 208.115 471.476Z" fill="#FE812D"/>
<path d="M244.562 446.132C244.562 446.132 234.846 413.764 235.78 411.984C236.714 410.205 259.57 406.647 265.415 412.154C265.415 412.154 265.165 446.013 263.036 449.494C260.907 452.975 244.562 446.132 244.562 446.132Z" fill="#7C7A48"/>
<path d="M211.752 481.339C212.189 480.974 212.622 480.693 213.417 480.194C213.722 480.38 222.96 485.727 238.78 484.857C254.869 483.97 266.959 474.828 266.959 474.828C267.259 476.96 267.317 478.789 266.846 479.732C266.792 479.84 266.715 479.946 266.621 480.053C266.43 480.274 266.148 480.498 265.793 480.723C260.648 483.974 239.587 487.802 231.177 488.553C220.09 489.544 214.604 486.181 212.493 483.726C211.435 482.427 211.301 481.715 211.752 481.339Z" fill="#FE812D"/>
<path d="M217.081 478.161L236.697 467.281C238.696 466.112 240.711 464.012 242.735 461.469C244.888 455.989 249.66 455.39 252.171 458.499C253.84 460.565 254.083 463.855 254.03 466.04C254.266 466.05 254.501 466.066 254.737 466.063C260.771 465.971 264.137 462.333 264.137 462.333C265.368 467.058 266.485 471.563 266.961 474.827C266.961 474.827 254.916 484.149 238.826 485.038C222.737 485.927 213.418 480.193 213.418 480.193L217.081 478.161Z" fill="#421B36"/>
<path d="M267.084 475.039C253.595 484.439 229.057 491.359 214.481 480.686C213.942 480.291 214.439 479.388 215.016 479.771C230.836 490.296 251.701 482.235 266.838 474.617C267.12 474.474 267.341 474.859 267.084 475.039Z" fill="#421B36"/>
<path d="M239.864 464.733C239.864 464.733 245.285 460.034 245.409 453.13C245.475 449.474 241.762 441.912 243.459 440.616C245.156 439.32 263.162 442.436 264.314 446.161C265.466 449.886 262.965 456.874 262.965 456.874L264.618 464.241L256.209 468.548L239.864 464.733Z" fill="#421B36"/>
<path d="M232.176 470.044C232.707 470.864 233.582 471.402 234.29 472.066C235.074 472.802 235.673 473.815 236.496 474.478C237.238 475.077 238.225 474.351 237.81 473.464C237.338 472.454 236.188 471.646 235.296 471.016C234.444 470.414 233.386 469.748 232.31 469.811C232.198 469.818 232.108 469.94 232.176 470.044Z" fill="white"/>
<path d="M239.208 465.627C239.559 466.409 240.625 466.942 241.246 467.504C242.001 468.188 242.585 469.074 243.409 469.666C244.118 470.175 245.049 469.335 244.834 468.57C244.504 467.393 243.366 466.461 242.356 465.846C241.548 465.355 240.247 464.724 239.318 465.203C239.16 465.286 239.143 465.481 239.208 465.627Z" fill="white"/>
<path d="M243.952 459.953C244.607 460.531 245.616 460.756 246.407 461.114C247.345 461.539 248.123 462.405 249.092 462.682C249.869 462.904 250.337 462.074 250.053 461.432C249.599 460.407 248.151 459.837 247.15 459.489C246.235 459.171 244.84 458.95 244.004 459.555C243.88 459.644 243.819 459.836 243.952 459.953Z" fill="white"/>
<path d="M245.683 452.856C247.367 452.981 249.048 453.507 250.699 453.835C251.94 454.082 252.428 452.347 251.222 451.937C249.322 451.29 247.447 451.468 245.537 451.779C244.892 451.884 245.106 452.813 245.683 452.856Z" fill="white"/>
<path d="M255.805 481.409C256.474 478.46 256.715 475.558 258.312 472.891C259.872 470.286 262.129 468.54 264.775 467.15C265.96 466.528 264.919 464.875 263.746 465.389C258.099 467.866 252.923 475.107 255.412 481.408C255.479 481.58 255.756 481.624 255.805 481.409Z" fill="#FE812D"/>
<path d="M224.576 474.264C225.814 475.977 227.846 476.959 229.34 478.458C231.57 480.694 233.098 483.5 232.641 486.737C232.425 488.263 234.709 488.974 235.014 487.391C235.589 484.41 234.719 481.5 232.826 479.132C231.059 476.921 227.807 474.246 224.981 473.737C224.708 473.688 224.374 473.985 224.576 474.264Z" fill="#FE812D"/>
<path d="M242.199 442.68C239.877 431.24 237.554 419.799 235.232 408.359C234.827 406.363 233.838 404.433 233.114 402.537C231.831 399.18 230.563 395.815 229.382 392.42C227.902 388.163 226.695 383.81 225.426 379.486C223.686 373.556 221.961 367.622 220.239 361.688C219.169 357.998 218.099 354.308 217.033 350.617C216.81 349.846 215.604 350.174 215.828 350.949C218.41 359.888 221.001 368.824 223.615 377.754C224.87 382.042 226.067 386.358 227.45 390.608C229.332 396.388 231.783 401.955 233.771 407.691C234.465 409.693 234.691 411.968 235.112 414.047C235.754 417.211 236.397 420.376 237.039 423.54C238.357 430.031 239.674 436.522 240.992 443.013C241.154 443.8 242.359 443.467 242.199 442.68Z" fill="#421B36"/>
<path d="M253.151 193.583C260.286 188.599 267.042 185.539 275.849 185.089C276.797 185.04 276.801 183.656 275.849 183.612C267.384 183.223 258.275 186.626 253.023 193.417C252.958 193.503 253.043 193.659 253.151 193.583Z" fill="#421B36"/>
<path d="M233.905 236.868C236.949 240.319 239.627 243.626 241.832 247.692C242.187 248.348 243.358 247.892 243.066 247.172C241.346 242.936 238.268 238.737 234.331 236.315C233.978 236.099 233.649 236.578 233.905 236.868Z" fill="#421B36"/>
<path d="M173.502 286.559C176.845 287.921 180.786 288.604 184.352 289.131C185.273 289.267 185.705 287.926 184.748 287.694C181.208 286.833 177.235 285.968 173.58 285.98C173.225 285.979 173.208 286.439 173.502 286.559Z" fill="#421B36"/>
<path d="M186.324 289.14C191.944 294.518 199.212 298.691 206.048 302.325C206.917 302.787 207.684 301.488 206.822 301.001C199.957 297.128 193.557 292.5 186.725 288.62C186.403 288.438 186.048 288.875 186.324 289.14Z" fill="#421B36"/>
<path opacity="0.2" d="M207.448 365.058L208.004 366.778C208.638 366.715 209.1 366.196 208.862 365.117C208.342 364.703 207.876 364.79 207.448 365.058Z" fill="#421B36"/>
<path opacity="0.2" d="M208.02 352.58C207.608 352.778 207.182 352.982 206.697 353.217C206.763 353.84 206.818 354.344 206.873 354.844C207.395 354.947 207.857 355.036 208.34 355.13C209.532 354.473 209.051 353.081 208.02 352.58Z" fill="#421B36"/>
<path opacity="0.2" d="M210.616 361.595C210.616 361.675 210.616 361.755 210.616 361.835C209.219 361.894 209.521 363.617 210.616 363.995C210.616 363.915 210.616 363.835 210.616 363.755C210.834 363.835 211.051 363.913 211.301 364.005C212.602 363.241 211.976 361.701 210.616 361.595Z" fill="#421B36"/>
<path opacity="0.2" d="M210.616 367.836C210.437 367.795 210.258 367.754 210.116 367.723C210.057 367.79 210.005 367.87 209.955 367.951C210.164 367.954 210.382 367.956 210.616 367.958C210.991 367.961 211.399 367.963 211.824 367.963C211.774 367.883 211.726 367.803 211.683 367.722C211.293 367.764 210.954 367.8 210.616 367.836Z" fill="#421B36"/>
<path opacity="0.2" d="M203.907 350.532C203.67 350.931 203.886 351.571 204.187 352.014C204.591 352.558 205.355 352.065 205.929 352.073C206.423 351.27 206.363 350.676 205.965 350.361L203.907 350.532Z" fill="#421B36"/>
<path opacity="0.2" d="M204.506 355.947L204.858 357.036L205.116 357.835C205.31 357.667 205.431 357.403 205.336 357.036C205.576 357.036 205.816 357.036 206.057 357.036C206.111 355.786 205.229 355.553 204.506 355.947Z" fill="#421B36"/>
<path opacity="0.2" d="M208.805 359.836C208.677 358.819 207.54 358.69 206.815 359.211C206.528 361.259 207.822 361.467 208.805 359.836Z" fill="#421B36"/>
<path opacity="0.2" d="M210.616 356.076C210.089 356.306 209.279 356.34 209.177 357.036C209.388 357.824 209.873 358.073 210.616 358.236C210.616 358.316 210.616 358.397 210.616 358.476C211.489 358.673 211.638 357.635 211.816 357.036C211.896 357.036 211.976 357.036 212.056 357.036C212.04 356.67 212.204 356.268 211.892 355.989C211.434 356.02 211.025 356.049 210.616 356.076Z" fill="#421B36"/>
<path opacity="0.2" d="M217.576 357.036C217.54 356.049 217.54 356.049 216.435 355.804C215.879 356.096 214.924 356.303 215.415 357.036C215.554 358.349 217.589 358.358 217.576 357.036Z" fill="#421B36"/>
<path opacity="0.2" d="M216.959 364.066C217.394 363.978 217.549 363.859 217.465 363.351C218.361 361.717 216.669 361.686 215.502 362.295C215.184 363.244 216.023 364.09 216.959 364.066Z" fill="#421B36"/>
<path opacity="0.2" d="M216.653 349.947C216.128 350.17 215.655 350.361 215.478 350.887C215.701 351.282 215.908 351.648 216.149 352.075C218.213 351.778 218.647 351.019 216.653 349.947Z" fill="#421B36"/>
<path opacity="0.2" d="M215.661 367.953C216.41 367.949 217.141 367.943 217.818 367.937C217.572 367.735 217.331 367.536 217.088 367.337C216.347 367.346 215.893 367.602 215.661 367.953Z" fill="#421B36"/>
<path opacity="0.2" d="M219.21 364.545C216.78 365.782 219.609 368.356 220.966 365.831C220.317 365.139 220.467 363.826 219.21 364.545Z" fill="#421B36"/>
<path opacity="0.2" d="M210.616 351.996C212.478 352.004 212.481 350.367 211.044 349.938L210.616 349.974L209.232 350.089C209.514 350.966 209.202 352.418 210.616 351.996Z" fill="#421B36"/>
<path opacity="0.2" d="M212.657 360C213.967 361.609 214.507 361.206 214.875 359.331C213.893 358.842 212.936 358.753 212.657 360Z" fill="#421B36"/>
<path opacity="0.2" d="M213.668 352.859C212.67 353.384 212.693 353.968 213.168 354.889C213.612 354.889 214.033 354.889 214.527 354.889C214.482 354.249 215.221 353.809 214.82 353.112C214.428 353.026 214.051 352.943 213.668 352.859Z" fill="#421B36"/>
<path opacity="0.2" d="M212.845 364.939C212.791 365.797 212.578 366.663 213.596 367.107C215.771 366.649 214.824 363.41 212.845 364.939Z" fill="#421B36"/>
<path opacity="0.2" d="M249.455 348.774C249.226 348.228 249.036 347.773 248.848 347.326C247.795 347.086 247.846 348.093 247.377 348.477C248.035 349.569 248.56 349.665 249.455 348.774Z" fill="#421B36"/>
<path opacity="0.2" d="M242.343 354.314C242.488 354.655 242.398 355.077 242.883 355.173C243.196 354.931 243.465 354.72 243.74 354.507C243.451 353.65 242.671 353.361 242.146 352.829C241.078 353.478 241.873 353.814 242.343 354.314Z" fill="#421B36"/>
<path opacity="0.2" d="M237.386 349.334C237.542 348.882 237.838 348.459 238.159 348.107C238.054 347.96 237.943 347.828 237.824 347.709L235.824 347.875C235.509 348.752 236.119 349.641 237.386 349.334Z" fill="#421B36"/>
<path opacity="0.2" d="M232.935 357.036C233.095 357.036 233.255 357.036 233.415 357.036C233.377 357.643 232.815 358.157 233.792 358.373C233.953 357.956 234.318 357.76 234.718 357.703C234.776 357.422 234.816 357.228 234.855 357.036C235.015 357.036 235.175 357.036 235.335 357.036C235.135 356.152 232.212 355.71 232.935 357.036Z" fill="#421B36"/>
<path opacity="0.2" d="M237.99 354.408C237.917 351.928 235.455 352.105 235.635 354.48C235.982 355.405 237.69 355.393 237.99 354.408Z" fill="#421B36"/>
<path opacity="0.2" d="M240.899 351.66C240.439 350.99 240.306 350.176 239.282 349.968C239.066 350.67 239.12 351.419 238.967 352.164C239.744 352.448 240.321 352.259 240.899 351.66Z" fill="#421B36"/>
<path opacity="0.2" d="M223.336 357.036C223.416 357.036 223.496 357.036 223.576 357.036C223.698 355.468 220.861 355.244 221.176 357.036C221.121 358.605 223.927 359.255 223.336 357.036Z" fill="#421B36"/>
<path opacity="0.2" d="M246.064 349.988C244.654 349.578 244.152 350.903 244.808 351.968C246.163 353.196 246.535 350.983 246.064 349.988Z" fill="#421B36"/>
<path opacity="0.2" d="M242.418 361.099C243.62 360.543 243.672 360.418 243.224 359.152C241.857 358.909 241.777 358.955 241.377 360.227C241.571 360.697 241.954 360.947 242.418 361.099Z" fill="#421B36"/>
<path opacity="0.2" d="M230.408 361.16C232.117 362.11 232.63 360.025 231.668 358.86C230.366 358.803 229.068 360.131 230.408 361.16Z" fill="#421B36"/>
<path opacity="0.2" d="M223.501 351.541C223.485 349.886 220.74 349.572 221.375 351.615C221.955 352.583 222.716 352.436 223.501 351.541Z" fill="#421B36"/>
<path opacity="0.2" d="M226.429 348.657L224.451 348.822C224.433 348.916 224.424 349.005 224.403 349.102C225.185 349.241 225.883 349.302 226.429 348.657Z" fill="#421B36"/>
<path opacity="0.2" d="M220.277 355.049C220.387 354.928 220.517 354.785 220.702 354.582C220.58 352.13 217.608 352.191 218.626 354.547C219.243 354.721 219.692 355.095 220.277 355.049Z" fill="#421B36"/>
<path opacity="0.2" d="M233.681 352.315C234.104 351.951 234.478 351.63 234.882 351.283C234.864 350.873 234.844 350.443 234.826 350.025C234.485 349.918 234.223 349.834 233.975 349.755C232.585 350.248 232.307 351.595 233.681 352.315Z" fill="#421B36"/>
<path opacity="0.2" d="M231.685 355.129C232.725 354.884 231.932 353.522 231.663 352.89C230.922 351.882 230.427 353.471 229.949 353.924C229.372 355.004 230.898 354.999 231.685 355.129Z" fill="#421B36"/>
<path opacity="0.2" d="M232.152 366.573C232.41 365.65 232.12 365.014 231.262 364.59C230.9 364.83 230.542 365.067 230.154 365.322C229.904 367.103 230.855 367.366 232.152 366.573Z" fill="#421B36"/>
<path opacity="0.2" d="M232.045 348.19L230.121 348.35C230.361 348.76 230.596 349.161 230.873 349.634C231.566 349.583 231.977 348.849 232.045 348.19Z" fill="#421B36"/>
<path opacity="0.2" d="M219.197 358.9C218.994 359.278 218.79 359.656 218.523 360.151C218.668 361.103 220.047 361.68 220.339 360.607C220.31 359.815 220.475 358.587 219.197 358.9Z" fill="#421B36"/>
<path opacity="0.2" d="M225.424 355.384C225.86 355.147 226.268 354.923 226.674 354.701C226.674 354.236 226.674 353.848 226.674 353.418C226.11 353.084 225.639 352.809 225.195 352.547C224.097 353.199 224.078 353.233 224.144 354.293C224.57 354.656 224.984 355.01 225.424 355.384Z" fill="#421B36"/>
<path opacity="0.2" d="M244.312 356.361C244.361 356.589 244.408 356.812 244.456 357.036C244.065 358.643 247.01 358.28 246.855 357.036C246.695 357.036 246.535 357.036 246.376 357.036C247.179 355.371 245.049 355.549 244.312 356.361Z" fill="#421B36"/>
<path opacity="0.2" d="M245.699 363.541C245.906 363.687 246.047 363.786 246.188 363.885C247.52 360.701 242.531 361.338 244.976 363.994C245.25 363.94 245.43 363.701 245.699 363.541Z" fill="#421B36"/>
<path opacity="0.2" d="M247.525 366.553C248.193 366.866 248.7 366.551 249.222 366.335C249.281 365.867 249.332 365.445 249.384 365.023C247.69 363.569 247.489 364.9 247.525 366.553Z" fill="#421B36"/>
<path opacity="0.2" d="M247.162 359.51C247.308 361.083 249.337 361.57 249.475 359.724C249.219 358.649 247.556 358.414 247.162 359.51Z" fill="#421B36"/>
<path opacity="0.2" d="M241.459 364.726C240.912 366.935 244.39 367.707 243.672 365.096C242.946 364.912 242.112 364.186 241.459 364.726Z" fill="#421B36"/>
<path opacity="0.2" d="M248.299 353.053C247.955 353.368 247.426 353.498 247.121 354.004C247.716 355.409 248.939 354.932 249.48 353.788C249.094 353.297 249.094 353.297 248.299 353.053Z" fill="#421B36"/>
<path opacity="0.2" d="M243.018 347.277L242.229 347.343C241.198 348.291 241.246 348.914 242.351 349.612C243.547 348.887 243.547 348.887 243.956 348.138C243.7 347.802 243.417 347.491 243.018 347.277Z" fill="#421B36"/>
<path opacity="0.2" d="M244.035 368.674C244.367 370.49 246.902 369.86 246.809 368.3C246.278 367.037 244.342 367.24 244.035 368.674Z" fill="#421B36"/>
<path opacity="0.2" d="M250.049 362.149C249.948 362.892 249.972 363.185 250.734 363.354C251.988 364.161 252.225 363.519 252.097 362.271C251.07 361.494 250.993 361.49 250.049 362.149Z" fill="#421B36"/>
<path opacity="0.2" d="M254.478 355.083C254.506 355.062 254.532 355.042 254.559 355.021C254.608 354.309 254.657 353.609 254.707 352.933C252.992 352.194 252.292 355.288 254.478 355.083Z" fill="#421B36"/>
<path opacity="0.2" d="M253.419 358.91C252.339 359.572 253.076 361.02 254.196 361.14C254.231 360.398 254.272 359.626 254.317 358.838C254.082 358.767 253.785 358.775 253.419 358.91Z" fill="#421B36"/>
<path opacity="0.2" d="M252.566 348.25C253.48 348.909 254.011 349.948 255.015 348.762C255.375 346.673 253.474 346.702 252.566 348.25Z" fill="#421B36"/>
<path opacity="0.2" d="M254.08 364.612C253.644 364.51 253.192 364.661 252.919 365.26C252.724 366.137 253.404 366.74 254.114 366.745C254.109 366.655 254.104 366.576 254.099 366.479C254.074 365.985 254.07 365.346 254.08 364.612Z" fill="#421B36"/>
<path opacity="0.2" d="M251.785 356.017C251.347 355.151 250.062 356.228 250.215 357.036C250.135 357.036 250.055 357.036 249.976 357.036C250.119 357.543 250.287 357.954 250.691 358.327C251.293 357.996 251.83 357.701 252.376 357.4C252.376 357.269 252.376 357.152 252.376 357.036C252.296 357.036 252.216 357.036 252.136 357.036C252.191 356.645 251.505 356.526 251.785 356.017Z" fill="#421B36"/>
<path opacity="0.2" d="M250.861 350.246C250.275 351.311 249.888 352.013 251.47 352.26C251.796 351.77 252.095 351.322 252.385 350.886C252.032 350.216 251.549 350.018 250.861 350.246Z" fill="#421B36"/>
<path opacity="0.2" d="M241.339 370.988C241.376 371.011 241.408 371.04 241.439 371.07C242.07 370.978 242.694 370.886 243.309 370.795C243.095 370.571 242.799 370.325 242.436 370.036C242.074 370.351 241.73 370.649 241.339 370.988Z" fill="#421B36"/>
<path opacity="0.2" d="M250.583 367.77C249.873 369.727 252.82 369.733 251.967 367.738C251.416 367.866 251.161 367.836 250.583 367.77Z" fill="#421B36"/>
<path opacity="0.2" d="M228.183 361.368C227.583 361.917 227.216 362.247 226.761 362.795C227.56 365.126 231.044 363.107 228.183 361.368Z" fill="#421B36"/>
<path opacity="0.2" d="M228.4 367.428C227.617 367.586 227.105 367.932 227.097 368.975C228.555 370.956 230.487 368.582 228.4 367.428Z" fill="#421B36"/>
<path opacity="0.2" d="M240.855 357.036C241.459 355.161 238.246 355.409 238.456 357.036C238.536 357.036 238.616 357.036 238.695 357.036C238.837 358.147 239.766 358.483 240.705 358.736C241.215 358.215 241.119 357.618 241.096 357.036C241.015 357.036 240.935 357.036 240.855 357.036Z" fill="#421B36"/>
<path opacity="0.2" d="M225.068 358.695C223.286 360.248 224.407 360.9 226.177 361.254C226.386 360.512 227.058 359.931 226.411 359.334C226.03 359.032 225.611 358.275 225.068 358.695Z" fill="#421B36"/>
<path opacity="0.2" d="M227.088 351.02C227.139 351.226 227.196 351.454 227.246 351.654C228.114 352.472 229.431 351.772 229.616 350.718C229.203 350.431 228.828 350.169 228.529 349.962C227.779 350.078 227.318 350.385 227.088 351.02Z" fill="#421B36"/>
<path opacity="0.2" d="M228.207 355.49C227.279 355.631 227.19 356.323 226.936 357.036C226.856 357.036 226.776 357.036 226.696 357.036C226.765 358.416 229.258 358.571 229.337 357.036C229.417 357.036 229.497 357.036 229.577 357.036C229.654 356.004 228.869 355.781 228.207 355.49Z" fill="#421B36"/>
<path opacity="0.2" d="M223.933 365.867C224.921 368.028 227.765 366.074 225.893 364.464C224.828 363.919 224.598 365.409 223.933 365.867Z" fill="#421B36"/>
<path opacity="0.2" d="M221.28 363.458C222.257 364.353 222.516 364.125 223.447 363.557C224.721 362.108 221.093 360.108 221.28 363.458Z" fill="#421B36"/>
<path opacity="0.2" d="M224.856 370.348C223.585 370.925 224.045 373.112 225.625 372.894C226.448 371.808 226.872 369.924 224.856 370.348Z" fill="#421B36"/>
<path opacity="0.2" d="M221.804 367.756C220.996 369.02 221.687 370.175 223.15 369.778C223.662 369.353 223.479 368.945 223.371 368.522C223.252 367.504 222.602 367.624 221.804 367.756Z" fill="#421B36"/>
<path opacity="0.2" d="M236.846 364.555C235.576 365.008 234.945 366.539 236.565 366.84C238.189 367.161 238.415 364.944 236.846 364.555Z" fill="#421B36"/>
<path opacity="0.2" d="M230.162 370.863C230.283 371.002 230.404 371.142 230.558 371.318C230.245 371.468 230.015 371.58 229.805 371.681C229.95 372.164 230.192 372.431 230.483 372.55C230.873 372.504 231.272 372.455 231.681 372.404C231.883 372.304 232.085 372.182 232.278 372.034C232.193 370.872 230.979 369.531 230.162 370.863Z" fill="#421B36"/>
<path opacity="0.2" d="M239.333 367.492C239.11 367.693 238.875 367.904 238.605 368.147C238.296 370.207 241.347 369.892 240.811 368.082C240.305 367.881 239.841 367.695 239.333 367.492Z" fill="#421B36"/>
<path opacity="0.2" d="M240.789 362.883C240.096 362.492 239.605 361.942 238.801 361.977C238.715 362.313 238.651 362.573 238.594 362.794C238.91 363.21 239.188 363.574 239.519 364.012C239.815 363.185 240.739 363.876 240.789 362.883Z" fill="#421B36"/>
<path opacity="0.2" d="M235.979 371.842C236.713 371.742 237.453 371.64 238.198 371.535C236.961 369.008 235.172 370.629 235.979 371.842Z" fill="#421B36"/>
<path opacity="0.2" d="M235.325 362.525C235.004 362.181 234.764 361.81 234.224 361.646C233.685 362.373 233.311 362.632 232.41 362.845C233.476 364.285 234.88 364.402 235.325 362.525Z" fill="#421B36"/>
<path opacity="0.2" d="M237.943 360.01C237.293 358.623 235.068 358.775 235.701 360.592C236.514 360.82 237.334 361.262 237.943 360.01Z" fill="#421B36"/>
<path opacity="0.2" d="M234.15 367.243C233.441 367.598 232.91 368.045 232.525 368.962C233.836 370.238 234.14 369.678 235.394 368.632C234.904 368.16 234.82 367.424 234.15 367.243Z" fill="#421B36"/>
</svg>
