<svg xmlns="http://www.w3.org/2000/svg" xmlns:xlink="http://www.w3.org/1999/xlink" width="500" zoomAndPan="magnify" viewBox="0 0 375 374.999991" height="500" preserveAspectRatio="xMidYMid meet" version="1.0"><defs><g/><clipPath id="66d60688a5"><path d="M 72.8125 108 L 279 108 L 279 178 L 72.8125 178 Z M 72.8125 108 " clip-rule="nonzero"/></clipPath><clipPath id="a33d965c83"><path d="M 72.878906 135.90625 L 146.679688 135.90625 L 146.679688 299.835938 L 72.878906 299.835938 Z M 72.878906 135.90625 " clip-rule="nonzero"/></clipPath><clipPath id="3ce5d9fc9f"><path d="M 146.058594 138.695312 L 278.460938 138.695312 L 278.460938 299.835938 L 146.058594 299.835938 Z M 146.058594 138.695312 " clip-rule="nonzero"/></clipPath><clipPath id="eb08d334a0"><path d="M 72.878906 135.90625 L 146.367188 135.90625 L 146.367188 299.835938 L 72.878906 299.835938 Z M 72.878906 135.90625 " clip-rule="nonzero"/></clipPath><clipPath id="dd413d10e3"><path d="M 146.058594 138.695312 L 278.460938 138.695312 L 278.460938 299.835938 L 146.058594 299.835938 Z M 146.058594 138.695312 " clip-rule="nonzero"/></clipPath><clipPath id="bdc2127707"><path d="M 198.152344 19.339844 L 321.734375 19.339844 L 321.734375 104.285156 L 198.152344 104.285156 Z M 198.152344 19.339844 " clip-rule="nonzero"/></clipPath></defs><g clip-path="url(#66d60688a5)"><path fill="#cf874b" d="M 194.125 108.171875 L 72.878906 135.90625 L 146.4375 177.039062 L 278.277344 138.710938 L 194.125 108.171875 " fill-opacity="1" fill-rule="nonzero"/></g><path fill="#544a46" d="M 264.476562 143.992188 C 262.507812 127.152344 253.132812 103.0625 240.132812 92.175781 C 227.136719 81.285156 209.277344 76.101562 192.625 79.3125 C 175.976562 82.527344 161.027344 94.410156 155.035156 110.269531 C 151.507812 119.589844 151.042969 129.753906 148.820312 139.46875 C 146.597656 149.1875 131.796875 164.617188 122.957031 169.222656 C 122.957031 169.222656 140.671875 176.890625 146.214844 179.613281 C 186.789062 168.480469 225.011719 153.972656 264.476562 143.992188 " fill-opacity="1" fill-rule="nonzero"/><g clip-path="url(#a33d965c83)"><path fill="#e39d62" d="M 146.4375 299.835938 L 72.878906 251.222656 L 72.878906 135.90625 L 146.4375 177.039062 L 146.4375 299.835938 " fill-opacity="1" fill-rule="nonzero"/></g><g clip-path="url(#3ce5d9fc9f)"><path fill="#f4ba79" d="M 278.277344 254.339844 L 146.125 299.835938 L 146.125 176.726562 L 278.277344 138.710938 L 278.277344 254.339844 " fill-opacity="1" fill-rule="nonzero"/></g><path fill="#cf874b" d="M 240.390625 156.742188 C 241.140625 160.265625 241.441406 164.03125 239.980469 167.359375 C 239.4375 168.589844 238.660156 169.746094 238.367188 171.050781 C 238.070312 172.351562 238.402344 173.910156 239.628906 174.601562 C 241.511719 175.660156 243.800781 174.082031 245.335938 172.617188 C 244.496094 173.78125 245.277344 175.523438 246.652344 176.105469 C 248.027344 176.691406 249.703125 176.316406 250.945312 175.515625 C 252.1875 174.71875 253.089844 173.554688 253.964844 172.410156 C 253.261719 173.351562 254.109375 174.792969 255.320312 175.039062 C 256.53125 175.28125 257.78125 174.597656 258.488281 173.65625 C 259.195312 172.714844 259.472656 171.5625 259.738281 170.445312 C 260.339844 167.902344 260.9375 165.359375 261.539062 162.816406 C 262.730469 157.773438 262.375 152.742188 261.589844 147.628906 C 261.390625 146.335938 261.132812 145.027344 260.777344 143.742188 L 238.832031 150.058594 C 239.292969 152.292969 239.917969 154.507812 240.390625 156.742188 " fill-opacity="1" fill-rule="nonzero"/><path fill="#cf874b" d="M 199.628906 184.761719 C 201.484375 185.8125 203.742188 184.25 205.253906 182.804688 C 204.421875 183.953125 205.195312 185.675781 206.550781 186.25 C 207.90625 186.828125 209.554688 186.457031 210.78125 185.667969 C 212.003906 184.878906 212.894531 183.726562 213.757812 182.597656 C 213.0625 183.53125 213.898438 184.953125 215.089844 185.195312 C 216.285156 185.4375 217.515625 184.757812 218.214844 183.828125 C 218.910156 182.898438 219.1875 181.761719 219.445312 180.65625 C 220.039062 178.140625 220.628906 175.628906 221.222656 173.117188 C 222.394531 168.132812 221.800781 163.15625 221.027344 158.105469 C 220.886719 157.183594 220.714844 156.25 220.515625 155.324219 L 199.046875 161.503906 C 199.472656 163.375 199.980469 165.234375 200.378906 167.113281 C 201.117188 170.597656 201.414062 174.316406 199.972656 177.605469 C 199.441406 178.820312 198.675781 179.964844 198.382812 181.253906 C 198.089844 182.539062 198.417969 184.082031 199.628906 184.761719 " fill-opacity="1" fill-rule="nonzero"/><path fill="#3d322d" d="M 186.800781 164.082031 C 163.796875 158.132812 159.808594 129.714844 172.5 112.183594 C 172.910156 111.613281 172.042969 111.039062 171.566406 111.464844 C 162.804688 119.292969 161.199219 135.21875 164.15625 146.050781 C 167.046875 156.640625 175.675781 163.996094 186.074219 166.710938 C 187.773438 167.15625 188.5 164.523438 186.800781 164.082031 " fill-opacity="1" fill-rule="nonzero"/><g clip-path="url(#eb08d334a0)"><path fill="#de8f57" d="M 72.878906 135.90625 L 143.917969 178.34375 L 146.125 299.835938 L 146.125 177.039062 L 72.878906 135.90625 " fill-opacity="1" fill-rule="nonzero"/></g><g clip-path="url(#dd413d10e3)"><path fill="#fad4ac" d="M 146.125 299.835938 L 146.125 177.039062 L 278.277344 138.710938 L 148.488281 178.917969 L 146.125 299.835938 " fill-opacity="1" fill-rule="nonzero"/></g><g clip-path="url(#bdc2127707)"><path fill="#544a46" d="M 206.71875 89.71875 C 212.046875 92.503906 218.621094 93.027344 224.160156 91.234375 C 229.644531 89.480469 234.441406 85.292969 236.953125 80.25 C 238.199219 77.792969 238.914062 74.996094 239.433594 71.65625 C 239.957031 68.339844 240.238281 64.585938 240.878906 60.441406 C 241.476562 56.34375 242.714844 51.597656 244.675781 47.410156 C 246.613281 43.183594 249.179688 39.285156 252.230469 35.8125 C 258.328125 28.886719 266.394531 23.578125 275.660156 20.992188 C 280.292969 19.710938 285.152344 19.109375 290.152344 19.417969 C 295.132812 19.71875 300.339844 20.945312 305.230469 23.546875 C 307.628906 24.808594 310.078125 26.523438 312.164062 28.519531 C 314.253906 30.507812 316.0625 32.765625 317.550781 35.273438 C 320.5 40.242188 322.304688 46.421875 321.566406 53.050781 C 321.449219 53.878906 321.355469 54.675781 321.167969 55.527344 C 320.960938 56.382812 320.769531 57.265625 320.480469 58.082031 C 319.933594 59.738281 319.238281 61.316406 318.40625 62.78125 C 316.738281 65.71875 314.578125 68.261719 312 70.378906 C 309.417969 72.492188 306.382812 74.203125 302.894531 75.246094 C 299.421875 76.289062 295.429688 76.601562 291.515625 75.820312 C 286.691406 74.863281 283.554688 70.175781 284.515625 65.351562 C 285.472656 60.527344 290.164062 57.394531 294.988281 58.351562 C 295.046875 58.363281 295.101562 58.375 295.160156 58.386719 L 295.269531 58.414062 C 297.050781 58.8125 299.335938 58.210938 301.242188 56.703125 C 303.164062 55.179688 304.457031 53.050781 304.722656 50.820312 C 305.054688 48.460938 304.445312 45.78125 303.097656 43.394531 C 301.71875 40.972656 299.785156 39.019531 297.292969 37.632812 C 292.308594 34.792969 285.5 34.332031 279.332031 35.894531 C 273.117188 37.425781 267.292969 40.953125 262.855469 45.71875 C 260.632812 48.097656 258.753906 50.785156 257.332031 53.664062 C 255.890625 56.566406 254.992188 59.515625 254.347656 62.988281 C 253.6875 66.429688 253.269531 70.207031 252.476562 74.230469 C 251.699219 78.222656 250.453125 82.597656 248.167969 86.59375 C 243.6875 94.488281 236.152344 100.460938 227.300781 102.878906 C 218.496094 105.230469 208.984375 104.003906 201.058594 99.429688 C 198.367188 97.878906 197.449219 94.445312 199 91.757812 C 200.507812 89.140625 203.804688 88.199219 206.460938 89.582031 L 206.71875 89.71875 " fill-opacity="1" fill-rule="nonzero"/></g><path fill="#3d322d" d="M 220.199219 135.855469 C 218.808594 133.773438 216.933594 132.296875 214.917969 130.867188 C 211.433594 128.394531 208.570312 125.808594 205.53125 122.808594 C 204.957031 122.242188 204.035156 122.960938 204.425781 123.660156 C 206.992188 128.289062 211.277344 130.375 215.21875 133.621094 C 220.519531 137.980469 221.402344 143.742188 221.828125 150.046875 C 219.71875 143.707031 215.074219 138.125 207.765625 138.554688 C 202.207031 138.882812 198.054688 143.457031 197.738281 148.878906 C 197.605469 151.160156 197.636719 153.519531 198.070312 155.765625 C 198.234375 156.605469 199.902344 162.394531 201.386719 161.308594 C 202.367188 160.59375 200.429688 155.773438 200.261719 154.691406 C 199.472656 149.695312 201.816406 142.839844 207.550781 142.199219 C 211.464844 141.761719 214.539062 143.480469 216.488281 146.832031 C 217.464844 148.515625 218.066406 150.382812 218.765625 152.191406 C 218.925781 152.597656 219.09375 153.027344 219.425781 153.3125 C 219.671875 153.53125 219.992188 153.648438 220.246094 153.859375 C 220.734375 154.269531 221.15625 155.808594 221.925781 155.625 C 222.449219 155.503906 222.605469 154.027344 222.71875 153.601562 C 223.226562 151.6875 223.277344 149.632812 223.207031 147.664062 C 223.0625 143.75 222.425781 139.183594 220.199219 135.855469 " fill-opacity="1" fill-rule="nonzero"/><path fill="#3d322d" d="M 262.125 143.25 C 262.746094 132.242188 253.578125 125.707031 245.363281 128.675781 C 240.34375 130.488281 237.820312 135.433594 237.472656 140.550781 C 236.605469 138.214844 234.988281 136.230469 233.476562 133.949219 C 230.003906 128.707031 228.695312 123.613281 230.074219 117.363281 C 230.234375 116.652344 229.257812 116.402344 229.003906 117.066406 C 227.46875 121.085938 227.308594 125.25 228.800781 129.332031 C 230.769531 134.71875 238.351562 147.679688 238.980469 148.996094 C 239.226562 149.507812 240.085938 149.261719 240.054688 148.707031 C 240.054688 148.699219 240.050781 148.6875 240.050781 148.679688 C 240.242188 148.570312 240.402344 148.40625 240.402344 148.140625 C 240.386719 142.230469 239.65625 133.132812 248.125 132.957031 C 254.171875 132.832031 261.511719 142.03125 261.644531 142.234375 C 262.195312 143.074219 262.070312 144.222656 262.125 143.25 " fill-opacity="1" fill-rule="nonzero"/><path fill="#3d322d" d="M 214.234375 96.324219 C 220.738281 96.414062 227.984375 91.40625 232.707031 87.296875 C 232.824219 87.195312 232.84375 87.082031 232.828125 86.96875 C 232.640625 86.855469 232.453125 86.734375 232.265625 86.621094 C 232.238281 86.628906 232.214844 86.617188 232.1875 86.628906 C 225.90625 89.550781 221.035156 93.972656 214.167969 95.835938 C 213.890625 95.910156 213.949219 96.324219 214.234375 96.324219 " fill-opacity="1" fill-rule="nonzero"/><path fill="#3d322d" d="M 220.824219 104.683594 C 220.441406 104.769531 220.5 105.28125 220.824219 105.398438 C 228.84375 108.230469 239.238281 102.03125 243.199219 95.042969 C 242.957031 94.800781 242.730469 94.539062 242.488281 94.304688 C 239.644531 97.304688 236.636719 99.972656 232.863281 101.761719 C 228.96875 103.609375 224.9375 103.714844 220.824219 104.683594 " fill-opacity="1" fill-rule="nonzero"/><path fill="#544a46" d="M 202.390625 143.539062 C 199.628906 146 198.734375 149.808594 198.941406 153.355469 C 199.148438 156.898438 200.300781 160.332031 201.039062 163.8125 C 201.777344 167.296875 202.074219 171.015625 200.632812 174.304688 C 200.101562 175.523438 199.335938 176.667969 199.042969 177.957031 C 198.75 179.242188 199.078125 180.78125 200.289062 181.464844 C 202.144531 182.511719 204.398438 180.953125 205.910156 179.503906 C 205.082031 180.65625 205.855469 182.375 207.210938 182.953125 C 208.566406 183.53125 210.214844 183.160156 211.441406 182.371094 C 212.664062 181.582031 213.554688 180.429688 214.417969 179.300781 C 213.722656 180.230469 214.558594 181.65625 215.75 181.898438 C 216.945312 182.140625 218.175781 181.460938 218.875 180.53125 C 219.570312 179.601562 219.84375 178.460938 220.105469 177.355469 C 220.695312 174.84375 221.289062 172.332031 221.878906 169.820312 C 223.054688 164.835938 222.460938 159.859375 221.6875 154.808594 C 220.96875 150.113281 219.785156 145.097656 215.308594 142.597656 C 211.71875 140.597656 205.441406 140.824219 202.390625 143.539062 " fill-opacity="1" fill-rule="nonzero"/><path fill="#ffd0a2" d="M 202.597656 175.1875 C 202.535156 175.203125 202.472656 175.222656 202.414062 175.238281 C 201.675781 175.425781 200.984375 176.078125 200.816406 176.832031 C 200.800781 176.90625 200.785156 176.984375 200.765625 177.054688 C 200.527344 178.136719 201 179.265625 202.0625 179.691406 C 203.171875 180.140625 204.160156 179.695312 204.851562 178.777344 C 205.199219 178.316406 205.277344 177.828125 205.316406 177.261719 C 205.417969 175.832031 203.867188 174.863281 202.597656 175.1875 " fill-opacity="1" fill-rule="nonzero"/><path fill="#ffd0a2" d="M 210.042969 176.785156 C 208.421875 176.984375 207.164062 178.136719 207.640625 179.886719 C 208.085938 181.535156 210.347656 181.777344 211.214844 180.355469 C 211.359375 180.109375 211.453125 179.851562 211.546875 179.589844 C 212.160156 178.464844 211.589844 176.59375 210.042969 176.785156 " fill-opacity="1" fill-rule="nonzero"/><path fill="#ffd0a2" d="M 218.792969 176.894531 C 218.757812 176.769531 218.726562 176.644531 218.699219 176.519531 C 218.464844 175.433594 217.1875 175.082031 216.296875 175.539062 C 215.871094 175.757812 215.632812 176.074219 215.347656 176.445312 C 214.511719 177.542969 215.546875 179.085938 216.726562 179.246094 C 218.050781 179.425781 219.128906 178.195312 218.792969 176.894531 " fill-opacity="1" fill-rule="nonzero"/><path fill="#ffd0a2" d="M 217.492188 154.027344 C 216.925781 151.449219 215.695312 147.957031 213.554688 146.273438 C 213.519531 146.246094 213.484375 146.238281 213.453125 146.210938 C 204.574219 139.710938 205.632812 158.625 206.382812 163.128906 C 206.695312 165 207.183594 166.933594 208.457031 168.339844 C 211.789062 172.007812 215.648438 168.445312 216.886719 165.023438 C 218.097656 161.679688 218.25 157.492188 217.492188 154.027344 " fill-opacity="1" fill-rule="nonzero"/><path fill="#544a46" d="M 242.421875 132.929688 C 239.621094 135.417969 238.710938 139.273438 238.921875 142.859375 C 239.132812 146.449219 240.300781 149.917969 241.050781 153.445312 C 241.796875 156.96875 242.101562 160.734375 240.640625 164.058594 C 240.097656 165.292969 239.320312 166.449219 239.023438 167.75 C 238.730469 169.050781 239.0625 170.613281 240.289062 171.304688 C 242.171875 172.363281 244.460938 170.785156 245.996094 169.320312 C 245.152344 170.484375 245.9375 172.222656 247.3125 172.808594 C 248.6875 173.394531 250.363281 173.019531 251.605469 172.21875 C 252.847656 171.421875 253.75 170.253906 254.625 169.113281 C 253.921875 170.054688 254.769531 171.496094 255.980469 171.742188 C 257.191406 171.984375 258.441406 171.296875 259.148438 170.355469 C 259.855469 169.417969 260.132812 168.265625 260.398438 167.144531 C 260.996094 164.601562 261.597656 162.0625 262.199219 159.519531 C 263.390625 154.476562 263.035156 149.445312 262.25 144.332031 C 261.519531 139.582031 260.074219 134.507812 255.527344 131.976562 C 251.886719 129.953125 245.519531 130.179688 242.421875 132.929688 " fill-opacity="1" fill-rule="nonzero"/><path fill="#ffd0a2" d="M 258.21875 146.269531 C 258.308594 143.058594 257.734375 139.902344 256.125 137.628906 C 254.816406 135.777344 252.296875 134.695312 250.089844 135.492188 C 244.117188 137.648438 245.515625 151.414062 246.78125 155.722656 C 247.109375 156.84375 247.539062 157.980469 248.363281 158.804688 C 249.472656 159.910156 251.25 160.28125 252.707031 159.710938 C 254.339844 159.070312 255.371094 157.460938 256.09375 155.867188 C 257.253906 153.300781 258.125 149.75 258.21875 146.269531 " fill-opacity="1" fill-rule="nonzero"/><path fill="#ffd0a2" d="M 242.703125 167.089844 C 240.914062 167.089844 240.910156 169.871094 242.703125 169.871094 C 244.496094 169.871094 244.5 167.089844 242.703125 167.089844 " fill-opacity="1" fill-rule="nonzero"/><path fill="#ffd0a2" d="M 249.632812 168.003906 C 247.421875 168.003906 247.417969 171.433594 249.632812 171.433594 C 251.839844 171.433594 251.84375 168.003906 249.632812 168.003906 " fill-opacity="1" fill-rule="nonzero"/><path fill="#ffd0a2" d="M 257.054688 167.390625 C 254.695312 167.390625 254.691406 171.054688 257.054688 171.054688 C 259.414062 171.054688 259.414062 167.390625 257.054688 167.390625 " fill-opacity="1" fill-rule="nonzero"/><g fill="#000000" fill-opacity="1"><g transform="translate(51.850586, 347.314938)"><g><path d="M 2.875 0 L 2.875 -21.390625 L 5.5 -21.390625 L 5.5 -11.984375 L 18.171875 -11.984375 L 18.171875 -21.390625 L 20.78125 -21.390625 L 20.78125 0 L 18.171875 0 L 18.171875 -9.703125 L 5.5 -9.703125 L 5.5 0 Z M 2.875 0 "/></g></g></g><g fill="#000000" fill-opacity="1"><g transform="translate(75.51714, 347.314938)"><g><path d="M 1.390625 0 L 3.734375 -3.96875 C 4.117188 -4.625 4.582031 -5.148438 5.125 -5.546875 C 5.675781 -5.953125 6.222656 -6.15625 6.765625 -6.15625 L 7.0625 -6.15625 L 7.0625 -6.03125 C 6.09375 -6.03125 5.226562 -6.203125 4.46875 -6.546875 C 3.71875 -6.890625 3.128906 -7.382812 2.703125 -8.03125 C 2.273438 -8.6875 2.0625 -9.46875 2.0625 -10.375 C 2.0625 -11.75 2.523438 -12.84375 3.453125 -13.65625 C 4.390625 -14.46875 5.785156 -14.875 7.640625 -14.875 L 14.6875 -14.875 L 14.6875 0 L 12.234375 0 L 12.234375 -5.609375 L 9.859375 -5.609375 C 9.035156 -5.609375 8.335938 -5.410156 7.765625 -5.015625 C 7.203125 -4.628906 6.75 -4.128906 6.40625 -3.515625 L 4.34375 0 Z M 8.125 -7.5 L 12.234375 -7.5 L 12.234375 -12.984375 L 8.125 -12.984375 C 6.914062 -12.984375 6.015625 -12.742188 5.421875 -12.265625 C 4.835938 -11.796875 4.546875 -11.125 4.546875 -10.25 C 4.546875 -9.382812 4.835938 -8.707031 5.421875 -8.21875 C 6.015625 -7.738281 6.914062 -7.5 8.125 -7.5 Z M 8.125 -7.5 "/></g></g></g><g fill="#000000" fill-opacity="1"><g transform="translate(92.842269, 347.314938)"><g><path d="M 2.640625 0 L 2.640625 -14.875 L 4.890625 -14.875 L 10.53125 -5.03125 L 16.171875 -14.875 L 18.421875 -14.875 L 18.421875 0 L 16.109375 0 L 16.109375 -11.59375 L 16.5 -11.59375 L 11.203125 -2.390625 L 9.859375 -2.390625 L 4.546875 -11.59375 L 4.953125 -11.59375 L 4.953125 0 Z M 2.640625 0 "/></g></g></g><g fill="#000000" fill-opacity="1"><g transform="translate(113.899431, 347.314938)"><g><path d="M 7.46875 0.265625 C 6.4375 0.265625 5.507812 0.0703125 4.6875 -0.3125 C 3.875 -0.707031 3.226562 -1.25 2.75 -1.9375 C 2.269531 -2.625 2.03125 -3.394531 2.03125 -4.25 C 2.03125 -5.363281 2.328125 -6.242188 2.921875 -6.890625 C 3.523438 -7.535156 4.484375 -7.992188 5.796875 -8.265625 C 7.109375 -8.535156 8.847656 -8.671875 11.015625 -8.671875 L 12.78125 -8.671875 L 12.78125 -6.953125 L 11.109375 -6.953125 C 9.898438 -6.953125 8.878906 -6.910156 8.046875 -6.828125 C 7.210938 -6.742188 6.539062 -6.601562 6.03125 -6.40625 C 5.53125 -6.21875 5.164062 -5.960938 4.9375 -5.640625 C 4.71875 -5.316406 4.609375 -4.90625 4.609375 -4.40625 C 4.609375 -3.570312 4.910156 -2.910156 5.515625 -2.421875 C 6.128906 -1.941406 6.929688 -1.703125 7.921875 -1.703125 C 8.773438 -1.703125 9.53125 -1.894531 10.1875 -2.28125 C 10.84375 -2.675781 11.367188 -3.207031 11.765625 -3.875 C 12.160156 -4.550781 12.359375 -5.300781 12.359375 -6.125 L 12.359375 -9.59375 C 12.359375 -10.800781 12.0625 -11.679688 11.46875 -12.234375 C 10.882812 -12.796875 9.976562 -13.078125 8.75 -13.078125 C 7.875 -13.078125 7.003906 -12.945312 6.140625 -12.6875 C 5.285156 -12.4375 4.40625 -12.03125 3.5 -11.46875 L 2.640625 -13.34375 C 3.210938 -13.726562 3.847656 -14.050781 4.546875 -14.3125 C 5.242188 -14.582031 5.960938 -14.785156 6.703125 -14.921875 C 7.453125 -15.066406 8.179688 -15.140625 8.890625 -15.140625 C 10.191406 -15.140625 11.28125 -14.9375 12.15625 -14.53125 C 13.039062 -14.125 13.710938 -13.492188 14.171875 -12.640625 C 14.640625 -11.796875 14.875 -10.707031 14.875 -9.375 L 14.875 0 L 12.53125 0 L 12.53125 -3.375 L 12.65625 -3.375 C 12.4375 -2.664062 12.085938 -2.035156 11.609375 -1.484375 C 11.128906 -0.941406 10.539062 -0.515625 9.84375 -0.203125 C 9.144531 0.109375 8.351562 0.265625 7.46875 0.265625 Z M 7.46875 0.265625 "/></g></g></g><g fill="#000000" fill-opacity="1"><g transform="translate(131.34593, 347.314938)"><g/></g></g><g fill="#000000" fill-opacity="1"><g transform="translate(139.477517, 347.314938)"><g><path d="M 2.640625 0 L 2.640625 -14.875 L 15.90625 -14.875 L 15.90625 0 L 13.328125 0 L 13.328125 -12.78125 L 5.21875 -12.78125 L 5.21875 0 Z M 2.640625 0 "/></g></g></g><g fill="#000000" fill-opacity="1"><g transform="translate(158.016318, 347.314938)"><g><path d="M 8.984375 0.265625 C 7.503906 0.265625 6.222656 -0.0507812 5.140625 -0.6875 C 4.066406 -1.320312 3.234375 -2.210938 2.640625 -3.359375 C 2.054688 -4.515625 1.765625 -5.882812 1.765625 -7.46875 C 1.765625 -9.019531 2.054688 -10.367188 2.640625 -11.515625 C 3.234375 -12.660156 4.066406 -13.550781 5.140625 -14.1875 C 6.222656 -14.820312 7.503906 -15.140625 8.984375 -15.140625 C 10.460938 -15.140625 11.742188 -14.820312 12.828125 -14.1875 C 13.910156 -13.550781 14.742188 -12.660156 15.328125 -11.515625 C 15.910156 -10.367188 16.203125 -9.019531 16.203125 -7.46875 C 16.203125 -5.882812 15.910156 -4.515625 15.328125 -3.359375 C 14.742188 -2.210938 13.910156 -1.320312 12.828125 -0.6875 C 11.742188 -0.0507812 10.460938 0.265625 8.984375 0.265625 Z M 8.984375 -1.84375 C 10.421875 -1.84375 11.550781 -2.335938 12.375 -3.328125 C 13.207031 -4.328125 13.625 -5.707031 13.625 -7.46875 C 13.625 -9.226562 13.207031 -10.59375 12.375 -11.5625 C 11.550781 -12.53125 10.421875 -13.015625 8.984375 -13.015625 C 7.546875 -13.015625 6.410156 -12.53125 5.578125 -11.5625 C 4.753906 -10.59375 4.34375 -9.226562 4.34375 -7.46875 C 4.34375 -5.707031 4.757812 -4.328125 5.59375 -3.328125 C 6.4375 -2.335938 7.566406 -1.84375 8.984375 -1.84375 Z M 8.984375 -1.84375 "/></g></g></g><g fill="#000000" fill-opacity="1"><g transform="translate(175.978629, 347.314938)"><g><path d="M 2.640625 5.46875 L 2.640625 -14.875 L 5.109375 -14.875 L 5.109375 -11.5 L 4.953125 -11.5 C 5.335938 -12.632812 6.007812 -13.523438 6.96875 -14.171875 C 7.925781 -14.816406 9.0625 -15.140625 10.375 -15.140625 C 11.738281 -15.140625 12.921875 -14.820312 13.921875 -14.1875 C 14.921875 -13.550781 15.695312 -12.660156 16.25 -11.515625 C 16.8125 -10.367188 17.09375 -9.007812 17.09375 -7.4375 C 17.09375 -5.894531 16.816406 -4.539062 16.265625 -3.375 C 15.722656 -2.21875 14.953125 -1.320312 13.953125 -0.6875 C 12.953125 -0.0507812 11.757812 0.265625 10.375 0.265625 C 9.082031 0.265625 7.96875 -0.0546875 7.03125 -0.703125 C 6.09375 -1.347656 5.429688 -2.207031 5.046875 -3.28125 L 5.21875 -3.28125 L 5.21875 5.46875 Z M 9.828125 -1.828125 C 11.265625 -1.828125 12.398438 -2.320312 13.234375 -3.3125 C 14.066406 -4.300781 14.484375 -5.6875 14.484375 -7.46875 C 14.484375 -9.25 14.066406 -10.625 13.234375 -11.59375 C 12.398438 -12.5625 11.265625 -13.046875 9.828125 -13.046875 C 8.421875 -13.046875 7.296875 -12.5625 6.453125 -11.59375 C 5.609375 -10.625 5.1875 -9.25 5.1875 -7.46875 C 5.1875 -5.6875 5.609375 -4.300781 6.453125 -3.3125 C 7.296875 -2.320312 8.421875 -1.828125 9.828125 -1.828125 Z M 9.828125 -1.828125 "/></g></g></g><g fill="#000000" fill-opacity="1"><g transform="translate(194.790502, 347.314938)"><g><path d="M 5.125 0 L 5.125 -12.75 L 0.328125 -12.75 L 0.328125 -14.875 L 7.703125 -14.875 L 7.703125 -9.65625 L 12.46875 -9.65625 C 14.414062 -9.65625 15.882812 -9.238281 16.875 -8.40625 C 17.863281 -7.570312 18.359375 -6.390625 18.359375 -4.859375 C 18.359375 -3.867188 18.128906 -3.007812 17.671875 -2.28125 C 17.222656 -1.550781 16.554688 -0.988281 15.671875 -0.59375 C 14.796875 -0.195312 13.726562 0 12.46875 0 Z M 7.703125 -1.875 L 12.203125 -1.875 C 13.347656 -1.875 14.238281 -2.113281 14.875 -2.59375 C 15.519531 -3.070312 15.84375 -3.828125 15.84375 -4.859375 C 15.84375 -5.890625 15.519531 -6.628906 14.875 -7.078125 C 14.238281 -7.535156 13.347656 -7.765625 12.203125 -7.765625 L 7.703125 -7.765625 Z M 7.703125 -1.875 "/></g></g></g><g fill="#000000" fill-opacity="1"><g transform="translate(214.603646, 347.314938)"><g><path d="M 12.40625 0 L 12.40625 -6.0625 C 11.820312 -5.695312 11.195312 -5.421875 10.53125 -5.234375 C 9.863281 -5.046875 9.144531 -4.953125 8.375 -4.953125 C 6.914062 -4.953125 5.71875 -5.1875 4.78125 -5.65625 C 3.84375 -6.132812 3.148438 -6.828125 2.703125 -7.734375 C 2.253906 -8.648438 2.03125 -9.773438 2.03125 -11.109375 L 2.03125 -14.875 L 4.609375 -14.875 L 4.609375 -11.28125 C 4.609375 -10.351562 4.742188 -9.582031 5.015625 -8.96875 C 5.296875 -8.351562 5.734375 -7.890625 6.328125 -7.578125 C 6.921875 -7.273438 7.710938 -7.125 8.703125 -7.125 C 9.453125 -7.125 10.117188 -7.207031 10.703125 -7.375 C 11.296875 -7.550781 11.851562 -7.820312 12.375 -8.1875 L 12.375 -14.875 L 14.953125 -14.875 L 14.953125 0 Z M 12.40625 0 "/></g></g></g><g fill="#000000" fill-opacity="1"><g transform="translate(232.201861, 347.314938)"><g><path d="M 2.640625 0 L 2.640625 -14.875 L 5.21875 -14.875 L 5.21875 -8.671875 L 8.015625 -8.671875 L 12.953125 -14.875 L 15.8125 -14.875 L 10.078125 -7.640625 L 9.46875 -8.375 C 10.050781 -8.3125 10.554688 -8.164062 10.984375 -7.9375 C 11.410156 -7.71875 11.816406 -7.382812 12.203125 -6.9375 C 12.585938 -6.5 13.007812 -5.90625 13.46875 -5.15625 L 16.5625 0 L 13.8125 0 L 11.078125 -4.453125 C 10.753906 -5.003906 10.4375 -5.4375 10.125 -5.75 C 9.820312 -6.0625 9.472656 -6.285156 9.078125 -6.421875 C 8.691406 -6.566406 8.195312 -6.640625 7.59375 -6.640625 L 5.21875 -6.640625 L 5.21875 0 Z M 2.640625 0 "/></g></g></g><g fill="#000000" fill-opacity="1"><g transform="translate(248.98084, 347.314938)"><g><path d="M 2.640625 0 L 2.640625 -14.875 L 5.03125 -14.875 L 5.03125 -2.828125 L 4.578125 -2.828125 L 13.59375 -14.875 L 15.90625 -14.875 L 15.90625 0 L 13.5 0 L 13.5 -12.078125 L 13.984375 -12.078125 L 4.953125 0 Z M 2.640625 0 "/></g></g></g><g fill="#000000" fill-opacity="1"><g transform="translate(267.519648, 347.314938)"><g/></g></g><g fill="#000000" fill-opacity="1"><g transform="translate(275.651227, 347.314938)"><g><path d="M 5.828125 0 L 5.828125 -12.75 L 0.328125 -12.75 L 0.328125 -14.875 L 13.921875 -14.875 L 13.921875 -12.75 L 8.40625 -12.75 L 8.40625 0 Z M 5.828125 0 "/></g></g></g><g fill="#000000" fill-opacity="1"><g transform="translate(289.972523, 347.314938)"><g><path d="M 4.4375 5.46875 L 7.21875 -0.84375 L 7.21875 0.640625 L 0.609375 -14.875 L 3.40625 -14.875 L 8.46875 -2.21875 L 8.015625 -2.21875 L 13.109375 -14.875 L 15.8125 -14.875 L 7.140625 5.46875 Z M 4.4375 5.46875 "/></g></g></g><g fill="#000000" fill-opacity="1"><g transform="translate(306.357066, 347.314938)"><g><path d="M 2.640625 0 L 2.640625 -14.875 L 5.21875 -14.875 L 5.21875 -8.671875 L 8.015625 -8.671875 L 12.953125 -14.875 L 15.8125 -14.875 L 10.078125 -7.640625 L 9.46875 -8.375 C 10.050781 -8.3125 10.554688 -8.164062 10.984375 -7.9375 C 11.410156 -7.71875 11.816406 -7.382812 12.203125 -6.9375 C 12.585938 -6.5 13.007812 -5.90625 13.46875 -5.15625 L 16.5625 0 L 13.8125 0 L 11.078125 -4.453125 C 10.753906 -5.003906 10.4375 -5.4375 10.125 -5.75 C 9.820312 -6.0625 9.472656 -6.285156 9.078125 -6.421875 C 8.691406 -6.566406 8.195312 -6.640625 7.59375 -6.640625 L 5.21875 -6.640625 L 5.21875 0 Z M 2.640625 0 "/></g></g></g></svg>